<?xml version="1.0" encoding="UTF-8" standalone="no"?>
<!-- Created with Inkscape (http://www.inkscape.org/) -->

<svg
   width="255.66739mm"
   height="180.06636mm"
   viewBox="0 0 255.66739 180.06636"
   version="1.1"
   id="svg6956"
   inkscape:version="1.1.1 (3bf5ae0d25, 2021-09-20)"
   sodipodi:docname="lotus.svg"
   xmlns:inkscape="http://www.inkscape.org/namespaces/inkscape"
   xmlns:sodipodi="http://sodipodi.sourceforge.net/DTD/sodipodi-0.dtd"
   xmlns="http://www.w3.org/2000/svg"
   xmlns:svg="http://www.w3.org/2000/svg">
  <sodipodi:namedview
     id="namedview6958"
     pagecolor="#ffffff"
     bordercolor="#666666"
     borderopacity="1.0"
     inkscape:pageshadow="2"
     inkscape:pageopacity="0.0"
     inkscape:pagecheckerboard="0"
     inkscape:document-units="mm"
     showgrid="false"
     fit-margin-top="0"
     fit-margin-left="0"
     fit-margin-right="0"
     fit-margin-bottom="0"
     inkscape:zoom="0.70387986"
     inkscape:cx="12.786273"
     inkscape:cy="581.77542"
     inkscape:window-width="2560"
     inkscape:window-height="1346"
     inkscape:window-x="-11"
     inkscape:window-y="-11"
     inkscape:window-maximized="1"
     inkscape:current-layer="layer1" />
  <defs
     id="defs6953" />
  <g
     inkscape:label="F.SilkS"
     inkscape:groupmode="layer"
     id="layer1"
     transform="translate(26.053135,6.1650857)">
    <path
       style="fill:#000000;stroke-width:0.264583"
       d="m 100.94687,173.17558 c -12.481175,-9.61252 -21.650455,-20.64633 -24.672105,-29.68903 -1.08096,-3.23493 -1.36869,-4.98763 -1.34648,-8.20208 0.0176,-2.5457 0.13856,-3.41007 0.74063,-5.29167 0.39578,-1.23693 1.0115,-2.75498 1.36826,-3.37344 l 0.64866,-1.12448 h 11.63731 11.637315 l -0.38233,0.73934 c -0.828245,1.60164 -1.280145,4.09667 -1.145515,6.32466 0.11863,1.96328 0.26996,2.45307 1.594025,5.15938 1.82231,3.72467 2.33563,5.76655 2.54764,10.13391 l 0.16698,3.43959 0.38874,-1.5875 c 0.256,-1.04544 0.38045,-2.85233 0.36447,-5.29167 -0.0213,-3.24077 -0.11301,-3.98551 -0.73358,-5.95312 -1.44797,-4.591 -2.02027,-7.18882 -2.02027,-9.17055 0,-1.9183 0.43355,-3.5402 1.04782,-3.91983 0.16944,-0.10472 6.20911,-0.18121 13.42149,-0.16999 12.22491,0.019 13.13706,0.0522 13.4623,0.48883 0.69109,0.92787 1.99253,3.83266 2.43785,5.44128 0.33946,1.22618 0.45183,2.64624 0.44397,5.61046 -0.0116,4.36629 -0.33183,5.87903 -2.10401,9.93879 -3.12877,7.16746 -9.97963,14.66415 -19.84588,21.71675 -2.87362,2.05412 -8.24734,5.52327 -8.52881,5.506 -0.11134,-0.007 -0.61916,-0.33337 -1.12848,-0.72563 z M 29.967435,147.98854 c -7.69439,-0.7473 -15.95457,-2.79612 -22.6830697,-5.6262 -2.16114,-0.909 -7.61138004,-3.52175 -7.90308004,-3.7886 -0.16707,-0.15284 1.82836004,-3.83963 3.30099004,-6.09897 5.78753,-8.87938 14.1798297,-15.86008 23.1534797,-19.25903 1.65668,-0.62751 3.80991,-1.34017 4.78496,-1.58369 l 1.7728,-0.44278 4.97407,2.47104 c 5.56436,2.76428 11.64073,5.3811 14.63136,6.30105 1.09141,0.33573 2.08887,0.69747 2.21659,0.80387 0.28273,0.23554 -4.68023,2.75335 -8.53216,4.32854 -3.96085,1.61972 -7.26305,2.71029 -10.41603,3.43995 -3.60404,0.83405 -2.07232,0.83245 2.71537,-0.003 6.55861,-1.14424 11.32454,-2.57937 16.27383,-4.90044 l 2.1253,-0.9967 7.53199,0.85259 c 4.14259,0.46893 7.51714,0.96385 7.49899,1.09984 -0.0181,0.13598 -0.35392,1.2928 -0.74616,2.5707 -1.25889,4.10139 -1.99897,8.1747 -1.99897,11.00216 v 2.60804 l -2.16923,0.99158 c -6.10365,2.79005 -12.45189,4.6536 -19.39431,5.69328 -4.18664,0.62698 -13.27581,0.91159 -17.13672,0.5366 z m 130.378385,-0.0212 c -7.91069,-0.73794 -16.68045,-3.07081 -23.90494,-6.35901 l -1.94453,-0.88504 0.16808,-1.26699 c 0.29534,-2.22647 -0.61939,-7.62053 -2.13686,-12.60063 -0.37055,-1.21611 -0.57335,-2.29831 -0.45066,-2.40491 0.1227,-0.1066 3.52744,-0.56263 7.5661,-1.01341 l 7.34302,-0.8196 2.71115,1.28064 c 3.23844,1.52972 5.59911,2.34966 9.85489,3.42295 3.68624,0.92966 7.01956,1.53496 9.57273,1.73835 l 1.80435,0.14373 -2.33861,-0.52582 c -2.92475,-0.65761 -8.50786,-2.51364 -11.96341,-3.97708 -3.71127,-1.57173 -7.86837,-3.73647 -7.61099,-3.9633 0.11945,-0.10527 0.8125,-0.34798 1.5401,-0.53934 2.43857,-0.64136 8.32057,-3.13301 14.41498,-6.10626 l 6.04314,-2.94825 2.7925,0.82364 c 10.57419,3.11883 19.7423,10.02381 26.31783,19.82132 1.70684,2.54319 3.74508,6.1484 3.74508,6.62423 0,0.34842 -2.30002,1.54059 -6.40575,3.3203 -6.74908,2.92552 -13.63108,4.86179 -20.84633,5.86517 -3.65667,0.50851 -12.60301,0.71156 -16.27187,0.36931 z M 97.242695,123.44468 c -9.57602,-0.43315 -19.58938,-3.54416 -26.57076,-8.25514 -10.50179,-7.08654 -18.11997,-19.182965 -20.78789,-33.007785 -0.8118,-4.20666 -0.76164,-4.40663 0.63816,-2.54448 1.37031,1.82292 5.05476,5.42374 7.71749,7.54234 5.22263,4.15538 10.65659,7.46599 18.89467,11.5115 6.91042,3.393525 9.57163,5.014715 12.28238,7.482335 3.90192,3.55195 6.27476,6.91552 8.09229,11.47105 0.82884,2.07745 1.67246,5.68461 1.35714,5.80289 -0.0926,0.0347 -0.82312,0.0335 -1.62348,-0.003 z m 7.229615,-1.14919 c 0.49222,-4.15599 3.60661,-10.15735 7.31397,-14.09385 3.55802,-3.77791 6.32631,-5.62459 13.94737,-9.304045 7.63646,-3.68689 12.37064,-6.48916 17.7413,-10.50148 3.14352,-2.34846 7.77426,-6.77213 9.34027,-8.9226 0.63504,-0.87203 1.18805,-1.55208 1.22893,-1.51121 0.15321,0.15322 -0.6776,4.63819 -1.35185,7.29764 -3.8358,15.129705 -12.93557,26.926185 -25.41939,32.952385 -6.14006,2.96393 -13.72733,4.84238 -21.13126,5.23166 l -1.81667,0.0955 z m -25.882735,0.90639 c -22.21239,-1.06737 -41.95868,-8.67816 -55.88195,-21.53851 -1.48539,-1.37199 -5.34496,-5.352025 -8.57683,-8.844525 -3.23187,-3.4925 -8.5083697,-8.96937 -11.7255597,-12.17083 -11.28659,-11.23141 -16.6640303,-14.682922 -26.4078503,-16.949896 -1.12778,-0.262387 -2.05052,-0.548658 -2.05052,-0.636158 0,-0.258046 3.42057,-1.512867 5.6977,-2.090182 3.52518,-0.893726 6.54812,-1.175398 10.8387603,-1.009936 11.89749,0.458814 22.9230697,5.685748 34.1709297,16.199522 2.37079,2.21606 3.17108,3.16113 4.07544,4.81273 2.07704,3.7932 6.31727,9.82254 10.00468,14.226 4.86297,5.807325 13.06035,13.224935 18.68853,16.910805 4.27297,2.79835 3.33298,2.47672 -2.11667,-0.72425 -11.89988,-6.98966 -24.09747,-16.802235 -32.94759,-26.505305 -2.01864,-2.21319 -1.53395,-1.39025 1.16875,1.98438 4.09035,5.10727 10.74005,11.58064 16.69759,16.254815 3.24336,2.54467 9.89356,6.95132 13.60631,9.01601 8.32727,4.63087 18.31169,8.41468 27.09259,10.26733 1.72043,0.36299 3.19879,0.73071 3.28524,0.81716 0.15069,0.15069 -2.25557,0.14248 -5.61955,-0.0192 z m 40.613545,-0.069 c 0.21828,-0.15163 0.64525,-0.27751 0.94882,-0.27974 0.93496,-0.007 9.59487,-2.29829 12.80951,-3.38942 16.54666,-5.61635 32.53732,-16.33079 44.27107,-29.663545 2.75128,-3.12621 5.206,-6.19462 5.206,-6.50751 0,-0.0955 -0.62235,0.52049 -1.383,1.36896 -8.4537,9.42967 -20.15029,18.988635 -31.70997,25.914755 -3.68619,2.20863 -6.16757,3.55833 -5.66848,3.08326 0.14552,-0.13852 1.27662,-0.93897 2.51354,-1.77879 4.50742,-3.06032 7.90663,-5.93008 12.70434,-10.72555 6.4755,-6.472465 10.56364,-11.665365 14.87084,-18.889415 1.92528,-3.22911 2.49836,-3.95931 4.73403,-6.03201 11.89538,-11.02826 23.63343,-16.355614 36.03721,-16.355614 4.7086,0 10.17377,1.054283 13.78051,2.658388 l 1.29672,0.57672 -3.41339,0.863045 c -11.18778,2.828724 -16.93595,7.311531 -37.21773,29.024881 -3.89478,4.16969 -8.06196,8.446795 -9.26041,9.504695 -12.62077,11.14059 -29.48782,18.14492 -48.61336,20.18752 -4.8936,0.52264 -12.42628,0.80061 -11.90625,0.43937 z m -18.2132,-3.52494 c -1.822355,-5.69915 -5.878425,-11.62247 -10.285865,-15.02105 -0.71897,-0.55439 -0.91439,-0.96147 -1.26686,-2.63897 -2.30904,-10.989505 -1.17812,-26.124105 3.03208,-40.576946 0.98803,-3.391751 3.09412,-9.522581 3.63422,-10.579279 0.21146,-0.413705 0.31897,-0.817687 0.23892,-0.897737 -0.19094,-0.190942 -2.29463,4.310319 -3.76148,8.048416 -4.29144,10.936251 -6.43007,25.401771 -5.66923,38.346161 0.16049,2.73053 0.36361,5.250665 0.45136,5.600295 0.14427,0.57484 0.01,0.52199 -1.40206,-0.55191 -0.8589,-0.65319 -2.89277,-1.923995 -4.51972,-2.824005 l -2.95809,-1.63639 -0.18235,-1.21599 c -0.10029,-0.66879 -0.11377,-2.89145 -0.03,-4.93924 0.43147,-10.5418 4.85804,-24.605024 13.20601,-41.955533 3.65924,-7.605398 9.735305,-18.787896 10.206235,-18.783745 0.21814,0.0019 0.38172,0.279057 3.4348,5.819162 10.73424,19.478293 17.70439,37.441616 19.50616,50.270836 0.37904,2.69889 0.5384,9.37948 0.2494,10.45486 -0.0932,0.34685 -1.01863,0.97943 -2.64986,1.81136 -1.37864,0.70311 -3.40441,1.922515 -4.50171,2.709785 -1.28765,0.92385 -1.94451,1.26665 -1.85247,0.96676 0.28566,-0.93069 0.68783,-7.381965 0.68783,-11.033515 0,-14.11506 -3.39675,-29.503126 -8.70538,-39.437378 -0.97513,-1.824816 -0.94224,-1.690423 0.68,2.778125 2.50857,6.910019 5.01106,17.258303 5.95043,24.606253 0.47983,3.75328 0.47769,16.25175 -0.003,19.44687 -0.73141,4.858375 -0.93964,5.444975 -2.34258,6.599165 -4.39937,3.61937 -7.85714,8.73177 -9.71852,14.36906 -0.39641,1.20055 -0.74186,2.18281 -0.76768,2.18281 -0.0258,0 -0.32295,-0.8632 -0.6603,-1.91823 z m -29.147225,-1.68801 c -2.97559,-1.09962 -10.06803,-4.74113 -13.09254,-6.72217 -17.94164,-11.751695 -30.72419,-29.973525 -37.39383,-53.305808 -1.73455,-6.067959 -1.79911,-5.848598 0.91664,-3.114394 2.94484,2.964836 5.60907,5.085392 10.14682,8.076208 3.65595,2.409629 12.63307,7.078499 13.61098,7.078869 0.29932,1.2e-4 1.26341,0.34044 2.14241,0.75629 2.79916,1.32424 4.75326,4.10065 5.54311,7.8757 0.40438,1.93272 0.33768,2.35213 -0.24463,1.5383 -0.20196,-0.28226 -1.04003,-1.34664 -1.86238,-2.36529 -0.82234,-1.01864 -1.98062,-2.59622 -2.57396,-3.50573 -0.59334,-0.9095 -1.13965,-1.65364 -1.21403,-1.65364 -0.22834,0 0.19873,5.79874 0.6333,8.59895 1.54096,9.92926 5.58886,18.923925 11.83128,26.289755 2.97096,3.50563 7.81589,7.60908 11.34851,9.6117 2.95932,1.67762 3.00845,1.87604 0.20832,0.84126 z m 58.746135,-0.17208 c 11.94808,-6.95319 20.09752,-18.213645 23.40319,-32.337295 0.85775,-3.66474 1.19829,-6.0883 1.37559,-9.78959 l 0.15209,-3.175 -1.09099,1.5875 c -0.60004,0.87313 -1.95495,2.68238 -3.01089,4.02055 -2.12613,2.69439 -2.40218,2.65417 -1.66263,-0.24222 1.13039,-4.42704 3.3193,-6.68079 7.78743,-8.01811 1.61769,-0.48418 7.55825,-3.407838 10.7407,-5.286059 4.68617,-2.765693 8.88072,-5.96895 12.54664,-9.581505 1.37086,-1.350906 2.51492,-2.456193 2.54235,-2.456193 0.0939,0 -1.49067,5.686679 -2.43298,8.73125 -2.53423,8.187987 -7.25775,18.288287 -11.75573,25.137247 -8.23061,12.53257 -18.80548,22.257885 -31.04972,28.555315 -2.62962,1.35246 -8.2939,3.73681 -8.82302,3.714 -0.10223,-0.004 0.47286,-0.39135 1.27797,-0.85989 z m -60.644335,-25.157195 -6.26382,-3.47594 -0.41377,-1.71979 c -1.72763,-7.18064 -3.15876,-17.06329 -3.50301,-24.190055 -0.13202,-2.733013 -0.24252,-3.518977 -0.42777,-3.042708 -0.32759,0.842224 -0.0486,8.187632 0.46912,12.352503 0.46759,3.76142 1.46689,9.3152 2.34974,13.05915 0.33913,1.43817 0.5637,2.61486 0.49904,2.61486 -0.39449,0 -4.20407,-2.89812 -5.17738,-3.93867 -2.89505,-3.09504 -5.46254,-14.5712 -6.26418,-27.999538 -0.30549,-5.117312 -0.35393,-12.872037 -0.10071,-16.124436 l 0.16796,-2.157439 1.11307,0.477118 c 3.48807,1.49516 9.33749,5.895438 14.47176,10.886514 5.88719,5.722982 14.23857,15.585016 14.23857,16.814125 0,0.682707 -1.02789,3.852436 -1.91416,5.902746 l -0.51466,1.19062 -6.89895,-7.011454 c -7.24979,-7.368013 -7.78815,-7.746486 -1.89464,-1.331947 1.37673,1.498434 5.69189,6.298391 7.72923,8.597581 0.75856,0.85605 1.07838,1.42362 0.96083,1.70512 -0.50732,1.2149 -1.45817,5.53555 -1.83638,8.34442 -0.29979,2.22653 -0.40415,4.60861 -0.3455,7.88673 0.0462,2.58318 0.0245,4.68313 -0.0483,4.66656 -0.0728,-0.0166 -2.95101,-1.5943 -6.39612,-3.50607 z m 57.024585,-1.7413 c -0.0256,-5.54425 -0.37463,-8.50398 -1.54257,-13.0795 -0.36693,-1.43749 -0.66714,-2.75688 -0.66714,-2.93198 0,-0.28096 3.57012,-4.36769 10.41048,-11.916905 3.94853,-4.357714 2.99593,-3.503322 -3.77719,3.387767 -3.69076,3.755038 -6.79974,6.731608 -6.90884,6.614588 -0.35009,-0.37551 -2.08294,-5.266703 -2.24245,-6.329605 -0.14794,-0.985803 -0.0514,-1.154031 2.4122,-4.201917 3.91201,-4.839901 7.3333,-8.609962 11.65557,-12.84379 5.5833,-5.469041 9.58509,-8.573757 13.77359,-10.685976 l 1.79643,-0.90592 0.20543,0.708467 c 0.28675,0.988949 0.0324,19.155547 -0.31552,22.536594 -0.6744,6.553398 -1.75725,12.446507 -3.10866,16.918107 -1.42814,4.72547 -1.91234,5.56504 -4.31649,7.48447 -1.14279,0.91239 -2.46335,1.88484 -2.93457,2.16102 l -0.85678,0.50213 0.16287,-0.76672 c 0.0896,-0.42169 0.52628,-2.43359 0.97046,-4.47088 1.42526,-6.53712 2.14359,-12.18873 2.28677,-17.991669 0.14826,-6.008587 -0.25359,-6.676916 -0.53071,-0.882642 -0.20448,4.275381 -0.96112,10.548231 -1.89368,15.699311 -0.70724,3.9065 -1.8264,9.07415 -2.00109,9.23982 -0.085,0.0806 -7.25136,4.04098 -11.48822,6.3488 l -1.06603,0.58066 -0.0239,-5.17423 z m -80.700635,-22.585072 -4.2753,-2.136659 -1.46715,-3.058535 c -6.27271,-13.076555 -10.24375,-26.421876 -11.57796,-38.909577 -0.56644,-5.301684 -0.29857,-16.1616293 0.41628,-16.8764743 0.25986,-0.259866 3.03779,0.738926 5.31688,1.911665 11.67808,6.0091083 26.08158,21.8208013 40.38521,44.3335593 3.45065,5.431049 3.78481,6.10536 2.03232,4.101041 -2.09427,-2.395199 -9.61463,-9.86536 -11.91677,-11.837215 -4.32255,-3.702404 -9.4495,-7.284553 -13.3153,-9.303273 l -1.85208,-0.967158 -0.35939,0.867365 c -1.22612,2.959224 -1.10882,11.210385 0.37843,26.619265 0.36982,3.831569 0.63589,7.062378 0.59126,7.179568 -0.0446,0.1172 -2.00502,-0.74841 -4.35643,-1.923572 z m 106.364935,0.960402 c 1.02939,-7.90672 1.84468,-20.690092 1.69551,-26.584882 -0.1299,-5.133687 -0.50093,-7.046555 -1.33788,-6.897582 -0.57624,0.102571 -4.49153,2.291528 -6.39973,3.577963 -6.32705,4.265446 -13.65006,10.791722 -19.95055,17.779952 l -1.90835,2.116667 1.7697,-2.910417 c 15.55086,-25.574624 33.41719,-44.564456 45.89116,-48.7769823 1.85196,-0.625419 1.70203,-0.846875 2.09762,3.0982463 0.4789,4.775912 0.18008,12.677337 -0.67105,17.744224 -2.01158,11.975209 -5.10159,21.854094 -10.46379,33.453213 l -1.93968,4.195783 -4.47459,2.240217 -4.47458,2.240218 z M 120.45172,63.55611 c -0.20861,-0.494848 -1.30218,-2.983317 -2.43016,-5.529932 -1.12798,-2.546614 -3.34764,-7.560019 -4.93258,-11.1409 -1.58493,-3.580879 -2.8817,-6.655713 -2.8817,-6.83296 0,-1.193538 4.05053,-10.219642 7.14336,-15.918097 1.58086,-2.912698 6.42764,-11.204931 6.7731,-11.587933 0.41558,-0.460737 1.68066,2.398624 2.44571,5.527808 1.26894,5.190272 2.15463,16.280283 2.15731,27.012637 10e-4,5.165564 -0.027,5.474745 -0.54327,5.941981 -0.86515,0.782949 -2.99799,4.485399 -5.26212,9.13466 L 120.831,64.455833 Z M 80.820835,61.006006 c -1.8519,-4.00484 -4.52116,-8.677016 -5.58337,-9.772944 l -0.83366,-0.860115 0.16641,-7.616614 c 0.335,-15.332074 1.56805,-25.140551 3.68386,-29.303774 l 0.64129,-1.261853 1.33324,2.081799 c 4.62835,7.226992 11.48626,20.776267 12.57368,24.842016 0.2635,0.9852 0.22633,1.292432 -0.30754,2.54168 -0.78731,1.842307 -7.53752,17.119319 -8.40221,19.01581 -0.36492,0.800365 -0.84256,1.901693 -1.06144,2.447396 -0.21886,0.545703 -0.4826,0.992188 -0.58606,0.992188 -0.10347,0 -0.83436,-1.397516 -1.6242,-3.105589 z M 107.46203,35.88602 c -2.30728,-4.04381 -4.5267,-7.177794 -5.34823,-7.552113 -0.5771,-0.262943 -0.75761,-0.193834 -1.59005,0.608764 -0.891905,0.85993 -3.889385,5.383387 -5.552755,8.379592 -0.42406,0.763836 -0.84146,1.388914 -0.92756,1.389062 -0.0861,1.48e-4 -0.30511,-0.505745 -0.48666,-1.124209 -0.71846,-2.447406 -3.85787,-9.17929 -6.71769,-14.404848 l -1.47602,-2.697035 1.05896,-2.44157 c 2.63373,-6.072364 6.60096,-13.1885173 9.98794,-17.91571026 2.06254,-2.87869004 4.798305,-6.18919604 5.198365,-6.29047804 0.57703,-0.146087 5.24518,5.98814504 8.37668,11.007454 2.1405,3.430902 5.37528,9.6003583 6.82072,13.0086733 l 1.08468,2.557632 -2.76549,5.379868 c -2.98671,5.810232 -4.41773,8.922771 -5.31028,11.550126 l -0.56812,1.672341 z"
       id="path7111" />
  </g>
</svg>
