<?xml version="1.0" encoding="UTF-8" standalone="no"?>
<!-- Created with Inkscape (http://www.inkscape.org/) -->

<svg
   inkscape:version="1.1.1 (3bf5ae0d25, 2021-09-20)"
   sodipodi:docname="plains_walker_back_simp2.svg"
   id="svg5"
   version="1.1"
   viewBox="0 0 43.836208 65.000004"
   height="65.000008mm"
   width="43.836208mm"
   xmlns:inkscape="http://www.inkscape.org/namespaces/inkscape"
   xmlns:sodipodi="http://sodipodi.sourceforge.net/DTD/sodipodi-0.dtd"
   xmlns="http://www.w3.org/2000/svg"
   xmlns:svg="http://www.w3.org/2000/svg">
  <sodipodi:namedview
     id="namedview7"
     pagecolor="#ffffff"
     bordercolor="#666666"
     borderopacity="1.0"
     inkscape:pageshadow="2"
     inkscape:pageopacity="0.0"
     inkscape:pagecheckerboard="0"
     inkscape:document-units="mm"
     showgrid="false"
     inkscape:zoom="3.2362872"
     inkscape:cx="71.996082"
     inkscape:cy="152.64405"
     inkscape:window-width="2560"
     inkscape:window-height="1346"
     inkscape:window-x="-11"
     inkscape:window-y="-11"
     inkscape:window-maximized="1"
     inkscape:current-layer="layer4"
     fit-margin-top="0"
     fit-margin-left="0"
     fit-margin-right="0"
     fit-margin-bottom="0" />
  <defs
     id="defs2" />
  <g
     inkscape:groupmode="layer"
     id="layer5"
     inkscape:label="F.SilkS"
     style="display:inline"
     transform="translate(-1.7756325,-2.4818971)">
    <path
       style="fill:#000000;stroke-width:0.156824"
       d="m 19.568508,67.327894 c 0.0015,-0.129389 0.104819,-0.940934 0.229786,-1.803458 0.124969,-0.862524 0.228581,-1.611774 0.23026,-1.665002 0.0031,-0.09564 -1.177438,-0.92257 -1.316974,-0.92257 -0.03971,0 -0.119912,0.318432 -0.178282,0.707632 -0.05835,0.389194 -0.178839,0.752572 -0.267713,0.8075 -0.102063,0.06309 -0.128232,-0.03875 -0.07104,-0.276367 0.338744,-1.407106 0.329169,-1.465537 -0.288464,-1.760063 -0.318621,-0.151941 -0.591961,-0.255588 -0.607418,-0.230328 -0.0154,0.02526 -0.190743,0.738151 -0.389519,1.584203 -0.198781,0.846053 -0.396006,1.503687 -0.438281,1.46141 -0.04228,-0.04228 0.07652,-0.750217 0.264011,-1.573206 0.187483,-0.822984 0.299798,-1.562805 0.249592,-1.644042 -0.05023,-0.08122 -0.02307,-0.171382 0.06035,-0.200307 0.143038,-0.04961 0.648464,-1.720579 0.552836,-1.827721 -0.08391,-0.09403 -1.33315,0.335609 -1.475887,0.507595 -0.0783,0.09434 -0.188055,0.353626 -0.243919,0.576198 -0.08902,0.354693 -0.03733,0.426117 0.418657,0.578301 l 0.520218,0.173626 -0.561805,-0.08203 c -0.523842,-0.07649 -0.573937,-0.04674 -0.741288,0.440167 l -0.179488,0.522197 0.08023,-0.57921 c 0.07742,-0.559011 0.05952,-0.58496 -0.51329,-0.744033 -0.873395,-0.242541 -0.914813,-0.225612 -1.195342,0.488544 -0.141534,0.360311 -0.294305,0.618141 -0.33949,0.572956 -0.04519,-0.04518 0.02463,-0.33772 0.155131,-0.650077 0.307646,-0.7363 0.318656,-0.704849 -0.27238,-0.778195 l -0.509673,-0.06325 0.506485,-0.0251 c 0.611272,-0.03029 0.743311,-0.263569 1.858383,-3.28331 0.422849,-1.145123 0.793323,-2.008525 0.823275,-1.918665 0.02996,0.08986 -0.312088,1.123804 -0.760089,2.297661 -1.221579,3.200786 -1.196222,2.973332 -0.355097,3.185131 0.390274,0.09828 0.726615,0.157859 0.747427,0.132408 0.02081,-0.02545 0.299363,-0.893107 0.619,-1.928137 0.319639,-1.035028 0.613254,-1.980181 0.652477,-2.100342 0.03923,-0.120172 0.104793,-0.184997 0.14569,-0.144095 0.04089,0.04089 -0.101894,0.663289 -0.317336,1.383073 -0.215441,0.719783 -0.391711,1.374482 -0.391711,1.454884 0,0.08065 0.193388,0.09863 0.431262,0.04015 0.865035,-0.212681 1.058431,-0.463438 1.351757,-1.752687 0.370009,-1.626288 0.427462,-1.819509 0.514993,-1.731973 0.04062,0.04062 -0.07169,0.686643 -0.249552,1.435603 -0.177874,0.748956 -0.323412,1.393561 -0.323412,1.432453 0,0.0389 0.281658,-0.09016 0.625905,-0.286821 0.557323,-0.318358 0.636913,-0.439541 0.726371,-1.10596 0.05527,-0.411635 0.161737,-0.786293 0.236618,-0.832573 0.173813,-0.107419 0.171736,0.04762 -0.0091,0.67819 -0.07989,0.278587 -0.08719,0.542421 -0.01615,0.586296 0.07099,0.04387 0.535485,-0.3592 1.032208,-0.895719 0.496722,-0.536521 0.82844,-0.836103 0.737149,-0.665743 -0.30028,0.560359 -1.512805,1.654158 -2.470418,2.228518 -0.517512,0.310398 -0.950332,0.570216 -0.961819,0.577375 -0.01144,0.0072 -0.07281,0.255055 -0.136268,0.550881 l -0.115375,0.537864 0.841971,-0.661448 c 0.463083,-0.363797 1.476314,-1.276252 2.251621,-2.027678 0.775306,-0.751426 1.276004,-1.207447 1.112657,-1.013378 -0.350755,0.416725 -0.309528,0.427919 0.433131,0.117611 0.309647,-0.129389 0.653473,-0.231556 0.764056,-0.227063 0.110591,0.0045 -0.173274,0.151998 -0.630785,0.327787 -0.724776,0.278476 -2.27552,1.519586 -2.221417,1.777873 0.0104,0.04922 -0.01014,0.140682 -0.0457,0.203221 -0.03546,0.06253 -0.04296,0.0255 -0.0167,-0.08233 0.07813,-0.320535 -0.106106,-0.229102 -0.79005,0.392059 -0.356136,0.323445 -0.874032,0.764508 -1.150878,0.980139 l -0.503358,0.392056 1.168823,0.980141 c 0.642856,0.539077 1.202185,0.980141 1.242958,0.980141 0.04076,0 -0.02813,-0.24473 -0.153093,-0.543842 -0.242253,-0.579798 -0.287285,-1.99485 -0.08001,-2.514199 0.07084,-0.177503 0.09211,0.163629 0.04898,0.785897 -0.06358,0.917633 -0.01762,1.224108 0.277744,1.852489 0.43688,0.929422 1.117116,1.62611 1.949727,1.996884 0.348892,0.155375 0.541498,0.287469 0.428012,0.293561 -0.11349,0.006 -0.342838,-0.06197 -0.509673,-0.151255 -0.459617,-0.245981 -0.366488,-0.02021 0.286162,0.69368 0.324222,0.354656 0.770862,0.879017 0.992534,1.165251 l 0.403034,0.520423 0.454459,-0.598835 c 0.249954,-0.329357 0.729713,-0.898757 1.066133,-1.26533 0.336419,-0.366572 0.585042,-0.665431 0.552494,-0.664132 -0.03256,0.0012 -0.341461,0.104065 -0.686469,0.228347 -0.345008,0.124306 -1.015425,0.219505 -1.489814,0.211581 -0.858582,-0.01429 -0.857454,-0.01502 0.246505,-0.131462 1.587351,-0.167541 2.381441,-0.647037 3.241741,-1.957459 0.169879,-0.258757 0.268286,-0.34697 0.218689,-0.196029 -0.133837,0.407329 0.02906,0.338989 0.747664,-0.313644 0.356137,-0.323446 0.878495,-0.764509 1.160796,-0.98014 l 0.513273,-0.392057 -1.184715,-0.980141 c -0.651598,-0.539081 -1.221475,-0.980143 -1.266397,-0.980143 -0.04492,0 -0.0085,0.136508 0.08066,0.303334 0.08928,0.166838 0.160789,0.396186 0.158898,0.509672 -0.0019,0.11349 -0.134654,-0.08259 -0.295032,-0.435709 -0.376542,-0.829106 -1.106921,-1.569389 -1.940174,-1.966482 -0.615777,-0.293456 -0.43492,-0.326027 0.278368,-0.05014 0.27825,0.107627 0.269813,0.06979 -0.07473,-0.335059 -0.213615,-0.251005 0.245092,0.157599 1.019346,0.908014 1.477219,1.431733 3.183059,2.8792 3.269791,2.774537 0.02805,-0.03386 -0.007,-0.273252 -0.07753,-0.532009 -0.09352,-0.342371 -0.330981,-0.577213 -0.87213,-0.862522 -0.821891,-0.433326 -2.481984,-1.899486 -2.734327,-2.414898 -0.08873,-0.181214 0.09541,-0.03113 0.409161,0.333529 0.313765,0.364664 0.783283,0.814554 1.043375,0.999756 l 0.472892,0.33673 -0.08873,-0.764521 c -0.08876,-0.764615 0.03374,-0.506573 0.282344,0.594721 0.07803,0.345656 0.911132,1.071505 1.229837,1.071505 0.04319,0 -0.01876,-0.405778 -0.137621,-0.901728 -0.118885,-0.495951 -0.278544,-1.166369 -0.354799,-1.489815 -0.07625,-0.323447 -0.0886,-0.588083 -0.02746,-0.588083 0.06117,0 0.283011,0.715203 0.493006,1.589344 l 0.381804,1.589345 0.705701,0.283763 c 0.388136,0.15606 0.620808,0.287705 0.517052,0.292526 -0.103753,0.0047 -0.368694,-0.07326 -0.588747,-0.173536 -0.220054,-0.100256 -0.438262,-0.144132 -0.484909,-0.09747 -0.09512,0.09512 0.229957,1.549651 0.385873,1.726528 0.141073,0.160047 1.268496,-0.208372 1.268462,-0.414504 -1.6e-5,-0.09334 -0.271542,-1.069484 -0.603395,-2.169204 -0.331851,-1.099716 -0.558491,-1.999485 -0.503642,-1.999485 0.05485,0 0.315566,0.721775 0.579371,1.603944 0.407225,1.361766 0.536548,1.619868 0.856519,1.709415 0.363509,0.101725 0.364541,0.106028 0.02907,0.121095 -0.293773,0.01317 -0.327144,0.07043 -0.214834,0.368484 0.105794,0.280719 0.240993,0.346155 0.661442,0.320095 l 0.528477,-0.03276 -0.504585,0.153538 c -0.460178,0.140032 -0.491235,0.188662 -0.352851,0.552636 0.191058,0.502521 0.193688,0.736764 0.0071,0.621371 -0.07962,-0.04921 -0.189815,-0.294603 -0.244881,-0.545326 L 31.77415,61.55107 31.072781,61.790049 c -0.522072,0.177894 -0.681833,0.304907 -0.624955,0.496868 0.04204,0.141832 0.187544,0.751878 0.323369,1.355644 0.135823,0.603766 0.288189,1.238896 0.338584,1.411403 0.06026,0.206305 0.03893,0.259972 -0.06231,0.15682 -0.08466,-0.08626 -0.312203,-0.809597 -0.505643,-1.607431 -0.193442,-0.797835 -0.376702,-1.450607 -0.40725,-1.450607 -0.03055,0 -0.295558,0.114452 -0.588913,0.254345 -0.508627,0.242547 -0.527237,0.280748 -0.40112,0.823319 0.07274,0.312935 0.127881,0.745397 0.122525,0.961028 l -0.0099,0.392056 -0.117845,-0.392056 c -0.06481,-0.215631 -0.160289,-0.65746 -0.212173,-0.981842 -0.09003,-0.562874 -0.06613,-0.604167 0.523386,-0.904919 0.468262,-0.23889 0.6177,-0.409206 0.6177,-0.703997 0,-0.22154 -0.09093,-0.388871 -0.2113,-0.388871 -0.495882,0 -4.278708,3.622439 -5.587043,5.350155 l -0.544794,0.719422 -0.879479,-1.113712 c -1.384246,-1.752909 -5.2976,-5.426818 -5.334833,-5.008411 -0.0065,0.07204 -0.04071,0.286135 -0.07621,0.47579 -0.05368,0.286767 0.09941,0.432002 0.909185,0.862523 1.713276,0.910868 3.865349,3.270418 4.262551,4.673488 0.06105,0.215631 -0.158081,-0.08504 -0.486959,-0.668146 -0.328873,-0.58311 -0.876534,-1.389505 -1.217025,-1.79199 -0.609747,-0.72076 -0.620652,-0.725883 -0.723859,-0.339979 -0.05763,0.215493 -0.154225,0.919454 -0.214664,1.564358 -0.06044,0.644902 -0.174683,1.274985 -0.253878,1.400181 -0.124592,0.196964 -0.14365,0.19594 -0.141426,-0.0075 z m 5.17133,0.10036 c -0.002,-0.07417 0.220529,-0.555311 0.494418,-1.069179 0.57699,-1.082541 2.207745,-2.90083 2.973757,-3.315728 0.421714,-0.228415 0.464463,-0.233711 0.21359,-0.02645 -0.172513,0.142518 -0.446078,0.354489 -0.607941,0.471065 -0.278844,0.200829 -0.283999,0.307534 -0.09819,2.03264 0.107874,1.001377 0.162665,1.85415 0.121758,1.895052 -0.04089,0.04089 -0.166223,-0.67028 -0.278514,-1.5804 -0.112281,-0.910117 -0.257367,-1.687647 -0.322408,-1.727844 -0.183791,-0.113581 -1.387368,1.404606 -1.968993,2.483684 -0.288161,0.534622 -0.525535,0.911348 -0.527494,0.83717 z M 5.6039353,61.968584 v -5.202479 l 0.3920568,0.368319 c 0.3815279,0.358428 0.392055,0.426538 0.392055,2.536495 v 2.16818 h 0.7643597 c 1.2233502,0 2.8081521,1.091052 3.5307662,2.430748 0.247678,0.459184 0.252811,0.435669 0.21404,-0.980502 -0.02185,-0.798031 0.01318,-1.450805 0.07789,-1.450608 0.06468,1.57e-4 0.117624,1.023629 0.117624,2.274286 v 2.273928 h 2.089768 c 2.026318,0 2.10095,0.01183 2.458083,0.392054 0.202576,0.215631 0.302422,0.392057 0.221882,0.392057 -0.08054,0 -0.234579,-0.141145 -0.342308,-0.313645 -0.188558,-0.301928 -0.365716,-0.313644 -4.742397,-0.313644 H 6.2312247 l 0.031554,-1.293786 0.031554,-1.293785 0.053592,1.222949 0.053592,1.222945 1.5658992,-0.02698 c 1.4520954,-0.02502 1.5591356,-0.04828 1.4728267,-0.32023 -0.070009,-0.220567 -0.032222,-0.269904 0.1524065,-0.199051 0.1350235,0.05181 0.2504617,0.069 0.2565382,0.0382 0.00613,-0.03079 0.046039,-0.391192 0.088818,-0.800889 0.067136,-0.643211 0.038861,-0.745235 -0.2070798,-0.747309 -0.2072302,-0.0017 -0.2299793,-0.03721 -0.083497,-0.130146 0.3325177,-0.21099 0.051498,-0.677397 -0.3375278,-0.560194 -0.2677151,0.08066 -0.2963316,0.06079 -0.1437055,-0.09965 0.2676869,-0.281432 -0.2469991,-0.675659 -0.551825,-0.422675 -0.1535928,0.127478 -0.1932134,0.115271 -0.1572656,-0.04844 0.027713,-0.12623 -0.1012635,-0.241633 -0.3047965,-0.272685 -0.1940668,-0.02959 -0.3528498,0.0069 -0.3528498,0.08088 0,0.07408 -0.1940685,0.131927 -0.4312619,0.128531 -0.3435378,-0.005 -0.4219572,0.05762 -0.3855162,0.307465 0.036822,0.252518 0.015581,0.268685 -0.1090921,0.08295 -0.1683574,-0.250849 -0.1966329,-0.2366 -0.457635,0.230698 C 6.2823384,63.881791 6.2396368,63.1886 6.236001,60.721352 6.231921,58.015381 6.192075,57.453983 5.9916827,57.287679 c -0.2141526,-0.177725 -0.234934,0.335619 -0.1960276,4.842375 0.023928,2.77265 -0.00946,5.041145 -0.074089,5.041101 -0.064682,-4.3e-5 -0.117624,-2.341193 -0.117624,-5.202556 z m 25.8757077,5.130178 c 0,-0.03976 0.154445,-0.216195 0.343214,-0.392059 0.309763,-0.288587 0.54669,-0.319752 2.43075,-0.319752 h 2.087531 v -0.862524 c 0,-0.474389 0.05336,-0.862523 0.118534,-0.862523 0.0652,0 0.210356,-0.207428 0.322575,-0.460949 0.289092,-0.653102 1.394659,-1.713025 2.140547,-2.052171 0.348259,-0.158341 0.968405,-0.310959 1.378104,-0.339132 l 0.744907,-0.05122 -0.01817,1.020475 c -0.01001,0.561263 -0.05048,0.896978 -0.0899,0.746035 -0.0835,-0.319535 -0.30143,-0.360679 -0.415327,-0.07842 -0.04349,0.107809 -0.08467,0.03725 -0.09146,-0.15682 -0.01355,-0.385974 -0.551061,-0.507677 -0.692633,-0.15682 -0.04566,0.113139 -0.08432,0.07537 -0.09146,-0.08931 -0.0088,-0.204815 -0.111969,-0.270153 -0.365232,-0.231512 -0.21356,0.03257 -0.332951,0.145228 -0.302443,0.285346 0.03941,0.180935 0.0085,0.190288 -0.141648,0.04282 -0.25676,-0.252268 -0.793085,0.02782 -0.669578,0.34968 0.06179,0.161013 0.01707,0.206637 -0.142425,0.145413 -0.245483,-0.0942 -0.495774,0.322417 -0.342595,0.570266 0.04849,0.07846 0.01335,0.142666 -0.07791,0.142666 -0.09133,0 -0.166078,0.180583 -0.166078,0.401311 0,0.279312 0.05961,0.36551 0.19603,0.283543 0.135081,-0.08116 0.129623,-0.0359 -0.01762,0.145579 -0.264341,0.325939 -0.126698,0.736982 0.247858,0.740202 0.233354,0.002 0.241346,0.02644 0.04854,0.148381 -0.360315,0.227866 0.01725,0.307502 1.720651,0.36293 0.819399,0.02665 -0.538479,0.06312 -3.017502,0.08104 -4.319004,0.03118 -4.5155,0.04566 -4.703192,0.346193 -0.176425,0.282495 -0.434072,0.425747 -0.434072,0.241342 z m 10.115049,-5.102919 c 0,-2.846324 0.05292,-5.175119 0.117611,-5.175099 0.06468,1.9e-5 0.117623,2.328849 0.117623,5.175177 0,2.846327 -0.05292,5.175123 -0.117623,5.175099 -0.06468,-2.3e-5 -0.117611,-2.328853 -0.117611,-5.175177 z m -29.874966,3.489376 c -1.57e-4,-0.06468 0.440907,-0.09795 0.980141,-0.07394 1.769945,0.07884 1.945598,0.140942 0.470751,0.166466 -0.797832,0.01373 -1.450736,-0.02782 -1.450892,-0.09253 z M 12.72553,64.447181 C 12.68022,64.329089 12.66939,63.852736 12.70142,63.38863 l 0.0583,-0.84383 0.02902,0.967072 c 0.01817,0.603145 0.102778,0.996837 0.225038,1.04617 0.153537,0.06195 0.15248,0.08179 -0.005,0.09146 -0.110526,0.0069 -0.238028,-0.08424 -0.283347,-0.202339 z m 21.920213,-0.770935 c -0.02956,-0.904009 0.267525,-1.680325 0.64301,-1.680325 0.09136,0 0.0167,0.159028 -0.165873,0.3534 -0.242412,0.258038 -0.347581,0.607155 -0.38974,1.293786 l -0.05775,0.940384 z m -12.340215,0.449122 c -0.630427,-0.282219 -1.487215,-1.150443 -1.748222,-1.771559 -0.116636,-0.277552 -0.21206,-0.908043 -0.21206,-1.401096 0,-1.574745 0.832948,-2.733337 2.349838,-3.268528 0.729081,-0.257235 0.847556,-0.04313 0.170011,0.307233 -0.26781,0.138494 -0.539375,0.457893 -0.650428,0.765002 -0.131314,0.363143 -0.343278,0.582434 -0.681025,0.704564 -0.559813,0.202434 -1.03158,0.895544 -1.03158,1.515591 0,0.627968 0.47413,1.314015 1.052714,1.523234 0.353641,0.127881 0.560908,0.334651 0.671578,0.669983 0.18216,0.551931 0.86746,1.021644 1.490569,1.021644 0.620046,0 1.313158,-0.471765 1.515591,-1.03158 0.122135,-0.337747 0.34142,-0.549711 0.704564,-0.681026 1.08201,-0.391257 1.331039,-2.062437 0.416406,-2.794383 -0.242576,-0.194122 -0.5469,-0.355122 -0.676281,-0.357774 -0.129389,-0.0026 -0.356233,-0.267643 -0.504119,-0.588864 -0.147898,-0.321222 -0.465457,-0.712631 -0.705702,-0.869803 l -0.436814,-0.285761 0.546315,0.09314 c 1.418898,0.241911 2.540687,1.643507 2.550141,3.186219 0.0031,0.494495 -0.102167,1.153035 -0.233764,1.463425 -0.307855,0.726087 -1.078296,1.511204 -1.764186,1.797786 -0.67248,0.280982 -2.198511,0.282362 -2.823551,0.0026 z m 0.510895,-0.400617 c -0.524458,-0.412539 -0.645424,-0.903649 -0.271827,-1.103595 0.394729,-0.211251 0.466632,-0.196034 0.466632,0.09876 0,0.184702 -0.09577,0.229393 -0.352851,0.164631 -0.340788,-0.08586 -0.342443,-0.08112 -0.04843,0.138529 0.411632,0.307541 1.822665,0.297058 2.213978,-0.01651 0.294061,-0.235591 0.292764,-0.238258 -0.03812,-0.07842 -0.46716,0.225678 -0.502967,0.212692 -0.4086,-0.148175 0.09607,-0.367381 0.399397,-0.407755 0.664409,-0.08843 0.136677,0.164684 0.141517,0.310037 0.018,0.540834 -0.430752,0.804866 -1.537128,1.047688 -2.243167,0.492318 z m 0.386128,-1.1331 c 0.128869,-0.369694 0.237328,-0.447125 0.571939,-0.408349 0.323127,0.03746 0.412906,0.133095 0.412906,0.439908 0,0.343549 -0.07078,0.394072 -0.571936,0.408348 -0.565185,0.01613 -0.570062,0.01092 -0.412909,-0.439907 z m -2.085254,-0.583667 c -0.324451,-0.324448 -0.458406,-0.612127 -0.458406,-0.984453 0,-0.893018 0.860624,-1.771977 1.343015,-1.371629 0.319321,0.265014 0.278948,0.568337 -0.08843,0.664412 -0.360861,0.09437 -0.373846,0.05857 -0.148177,-0.4086 0.159845,-0.330892 0.157173,-0.332189 -0.07842,-0.03812 -0.327312,0.408545 -0.324683,1.810399 0.004,2.213978 0.244504,0.300081 0.246422,0.299949 0.134783,-0.0092 -0.06229,-0.172514 -0.120978,-0.594098 -0.130424,-0.936876 -0.01372,-0.498525 0.0435,-0.635299 0.286113,-0.683547 0.167171,-0.03323 0.395179,0.06536 0.508053,0.219725 0.112632,0.154019 0.252117,0.232701 0.309979,0.174832 0.05787,-0.05786 -0.0038,-0.229138 -0.136656,-0.380607 -0.133021,-0.151478 -0.29025,-0.434184 -0.349391,-0.628251 -0.157266,-0.51604 0.300805,-0.460248 0.866607,0.105547 0.54187,0.54187 0.619907,1.031813 0.144541,0.907503 -0.172626,-0.04516 -0.274315,-0.01817 -0.225979,0.06012 0.04835,0.0782 0.01318,0.142203 -0.07819,0.142203 -0.344484,0 -0.404572,0.02811 -0.52672,0.246372 -0.06897,0.12324 -0.245401,0.225177 -0.392056,0.226496 -0.208884,0.0019 -0.220675,0.03153 -0.05442,0.136879 0.165539,0.104897 0.172941,0.20787 0.03368,0.468067 -0.237835,0.444398 -0.417758,0.421094 -0.96367,-0.124827 z m 1.190337,0.105547 c 0.121368,-0.4213 0.78622,-1.058553 1.104395,-1.058553 0.382255,0 0.252179,0.477454 -0.260564,0.956429 -0.599084,0.55963 -0.989238,0.606848 -0.843831,0.102115 z m 2.28908,0.134004 c -0.341416,-0.189231 -0.782091,-0.784469 -0.795814,-1.074937 -0.01131,-0.239312 0.459295,-0.106808 0.835546,0.235234 0.390391,0.354907 0.702058,1.063346 0.463248,1.052994 -0.07052,-0.0031 -0.296843,-0.09903 -0.50298,-0.213291 z m 1.153201,-0.03734 c 0.321262,-0.781839 0.369609,-1.389269 0.159177,-2.000019 -0.285407,-0.828404 -0.155428,-0.920567 0.408359,-0.289568 0.720564,0.80645 0.55511,1.917082 -0.358428,2.40599 -0.290116,0.155264 -0.315046,0.141387 -0.209116,-0.116402 z m 8.068109,-0.355824 c -0.143427,-0.478726 -0.276151,-0.64537 -0.520541,-0.653583 -0.322127,-0.01079 -0.322384,-0.01335 -0.01447,-0.145802 0.172513,-0.07413 0.221266,-0.139736 0.108368,-0.145803 -0.112918,-0.006 -0.169416,-0.06904 -0.125606,-0.139958 0.04384,-0.07091 -0.296898,-1.111827 -0.757177,-2.313132 -0.931495,-2.431171 -1.127875,-3.025119 -0.941813,-2.848513 0.06942,0.06588 0.558069,1.260118 1.085907,2.653854 0.915351,2.416953 0.980953,2.53691 1.419465,2.595635 0.602781,0.08073 0.708133,0.19792 0.177931,0.19792 -0.470329,0 -0.489782,0.06149 -0.24324,0.768716 0.09621,0.27603 0.136396,0.540427 0.08928,0.587548 -0.04712,0.04712 -0.17231,-0.203476 -0.278189,-0.556882 z m -6.296872,-0.523566 c 0.08229,-1.330634 0.167822,-1.499 0.179971,-0.354228 0.0057,0.517513 -0.04641,1.029768 -0.115349,1.138341 -0.06893,0.108576 -0.09799,-0.244279 -0.06462,-0.784113 z m -2.567828,-0.03141 c -0.147045,-0.383209 0.007,-0.786793 0.323267,-0.84773 0.414453,-0.07982 0.74987,0.400604 0.545848,0.781823 -0.184979,0.345648 -0.745459,0.388151 -0.869115,0.06591 z M 9.0993815,61.094653 c 1.1395515,-0.03063 1.8128215,-0.107939 1.7549975,-0.201512 -0.146394,-0.236857 0.02123,-0.178189 0.238342,0.08343 0.17205,0.207298 -0.04452,0.231229 -1.8234615,0.201513 l -2.0186886,-0.03373 z m 27.0936095,-4.54e-4 c 0.0047,-0.06468 0.234127,-0.290069 0.509675,-0.50084 l 0.500996,-0.383226 -0.380186,0.422429 -0.380188,0.422431 h 1.747077 1.747079 l 0.05041,-1.685841 0.05041,-1.68584 0.03333,1.764253 0.0333,1.76425 h -1.960279 c -1.078154,0 -1.956375,-0.05292 -1.951604,-0.117611 z M 24.515178,60.875301 c 0.07852,-0.127062 -0.01428,-0.148233 -0.316904,-0.0723 -0.389782,0.09783 -0.418717,0.07538 -0.324363,-0.251567 0.123071,-0.426472 0.786259,-1.06468 1.106344,-1.06468 0.288289,0 0.284467,0.06346 -0.04061,0.674283 -0.146896,0.276037 -0.249665,0.590097 -0.228358,0.697913 0.0213,0.107809 -0.03908,0.196027 -0.134208,0.196027 -0.09512,0 -0.12298,-0.08086 -0.06191,-0.179693 z m -1.286385,-1.299618 c -0.168358,-0.438725 0.06297,-0.740813 0.526449,-0.687501 0.343161,0.03947 0.432154,0.130443 0.432154,0.441764 0,0.31132 -0.08899,0.402293 -0.432154,0.441764 -0.281819,0.03243 -0.464955,-0.03578 -0.526449,-0.196027 z m 11.860966,-2.287629 c -0.70433,-1.394476 -1.246754,-2.569258 -1.205389,-2.610624 0.04137,-0.04137 0.651482,1.065725 1.355809,2.460202 0.704332,1.394478 1.246755,2.56926 1.205389,2.610626 -0.04137,0.04137 -0.65148,-1.065727 -1.355809,-2.460204 z m -23.997038,2.278423 c 0,-0.218894 2.445721,-4.941203 2.559089,-4.941203 0.07316,0 0.10868,0.05292 0.07894,0.117624 -0.02975,0.06469 -0.600637,1.193809 -1.268631,2.50916 -1.066037,2.099129 -1.369397,2.611842 -1.369397,2.314426 z m 11.487245,-0.251014 c -0.468806,-0.175686 -0.444925,-0.388034 0.105547,-0.938515 0.519225,-0.519226 0.720471,-0.568234 0.858318,-0.209018 0.125112,0.326079 -0.01334,0.534726 -0.35507,0.534726 -0.150922,0 -0.411403,0.109746 -0.578828,0.243886 -0.29018,0.23248 -0.287286,0.235552 0.06186,0.06571 0.424693,-0.206593 0.494235,-0.171623 0.358938,0.180545 -0.07352,0.191343 -0.185912,0.221932 -0.450782,0.122668 z m 1.926927,-0.529411 c -0.255537,-0.112632 -0.557796,-0.169026 -0.671684,-0.12532 -0.167765,0.06436 -0.171549,0.0014 -0.01989,-0.331365 0.102947,-0.225956 0.230725,-0.410828 0.283941,-0.410828 0.197954,0 0.796921,0.496852 0.954962,0.792155 0.187141,0.349682 0.101764,0.361435 -0.547333,0.07534 z M 13.298055,58.278094 c -0.008,-0.15339 1.1797,-2.934935 1.353206,-3.169289 0.0266,-0.03594 0.08421,-0.02951 0.128011,0.01429 0.04379,0.0438 -0.269345,0.814193 -0.695883,1.711978 -0.426539,0.897786 -0.779942,1.547141 -0.785342,1.443013 z m 20.142839,-1.385333 c -0.392853,-0.846432 -0.692006,-1.605788 -0.664782,-1.68746 0.02721,-0.08169 0.383404,0.576111 0.791508,1.461739 0.408106,0.88563 0.707259,1.644989 0.664785,1.687463 -0.04248,0.04248 -0.398655,-0.615311 -0.791511,-1.461742 z m 2.272955,-1.326558 c -0.621274,-1.046271 -1.097226,-1.934674 -1.057669,-1.97423 0.03955,-0.03955 0.582455,0.781898 1.206448,1.825449 0.623996,1.043554 1.099946,1.931959 1.057671,1.974232 -0.04228,0.04228 -0.585176,-0.779178 -1.20645,-1.825451 z m -25.091595,1.659725 c 0,-0.170066 2.075066,-3.557492 2.139669,-3.492886 0.04063,0.04063 -0.391499,0.857841 -0.960274,1.81604 -0.911357,1.535326 -1.179395,1.91642 -1.179395,1.676846 z m 12.783254,-0.81126 c -0.15964,-0.469619 -0.384215,-0.931852 -0.49908,-1.027181 -0.403914,-0.335219 -0.199106,-0.448568 0.810502,-0.448568 1.001482,0 1.182291,0.08795 0.854504,0.415756 -0.09065,0.09067 -0.32478,0.558369 -0.520263,1.039347 l -0.355427,0.874505 z m 13.831025,-1.098014 c -0.671941,-0.984026 -1.157932,-1.789138 -1.079978,-1.789138 0.160381,0 2.460877,3.422274 2.364193,3.517021 -0.03438,0.03369 -0.612277,-0.743858 -1.284215,-1.727883 z M 9.9351244,55.448599 c 0.9834436,-1.43753 1.5823426,-2.198172 1.4508376,-1.842664 -0.138771,0.375176 -2.2360919,3.371683 -2.3599065,3.371683 -0.07533,0 0.3337507,-0.688057 0.9090689,-1.529019 z m 7.4739076,0.03542 C 17.389783,55.00902 17.295854,54.474296 17.2003,54.29575 c -0.09555,-0.178542 -0.150384,-0.341724 -0.121823,-0.362616 0.02855,-0.02088 0.488304,0.09573 1.021673,0.259179 l 0.969762,0.297168 -0.610124,0.628693 c -0.335571,0.345781 -0.653222,0.76447 -0.705893,0.93042 -0.171772,0.541216 -0.309163,0.316298 -0.34486,-0.56457 z M 29.45884,55.67062 c -0.257202,-0.373832 -0.62993,-0.787453 -0.828286,-0.919155 -0.355366,-0.235953 -0.348052,-0.243361 0.499315,-0.505833 0.472978,-0.146506 0.937884,-0.299897 1.033127,-0.340874 0.121719,-0.05236 0.115583,0.148455 -0.02064,0.675857 -0.1066,0.412696 -0.173906,0.979707 -0.149568,1.260026 0.02434,0.280321 0.01937,0.509674 -0.01092,0.509674 -0.0304,0 -0.265709,-0.305864 -0.522914,-0.679695 z m -8.015835,0.12675 c -0.129389,-0.02537 -0.746868,-0.129428 -1.372198,-0.231283 -0.625329,-0.101855 -1.136961,-0.23842 -1.136961,-0.303472 0,-0.06506 0.133206,-0.238826 0.296018,-0.386169 0.26713,-0.241748 0.428701,-0.249334 1.655542,-0.0777 1.249636,0.174814 1.378142,0.226194 1.589877,0.635644 l 0.230355,0.445458 -0.513701,-0.01817 c -0.282534,-0.01001 -0.619555,-0.03894 -0.748932,-0.06428 z m 3.298489,-0.01484 c 0.0028,-0.07583 0.130609,-0.287935 0.283884,-0.471347 0.213907,-0.255974 0.583317,-0.374472 1.589617,-0.509898 1.158844,-0.155949 1.34425,-0.146284 1.597984,0.08334 0.157859,0.142871 0.287036,0.310215 0.287036,0.371878 0,0.06167 -0.405778,0.18912 -0.901731,0.283237 -1.429822,0.271347 -2.862479,0.393102 -2.85679,0.24279 z M 5.91758,55.631559 c 0,-0.08895 2.3883664,-2.88041 3.4095286,-3.984966 0.2795727,-0.302403 0.5083132,-0.479255 0.5083132,-0.393002 0,0.08625 -0.2287405,0.403818 -0.5083132,0.705702 C 9.0475367,52.261175 8.1939332,53.231515 7.4302114,54.1156 6.1023014,55.652793 5.91758,55.837921 5.91758,55.631559 Z m 34.002131,-1.685616 c -1.82015,-2.109998 -2.221273,-2.612283 -2.145843,-2.687012 0.0314,-0.03112 0.762786,0.756889 1.625308,1.751093 1.986711,2.290014 2.327392,2.715053 2.167677,2.704423 -0.07092,-0.0046 -0.812156,-0.80055 -1.647142,-1.768504 z M 8.5835618,54.869238 c 0,-0.158564 1.9466532,-2.583791 2.0172532,-2.513191 0.0378,0.0378 -0.33818,0.599991 -0.835518,1.249308 -0.8543097,1.115377 -1.1817352,1.465563 -1.1817352,1.263883 z M 37.790368,53.658923 c -0.53911,-0.703999 -0.942971,-1.317228 -0.897464,-1.362735 0.0455,-0.0455 0.17921,0.05414 0.297135,0.221445 0.117923,0.167301 0.539716,0.722296 0.937328,1.233325 0.619786,0.796572 0.844831,1.187961 0.683067,1.187961 -0.02192,0 -0.48095,-0.575997 -1.020066,-1.279996 z m -21.522506,0.889983 c -0.910091,-0.321298 -2.822804,-1.328691 -2.822804,-1.486723 0,-0.08126 0.236917,-0.192191 0.526483,-0.246512 0.741013,-0.139013 2.715411,0.844591 2.86118,1.425387 0.12974,0.516914 0.08948,0.538855 -0.564859,0.307848 z m 14.270844,0.0085 c 0,-0.507283 0.252852,-0.760656 1.270524,-1.273148 1.180628,-0.594553 1.502469,-0.64811 1.945959,-0.323822 0.275391,0.20137 0.226619,0.252457 -0.676005,0.7081 -1.648145,0.831976 -2.540478,1.144186 -2.540478,0.888865 z M 20.950973,54.143565 C 14.518088,53.19869 8.8816561,48.969393 6.2137712,43.085498 4.9831402,40.3714 4.5831515,38.366325 4.5896569,34.94409 c 0.00463,-2.399671 0.048916,-2.836173 0.4440522,-4.369732 1.1720448,-4.548854 3.6249426,-8.252694 7.2351809,-10.925019 0.978228,-0.724093 3.803578,-2.349421 4.077363,-2.345571 0.08625,0.0012 -0.356587,0.282085 -0.984114,0.624159 -2.515748,1.37137 -4.33783,2.820455 -6.1261283,4.872042 -1.0169407,1.166664 -2.6911413,3.73004 -2.6911413,4.120422 0,0.21767 1.1210663,0.09104 1.9544518,-0.220766 0.7654862,-0.286406 1.0072647,-0.497513 2.0391458,-1.780464 2.701334,-3.358597 5.957832,-5.345727 10.198835,-6.223376 1.22787,-0.254097 4.760808,-0.256554 5.959255,-0.004 4.30654,0.907032 7.959855,3.1863 10.340019,6.451039 0.504842,0.692463 0.971694,1.136813 1.455818,1.385651 0.754141,0.387622 2.396597,0.652411 2.396597,0.386366 0,-0.08456 -0.336645,-0.713853 -0.7481,-1.398449 -1.855928,-3.087978 -4.304859,-5.506191 -7.093026,-7.004053 -4.71914,-2.535221 -9.654525,-3.101265 -14.743739,-1.690973 -0.633548,0.175555 -1.179696,0.291422 -1.213657,0.257459 -0.06773,-0.06773 1.00883,-0.395896 2.708977,-0.825788 0.851853,-0.215395 1.738239,-0.276517 3.995896,-0.275549 2.759815,0.0012 2.989112,0.02516 4.704673,0.492174 7.203109,1.960794 12.441031,7.447631 14.043463,14.710827 0.133206,0.603766 0.282932,1.979884 0.332723,3.058039 0.199775,4.325639 -1.031364,8.57628 -3.477004,12.004744 -0.798825,1.119846 -2.905933,3.411434 -3.026209,3.291159 -0.04605,-0.04605 0.37339,-0.560151 0.932067,-1.142467 0.558672,-0.582318 1.306146,-1.446896 1.66105,-1.921284 0.712505,-0.952385 1.766063,-2.654232 1.766063,-2.852784 0,-0.208088 -0.982185,-0.144262 -1.879208,0.122135 -0.894119,0.265524 -1.155217,0.492821 -2.494027,2.171179 -0.775133,0.971719 -2.422642,2.441011 -2.737357,2.441247 -0.0726,5.4e-5 0.262117,-0.320942 0.743807,-0.713323 1.869364,-1.522809 3.712057,-4.12281 4.662598,-6.578861 1.386924,-3.583599 1.437661,-7.981371 0.133373,-11.56122 -2.391499,-6.563922 -8.476122,-10.829535 -15.411542,-10.804234 -2.079552,0.0076 -3.210401,0.176909 -5.044274,0.755246 -2.562001,0.807973 -4.654955,2.088544 -6.598804,4.037471 -2.066779,2.07218 -3.556395,4.673397 -4.3260081,7.554227 -0.5219022,1.953589 -0.5865429,5.198376 -0.1463771,7.347604 1.0328728,5.043261 4.2762922,9.231223 8.8687462,11.451484 2.761609,1.335123 3.848252,1.570753 7.213833,1.564257 3.04096,-0.0059 4.340976,-0.231269 6.280181,-1.088879 0.470383,-0.208023 0.855242,-0.342399 0.855242,-0.298611 0,0.0438 -0.441064,0.275936 -0.980142,0.51588 -4.241576,1.887883 -9.738084,1.563141 -14.138186,-0.835357 C 14.442037,48.993829 12.021052,47.145642 11.552515,46.50591 10.248876,44.725964 9.6336581,44.122919 8.8051769,43.812946 8.3318069,43.635832 7.657321,43.490927 7.3063188,43.490927 c -0.7699099,0 -0.7694759,0.002 0.3838226,1.866166 1.046388,1.691265 3.8481256,4.580072 5.4165086,5.584845 6.804005,4.358932 14.86095,4.248816 21.650826,-0.295907 0.713027,-0.477258 1.208912,-0.762307 1.101966,-0.633445 -0.374795,0.451599 -2.78194,1.953326 -4.127417,2.574939 -1.630233,0.753169 -3.111581,1.185767 -5.113882,1.493405 -1.595793,0.24518 -4.226445,0.274259 -5.667171,0.06265 z M 8.7433353,42.336248 7.974531,40.803335 7.8703921,41.358479 c -0.057283,0.305327 -0.3010474,0.865626 -0.5417059,1.245106 l -0.4375614,0.689962 0.8311949,0.08578 c 0.4571595,0.04719 1.0320269,0.191225 1.2774844,0.320096 0.2454591,0.128869 0.4611509,0.219776 0.4793156,0.202018 0.018181,-0.01781 -0.3129346,-0.722095 -0.7357768,-1.565197 z m 30.8995057,1.045996 c 0.426625,-0.05053 0.775683,-0.110149 0.775683,-0.132521 0,-0.02234 -0.211712,-0.443109 -0.470469,-0.935015 -0.258756,-0.491905 -0.473905,-1.045991 -0.478108,-1.231298 -0.0044,-0.19027 -0.324994,0.311561 -0.736719,1.152886 -0.400993,0.819398 -0.758241,1.548605 -0.793885,1.620463 -0.03563,0.07186 0.158527,0.01521 0.431507,-0.126009 0.272972,-0.141164 0.845366,-0.297991 1.271991,-0.348519 z M 7.430818,42.001067 c 0.4022202,-0.86273 0.4932871,-1.685713 0.1726064,-1.559859 -0.3871225,0.151923 -0.9209373,1.205313 -1.0146307,2.002194 -0.090821,0.772374 -0.081471,0.800698 0.1904791,0.577012 0.1572843,-0.129389 0.4504851,-0.588085 0.6515452,-1.019347 z m 33.458173,0.65808 c 0,-0.596886 -0.688535,-2.077661 -1.026353,-2.207293 -0.393171,-0.150867 -0.268138,0.713545 0.254481,1.759398 0.540468,1.081575 0.771872,1.215853 0.771872,0.447895 z M 6.568565,41.644233 C 6.6566019,41.36172 6.9003125,40.92656 7.1101262,40.67721 L 7.4916078,40.223848 6.9006224,40.036791 C 6.5755806,39.933914 6.044999,39.642401 5.7215526,39.388993 5.0462617,38.859927 5.018001,38.947551 5.4285539,40.297458 c 0.5090487,1.673761 0.8705782,2.520743 0.9279899,2.174076 0.028567,-0.172515 0.123968,-0.544791 0.2120212,-0.827301 z m 35.187783,-0.583648 c 0.228094,-0.679477 0.44418,-1.597953 0.480194,-2.041055 0.06365,-0.783182 0.04457,-0.827175 -0.684631,-1.578034 -0.412562,-0.424816 -0.867934,-0.948819 -1.011936,-1.16445 l -0.261824,-0.392055 -0.01391,0.7057 c -0.0078,0.388135 -0.106626,1.184372 -0.219851,1.769411 l -0.205859,1.063708 0.329239,-0.302336 c 0.521207,-0.478613 1.398373,-0.961647 1.740646,-0.958528 0.188866,0.0018 0.03289,0.129792 -0.392058,0.321932 -0.944419,0.427007 -2.268406,1.713459 -1.529018,1.485673 0.107809,-0.03323 0.388801,-0.102596 0.624413,-0.154167 0.235612,-0.05157 0.676676,-0.311777 0.980141,-0.578222 0.303466,-0.266447 0.551754,-0.410159 0.551754,-0.319359 0,0.262888 -1.019266,0.968769 -1.650569,1.14308 l -0.577361,0.159419 0.322368,0.343145 c 0.388714,0.413767 0.806013,1.370434 0.812574,1.862845 0.007,0.514487 0.199505,0.141425 0.705767,-1.366707 z M 7.2479164,39.410724 C 7.0002739,39.152244 6.4446446,38.764844 6.0131842,38.549837 5.5817219,38.334831 5.3318219,38.158916 5.4578496,38.158916 c 0.3104096,0 1.3935952,0.583106 1.8514056,0.996657 0.358745,0.324061 0.3688547,0.32489 0.2770885,0.02269 -0.1849421,-0.60903 -0.4141831,-2.00966 -0.4141831,-2.530562 0,-0.567746 -0.2340416,-0.71169 -0.3848074,-0.236668 -0.050771,0.159936 -0.443657,0.623472 -0.8730918,1.030063 -0.4294365,0.40659 -0.7807931,0.832075 -0.7807931,0.945524 0,0.311355 1.1865805,1.319293 1.6818876,1.428672 0.2393693,0.05287 0.505786,0.11557 0.5920374,0.139327 0.3281134,0.09043 0.2751295,-0.09026 -0.1594733,-0.543898 z M 5.7026836,37.41364 c 0.5533423,-0.485798 1.3579311,-1.706462 1.2796323,-1.941359 -0.078781,-0.236327 -1.3379493,0.741233 -1.5881202,1.232934 -0.3187439,0.626483 -0.4586804,1.140114 -0.3105003,1.139687 0.070507,-1.57e-4 0.3490451,-0.19427 0.6189882,-0.431262 z m 36.6668204,0.07878 c -0.233859,-0.758112 -0.577457,-1.240842 -1.208651,-1.698078 -0.383531,-0.277829 -0.681975,-0.404064 -0.715747,-0.302743 -0.12454,0.373616 1.459308,2.325137 1.90506,2.3473 0.07052,0.0035 0.07921,-0.152405 0.01932,-0.346479 z M 6.0981537,35.69384 6.7016787,35.294444 6.1330607,34.870473 C 5.8203213,34.637287 5.4030831,34.179138 5.2058665,33.852362 l -0.358578,-0.594135 -0.110409,0.883744 c -0.060731,0.486061 -0.059174,1.429932 0.00353,2.097498 L 4.854287,37.453218 5.1744965,36.773224 C 5.3639935,36.370653 5.7408561,35.930287 6.098156,35.69384 Z m 36.5999383,-1.543036 -0.11271,-0.902018 -0.342745,0.612403 c -0.188505,0.33682 -0.612289,0.787413 -0.941737,1.001315 l -0.599,0.388916 0.362713,0.238375 c 0.535371,0.351848 1.209506,1.09004 1.344284,1.472017 0.18695,0.52984 0.421609,-1.751129 0.289184,-2.811008 z M 6.7162367,34.423687 C 6.3667574,33.738651 5.102592,32.527527 5.0141092,32.792978 c -0.1068847,0.320649 0.4642881,1.29151 1.038063,1.764463 0.8026041,0.661574 1.0449116,0.612772 0.6640645,-0.133746 z m 34.6380643,0.186999 c 0.515951,-0.434142 1.160107,-1.533734 1.06523,-1.818369 -0.115102,-0.345328 -2.001007,1.679696 -2.001007,2.148625 0,0.214581 0.496536,0.03933 0.935777,-0.330256 z m 0.115544,-1.428242 c 0.370549,-0.365121 0.673725,-0.692681 0.673725,-0.727907 0,-0.03523 -0.170993,-0.106964 -0.379991,-0.159418 -0.208995,-0.05246 -0.710017,-0.347285 -1.113381,-0.65518 l -0.73339,-0.559809 0.115102,0.677387 c 0.210781,1.24045 0.346862,2.557349 0.280665,2.716077 -0.03597,0.08626 0.05812,-0.0196 0.209073,-0.235233 0.150959,-0.215631 0.57765,-0.690792 0.948197,-1.055915 z M 7.2242524,33.062184 c 0.051847,-0.517515 0.1440767,-1.18793 0.2049555,-1.489813 l 0.1106873,-0.548879 -0.5452267,0.477933 c -0.2998751,0.262864 -0.7883931,0.574968 -1.0855932,0.693563 -0.2972004,0.118586 -0.5689131,0.237878 -0.6038072,0.265072 -0.034892,0.0272 0.2610725,0.335095 0.6577,0.684222 0.3966293,0.349127 0.7687913,0.784898 0.8270269,0.96838 0.1551323,0.488771 0.3200035,0.08995 0.4342632,-1.050478 z M 6.1327732,31.930622 c 0.4355507,-0.221731 1.5098545,-1.199801 1.5098545,-1.374607 0,-0.159863 -1.0168048,0.09081 -1.411403,0.347937 -0.501972,0.327101 -0.6599724,0.488153 -1.0220971,1.041841 l -0.2955104,0.451831 0.3843641,-0.118846 c 0.2114016,-0.06536 0.5870567,-0.222036 0.8347919,-0.348153 z m 36.3244398,0.274861 c 0,-0.31585 -1.29861,-1.380769 -1.905503,-1.562602 -0.348804,-0.104507 -0.665507,-0.158693 -0.703779,-0.120432 -0.165019,0.16502 0.801267,1.058655 1.545998,1.429772 0.883333,0.440184 1.063284,0.483043 1.063284,0.25325 z M 6.7561523,30.482519 7.3220751,30.295748 6.9923402,29.849759 C 6.8109783,29.604465 6.5372362,29.033434 6.384005,28.580801 L 6.105401,27.75783 5.6399461,29.233839 C 5.3839433,30.045643 5.1301218,30.947278 5.0758969,31.23747 l -0.098592,0.527621 0.6064617,-0.547899 c 0.3335543,-0.301347 0.861127,-0.63195 1.1723857,-0.734673 z M 42.139311,30.468973 C 41.972622,29.825181 41.703499,28.9528 41.541248,28.530344 l -0.295004,-0.768105 -0.102141,0.544389 c -0.05617,0.29941 -0.306822,0.867172 -0.557016,1.261685 l -0.454899,0.717299 0.66537,0.254109 c 0.365954,0.139754 0.866295,0.463827 1.111872,0.720153 0.245574,0.256328 0.46595,0.446602 0.489719,0.422831 0.02376,-0.02376 -0.09316,-0.56995 -0.259844,-1.213738 z M 7.79945,30.029072 c 0,-0.666145 -0.9719661,-2.686901 -1.2937858,-2.689833 -0.3832975,-0.0034 0.1514411,1.881418 0.699133,2.464416 0.3433449,0.365473 0.5946528,0.460739 0.5946528,0.225417 z m 32.610419,-0.508336 c 0.672641,-0.92855 0.892805,-2.757043 0.233098,-1.935888 -0.566494,0.70513 -1.182961,2.576123 -0.848797,2.576123 0.08354,0 0.360618,-0.288104 0.615699,-0.640235 z M 8.1130948,29.33323 c 0,-0.153519 0.6788263,-1.627771 1.2153181,-2.639382 0.027846,-0.05249 -0.3224338,0.03343 -0.77838,0.19091 -0.4559462,0.157487 -1.0230617,0.288652 -1.2602569,0.291465 -0.2371933,0.0028 -0.4312601,0.02912 -0.4312601,0.05847 0,0.02934 0.2104315,0.435125 0.4676253,0.90173 0.2571956,0.466606 0.4689051,0.971871 0.470467,1.122811 0.00158,0.150941 0.073402,0.274441 0.1596586,0.274441 0.086256,0 0.1568205,-0.09021 0.1568205,-0.200452 z m 31.5241572,-0.074 c 0.0016,-0.150941 0.213273,-0.656207 0.470466,-1.122812 0.257195,-0.466605 0.467627,-0.872384 0.467627,-0.901729 0,-0.02933 -0.210952,-0.05336 -0.468784,-0.05336 -0.257832,0 -0.812959,-0.130776 -1.233615,-0.290611 l -0.764828,-0.290612 0.606325,1.293861 c 0.333476,0.711622 0.606322,1.371674 0.606322,1.466779 0,0.09511 0.07056,0.172923 0.156821,0.172923 0.08625,0 0.158099,-0.1235 0.159658,-0.274442 z M 11.889543,53.16956 c 0.07926,-0.276373 0.144115,-0.802884 0.144115,-1.170026 0,-0.367145 0.03609,-0.667531 0.08023,-0.667531 0.161792,0 1.639267,1.023038 1.641995,1.136962 0.0016,0.06468 -0.09512,0.117624 -0.214818,0.117624 -0.119704,0 -0.572686,0.244231 -1.006637,0.542736 l -0.789002,0.542738 z m 23.255913,0.151236 C 34.897433,53.113755 34.457227,52.822665 34.16722,52.673928 l -0.527281,-0.270432 0.795535,-0.535744 c 0.437542,-0.294661 0.833602,-0.535745 0.880131,-0.535745 0.04653,0 0.0846,0.312971 0.0846,0.695491 0,0.382521 0.07256,0.8863 0.161215,1.119507 0.219098,0.576267 0.117195,0.618843 -0.415956,0.173794 z m 4.656609,-1.398039 c -0.640937,-0.669923 -1.09964,-1.216771 -1.019346,-1.215218 0.154929,0.0031 2.340158,2.341199 2.242223,2.399186 -0.03165,0.01873 -0.581942,-0.514047 -1.222877,-1.183968 z M 5.9135214,51.661518 c 0.8171657,-0.77509 1.5212254,-1.373783 1.5645784,-1.330428 0.095736,0.09573 -2.2958101,2.347392 -2.7366882,2.576611 -0.1725139,0.08969 0.3549459,-0.471094 1.1721098,-1.246183 z m 1.5677262,0.22395 c 0.6400703,-0.64437 1.198985,-1.136359 1.2420353,-1.093308 0.1025999,0.102596 -2.0442388,2.264889 -2.2486934,2.264889 -0.086405,0 0.3665898,-0.52721 1.0066581,-1.171581 z M 41.334619,51.64314 c -0.805735,-0.790597 -1.310618,-1.339268 -1.121958,-1.219268 0.518872,0.33004 2.751232,2.492419 2.663573,2.580077 -0.04215,0.04215 -0.735878,-0.570212 -1.541615,-1.360809 z M 10.854014,51.46278 C 9.807548,50.62986 8.7498742,49.561658 8.8350941,49.423767 c 0.2249061,-0.363904 0.9324324,-0.0813 1.8806759,0.751224 0.797564,0.700222 1.004242,0.974558 1.004242,1.332991 0,0.570618 -0.09878,0.565464 -0.865998,-0.04519 z m 24.859835,0.03932 c 0,-0.365352 0.200404,-0.633151 0.997532,-1.332991 0.961893,-0.844495 1.366368,-1.012955 1.788602,-0.744942 0.142333,0.09034 -0.01318,0.323743 -0.548877,0.824125 -0.8444,0.788639 -1.999223,1.711015 -2.142207,1.711015 -0.05227,0 -0.09506,-0.205742 -0.09506,-0.457207 z M 4.5183792,51.233588 c 0.01651,-0.184849 2.1843365,-1.991529 2.2776664,-1.898198 0.040624,0.04063 -0.3344892,0.419974 -0.8335693,0.843016 -1.2561556,1.064772 -1.4581116,1.212337 -1.4440971,1.055182 z M 41.829924,50.45252 c -0.560639,-0.472108 -1.04701,-0.938489 -1.080823,-1.036407 -0.03381,-0.09793 0.442534,0.236607 1.058551,0.743384 0.616016,0.506779 1.120031,0.977912 1.120031,1.04696 0,0.175407 0.03184,0.197274 -1.097759,-0.753937 z M 27.864618,49.511008 c 1.191083,-0.662915 1.782044,-1.08601 3.100329,-2.219663 0.984105,-0.846273 2.672529,-2.938009 3.110418,-3.853398 l 0.237238,-0.495946 -0.426917,0.548881 c -0.983128,1.26399 -3.327768,3.425476 -4.447723,4.100283 -2.874996,1.732277 -6.778442,2.615653 -9.720007,2.199704 -0.98982,-0.13996 -0.96578,-0.144709 0.829931,-0.164019 2.017785,-0.0217 3.51235,-0.274426 5.3029,-0.896708 1.071789,-0.372484 3.325731,-1.478576 3.222775,-1.58153 -0.02464,-0.02464 -0.549221,0.167096 -1.165702,0.426108 -4.156468,1.746363 -8.764096,1.58985 -12.816166,-0.435349 -1.042625,-0.521098 -3.058036,-1.850608 -3.058036,-2.017303 0,-0.0429 0.322629,0.143946 0.716956,0.415259 1.095562,0.753766 3.452327,1.815001 4.85024,2.184033 0.751549,0.198399 1.914807,0.355623 2.901215,0.392126 0.90565,0.03351 1.434925,0.02998 1.176168,-0.0078 -2.304729,-0.336979 -3.82068,-0.768724 -5.331963,-1.518543 -3.071878,-1.524113 -5.51131,-3.941909 -7.0360498,-6.973644 -0.785855,-1.562563 -0.7121547,-1.629349 0.1439847,-0.130479 1.3403511,2.346581 3.0735871,4.154792 5.4430611,5.678514 1.395688,0.897518 1.501914,0.864776 0.257015,-0.07923 -3.713741,-2.816093 -5.9217471,-6.944229 -6.1775108,-11.549595 -0.047892,-0.862524 -0.023634,-1.956361 0.053924,-2.430749 0.1286064,-0.786562 0.1430381,-0.703697 0.1639811,0.940936 0.032128,2.524156 0.6460131,5.08784 1.7111067,7.145917 0.557462,1.077183 0.828844,1.280691 0.404252,0.30315 C 9.5076361,35.342271 9.6598893,30.4966 11.72148,26.397296 c 0.543078,-1.079867 1.929923,-3.13645 2.11505,-3.13645 0.04316,0 -0.160309,0.33521 -0.452169,0.74491 -1.657354,2.326571 -2.784069,5.836134 -2.741764,8.540212 l 0.02034,1.300396 0.135228,-1.167049 c 0.466276,-4.024337 2.692892,-7.988273 5.821092,-10.363018 0.741339,-0.562779 1.879677,-1.286186 2.529641,-1.607566 1.380497,-0.682601 1.781914,-0.772441 0.64747,-0.144912 -2.145603,1.186874 -4.081519,2.861442 -5.470139,4.73167 -0.730885,0.984375 -1.438284,2.19956 -1.280439,2.19956 0.04267,0 0.182549,-0.202985 0.310833,-0.451077 0.320639,-0.620047 2.405915,-2.813026 3.4149,-3.591275 2.81101,-2.168183 6.920587,-3.378026 10.45357,-3.077489 l 1.510156,0.128453 -2.352337,0.112411 c -1.827024,0.0873 -2.667525,0.203892 -3.763738,0.522049 -1.347249,0.391017 -4.405678,1.768279 -4.256971,1.916985 0.03894,0.03893 0.342258,-0.06766 0.674063,-0.236889 0.977611,-0.498579 3.16394,-1.10054 4.680665,-1.288729 2.634406,-0.326859 5.592581,0.14185 8.046687,1.274979 1.291918,0.596513 3.375935,1.886537 3.579332,2.21564 0.12688,0.205298 -0.129103,0.06383 -0.814489,-0.450123 -0.80672,-0.604934 -3.370078,-1.741427 -4.695452,-2.081772 -1.420438,-0.364757 -3.911901,-0.621861 -4.481942,-0.462509 -0.280503,0.07842 -0.187831,0.110188 0.355096,0.121745 2.266881,0.04823 5.595643,1.286687 7.733761,2.877307 2.005329,1.491833 3.61736,3.42971 4.775041,5.740226 0.6488,1.294886 0.542752,1.393506 -0.144596,0.134467 -1.233037,-2.258623 -3.058783,-4.23035 -5.231712,-5.650032 -2.06402,-1.348527 -2.213435,-1.370823 -0.496497,-0.07408 2.781512,2.100764 4.789195,5.122635 5.645113,8.49676 0.454031,1.789848 0.629873,4.021227 0.421556,5.349419 -0.144894,0.923795 -0.147938,0.910746 -0.16671,-0.716105 -0.03111,-2.695397 -0.511404,-4.719362 -1.701806,-7.171419 -0.389228,-0.801749 -0.73065,-1.434761 -0.758719,-1.406694 -0.02807,0.02806 0.190002,0.651333 0.484598,1.385038 1.937653,4.82578 1.329765,10.181507 -1.654905,14.580379 -0.324234,0.47786 -0.714694,0.971853 -0.867693,1.097756 -0.152999,0.125892 -0.01895,-0.132816 0.297882,-0.574933 0.831862,-1.160814 1.910188,-3.535253 2.30566,-5.076994 0.218525,-0.85192 0.360854,-1.955551 0.394378,-3.058038 0.05041,-1.658338 0.04706,-1.679561 -0.0869,-0.54888 -0.605326,5.10957 -3.778869,9.631121 -8.408131,11.979615 -1.438921,0.729987 -1.693606,0.729833 -0.381884,-1.56e-4 z m -1.007773,-2.110369 c 4.683038,-1.226604 8.2724,-4.940416 9.255418,-9.576321 0.308364,-1.454251 0.307831,-4.170793 -0.0011,-5.486908 -1.100723,-4.689693 -4.644712,-8.350713 -9.257798,-9.563522 -1.462418,-0.38448 -3.95691,-0.4508 -5.567196,-0.14801 -4.753497,0.893802 -8.653864,4.602641 -9.903275,9.416971 -0.430607,1.659247 -0.421829,4.489089 0.01921,6.194487 1.754371,6.783674 8.735922,10.923132 15.454721,9.163313 z m -4.786551,-0.561508 c -4.113433,-0.620397 -7.784403,-3.52298 -9.336096,-7.381915 -0.610218,-1.51756 -0.911517,-3.37284 -0.808459,-4.978116 0.12076,-1.880922 0.427499,-2.99644 1.316749,-4.788597 0.61779,-1.245067 0.9721,-1.722681 2.156741,-2.907323 1.183824,-1.183823 1.663119,-1.539503 2.907325,-2.1575 2.148646,-1.067233 3.120461,-1.288578 5.567198,-1.268004 2.363806,0.01989 3.69508,0.367362 5.712346,1.491022 1.387521,0.772879 3.446762,2.768391 4.22308,4.092384 2.307334,3.935102 2.307334,8.45499 0,12.298771 -1.229906,2.048903 -3.668656,4.092031 -5.858042,4.907737 -1.758506,0.655169 -4.210353,0.943489 -5.880842,0.691541 z m 1.301809,-0.76068 -0.03119,-0.470467 0.210887,0.385296 c 0.205295,0.375078 0.219278,0.358437 0.527107,-0.627289 0.173924,-0.556922 0.365242,-1.136084 0.425159,-1.287026 0.09608,-0.242062 0.0032,-0.27444 -0.787143,-0.27444 -0.791603,0 -0.882997,0.03199 -0.783882,0.27444 0.207584,0.507756 0.415215,1.32267 0.352886,1.384999 -0.03399,0.03399 -0.180342,-0.314262 -0.325234,-0.773897 -0.260472,-0.826311 -0.272686,-0.837778 -1.086593,-1.020343 -0.452738,-0.101556 -1.188113,-0.35395 -1.634169,-0.560882 -0.705607,-0.327341 -0.848277,-0.348065 -1.097757,-0.159454 -0.271667,0.205387 -0.262003,0.23838 0.183718,0.627334 l 0.470467,0.410546 -0.494674,-0.326608 c -0.272073,-0.179637 -0.534648,-0.326603 -0.583499,-0.326603 -0.138511,0 -1.509689,0.990617 -1.506995,1.088738 0.0096,0.349008 0.886922,0.892917 2.403066,1.489789 1.304824,0.513677 2.152263,0.695596 3.083318,0.661885 0.681438,-0.02467 0.70463,-0.04172 0.67452,-0.496021 z m -1.537044,-0.545053 c -0.690017,-0.512457 -1.325816,-0.934668 -1.412882,-0.93825 -0.08707,-0.0034 -0.252332,-0.157081 -0.367255,-0.341088 l -0.208949,-0.334581 0.458824,0.326708 c 0.279859,0.19928 0.606606,0.297942 0.83772,0.252951 0.308654,-0.06009 0.323497,-0.0494 0.08007,0.05769 -0.256115,0.112659 -0.124397,0.258848 0.92138,1.022565 0.671121,0.490116 1.158449,0.889907 1.082952,0.88843 -0.07549,-0.0015 -0.701828,-0.421969 -1.391847,-0.934423 z m 4.714345,0.769954 c 1.494555,-0.388942 3.443612,-1.292484 3.585463,-1.66215 0.06943,-0.180934 -0.03806,-0.379969 -0.335046,-0.620323 -0.925673,-0.749186 -1.029246,-0.760528 -1.824709,-0.199834 -0.401323,0.282879 -0.729678,0.571311 -0.729678,0.640958 0,0.06965 -0.07631,0.126633 -0.169563,0.126633 -0.166746,0 -2.810059,1.861168 -2.810059,1.978569 0,0.161217 1.169487,0.02607 2.283596,-0.263851 z m -0.917612,-0.957394 c 0.621912,-0.459654 1.52168,-1.112709 1.999485,-1.451236 0.932631,-0.660775 0.983918,-0.740314 0.65393,-1.01418 -0.16463,-0.136638 -0.411856,-0.08655 -1.058552,0.214501 -0.46406,0.216025 -0.949598,0.388491 -1.078977,0.383256 -0.129389,-0.0052 0.01372,-0.101296 0.318169,-0.213485 1.803626,-0.664762 3.475482,-1.95144 4.410435,-3.394319 0.274648,-0.423853 0.525244,-0.770644 0.556878,-0.770644 0.120744,0 -0.342046,0.740683 -0.996907,1.595517 -0.374914,0.489401 -0.682738,1.018677 -0.684059,1.176169 -0.0019,0.228171 -0.03075,0.241551 -0.142,0.06585 -0.11349,-0.179266 -0.258754,-0.132872 -0.776728,0.248056 -0.485924,0.357354 -0.593656,0.512035 -0.453929,0.651761 0.100763,0.100763 0.240437,0.183199 0.310392,0.183199 0.06995,0 0.779185,-0.481853 1.576066,-1.07078 1.424153,-1.052506 1.454751,-1.088918 1.792889,-2.133605 l 0.344011,-1.062825 -0.465849,0.06838 c -0.280525,0.04115 -0.444174,0.0033 -0.411367,-0.09507 0.02996,-0.08989 0.253768,-0.166171 0.49734,-0.169491 0.367405,-0.0051 0.477111,-0.104598 0.643899,-0.584501 0.167357,-0.481548 0.164723,-0.608606 -0.01577,-0.758407 -0.119262,-0.09897 -0.290483,-0.13443 -0.380516,-0.07878 -0.09002,0.05565 -0.163683,-0.0088 -0.163683,-0.143315 0,-0.312579 0.138864,-0.30936 0.493337,0.01144 0.264132,0.239034 0.291931,0.23127 0.421093,-0.117624 0.265911,-0.718256 0.341414,-0.840774 0.263347,-0.427322 -0.04328,0.229179 -0.119223,0.522313 -0.168748,0.651403 -0.0601,0.156634 0.148325,0.398733 0.62662,0.727803 0.394178,0.271201 0.716689,0.529154 0.716689,0.573227 0,0.102063 -0.259039,-0.05154 -0.905997,-0.537218 -0.584672,-0.438931 -0.621862,-0.426311 -0.758609,0.257426 l -0.09964,0.49823 h 0.847274 c 1.027226,0 1.312905,-0.264279 1.567143,-1.449747 0.19866,-0.926329 0.09828,-4.216812 -0.147137,-4.823153 l -0.158692,-0.392058 -0.17294,0.392055 c -0.158842,0.360099 -0.165129,0.348966 -0.07713,-0.136581 l 0.09581,-0.528648 -0.714326,0.491471 c -0.392881,0.270308 -0.752735,0.553613 -0.799677,0.629566 -0.04693,0.07597 0.02003,0.436761 0.148826,0.801801 0.128791,0.365037 0.229196,0.743043 0.223119,0.840016 -0.006,0.09698 -0.112762,-0.105976 -0.237092,-0.45098 -0.124319,-0.345008 -0.258889,-0.717101 -0.299036,-0.826868 -0.05508,-0.150589 -0.141239,-0.157025 -0.350992,-0.02623 -0.240292,0.149845 -0.275088,0.400254 -0.256544,1.846215 l 0.02147,1.672863 -0.108745,-1.725048 c -0.198162,-3.14327 -1.258741,-5.149897 -3.653839,-6.91307 -0.85068,-0.626233 -0.877515,-0.666116 -0.510207,-0.758306 0.213237,-0.05352 0.3877,-0.1548 0.3877,-0.225073 0,-0.07027 -0.403796,-0.404137 -0.897325,-0.741918 -1.276005,-0.873334 -3.52547,-2.574433 -3.404318,-2.574433 0.0561,0 0.571228,0.341263 1.144689,0.758362 1.190498,0.865894 1.767396,1.206421 1.953237,1.15294 0.0711,-0.02047 0.09099,0.02476 0.04417,0.10049 -0.0468,0.07573 0.236694,0.368786 0.629999,0.651236 l 0.715096,0.513545 0.695922,-0.490529 c 0.900516,-0.634742 1.108906,-0.640217 0.247176,-0.0065 -0.362003,0.266219 -0.658184,0.540384 -0.658184,0.609254 0,0.135043 0.783743,0.690728 0.853413,0.605085 0.02316,-0.02846 0.155077,-0.390422 0.293155,-0.804374 0.189053,-0.566742 0.210033,-0.842696 0.08495,-1.11726 -0.368711,-0.809233 -4.041347,-2.177315 -5.654176,-2.10622 -0.667597,0.02944 -0.754282,0.07809 -0.916368,0.514498 -0.334767,0.901314 -0.47989,1.154532 -0.366113,0.638815 0.220316,-0.998646 0.1824,-1.094088 -0.455551,-1.146753 -1.274312,-0.105196 -5.269209,1.327181 -5.519323,1.978966 -0.04897,0.127608 -0.06974,0.240298 -0.04614,0.250409 0.0236,0.01001 0.338682,0.247006 0.700196,0.526432 0.361515,0.279427 0.714366,0.507419 0.784114,0.506648 0.06974,-7.84e-4 0.577944,-0.351563 1.129327,-0.779538 0.551383,-0.427977 1.068274,-0.737498 1.148642,-0.687827 0.08039,0.04967 -0.04193,0.187881 -0.271801,0.307134 -0.229861,0.119262 -0.711465,0.44302 -1.07023,0.719479 -0.358767,0.276458 -0.682436,0.525056 -0.719266,0.552435 -0.03682,0.02737 0.06736,0.147991 0.231531,0.268047 0.261137,0.190948 0.387276,0.17346 1.007898,-0.139698 0.390172,-0.196876 1.109384,-0.4469 1.598254,-0.555603 0.796534,-0.177115 0.914513,-0.256429 1.135947,-0.763654 0.237547,-0.544131 0.248954,-0.233235 0.01261,0.341875 -0.104455,0.25412 -0.01372,0.279548 0.962347,0.269483 0.592732,-0.006 1.324689,0.05054 1.626573,0.125931 0.367433,0.09175 -0.02678,0.11232 -1.192518,0.06222 -2.100275,-0.09022 -2.987016,0.08987 -4.645938,0.94353 -2.788571,1.434966 -4.511827,4.32655 -4.511827,7.570739 0,2.331343 0.758971,4.215141 2.430747,6.033201 0.517512,0.562799 0.812056,0.922075 0.654541,0.79839 -0.248732,-0.195309 -0.305124,-0.195274 -0.428858,3.13e-4 -0.107068,0.169213 -0.143074,0.125307 -0.144874,-0.17678 -0.0014,-0.244092 -0.193785,-0.582792 -0.489666,-0.862524 -0.267956,-0.25333 -0.698115,-0.831093 -0.955903,-1.283919 l -0.468712,-0.823285 h -1.396432 c -0.768039,0 -1.396433,0.0286 -1.396433,0.06357 0,0.06506 1.945774,1.514097 2.329933,1.735128 0.162608,0.09356 0.190744,0.03455 0.119236,-0.250037 -0.06039,-0.240412 -0.01318,-0.197951 0.133356,0.119743 0.205692,0.446122 2.835282,2.565805 3.183032,2.565805 0.07204,0 0.211357,-0.08039 0.309605,-0.178634 0.133614,-0.133616 0.09213,-0.253242 -0.164667,-0.474771 -0.18881,-0.162868 0.115414,-0.05301 0.676054,0.244131 1.458966,0.773277 2.502511,1.033888 4.223463,1.05475 0.825305,0.01001 1.381409,0.04962 1.235786,0.08807 -0.168434,0.04445 -0.410928,0.508731 -0.666495,1.276128 -0.22095,0.66345 -0.401726,1.261442 -0.401726,1.32887 0,0.17513 0.391916,-0.06126 1.679628,-1.012986 z M 21.129359,25.244083 c 0,-0.09789 1.985877,-1.512834 2.123251,-1.512834 0.05873,0 -0.306774,0.303414 -0.812214,0.674248 -1.072843,0.787134 -1.311037,0.939494 -1.311037,0.838586 z M 18.05302,43.552491 c 0.248692,-0.217894 0.389833,-0.449366 0.313644,-0.514375 -0.573896,-0.489701 -2.406821,-1.742751 -2.549244,-1.742751 -0.09728,0 -0.176854,-0.05606 -0.176854,-0.124566 0,-0.127127 -2.55288,-2.070957 -2.719826,-2.070957 -0.183867,0 0.546538,1.474186 1.249547,2.522002 0.68216,1.016742 2.196219,2.606763 2.342722,2.460259 0.03729,-0.0373 -0.109356,-0.588697 -0.325878,-1.225325 -0.216532,-0.636632 -0.372934,-1.219795 -0.347559,-1.29592 0.02538,-0.07612 0.248864,0.495942 0.49664,1.271264 0.444572,1.391109 0.455866,1.407744 0.857569,1.263106 0.223886,-0.08062 0.610541,-0.324849 0.859232,-0.542745 z m 13.257555,-1.061468 c 0.0066,0.09698 -0.09437,0.478473 -0.224665,0.84778 -0.130294,0.36931 -0.207145,0.701233 -0.170769,0.73761 0.113269,0.113269 1.284451,-1.022276 1.967371,-1.907469 0.627531,-0.813395 1.783171,-2.914952 1.666875,-3.031246 -0.09035,-0.09035 -2.756103,1.859633 -2.756103,2.016084 0,0.07787 -0.0882,0.142334 -0.196027,0.143242 -0.166336,0.0015 -1.161569,0.679335 -2.391544,1.629093 -0.310685,0.239903 -0.309944,0.245287 0.07841,0.57021 0.215631,0.180416 0.603767,0.424002 0.862524,0.541314 l 0.470469,0.213294 0.340605,-0.968107 c 0.187339,-0.53246 0.346121,-0.888767 0.352855,-0.791797 z m 2.128636,-2.833383 1.097044,-0.793024 -0.843117,-0.04811 c -1.103831,-0.06299 -1.178009,-0.02336 -1.410854,0.753813 -0.108745,0.362966 -0.239967,0.770024 -0.291601,0.904573 -0.114803,0.29918 -0.02876,0.250631 1.448528,-0.81725 z M 14.668199,38.119709 c -0.09456,-0.280319 -0.196872,-0.539193 -0.227336,-0.575274 -0.03046,-0.03607 -0.39048,0.163905 -0.800037,0.444424 -0.714437,0.48934 -0.424237,0.163239 0.368867,-0.414498 0.38236,-0.278528 0.382738,-0.281613 0.127023,-1.032075 -0.141053,-0.413986 -0.21643,-0.79275 -0.167487,-0.841693 0.04895,-0.04894 0.171105,0.237162 0.27149,0.635789 0.17242,0.684728 0.472199,0.927069 0.696953,0.563412 0.05485,-0.08873 0.09972,-0.910003 0.09972,-1.825002 0,-1.286936 -0.05453,-1.718168 -0.240851,-1.904484 -0.216588,-0.216591 -0.2587,-0.19467 -0.41801,0.217569 -0.09745,0.252131 -0.256043,0.828915 -0.352462,1.281739 -0.172384,0.809582 -0.424205,1.116949 -0.424205,0.51777 0,-0.297304 -0.731803,-2.764769 -0.905681,-3.053741 -0.388826,-0.646195 -0.65138,3.99117 -0.305618,5.39798 l 0.211988,0.862525 0.452049,-1.36753 c 0.248625,-0.752141 0.480757,-1.338819 0.515846,-1.303729 0.0351,0.0351 -0.125138,0.631116 -0.356059,1.32451 -0.23092,0.693394 -0.375183,1.333002 -0.320581,1.421351 0.05458,0.08834 0.514862,0.160622 1.022799,0.160622 h 0.923521 z m 0.921928,0.290764 c -0.04621,-0.120406 -0.170975,-0.509188 -0.277271,-0.863973 -0.180991,-0.604075 -0.210916,-0.629086 -0.471075,-0.393643 -0.152795,0.138289 -0.249381,0.332997 -0.21463,0.43271 0.324129,0.930047 0.401806,1.043817 0.712675,1.043817 0.22165,0 0.305997,-0.07378 0.250301,-0.218911 z m -1.456029,-4.720997 0.26026,-0.784112 -0.513855,-0.427044 c -0.28262,-0.234873 -0.566783,-0.42894 -0.631472,-0.431262 -0.06468,-0.0021 -0.117624,-0.07524 -0.117624,-0.162014 0,-0.0868 0.293549,0.05483 0.65233,0.314741 0.358782,0.2599 0.665873,0.454411 0.68242,0.432245 0.01651,-0.02217 0.107458,-0.269654 0.202035,-0.549974 l 0.171939,-0.509675 -0.815161,0.0025 c -1.278124,0.0037 -1.299399,0.04935 -0.788205,1.689275 0.243931,0.782531 0.487061,1.374805 0.540285,1.316163 0.05323,-0.05863 0.213889,-0.459473 0.357034,-0.890735 z m 1.257066,-1.284179 c 0.197886,-0.580761 0.209224,-0.761535 0.05395,-0.860125 -0.141256,-0.08969 -0.120237,-0.125489 0.07467,-0.127218 0.154578,-0.0015 0.401318,-0.257348 0.573648,-0.595145 0.16632,-0.32601 0.591171,-0.942203 0.944123,-1.369319 0.604339,-0.731337 0.769834,-1.150824 0.543362,-1.377295 -0.0541,-0.0541 -0.499866,0.210588 -0.990591,0.588193 -0.786708,0.605355 -0.926429,0.799492 -1.181352,1.641454 -0.15901,0.525193 -0.317897,0.926121 -0.353067,0.890951 -0.03517,-0.03516 0.04358,-0.42598 0.174961,-0.868465 0.170325,-0.57357 0.184646,-0.771464 0.04988,-0.689367 -0.103974,0.06332 -0.711201,0.488974 -1.3494,0.94587 l -1.160359,0.830723 h 1.218767 c 0.952208,0 1.185245,0.04287 1.065497,0.196028 -0.315502,0.403515 -0.491681,1.173388 -0.31008,1.354989 0.289065,0.289066 0.384526,0.206128 0.646004,-0.561272 z m 17.280373,-0.167375 c -0.13751,-0.398875 -0.310778,-0.603203 -0.540341,-0.637247 -0.403554,-0.05985 -0.398545,-0.105313 -0.0886,0.80428 0.21684,0.636394 0.287179,0.711356 0.540339,0.575867 0.263067,-0.140793 0.271588,-0.212215 0.08861,-0.7429 z m 1.08203,-0.120224 0.627291,-0.540657 -0.823319,-0.0025 c -0.857232,-0.0024 -0.909713,0.05137 -0.724473,0.742573 0.122109,0.455678 0.173071,0.444631 0.920501,-0.199583 z m -1.430508,-1.054997 -0.06815,-0.352849 0.156189,0.352849 c 0.13955,0.315239 0.268129,0.352851 1.206282,0.352851 h 1.05009 l -1.311631,-0.935709 c -0.721394,-0.514644 -1.334775,-0.912567 -1.363068,-0.884275 -0.02828,0.02828 0.02307,0.247439 0.114153,0.486995 0.09107,0.239556 0.133224,0.467924 0.09368,0.507484 -0.03958,0.03958 -0.160939,-0.225166 -0.269742,-0.588281 -0.149679,-0.499593 -0.394249,-0.808531 -1.005259,-1.269849 -0.4441,-0.335297 -0.889257,-0.609635 -0.989235,-0.609635 -0.09998,0 -0.18177,-0.06575 -0.18177,-0.146134 0,-0.285785 -0.932817,-0.818505 -1.254472,-0.716416 -0.172569,0.05479 -0.312245,0.147751 -0.310405,0.206633 0.007,0.216483 1.255619,0.985369 1.427716,0.87901 0.108589,-0.06712 0.148769,-0.02507 0.103168,0.107939 -0.04106,0.119808 0.237736,0.567021 0.61958,0.993777 0.381846,0.426757 0.831152,1.044247 0.998459,1.372198 0.223907,0.438893 0.402962,0.596275 0.678385,0.596275 0.30369,0 0.361347,-0.06649 0.306033,-0.352848 z M 14.310297,30.131872 c 0.731652,-0.533517 1.330275,-1.027506 1.330275,-1.097757 0,-0.07025 0.07877,-0.127712 0.175019,-0.127712 0.09625,0 0.514344,-0.24909 0.929081,-0.553534 l 0.75406,-0.553531 -0.328604,-0.97305 -0.328604,-0.973047 -0.509748,1.487376 c -0.280363,0.818055 -0.515292,1.411524 -0.522066,1.318815 -0.007,-0.09272 0.163962,-0.686824 0.379404,-1.320259 0.215446,-0.633436 0.360149,-1.18327 0.321565,-1.221854 -0.146766,-0.146766 -1.698674,1.488265 -2.344058,2.469624 -0.642653,0.977211 -1.412404,2.514975 -1.258907,2.514975 0.03977,0 0.670932,-0.436513 1.402583,-0.970031 z M 34.340051,30.51382 C 33.7233,29.175271 32.977063,28.064708 32.027325,27.071984 31.473678,26.493278 30.984946,26.05554 30.941251,26.099235 c -0.04371,0.04368 0.147787,0.763607 0.425502,1.599809 l 0.504946,1.520368 1.254578,0.93173 c 0.690021,0.512454 1.306368,0.936014 1.36966,0.941248 0.06329,0.0052 -0.007,-0.255123 -0.155893,-0.57857 z m -3.295379,-3.271126 -0.446346,-1.394343 -0.33335,0.980674 -0.333352,0.980671 0.731424,0.558483 c 0.402285,0.307167 0.753147,0.493317 0.779697,0.41367 0.02655,-0.07964 -0.152592,-0.772268 -0.398073,-1.539155 z m -12.453215,0.76831 c 0.31769,-0.233704 0.610862,-0.449253 0.651491,-0.478994 0.09668,-0.07078 -0.341851,-0.346807 -0.544337,-0.342625 -0.353462,0.0072 -1.030149,0.722263 -0.930176,0.982789 0.131054,0.341502 0.142851,0.339191 0.823022,-0.161161 z m -0.441725,-0.679031 0.392057,-0.312862 -0.470467,-0.397105 c -0.258758,-0.218407 -0.604667,-0.472396 -0.768688,-0.564418 -0.241976,-0.135766 -0.281055,-0.12259 -0.207214,0.06984 0.05005,0.130443 0.177782,0.52678 0.283838,0.880769 0.106054,0.353987 0.234589,0.642044 0.285624,0.640124 0.05104,-0.0019 0.269219,-0.14428 0.48485,-0.316348 z m -10.6121465,21.175793 0.4970991,-1.099191 0.6501557,0.74634 0.6501558,0.746338 -0.7285679,0.166894 c -0.4007122,0.09178 -0.8827099,0.250575 -1.0711077,0.352851 -0.1883979,0.102284 -0.376807,0.185957 -0.4186889,0.185957 -0.041886,0 0.1475456,-0.494636 0.4209539,-1.099189 z M 39.556,49.267093 c -0.431262,-0.150532 -0.947097,-0.276789 -1.146301,-0.280565 -0.340543,-0.0065 -0.323243,-0.05306 0.289568,-0.779802 l 0.651751,-0.772937 0.524979,1.04308 c 0.288741,0.573695 0.511286,1.04777 0.494547,1.053503 -0.0167,0.0058 -0.383282,-0.112749 -0.814544,-0.263279 z M 5.1957568,48.848931 c 0.1373246,-0.222199 1.3503405,-1.01807 1.4301051,-0.938306 0.041423,0.04141 -0.2360322,0.2989 -0.6165621,0.572176 -0.6838517,0.491103 -0.9705155,0.620116 -0.813543,0.36613 z M 3.4084205,48.593453 c 0,-0.08326 1.6277723,-1.198499 2.1563097,-1.477352 0.7209272,-0.380357 0.3166925,-0.0034 -0.8162364,0.761028 -1.1244924,0.758799 -1.3400733,0.874037 -1.3400733,0.716324 z M 42.72878,47.857488 c -0.670036,-0.443423 -1.183397,-0.841068 -1.140804,-0.883659 0.07417,-0.07418 2.594286,1.512656 2.594286,1.633553 0,0.162256 -0.341054,-0.01372 -1.453482,-0.749894 z M 6.6015002,46.899755 C 5.670073,45.496127 5.2406308,44.742844 5.3242127,44.659264 c 0.040048,-0.04005 0.2781441,-0.02998 0.5291144,0.02234 0.6614452,0.137917 1.8601667,2.050178 1.7109775,2.729426 -0.056873,0.25898 -0.1507361,0.469967 -0.2085764,0.468858 -0.057839,-0.0011 -0.3972397,-0.442171 -0.754228,-0.980137 z m 33.2849228,0.734094 c -0.17934,-0.467344 -0.09425,-0.734669 0.571306,-1.795139 0.511449,-0.81491 0.772646,-1.084083 1.122803,-1.157102 0.25097,-0.05232 0.489073,-0.06238 0.529115,-0.02234 0.124787,0.124787 -1.821289,3.216513 -2.027197,3.22063 -0.05545,0.0011 -0.143668,-0.109616 -0.196027,-0.246045 z M 3.2515982,47.033777 c 0,-0.10647 2.0713141,-1.210211 2.1407778,-1.140748 0.035486,0.03549 -0.3661574,0.321078 -0.8925449,0.634647 -0.8777106,0.522848 -1.2482329,0.673078 -1.2482329,0.506101 z M 42.927683,46.465442 C 42.367042,46.12374 41.991492,45.84395 42.093124,45.84369 c 0.189145,-4.7e-4 2.089138,1.085436 2.089138,1.194025 0,0.146043 -0.302134,0.0082 -1.254579,-0.572273 z M 43.751,45.175303 c -0.366574,-0.184145 -0.666496,-0.392668 -0.666496,-0.463381 0,-0.07071 0.352851,0.05024 0.784113,0.268773 0.431262,0.218534 0.784112,0.431435 0.784112,0.47311 0,0.132427 -0.217343,0.0653 -0.901729,-0.278502 z m -0.07917,-0.835737 c -0.05074,-0.05075 -0.582399,-0.09224 -1.181472,-0.09224 h -1.089222 l 0.348686,-0.731069 c 0.191776,-0.402089 0.382736,-0.836926 0.424352,-0.966303 0.05326,-0.16554 0.150476,-0.09113 0.328173,0.251161 0.138883,0.267514 0.510513,0.71293 0.82586,0.989807 0.315347,0.27688 0.542423,0.534349 0.504615,0.572158 -0.0378,0.0378 -0.110266,0.02723 -0.160993,-0.0235 z M 4.2358444,43.671272 c 0.3007933,-0.314846 0.6376329,-0.748684 0.7485367,-0.964088 0.1496417,-0.290637 0.2208973,-0.331079 0.2763114,-0.156821 0.04107,0.129142 0.2295378,0.559567 0.4188187,0.956483 l 0.3441462,0.721658 -1.1673537,0.0077 -1.1673536,0.0077 0.5468943,-0.572446 z m -0.061363,-1.395765 c -0.33215,-0.85721 -0.8345266,-3.002649 -0.7280355,-3.10914 0.5214772,-0.521476 1.7313174,2.300109 1.347469,3.142564 -0.2336893,0.512893 -0.4114654,0.5033 -0.6194335,-0.03342 z m 38.4633576,0.02882 c -0.14992,-0.329028 -0.122876,-0.607911 0.148233,-1.529021 0.319037,-1.083915 0.731068,-1.675469 1.167001,-1.675469 0.158547,0 0.120887,0.320099 -0.162069,1.377412 -0.39104,1.461196 -0.688558,2.229506 -0.863336,2.229506 -0.05856,0 -0.18899,-0.181102 -0.289836,-0.402428 z M 3.565243,38.719748 C 3.349612,38.603853 2.8587382,38.456877 2.4744093,38.393144 L 1.7756325,38.277262 2.395999,37.965204 c 0.3412006,-0.171623 0.8089221,-0.488462 1.0393782,-0.704068 l 0.4190135,-0.392011 0.1038414,0.762512 c 0.057115,0.419382 0.1379554,0.88601 0.1796369,1.036951 0.089688,0.324724 -0.041792,0.336472 -0.5726286,0.05114 z m 39.723217,-0.02743 c 0.04583,-0.164 0.128362,-0.629991 0.183401,-1.035559 l 0.100074,-0.737395 0.694082,0.529802 c 0.381743,0.291393 0.854274,0.58069 1.050067,0.642878 0.296572,0.0942 0.198945,0.157915 -0.584946,0.381741 -0.517516,0.147769 -1.072577,0.324472 -1.23347,0.392681 -0.237562,0.100711 -0.27688,0.06799 -0.209211,-0.174148 z M 3.0439364,36.958045 c -0.1556149,-0.155614 -0.1294593,-3.627601 0.028048,-3.724948 0.073717,-0.04556 0.2836904,0.07649 0.4666106,0.271186 0.2842487,0.30257 0.3313764,0.538866 0.3242719,1.625897 -0.00723,1.109582 -0.053275,1.314114 -0.3606279,1.602866 -0.1937738,0.182047 -0.4000074,0.28329 -0.4582985,0.224999 z M 43.895951,36.698201 c -0.291653,-0.310453 -0.340978,-0.545137 -0.340978,-1.622329 0,-1.020897 0.05431,-1.308521 0.286787,-1.518913 0.581672,-0.526406 0.654146,-0.346658 0.654146,1.622331 0,1.03503 -0.05827,1.881868 -0.12948,1.881868 -0.07121,0 -0.282928,-0.163332 -0.470469,-0.362957 z M 3.5683333,33.065912 C 3.4457373,32.91818 2.989103,32.592936 2.5536023,32.343138 1.8843736,31.959276 1.8224821,31.887668 2.1538418,31.880606 c 0.347858,-0.0073 0.9334437,-0.186137 1.7566418,-0.536144 0.23212,-0.09868 0.2554742,-0.03515 0.1795441,0.488491 C 4.0420197,32.164025 3.9551516,32.637309 3.896996,32.8847 3.799813,33.298094 3.7732126,33.312761 3.5683351,33.065914 Z M 43.419406,32.337548 c -0.09491,-0.538873 -0.145097,-1.007259 -0.111488,-1.040858 0.03359,-0.0336 0.271949,0.04795 0.529666,0.181233 0.25772,0.133261 0.762356,0.289289 1.121416,0.346704 l 0.652839,0.104403 -0.675581,0.382219 c -0.371578,0.21022 -0.826042,0.52259 -1.009931,0.694154 L 43.59199,33.317332 Z M 3.654004,29.682781 c 0.2088806,-0.780522 0.4766405,-1.603985 0.5950219,-1.829926 l 0.2152395,-0.410798 0.2649866,0.40442 c 0.2512096,0.383395 0.2473587,0.464272 -0.074051,1.555487 -0.3257076,1.105821 -0.7361658,1.699941 -1.1744379,1.699941 -0.1580818,0 -0.1174394,-0.332958 0.1732373,-1.419124 z m 39.819195,1.243718 c -0.464833,-0.226077 -1.084039,-2.483277 -0.832606,-3.035108 0.09933,-0.218022 0.232192,-0.396403 0.295235,-0.396403 0.153592,0 0.543719,0.996648 0.844526,2.1575 0.377344,1.456219 0.344822,1.591107 -0.307155,1.274011 z M 4.8410762,27.294143 C 4.6473137,26.980631 4.2908836,26.557601 4.0490084,26.354074 L 3.6092339,25.98403 4.8339475,25.97613 6.058661,25.96833 5.6964305,26.692491 c -0.1992255,0.398287 -0.3939174,0.824867 -0.4326459,0.947953 -0.046319,0.147175 -0.1910189,0.02867 -0.4227084,-0.346227 z m 37.3107168,0.396108 c -0.0045,-0.108238 -0.172735,-0.537819 -0.373807,-0.954622 l -0.365588,-0.757821 1.135875,0.01001 1.135875,0.01001 -0.49585,0.553992 c -0.272717,0.304697 -0.615647,0.729786 -0.762064,0.944642 -0.146415,0.214857 -0.269917,0.30209 -0.274441,0.193851 z M 3.5112387,25.281206 C 3.1796526,25.10628 2.9433998,24.928109 2.9862296,24.885279 c 0.042831,-0.04283 0.4199817,0.100126 0.8381159,0.317682 0.4181342,0.217555 0.6543889,0.395722 0.525011,0.395926 -0.1293851,1.56e-4 -0.5065317,-0.14276 -0.8381178,-0.317681 z m 1.7790519,0.20774 c 0,-0.134914 1.4106925,-2.424515 1.8071661,-2.933101 0.2093554,-0.268553 0.2649104,-0.279662 0.3921384,-0.07841 0.081527,0.12896 0.1493078,0.370688 0.1506248,0.537179 0.00296,0.379265 -1.2004243,2.246129 -1.5782756,2.448348 -0.3401191,0.18203 -0.7716592,0.196557 -0.7716592,0.02598 z m 36.0691664,0.018 c -0.302149,-0.08971 -1.568983,-2.112663 -1.565823,-2.500394 0.0012,-0.162033 0.06911,-0.400107 0.150625,-0.529066 0.127218,-0.201227 0.182605,-0.190112 0.390668,0.07842 0.337358,0.435383 1.808637,2.844432 1.808637,2.961438 0,0.105066 -0.413738,0.09958 -0.784112,-0.0104 z M 4.3585388,23.951859 C 3.8892013,23.659492 3.430495,23.339219 3.3391925,23.240146 c -0.2190868,-0.237733 1.290957,0.573637 1.7942758,0.964092 0.6188362,0.480069 0.1620515,0.331301 -0.7749295,-0.252379 z m 37.6282082,0.503412 c 0,-0.13456 1.936668,-1.202369 2.088769,-1.151667 0.09039,0.03012 -0.301141,0.315101 -0.870073,0.633265 -0.99029,0.553801 -1.218696,0.65096 -1.218696,0.518402 z M 4.6147474,22.603333 C 3.9481084,22.16307 3.4371505,21.768377 3.4792866,21.726239 c 0.042127,-0.04212 0.5481112,0.232972 1.1243867,0.611349 0.5762772,0.378378 1.123255,0.73705 1.2155053,0.79705 0.092248,0.06 0.131704,0.145116 0.087685,0.189134 -0.044018,0.04401 -0.625477,-0.280173 -1.2921162,-0.720439 z M 41.51628,23.343972 c 0,-0.133838 2.334043,-1.651414 2.539886,-1.651414 0.110942,0 -0.378018,0.388134 -1.086584,0.862522 -1.244349,0.833099 -1.453302,0.946524 -1.453302,0.788892 z M 7.5393347,21.697397 7.0439867,20.622776 7.6031165,20.856395 c 0.3075213,0.128492 0.8235339,0.280978 1.1466947,0.338864 l 0.5875648,0.105248 -0.6513466,0.735759 -0.6513448,0.735757 z m 31.1857023,0.328191 -0.644342,-0.764146 0.610612,-0.0819 c 0.335838,-0.04505 0.83802,-0.195346 1.115962,-0.334002 0.277937,-0.13866 0.52402,-0.233425 0.546843,-0.2106 0.02282,0.02282 -0.189403,0.516991 -0.47162,1.098148 l -0.51312,1.056647 z M 5.8020626,21.965246 c -0.3654193,-0.267287 -0.631335,-0.519037 -0.5909242,-0.559445 0.078447,-0.07845 1.2927395,0.720854 1.4282666,0.940143 0.1564125,0.253074 -0.1799707,0.100139 -0.8373424,-0.380698 z m 35.6227294,-0.0298 c 0.337818,-0.306095 0.690666,-0.553999 0.78411,-0.550895 0.194745,0.0065 -0.61451,0.715762 -1.084679,0.950705 -0.172514,0.0862 -0.03724,-0.09372 0.300569,-0.39981 z M 6.5243347,20.874959 C 6.4062464,20.762065 5.9021391,20.32525 5.4040847,19.904242 4.9060322,19.483237 4.5329779,19.10433 4.5750768,19.062233 c 0.064256,-0.06427 0.4590607,0.244607 2.1945723,1.716831 0.080506,0.06828 0.1065506,0.16398 0.057876,0.212654 -0.048675,0.04868 -0.185109,-0.0039 -0.30319,-0.116753 z m 2.4141744,-0.09447 c -0.1363224,-0.08657 0.026746,-0.334208 0.5488777,-0.833499 0.7910972,-0.756499 1.9799662,-1.704506 2.1375762,-1.704506 0.05228,0 0.0903,0.229354 0.08452,0.509674 -0.0089,0.43001 -0.166522,0.638361 -1.008507,1.33299 -0.9673849,0.798089 -1.3580322,0.952209 -1.7624553,0.695341 z M 36.704838,20.076902 c -0.810969,-0.681957 -0.971064,-0.898342 -0.98014,-1.324767 -0.0059,-0.28032 0.04702,-0.50967 0.117741,-0.50967 0.328608,0 2.875656,2.342447 2.756565,2.535135 -0.217136,0.351336 -0.977684,0.07 -1.894169,-0.700698 z m 4.654619,0.196314 c 0.946037,-0.839017 1.625492,-1.33595 1.550821,-1.134229 -0.08015,0.216548 -1.949634,1.770828 -2.122661,1.764778 -0.07362,-0.0026 0.183699,-0.28632 0.57184,-0.630549 z m -1.392834,-0.250297 c 0.07428,-0.223192 2.758567,-2.722108 2.921207,-2.719473 0.06506,10e-4 -0.342194,0.44212 -0.904976,0.980141 -1.527591,1.460383 -2.08279,1.939334 -2.016231,1.739332 z M 5.8391698,18.62697 C 5.0628972,17.89816 4.4983379,17.303007 4.5845892,17.304409 c 0.086257,0.0015 0.7919527,0.597914 1.5682253,1.32558 0.7762706,0.727666 1.3408319,1.322821 1.2545788,1.322562 C 7.3211366,19.952238 6.6154405,19.355783 5.8391698,18.62697 Z M 7.49626,18.467239 C 6.8672771,17.816816 6.3803062,17.256997 6.4140985,17.223205 c 0.091155,-0.09116 0.2661422,0.06344 1.3765719,1.216189 0.5558112,0.576991 0.974257,1.085382 0.9298784,1.129761 C 8.676177,19.613522 8.1252412,19.117672 7.49626,18.467242 Z m 31.432448,0.859215 c 0.769894,-0.916154 2.020477,-2.173831 2.091222,-2.103084 0.08424,0.08424 -1.990303,2.312108 -2.248044,2.414198 -0.08625,0.03416 -0.01577,-0.105846 0.15682,-0.311114 z M 7.7524262,16.886627 C 6.7346622,15.714635 5.9407469,14.71693 5.9881734,14.669503 c 0.047431,-0.04744 0.1072552,-0.05682 0.1329654,-0.02089 0.069988,0.09785 3.092693,3.617806 3.456506,4.025108 0.1733485,0.194069 0.2499445,0.350813 0.1702137,0.348324 -0.079727,-0.0024 -0.9776704,-0.96343 -1.9954361,-2.135421 z m 30.1099388,1.918716 c 0.248498,-0.438374 3.57894,-4.168415 3.72246,-4.169098 0.08082,-3.75e-4 -0.03128,0.193371 -0.249094,0.430564 -0.21783,0.237195 -1.084082,1.225176 -1.925001,2.195513 -1.436913,1.658054 -1.842942,2.062683 -1.548365,1.543021 z M 11.988453,17.968025 c -0.04559,-0.49595 -0.135803,-1.071657 -0.200439,-1.279346 l -0.117532,-0.377618 0.322444,0.322441 c 0.177337,0.177338 0.650799,0.514873 1.052125,0.750067 l 0.729683,0.427622 -0.785937,0.529281 c -0.432267,0.291104 -0.815526,0.529282 -0.851689,0.529282 -0.03615,0 -0.103044,-0.405778 -0.14864,-0.901729 z m 22.413616,0.356577 -0.7629,-0.527873 0.60608,-0.312356 c 0.333342,-0.17179 0.769525,-0.466737 0.969294,-0.655424 0.441999,-0.417477 0.561797,-0.339492 0.346871,0.225804 -0.08867,0.23321 -0.161218,0.736989 -0.161218,1.119508 0,0.382522 -0.05292,0.691604 -0.117624,0.686852 -0.06468,-0.0048 -0.460923,-0.246182 -0.880516,-0.536511 z M 9.5193612,16.733537 C 8.996945,16.076133 8.6079604,15.499811 8.654949,15.452821 c 0.046988,-0.04699 0.1082575,-0.05604 0.136156,-0.02008 0.0279,0.03594 0.3927687,0.524049 0.8108313,1.084689 0.4180597,0.560639 0.8272997,1.107558 0.9094177,1.215374 0.08211,0.107809 0.106234,0.196027 0.05357,0.196027 -0.05264,0 -0.523157,-0.537876 -1.0455711,-1.195281 z M 37.78201,16.673152 c 0.528876,-0.690606 0.991611,-1.225635 1.028295,-1.188949 0.09311,0.09311 -1.692676,2.444602 -1.856474,2.444602 -0.07339,0 0.299299,-0.565044 0.828179,-1.255653 z m -24.140922,0.681333 c -0.107809,-0.04349 -0.19603,-0.142779 -0.19603,-0.220595 0,-0.158898 1.465693,-0.927479 2.685986,-1.408475 l 0.803558,-0.316734 -0.09599,0.358337 c -0.0528,0.197087 -0.09695,0.414022 -0.09815,0.48208 -0.0032,0.18548 -2.218686,1.211137 -2.585287,1.196867 -0.174944,-0.0069 -0.406281,-0.04797 -0.514096,-0.09149 z M 31.871699,16.98258 c -0.867312,-0.416376 -1.324907,-0.884731 -1.330679,-1.361975 -0.0027,-0.233537 0.128141,-0.188772 2.036379,0.696109 1.386989,0.643163 1.468804,0.706401 1.1854,0.91624 -0.429083,0.317703 -0.813922,0.266751 -1.8911,-0.250374 z M 10.167801,15.197387 C 9.5552273,14.287726 9.0540289,13.464468 9.0540289,13.367924 c 0,-0.09655 0.5348554,0.614067 1.1885661,1.579134 0.653709,0.965069 1.154906,1.788324 1.113769,1.829462 -0.04114,0.04115 -0.575989,-0.669475 -1.188563,-1.579133 z m 27.060081,-0.170942 c 0.661045,-0.992542 1.233946,-1.772571 1.273121,-1.733397 0.09217,0.09217 -2.200432,3.531144 -2.356643,3.535054 -0.0651,0.0018 0.422482,-0.809116 1.083522,-1.801657 z m -25.5884,-0.153543 c -0.580914,-1.00038 -1.026514,-1.848564 -0.990223,-1.884856 0.03629,-0.0363 0.548645,0.74514 1.138568,1.73651 0.589922,0.991372 1.035521,1.839557 0.990223,1.884855 -0.0453,0.04531 -0.557656,-0.73613 -1.138568,-1.736509 z m 23.021397,1.683721 c 0.494943,-0.919649 2.19941,-3.649712 2.248183,-3.600938 0.09311,0.09309 -2.031548,3.702489 -2.18461,3.711273 -0.06978,0.0041 -0.09838,-0.04566 -0.06357,-0.110331 z m -17.43977,-0.620467 c 0.08613,-0.226552 0.17153,-0.787763 0.189766,-1.247132 l 0.03315,-0.835221 0.306864,0.430078 c 0.168785,0.236544 0.540934,0.656265 0.827018,0.932711 l 0.520156,0.502632 -0.65049,0.175166 c -0.357771,0.09633 -0.815322,0.237827 -1.016785,0.314425 -0.345282,0.131276 -0.357309,0.115635 -0.209684,-0.272651 z m 11.883506,0.0117 -0.728393,-0.223356 0.418556,-0.426811 c 0.230209,-0.234745 0.613579,-0.673806 0.851936,-0.975689 0.390452,-0.494512 0.424604,-0.510046 0.344801,-0.156822 -0.0487,0.215631 0.0088,0.76255 0.12792,1.215374 0.248921,0.946599 0.239418,0.951909 -1.014823,0.567304 z m -16.250173,-1.65696 c -1.266083,-2.357812 -1.930941,-3.732982 -1.802898,-3.729062 0.145839,0.0046 2.747926,5.026167 2.653381,5.120711 -0.03693,0.03694 -0.419648,-0.589311 -0.850483,-1.391649 z m 21.338338,0.462278 c 0.299538,-0.539077 0.909816,-1.710886 1.356173,-2.604021 0.446356,-0.893136 0.85008,-1.58536 0.897163,-1.538277 0.113503,0.113516 -2.491468,5.122439 -2.664021,5.122439 -0.07365,0 0.11115,-0.441064 0.410685,-0.980141 z m -14.999397,0.53653 c -0.142741,-0.157729 -0.259537,-0.324976 -0.259537,-0.371651 0,-0.107627 1.505208,-0.395237 2.783598,-0.531884 1.035027,-0.11063 1.140065,-0.03504 0.702212,0.505424 -0.2042,0.252055 -0.571938,0.377614 -1.492731,0.509672 -1.535175,0.220173 -1.427028,0.227134 -1.733542,-0.111566 z m 7.076583,0.07218 c -0.726258,-0.122278 -1.126907,-0.274944 -1.288798,-0.491087 -0.392117,-0.523526 -0.285592,-0.593741 0.735249,-0.484623 1.396898,0.149316 2.783598,0.427857 2.783598,0.559133 0,0.223889 -0.581019,0.630732 -0.874871,0.612607 -0.165707,-0.01014 -0.775543,-0.09845 -1.355178,-0.19603 z M 13.988801,13.753427 c -0.385309,-0.830175 -0.700564,-1.585275 -0.700564,-1.678 0,-0.297171 0.242944,0.09255 0.675698,1.083923 0.745916,1.708781 0.89811,2.103487 0.811083,2.103487 -0.04712,0 -0.400906,-0.679235 -0.786217,-1.50941 z m 8.708782,1.407143 c 0,-0.04649 0.133169,-0.271869 0.295941,-0.500814 0.162774,-0.228946 0.388336,-0.725156 0.50126,-1.102688 l 0.205323,-0.686424 0.282177,0.830153 c 0.155187,0.456584 0.388336,0.947456 0.518083,1.090828 0.129753,0.143372 0.235909,0.291804 0.235909,0.32985 0,0.03803 -0.458707,0.08144 -1.019346,0.09641 -0.56064,0.01502 -1.019347,-0.01079 -1.019347,-0.05731 z m 10.046416,0.02385 c -0.01209,-0.12961 1.196856,-2.98922 1.35348,-3.201792 0.02647,-0.03594 0.08469,-0.0288 0.12935,0.01586 0.04466,0.04466 -0.267443,0.815052 -0.693567,1.711979 -0.426125,0.896927 -0.781291,1.560206 -0.789259,1.473956 z m -1.263365,-0.48353 c 5.46e-4,-0.07906 0.414776,-1.237592 0.92051,-2.574503 0.89345,-2.3618383 0.910093,-2.4336392 0.587093,-2.5327326 -0.328997,-0.1009292 -0.328828,-0.102154 0.01632,-0.117624 0.349618,-0.015582 0.827346,-0.6939981 0.827346,-1.1747584 0,-0.1285687 0.08086,-0.2837405 0.179693,-0.3448233 0.176112,-0.1088321 0.123487,0.3128045 -0.11739,0.9405019 -0.069,0.179822 -0.0033,0.2498036 0.234564,0.2498036 0.481973,0 0.404711,0.2841081 -0.09312,0.3424341 -0.393592,0.046113 -0.492047,0.2303377 -1.3921,2.6048197 -0.899449,2.3729 -1.165486,2.969234 -1.162987,2.606875 z M 14.869799,12.070724 C 13.970713,9.7021412 13.84434,9.4604072 13.505184,9.4604072 c -0.205572,0 -0.373771,-0.070564 -0.373771,-0.1568208 0,-0.08626 0.142093,-0.1568198 0.315751,-0.1568198 0.302019,0 0.305428,-0.024708 0.07842,-0.5680323 -0.276183,-0.6609981 -0.280103,-0.6865488 -0.105339,-0.6865488 0.0726,0 0.213543,0.2721654 0.313207,0.6048126 l 0.181214,0.6048127 0.784551,-0.1551327 C 15.5406,8.780323 15.563852,8.7505302 15.330829,8.1376223 c -0.08657,-0.2277068 -0.09198,-0.4022647 -0.01248,-0.4022647 0.07727,0 0.186982,0.2117113 0.243813,0.4704671 0.05684,0.2587576 0.160456,0.4704669 0.230269,0.4704669 0.06983,0 0.123656,0.088224 0.119665,0.1960294 -0.02811,0.7566934 0.06291,0.9125792 0.675925,1.157863 0.348588,0.139477 0.601627,0.285764 0.562309,0.325082 -0.03931,0.03932 -0.222584,-0.0094 -0.407253,-0.108212 -0.184684,-0.09883 -0.394459,-0.157479 -0.466185,-0.130322 -0.07173,0.02716 0.07281,0.684506 0.321174,1.460778 0.47486,1.484138 0.54288,1.81153 0.324187,1.560383 -0.07134,-0.08195 -0.326725,-0.832011 -0.567497,-1.666825 L 15.917027,9.9532251 15.143068,9.7675535 c -0.425679,-0.1021159 -0.80846,-0.151163 -0.850629,-0.1089985 -0.04216,0.042167 0.315817,1.122338 0.795523,2.400379 0.479704,1.278039 0.849812,2.390848 0.822457,2.472907 -0.02737,0.08206 -0.495611,-1.025445 -1.040577,-2.461118 z M 15.794995,9.5780247 C 15.789052,9.0929396 15.533453,8.9632692 14.800026,9.0732534 14.399802,9.1332614 14.07235,9.233097 14.07235,9.2951078 c 0,0.090059 0.715098,0.2935202 1.607427,0.4573509 0.06468,0.011876 0.116532,-0.066616 0.115219,-0.1744247 z m 2.462303,3.3293473 c -0.143243,-0.558919 -0.334618,-1.31614 -0.42528,-1.682713 -0.09068,-0.366572 -0.250336,-0.667576 -0.354824,-0.668896 -0.131352,-0.0017 -0.137306,-0.03796 -0.0193,-0.117618 0.121589,-0.08209 0.108251,-0.392291 -0.04637,-1.0788016 C 17.242248,8.60785 17.135645,8.4044192 16.927197,8.4351081 c -0.147008,0.021648 -0.179062,0.00909 -0.07126,-0.028048 0.265809,-0.091396 0.248946,-0.3337713 -0.125177,-1.799056 -0.17667,-0.6919171 -0.293812,-1.3388063 -0.260327,-1.4375323 0.03348,-0.098722 0.227198,0.5085592 0.430482,1.3495208 0.203283,0.8409596 0.42979,1.5290182 0.503347,1.5290182 0.07355,0 0.344554,-0.109018 0.602212,-0.2422536 C 18.433501,7.5859323 18.466285,7.5131016 18.37705,6.9834384 18.32321,6.663854 18.24247,6.2700406 18.197636,6.1082969 c -0.04753,-0.1714934 -0.0167,-0.2540087 0.07401,-0.1979566 0.08552,0.052866 0.203279,0.4145559 0.261644,0.8037524 0.05835,0.3891963 0.160604,0.7076288 0.227201,0.7076288 0.06661,0 0.382348,-0.2293523 0.701673,-0.5096741 L 20.042761,6.4023756 19.804821,4.75574 c -0.249112,-1.7239231 -0.293809,-2.2979095 -0.16925,-2.173349 0.04094,0.04094 0.181993,0.8406517 0.313456,1.777132 0.131462,0.9364802 0.276335,1.7400136 0.321949,1.7856277 0.119431,0.1194245 0.997161,-0.9579016 1.681696,-2.0641317 0.323447,-0.5226959 0.588086,-0.8729079 0.588086,-0.7782462 0,0.09466 -0.360484,0.7110791 -0.801075,1.369816 -0.888363,1.3282143 -2.252984,2.5583073 -3.536354,3.1877298 -0.848193,0.4159938 -0.907587,0.5035695 -0.699972,1.0321104 0.101426,0.2582402 0.288521,0.1499754 1.517999,-0.8784229 1.561694,-1.306292 2.752828,-2.5296978 3.911288,-4.0172554 l 0.774267,-0.994224 0.29134,0.3669328 c 1.734213,2.1841919 3.680812,4.1517215 5.300675,5.3576644 0.704639,0.5245839 0.769309,0.5229389 0.769309,-0.019571 0,-0.3679643 -0.120848,-0.4987112 -0.744907,-0.8059303 -0.409697,-0.2016887 -0.656694,-0.3980576 -0.548877,-0.4363723 0.107809,-0.038324 0.203062,-0.2578523 0.21166,-0.4878575 0.0085,-0.2300072 0.07665,-0.5946194 0.151255,-0.8102504 0.09075,-0.2623413 0.107757,-0.07919 0.05139,0.5536057 l -0.08425,0.9456605 0.553137,0.2637716 0.553134,0.2637716 0.352326,-1.562282 c 0.19378,-0.8592573 0.402444,-1.5622838 0.463698,-1.5622838 0.06126,0 0.0084,0.4410637 -0.117624,0.980141 -0.571747,2.4471474 -0.601066,2.2779912 0.437779,2.5258785 0.362986,0.086609 0.438262,0.036004 0.588791,-0.3957927 0.220834,-0.6334869 0.368869,-0.5062573 0.179452,0.1542234 -0.120055,0.4186073 -0.10062,0.5008925 0.120302,0.5092271 0.180304,0.00686 0.146432,0.056817 -0.107328,0.1584153 -0.286723,0.1148056 -0.353901,0.2370342 -0.296187,0.5389384 0.04105,0.2147545 0.01595,0.3904606 -0.05575,0.3904606 -0.07171,0 -0.361149,0.7572814 -0.643179,1.6828454 -0.282028,0.925566 -0.53653,1.559517 -0.565561,1.408779 -0.02903,-0.15074 0.137584,-0.845657 0.370231,-1.544262 0.348102,-1.045254 0.384943,-1.294309 0.208032,-1.406376 -0.174127,-0.1103092 -0.167838,-0.1366398 0.03315,-0.1385842 0.143224,-0.00139 0.31553,-0.2220196 0.407547,-0.5218393 0.157989,-0.5148088 0.153351,-0.5216204 -0.521827,-0.764412 L 30.383354,8.4020542 30.234473,8.9704384 c -0.400907,1.5306236 -0.405282,1.4543996 0.073,1.2725516 0.23734,-0.09024 0.461751,-0.133839 0.498693,-0.09689 0.03695,0.03694 -0.175073,0.147114 -0.471133,0.244824 -0.53068,0.175141 -0.543465,0.200906 -0.90264,1.819088 -0.200384,0.902788 -0.426338,1.641433 -0.502118,1.641433 -0.07577,0 -0.101465,-0.1235 -0.05705,-0.274439 0.0444,-0.150942 0.19401,-0.733145 0.332474,-1.293786 0.138474,-0.560641 0.291978,-1.15512 0.341134,-1.321064 0.0812,-0.274157 0.02772,-0.265304 -0.585643,0.09692 -0.503563,0.297386 -0.689776,0.513436 -0.733129,0.850595 -0.03197,0.248577 -0.124436,0.663669 -0.205466,0.922424 -0.115544,0.368931 -0.128544,0.284318 -0.06023,-0.392054 l 0.08713,-0.862525 -0.582813,0.548878 c -0.320558,0.301884 -0.790563,0.76059 -1.044466,1.019347 l -0.461644,0.470467 0.336468,-0.505474 c 0.390848,-0.587171 1.287981,-1.342108 2.53603,-2.13407 0.605282,-0.384087 0.90593,-0.685094 0.958393,-0.959537 0.04205,-0.2199408 0.0059,-0.3998915 -0.08046,-0.3998915 -0.08629,0 -0.604573,0.3930455 -1.151744,0.8734325 -0.589134,0.517232 -1.069783,0.827125 -1.178584,0.759883 -0.10608,-0.06557 -0.141981,-0.046 -0.08496,0.04627 0.05433,0.08791 -0.334196,0.592798 -0.863385,1.121986 -0.925006,0.925006 -1.342683,1.251649 -0.891976,0.697567 0.189592,-0.233077 0.180806,-0.251677 -0.07377,-0.156152 -0.752409,0.28232 -1.023186,0.23503 -0.304557,-0.05319 2.041136,-0.818631 2.973946,-3.2391357 2.023268,-5.2500836 C 26.704992,6.6409662 26.051608,6.0405667 25.019153,5.6664735 24.561675,5.5007121 24.399085,5.3994707 24.657842,5.4414916 c 0.258757,0.042016 0.604165,0.1280864 0.767573,0.1912695 0.188376,0.072828 0.0026,-0.2597944 -0.507443,-0.9089003 C 23.690657,3.1621316 23.822905,3.1724101 22.683241,4.550197 22.106368,5.2476048 21.815433,5.7025771 21.99482,5.6267788 c 0.170881,-0.072197 0.522395,-0.1570617 0.781153,-0.1885965 0.332672,-0.040531 0.263775,0.010387 -0.235235,0.1738123 -3.474948,1.1381339 -3.5314,6.0804194 -0.08424,7.3757044 0.348218,0.130847 0.456698,0.211366 0.241067,0.178935 -0.215631,-0.03245 -0.533195,-0.113711 -0.705701,-0.180623 -0.257985,-0.100074 -0.278857,-0.08417 -0.117611,0.08961 0.107809,0.116194 0.196028,0.262683 0.196028,0.325525 0,0.06285 -0.582205,-0.466301 -1.293786,-1.17587 -1.221862,-1.218406 -2.930043,-2.6716122 -3.025801,-2.5741502 -0.02406,0.024486 -0.0059,0.2413059 0.04025,0.4818122 0.05455,0.284048 0.255789,0.52561 0.574236,0.689334 0.825055,0.424193 2.213041,1.55978 2.680879,2.193377 0.350511,0.474701 0.252119,0.411581 -0.469475,-0.301162 -0.502107,-0.495951 -0.963846,-0.90173 -1.026088,-0.90173 -0.06222,0 -0.05171,0.264638 0.02338,0.588086 0.175148,0.754188 0.175408,0.861211 0.0019,0.753985 -0.07818,-0.0483 -0.190398,-0.438795 -0.249393,-0.86774 -0.09185,-0.668299 -0.1849,-0.827923 -0.650169,-1.115475 -0.298632,-0.184566 -0.578131,-0.30041 -0.621105,-0.257433 -0.04297,0.04297 0.07,0.658309 0.25104,1.367406 0.181047,0.709099 0.302725,1.368638 0.270391,1.465641 -0.03232,0.09701 -0.175984,-0.280927 -0.319231,-0.839846 z m 1.77008,-2.074768 C 19.665211,10.034728 19.630791,8.8059589 19.945634,7.9136422 l 0.227662,-0.6452624 -1.248688,1.0330639 -1.248689,1.0330637 1.163713,0.9175746 c 0.64004,0.504667 1.209521,0.991699 1.265514,1.082296 0.244075,0.394921 0.199916,0.109943 -0.07777,-0.501774 z m 8.919203,-0.823319 c 0.437058,-0.345009 0.79376,-0.6625758 0.792665,-0.7057002 -0.0024,-0.094381 -2.493812,-2.0772724 -2.493812,-1.9847903 0,0.035542 0.113113,0.3353371 0.251365,0.6662182 0.254485,0.6090623 0.241014,2.0232743 -0.02743,2.8802083 l -0.120744,0.385467 0.401652,-0.307056 c 0.220914,-0.168881 0.759249,-0.589337 1.196311,-0.934347 z M 5.6039353,8.2331635 V 3.0306854 H 10.79828 c 4.924436,0 5.18316,0.014282 4.979113,0.2744394 -0.37849,0.4826098 -0.492663,0.5048289 -2.606775,0.5072719 l -2.077897,0.0024 v 0.6972985 c 0,0.5104178 -0.14326,0.9417354 -0.53454,1.6093558 C 9.9707109,7.1238264 9.7157819,7.3860304 8.8972065,7.8298395 8.5953242,7.9935049 8.3115022,8.176106 8.2664947,8.2356046 8.2214927,8.2951126 7.7980643,8.3656761 7.3255586,8.3924251 l -0.8590994,0.048638 -0.04348,2.1329869 c -0.04157,2.039015 -0.060565,2.149039 -0.4312619,2.49729 L 5.6039335,13.435643 Z M 6.2312247,8.1866218 V 3.657971 h 4.5286513 c 3.834149,0 4.558589,-0.036079 4.723874,-0.2352325 C 15.65658,3.2144848 15.110185,3.187504 10.719867,3.187504 H 5.7607577 v 4.9591095 c 0,4.3903175 0.02699,4.9367185 0.2352344,4.7638835 0.1991587,-0.165285 0.2352326,-0.889725 0.2352326,-4.7238752 z m 1.411403,-0.9908887 c 0,-0.1242839 0.063996,-0.2655265 0.1422032,-0.3138618 0.078206,-0.048341 0.1052701,0.053349 0.060119,0.2259781 -0.063014,0.2409291 -0.005,0.3138617 0.2498592,0.3138617 0.2106652,0 0.3328123,-0.1002625 0.3343371,-0.2744396 0.00186,-0.2135867 0.032277,-0.2273063 0.1371022,-0.061863 C 8.6770657,7.2603148 8.7750386,7.249426 9.1190935,7.0239897 9.6870389,6.6518593 9.9387532,6.1704738 9.6583182,5.9927698 9.493429,5.8882786 9.5073046,5.857764 9.7205325,5.8558904 10.034842,5.8531047 10.112435,5.2276384 9.798941,5.2237966 9.6547348,5.2220323 9.6591678,5.1857512 9.8156367,5.0865462 10.117279,4.8954178 9.890851,4.2314424 9.5664788,4.3559155 9.3725219,4.4303372 9.3603141,4.4045712 9.5062442,4.2287556 9.7773991,3.9020426 9.414948,3.814797 7.786556,3.814797 H 6.3879785 l 0.00241,1.3721962 c 0.0024,1.3895494 0.1351359,1.8916067 0.448736,1.6977867 0.1062906,-0.065684 0.1387159,-0.018363 0.08444,0.1230229 -0.07789,0.2029929 0.096274,0.3175995 0.6013957,0.395726 0.064682,0.010023 0.117624,-0.083492 0.117624,-0.2077863 z M 41.305351,13.094177 c -0.142741,-0.157732 -0.259538,-0.377261 -0.259538,-0.487841 0,-0.110578 0.13879,-0.03445 0.308426,0.169172 0.308008,0.369717 0.308437,0.363423 0.313645,-4.6088904 l 0.0052,-4.9791136 h -4.959109 c -4.390317,0 -4.936718,0.026991 -4.763883,0.2352345 0.164037,0.197645 0.912621,0.2403337 4.68467,0.2671531 2.469195,0.017622 3.889598,0.052903 3.156453,0.07854 -1.710378,0.059806 -2.0535,0.138957 -1.935505,0.4464357 0.05727,0.1492521 0.01391,0.222793 -0.114439,0.1944303 -0.120887,-0.026694 -0.245917,0.1495119 -0.301468,0.4248475 -0.127959,0.6342065 -0.01817,1.0188434 0.2918,1.0217483 0.209022,0.00203 0.215878,0.027899 0.03727,0.1409975 -0.301311,0.190789 -0.09039,0.7026816 0.237664,0.5767967 0.178655,-0.06856 0.225329,-0.028585 0.161348,0.1381593 -0.1235,0.3218568 0.412818,0.6019484 0.669576,0.3496814 0.150088,-0.1474713 0.18103,-0.1381036 0.141647,0.042831 -0.0305,0.1401257 0.08889,0.2527622 0.302445,0.2853469 0.214091,0.032666 0.353794,-0.027547 0.355252,-0.1530919 0.0019,-0.1668188 0.02717,-0.1678948 0.130146,-0.00556 0.155818,0.245576 0.651557,0.083363 0.651557,-0.2131954 0,-0.1194986 0.09755,-0.1760938 0.221518,-0.1285323 0.130238,0.049974 0.251979,-0.032815 0.295453,-0.2009506 0.04066,-0.1572657 0.08211,0.1753518 0.09214,0.7391691 l 0.01817,1.0251203 -0.920157,-0.087981 C 38.915256,8.248966 37.843575,7.5937518 37.1651,6.5546666 36.885147,6.1259182 36.585224,5.689889 36.498605,5.5857148 36.411995,5.4815388 36.341116,5.0404752 36.341116,4.6055738 V 3.8148435 h -2.171208 c -1.90427,0 -2.203119,-0.035263 -2.430749,-0.2867883 -0.142741,-0.1577293 -0.259539,-0.334159 -0.259539,-0.3920566 0,-0.057895 2.328815,-0.1052702 5.175141,-0.1052702 h 5.175141 v 5.1751412 c 0,2.8463294 -0.05963,5.1751414 -0.132521,5.1751414 -0.07287,0 -0.249309,-0.129051 -0.392056,-0.286787 z M 7.7602449,12.413033 C 8.2129152,11.93626 8.269917,11.776209 8.269917,10.981961 c 0,-0.751849 0.043703,-0.892293 0.2744397,-0.881883 0.1639436,0.0073 0.1955173,0.04423 0.07841,0.09148 -0.1197769,0.04833 -0.1960292,0.381146 -0.1960292,0.85566 0,0.836586 -0.3003389,1.451985 -0.8455267,1.7325 -0.2330603,0.119912 -0.1802305,0.0117 0.1790247,-0.366684 z m 14.8179771,0.131308 c -1.401107,-0.50814 -2.232976,-1.715444 -2.232976,-3.2407562 0,-3.654498 4.782479,-4.7667568 6.46076,-1.5025755 0.870333,1.6927522 0.0095,3.9573567 -1.790256,4.7091157 -0.677705,0.283094 -0.906763,0.305004 -0.906763,0.08674 0,-0.08626 0.09958,-0.156822 0.221294,-0.156822 0.268507,0 1.033284,-0.877878 1.033284,-1.186096 0,-0.121604 0.237773,-0.320446 0.528383,-0.441869 0.686608,-0.286883 1.044674,-0.8148078 1.020214,-1.5041726 -0.01882,-0.5307264 -0.02417,-0.5251058 -0.131501,0.1384006 -0.07007,0.4331405 -0.245033,0.799418 -0.468214,0.980139 -0.451198,0.365359 -0.703793,0.371801 -0.553443,0.01411 0.06344,-0.150942 0.151032,-0.439735 0.194649,-0.6417645 0.07199,-0.3335187 0.05039,-0.3492821 -0.234627,-0.1712703 -0.433773,0.2708949 -0.860319,0.077963 -0.797729,-0.360823 0.06377,-0.4471198 0.532592,-0.5423493 0.924395,-0.187772 0.363564,0.3290204 0.375995,0.2349238 0.06675,-0.5052151 -0.279874,-0.6698177 -0.281096,-0.6815097 -0.0713,-0.6815097 0.09016,0 0.337167,0.1732186 0.548877,0.3849281 0.211711,0.2117096 0.384929,0.3285031 0.384929,0.2595385 0,-0.1985837 -0.509843,-0.6075765 -0.980427,-0.7864918 -0.237035,-0.090115 -0.430976,-0.2660438 -0.430976,-0.39094 0,-0.4257842 -0.768046,-1.1541609 -1.327737,-1.2591606 -0.870239,-0.1632573 -1.965533,0.6138574 -1.965533,1.3945523 0,0.1338928 -0.135322,0.2407512 -0.304901,0.2407512 -0.54239,0 -1.118222,0.6489797 -1.214815,1.3691313 -0.109642,0.8174701 0.216331,1.3837616 0.980287,1.7029626 0.332852,0.139074 0.56981,0.366034 0.629196,0.602649 0.05239,0.208757 0.24098,0.50825 0.419081,0.66554 0.321548,0.283977 0.322131,0.283233 0.08316,-0.106077 -0.132371,-0.215631 -0.281374,-0.665181 -0.331122,-0.999 -0.07798,-0.523226 -0.02815,-0.66924 0.361147,-1.0585514 0.454433,-0.4544328 0.9462,-0.5994894 0.9462,-0.2791016 0,0.094882 -0.247796,0.420299 -0.550657,0.723161 -0.302863,0.302861 -0.448723,0.511542 -0.32414,0.463734 0.156394,-0.06 0.259161,0.0617 0.331954,0.393128 0.100815,0.459019 0.133912,0.476562 0.7554,0.400431 0.35748,-0.04379 0.780622,-0.132996 0.940309,-0.198236 0.47097,-0.19241 0.255378,0.421759 -0.247037,0.703759 -0.390901,0.219401 -0.442033,0.215133 -0.638299,-0.05327 -0.200776,-0.274576 -0.225327,-0.262891 -0.416292,0.198138 -0.225882,0.545327 -0.201898,0.537946 -0.911531,0.280584 z m 17.426367,-1.672532 c 0,-0.819399 0.02643,-1.1546054 0.05873,-0.744907 0.03231,0.409699 0.03231,1.080115 0,1.489813 -0.0323,0.409699 -0.05873,0.07449 -0.05873,-0.744906 z m -16.672476,0.40078 c -0.42353,-0.510323 0.277373,-1.12431 0.74717,-0.654516 0.19972,0.199721 0.220173,0.322262 0.08865,0.531118 -0.228985,0.363618 -0.591976,0.417209 -0.83582,0.123398 z m 1.405355,-0.58489 c -0.214974,-0.08116 -0.444161,-0.24279 -0.509302,-0.359193 -0.07048,-0.125912 -0.255569,-0.175779 -0.456978,-0.12311 -0.234388,0.06129 -0.303537,0.03191 -0.224767,-0.09555 0.06258,-0.101245 0.187023,-0.1388107 0.276556,-0.08348 0.104013,0.06429 0.124605,-0.01973 0.057,-0.2326758 -0.207182,-0.65277 0.897379,-0.2071819 1.180442,0.4761988 0.228082,0.550636 0.183087,0.608842 -0.32296,0.417808 z m -3.57664,-0.290698 C 20.530407,9.8096745 20.517982,8.8172039 21.133368,8.2018383 21.522565,7.8126419 21.834667,7.792098 21.66836,8.1666123 c -0.213163,0.4800462 -0.262483,1.5888804 -0.09238,2.0768467 0.191787,0.550158 0.06208,0.598128 -0.415132,0.153534 z m 0.655554,-0.01748 c -0.0898,-0.203619 -0.157601,-0.6172135 -0.1507,-0.9190964 0.01092,-0.4775732 0.0635,-0.5488788 0.404613,-0.5488788 0.532512,0 0.66317,0.6846718 0.155968,0.8173062 -0.242571,0.06344 -0.282477,0.1238584 -0.139978,0.2119306 0.143316,0.088576 0.156339,0.2195614 0.04634,0.4660774 l -0.152998,0.342878 z m 1.07393,-1.3377016 C 22.654093,8.9467616 22.1675,8.0563555 22.28666,7.9371949 c 0.202061,-0.20206 0.897167,0.1578965 1.113772,0.5767707 0.130944,0.2532241 0.238087,0.4991968 0.238087,0.5466069 0,0.1042687 -0.471837,0.092434 -0.748207,-0.018753 z m 0.90503,0.01632 c 0,-0.1901228 0.377345,-0.7833749 0.613699,-0.9648426 0.254589,-0.1954673 0.797703,-0.2719224 0.797703,-0.1123005 0,0.1901231 -0.377347,0.7833772 -0.613702,0.9648448 -0.254589,0.1954671 -0.7977,0.2719227 -0.7977,0.1123009 z M 10.901806,7.4612241 c 0.07731,-1.5736697 0.143167,-1.727934 0.167412,-0.3922683 0.01298,0.7115818 -0.02943,1.2938804 -0.09412,1.2939991 -0.06467,1.17e-4 -0.09768,-0.4056613 -0.07331,-0.9017308 z M 36.396804,7.0297489 c -4.7e-4,-0.7762708 0.02605,-1.1136073 0.05894,-0.7496387 0.03289,0.3639704 0.03328,0.9991009 9.28e-4,1.4114029 -0.03247,0.4123004 -0.0594,0.1145079 -0.05987,-0.6617642 z M 23.332113,7.979407 c -0.42353,-0.5103213 0.277373,-1.1243087 0.74717,-0.654515 0.19972,0.1997207 0.220173,0.322261 0.08865,0.5311176 -0.228985,0.363618 -0.591976,0.4172087 -0.835817,0.1233934 z m 1.04051,-0.4182512 c -0.06439,-0.2462046 -0.0085,-0.2817573 0.339323,-0.2161261 0.402724,0.075979 0.400951,0.071046 -0.05409,-0.150495 -0.615455,-0.2996396 -1.392443,-0.301602 -1.966069,-0.00501 l -0.460681,0.2382248 0.18535,-0.4068113 c 0.428799,-0.9411103 1.875174,-1.0711337 2.47919,-0.2228728 0.34571,0.4855055 0.284901,0.8665974 -0.156709,0.9820795 -0.19131,0.05003 -0.315367,-0.024152 -0.366332,-0.2190349 z M 27.559081,6.7349861 C 26.617141,5.9851415 26.457488,5.8115056 25.706949,4.7206367 25.229271,4.0263564 24.515684,2.5603092 24.655427,2.5603092 c 0.03566,0 0.2768,0.4410637 0.53588,0.980141 0.464171,0.9658188 1.876974,2.8146738 2.06299,2.699711 0.05249,-0.032443 0.189287,-0.8736853 0.303979,-1.8694231 0.114699,-0.9957358 0.272402,-1.8104289 0.35047,-1.8104289 0.07806,0 0.107016,0.1235052 0.06435,0.2744396 -0.04267,0.1509402 -0.164742,1.0431715 -0.271278,1.9827329 l -0.193692,1.7082917 0.535151,0.4437979 c 0.856322,0.7101404 0.463454,0.519804 -0.484196,-0.2345852 z M 21.264153,3.5012432 C 21.208912,3.0268566 21.191279,2.609316 21.22494,2.5733775 21.385748,2.4017729 21.456243,2.7585608 21.412585,3.52311 l -0.04802,0.8406572 z m 4.738141,0.5488792 c 0.0037,-0.1725136 0.06502,-0.5959252 0.136379,-0.940934 l 0.129753,-0.6272913 0.01558,0.7057015 c 0.0085,0.3881354 -0.05276,0.8115563 -0.136377,0.9409359 -0.125567,0.1943042 -0.150866,0.1806571 -0.145375,-0.07841 z"
       id="path5512" />
  </g>
  <g
     inkscape:groupmode="layer"
     id="layer4"
     inkscape:label="F.Mask"
     style="display:inline"
     transform="translate(-1.7756325,-2.4818971)">
    <ellipse
       style="fill:#644e00;stroke-width:0.144804"
       id="path4081"
       cx="23.687305"
       cy="35.03867"
       rx="8.4386702"
       ry="8.431015" />
  </g>
  <g
     inkscape:groupmode="layer"
     id="layer3"
     inkscape:label="F.Cu"
     style="display:inline"
     transform="translate(-1.7756325,-2.4818971)">
    <path
       style="display:inline;fill:#000000;stroke-width:0.174631"
       d="m 23.328135,41.178963 c -0.411393,-2.174214 -1.261822,-3.768092 -2.570142,-4.816949 -0.528497,-0.423689 -1.137801,-0.816661 -1.354004,-0.873274 -0.459424,-0.120302 -0.461615,-0.16615 -0.14506,-3.032462 0.231305,-2.09434 0.353642,-2.196876 0.52065,-0.436379 0.143465,1.51235 0.413013,2.361315 0.713162,2.246241 0.287126,-0.110071 0.549309,-1.259526 0.86014,-3.771041 0.248296,-2.006204 0.239124,-2.028621 0.641807,1.568438 0.17537,1.566563 0.241322,1.789155 0.53006,1.789155 0.181381,0 0.329765,-0.02562 0.329765,-0.05688 0,-0.03129 0.111501,-0.875683 0.247793,-1.87643 0.136285,-1.000746 0.307689,-2.487197 0.380906,-3.303227 l 0.133114,-1.483688 0.295155,2.618273 c 0.427719,3.794071 0.491795,4.101963 0.853717,4.101963 0.252515,0 0.343654,-0.257847 0.508997,-1.440049 0.110786,-0.79203 0.206838,-1.754245 0.213468,-2.138258 0.0067,-0.384014 0.07962,-0.855303 0.162201,-1.047309 0.118794,-0.276203 0.15387,-0.203299 0.167913,0.3491 0.03144,1.23528 0.66835,4.494722 0.907089,4.642139 0.324206,0.200189 0.460034,-0.118157 0.687005,-1.610207 0.339051,-2.228821 0.385892,-2.240384 0.615223,-0.151832 0.32293,2.941064 0.337477,2.832705 -0.427546,3.184485 -1.789128,0.822693 -3.307768,3.174826 -3.736793,5.787719 L 23.636291,42.8077 Z"
       id="path3935" />
  </g>
</svg>
