<?xml version="1.0" encoding="UTF-8" standalone="no"?>
<!-- Created with Inkscape (http://www.inkscape.org/) -->

<svg
   width="50.52948mm"
   height="51.994091mm"
   viewBox="0 0 50.52948 51.994091"
   version="1.1"
   id="svg5"
   sodipodi:docname="ravenica.svg"
   inkscape:version="1.1.1 (3bf5ae0d25, 2021-09-20)"
   xmlns:inkscape="http://www.inkscape.org/namespaces/inkscape"
   xmlns:sodipodi="http://sodipodi.sourceforge.net/DTD/sodipodi-0.dtd"
   xmlns="http://www.w3.org/2000/svg"
   xmlns:svg="http://www.w3.org/2000/svg">
  <sodipodi:namedview
     id="namedview7"
     pagecolor="#ffffff"
     bordercolor="#666666"
     borderopacity="1.0"
     inkscape:pageshadow="2"
     inkscape:pageopacity="0.0"
     inkscape:pagecheckerboard="0"
     inkscape:document-units="mm"
     showgrid="false"
     inkscape:zoom="4.3994184"
     inkscape:cx="163.658"
     inkscape:cy="134.10864"
     inkscape:window-width="2560"
     inkscape:window-height="1346"
     inkscape:window-x="-11"
     inkscape:window-y="-11"
     inkscape:window-maximized="1"
     inkscape:current-layer="layer1"
     fit-margin-top="0"
     fit-margin-left="0"
     fit-margin-right="0"
     fit-margin-bottom="0" />
  <defs
     id="defs2" />
  <g
     inkscape:label="Layer 1"
     inkscape:groupmode="layer"
     id="layer1"
     transform="translate(-1.20403e-4,-1.0797e-4)">
    <path
       style="fill:#000000;stroke-width:0.100185"
       d="m 23.8179,51.9347 -1.15,-0.3381 -1.0757,-0.568 -1.204,-1.0528 -0.9648,-1.188 -0.5107,-1.1574 -0.2369,-1.0279 -0.0639,-0.3757 -0.6515,0.5461 -1.1583,0.8055 -1.3945,0.5101 -1.9375,0.1216 L 11.5533,47.9426 10.2511,47.3132 9.05951,46.3408 8.08721,45.135 7.44295,43.8051 7.24432,42.946 7.20247,41.6183 7.36382,39.6716 7.9497,38.2837 8.25456,37.7827 6.85405,37.7938 4.96711,37.7091 3.53181,37.1912 2.72821,36.6847 1.93416,36.0017 1.23542,35.2259 0.717737,34.4413 0.133604,32.9685 1.20403e-4,31.199 0.0489328,29.9381 0.277579,29.0451 0.895193,27.7207 1.95263,26.4941 3.11258,25.5229 3.57813,25.2501 3.23706,24.9936 2.38971,24.2569 1.66642,23.4265 1.09821,22.5434 0.716086,21.6489 0.531394,20.7958 0.490056,19.4774 0.531095,18.1628 0.712012,17.3192 1.31176,16.0563 2.31139,14.8086 3.26878,13.9603 4.27053,13.3803 5.3956,13.0341 6.72295,12.8875 7.73034,12.8194 7.85885,12.6744 7.58734,11.5774 7.45467,10.1393 7.62454,8.55511 8.15049,7.09313 8.65196,6.26548 l 0.831,-0.87604 1.04614,-0.87281 1.037,-0.56678 1.1432,-0.307 1.3649,-0.09346 1.2083,0.07617 1.0641,0.23989 0.9557,0.41522 0.8831,0.6022 0.5512,0.44899 0.1103,-0.52599 0.5605,-1.43148 1.1689,-1.43479 1.0597,-0.9373 1.0302,-0.594185 1.15,-0.3133171 1.4196,-0.09468993 1.4311,0.08924793 1.1822,0.3124661 1.0547,0.58432 1.0486,0.904808 1.2148,1.53277 0.3602,0.80651 0.2442,0.92064 0.196,0.89138 0.6049,-0.52587 1.134,-0.84517 1.3475,-0.58206 1.966,-0.19508 1.9913,0.24177 1.3946,0.64135 1.239,0.97194 0.99,1.21109 0.6476,1.35879 0.1949,0.86864 0.0422,1.30875 -0.1152,1.7544 -0.4986,1.3407 -0.2907,0.576 1.3289,0.0012 1.4669,0.0854 1.1577,0.2985 1.017,0.5795 1.0444,0.9284 0.9095,1.0528 0.5849,1.0436 0.3126,1.1626 0.0926,1.4102 -0.0897,1.3577 -0.2944,1.1417 -0.5366,1.0237 -0.8167,1.004 -1.3726,1.1961 -0.5839,0.3604 0.5801,0.436 1.4599,1.4476 0.5214,0.8275 0.3793,0.8925 0.2137,0.8832 0.0476,1.3209 -0.1204,1.7973 -0.571,1.4394 -1.1698,1.5043 -1.5199,1.1773 -1.3479,0.5252 -1.5096,0.1494 -0.9808,0.0597 0.1696,0.6262 0.1766,1.7818 -0.1311,1.8402 -0.5864,1.4473 -0.9648,1.3181 -1.2399,1.0767 -1.4116,0.723 -1.0626,0.2451 -1.2094,0.0784 -1.2239,-0.0878 -1.1058,-0.2534 -1.0102,-0.4925 -0.959,-0.6996 -0.4169,-0.3273 -0.1948,0.6789 -0.5893,1.4258 -0.9523,1.2882 -1.2212,1.0491 -1.3959,0.7089 -0.8366,0.2157 -1.1148,0.0778 -1.7201,-0.0595 v 0 m 2.8822,-0.3416 1.5526,-0.595 1.4505,-1.1525 0.7685,-0.896 0.5613,-0.9309 0.3446,-0.9465 0.1186,-0.9427 0.0012,-0.4479 0.6262,0.6176 0.8798,0.743 0.9357,0.5377 1.0234,0.3466 1.1425,0.1698 1.4248,-0.0312 1.2835,-0.3135 1.1683,-0.6056 1.0791,-0.9075 0.9472,-1.1377 0.5828,-1.2552 0.2252,-0.8614 0.0398,-1.2156 -0.0976,-1.4587 -0.3888,-1.2213 -0.0079,-0.0954 0.1303,-0.0529 0.9922,-0.0282 1.5982,-0.1257 1.3292,-0.4846 1.3919,-1.0373 1.1555,-1.3719 0.6376,-1.4807 0.1761,-1.7602 -0.1362,-1.6077 -0.5266,-1.3926 -1.1809,-1.473 -1.3784,-1.1287 -0.4258,-0.2604 0.4258,-0.2362 0.8844,-0.4943 0.89,-0.7565 0.7871,-0.9108 0.5754,-0.9568 0.4296,-1.2646 0.1138,-1.4704 -0.0937,-1.2177 -0.2845,-1.0888 -0.4863,-0.9891 -0.6987,-0.919 -1.3634,-1.1341 -1.6078,-0.7015 -1.7753,-0.2474 -1.8662,0.2283 -0.1285,-0.0534 0.3334,-0.5428 0.6542,-1.2296 0.2597,-0.997 0.1042,-1.1199 L 43.2239,9.55181 43.0097,8.50707 42.3801,7.17105 41.3979,5.97682 40.1595,5.01762 38.7608,4.38667 36.9148,4.19306 35.054,4.42312 33.625,5.09088 32.35,6.17168 31.6247,6.94203 31.5705,6.07149 31.3193,4.64285 30.7599,3.35278 29.9055,2.22378 28.7693,1.27836 27.2026,0.536165 25.2859,0.312718 24.1358,0.346741 23.3323,0.530901 22.0156,1.12369 20.8786,2.03859 20.1723,2.82781 19.6475,3.62445 19.2797,4.47359 19.0444,5.4203 18.9357,6.04038 18.2609,5.4038 17.3742,4.71032 16.3966,4.22679 15.3022,3.94368 14.0652,3.85142 12.7646,3.95374 11.6285,4.27809 10.5939,4.85055 9.59761,5.69719 8.88383,6.49137 8.41904,7.25476 7.93093,8.64245 l -0.1674,1.47275 0.15359,1.4968 0.47486,1.4601 -0.13259,0.1234 -0.92799,-0.008 -1.41899,0.0564 -1.20996,0.3075 -1.09273,0.5945 -1.0673,0.9174 -0.83529,0.9791 -0.55658,1.0097 -0.310736,1.1211 -0.097751,1.3132 0.176407,1.635 0.49617,1.392 0.9939,1.2684 1.26599,1.114 0.5796,0.3768 -0.62969,0.3334 -1.38208,1.0604 -1.13006,1.3419 -0.639074,1.4831 -0.172203,1.7589 0.180549,1.766 0.611238,1.4388 0.63111,0.86 0.79353,0.7864 0.8825,0.6499 0.898,0.4505 1.04146,0.2655 1.17198,0.0943 1.18723,-0.0776 1.08723,-0.2505 0.55395,-0.1871 -0.47893,0.5374 -0.61446,0.8431 -0.43906,0.9537 -0.26352,1.0639 -0.08787,1.1737 0.09672,1.3197 0.31518,1.123 0.57114,1.0169 0.86462,1.0015 1.00138,0.8646 1.017,0.5711 1.123,0.3152 1.3197,0.0967 1.2765,-0.1012 1.1294,-0.3134 1.0183,-0.54 0.9436,-0.7808 0.7258,-0.7161 0.0644,0.6011 0.4277,1.8035 0.9336,1.5364 0.7281,0.756 0.8377,0.6303 0.906,0.4783 0.9331,0.3001 1.5101,0.1405 1.5011,-0.1286 v 0 m -2.3396,-0.5549 -1.6015,-0.5116 -1.3353,-0.888 -1.026,-1.226 -0.6737,-1.5253 -0.1414,-1.7613 0.3387,-1.7544 0.842,-1.4816 1.2179,-1.1629 0.3123,-0.3093 -0.4531,-0.146 -0.4294,0.0322 -0.6476,0.5996 -0.6871,0.7022 -0.0081,-0.5197 -0.1252,-0.9702 -0.1634,-0.3951 -0.3045,-0.2262 -0.4152,-0.1757 0.1326,0.6213 0.2067,0.9597 0.0315,0.973 -0.1336,0.9616 -0.2889,0.9255 -0.434,0.8646 -0.5693,0.7789 -0.6943,0.6684 -0.8096,0.5331 -1.3594,0.5108 -1.3482,0.2131 -0.913,-0.0751 -0.8735,-0.219 -1.5789,-0.8325 -1.27131,-1.2961 -0.86354,-1.6849 -0.19365,-1.603 0.19365,-1.6029 0.59099,-1.2938 0.82293,-1.0673 0.81263,-0.6967 0.8918,-0.5144 0.9822,-0.3373 1.0838,-0.1651 0.8964,-0.0636 -0.2796,-0.2962 -0.3426,-0.249 -0.6884,0.0099 -0.9675,0.1437 -0.8794,0.2776 -0.0028,-0.1079 0.3167,-0.4222 0.7769,-1.1602 0.2691,-0.5501 -0.2168,-0.425 -0.2168,-0.425 -0.2319,0.5708 -0.4807,0.9738 -0.591,0.8129 -0.7186,0.6714 L 9.25724,36.2509 7.96867,36.7544 6.60132,36.9096 5.44344,36.7973 4.37266,36.4741 3.40979,35.9609 2.57564,35.2783 1.89099,34.4471 1.37664,33.488 1.05339,32.4217 0.942044,31.269 1.03788,30.1157 l 0.29064,-1.0312 0.4949,-0.9327 0.70859,-0.8578 0.94917,-0.8062 1.00635,-0.537 1.10853,-0.2851 1.25573,-0.0509 1.63691,0.2692 1.40126,0.7404 0.68734,0.467 -0.0019,-0.4375 -0.1166,-0.429 -0.506,-0.3889 -0.58781,-0.3804 0.62189,-0.3174 0.54262,-0.3351 0.1417,-0.4249 0.0316,-0.4778 -0.3699,0.2235 -0.98488,0.5515 -1.06199,0.359 L 7.20521,25.1725 6.13433,25.1004 5.10216,24.8286 4.13747,24.3676 3.26901,23.7281 2.52557,22.9205 1.9359,21.9554 1.41082,20.2386 1.4425,18.5053 2.01242,16.8594 3.10208,15.405 3.9445,14.738 l 0.99096,-0.5162 1.06179,-0.3333 1.05494,-0.1182 0.90669,0.081 0.87971,0.2337 1.60451,0.8694 1.2745,1.3118 0.4672,0.7868 0.3293,0.8554 0.1679,0.585 0.2512,-0.3696 0.2512,-0.3697 -0.1972,-0.5159 -0.2689,-0.6841 0.0641,-0.1317 0.6328,0.0216 0.6991,0.0125 0.3071,-0.2451 0.2413,-0.3407 L 14.1905,15.8529 12.9733,15.7247 11.6938,15.3248 10.7106,14.727 9.84056,13.9098 9.13668,12.9335 8.65179,11.8582 8.43148,10.7991 8.42081,9.68457 8.61435,8.58074 9.00664,7.55366 9.53488,6.71899 10.2024,5.99814 10.9833,5.40228 11.8514,4.94257 12.7808,4.6302 l 0.9647,-0.15388 0.974,0.01579 0.9572,0.19663 1.1082,0.46925 0.9572,0.6586 0.7908,0.81764 0.6087,0.94635 0.4111,1.04473 0.1981,1.11279 -0.0306,1.1505 -0.2747,1.1579 -0.1806,0.5911 0.0923,0.0749 0.4291,-0.1629 0.3387,-0.3825 0.215,-0.9386 0.0631,-0.4603 0.6051,0.5475 0.7324,0.506 0.7259,-0.0447 0.1264,-0.1048 L 22.2032,11.387 21.0613,10.3653 20.1852,9.13966 19.7446,7.90377 19.5997,6.6472 19.7308,5.41321 20.1182,4.24506 20.7424,3.18602 21.5836,2.27936 22.6221,1.56833 23.8385,1.0962 25.2813,0.948878 26.7182,1.0922 l 1.2942,0.5301 1.1399,0.84419 0.9157,1.09239 0.6217,1.27467 0.2156,0.904 0.0558,0.92225 -0.3372,1.81297 -0.8846,1.62713 -0.6284,0.6899 -0.7422,0.5787 -0.574,0.3718 0.4588,0.1155 0.4529,0.055 0.4217,-0.2627 0.9667,-0.9409 0.551,-0.6177 0.0615,1.0121 0.2143,1.3528 0.2254,0.3326 0.3457,0.2032 0.3499,0.1166 -9e-4,-0.1211 -0.3762,-1.0921 -0.1457,-1.1377 0.0545,-1.215 0.2861,-1.10373 0.5233,-1.00757 0.7664,-0.9265 0.8852,-0.75067 0.9377,-0.51736 1.0282,-0.29975 1.1563,-0.09787 1.1506,0.09473 1.0287,0.29862 0.9434,0.51764 0.8947,0.75178 0.9691,1.26156 0.5657,1.3964 0.0997,1.40992 -0.1402,1.3945 -0.5161,1.2784 -0.805,1.104 -1.0589,0.8926 -1.2783,0.6436 -0.7477,0.1959 -1.0806,0.044 -1.1772,0.0446 0.2692,0.3256 0.3616,0.2409 0.8247,0.0401 1.4089,-0.1492 0.5356,-0.1503 -0.2093,0.2744 -0.5076,0.6629 -0.4191,0.8406 -0.2634,0.6268 0.239,0.4704 0.239,0.4704 0.1719,-0.5911 0.5741,-1.3532 0.922,-1.1619 0.8773,-0.7324 0.9529,-0.512 1.0509,-0.3004 1.1714,-0.0982 1.7472,0.2699 1.473,0.7416 1.1569,1.1114 0.799,1.3792 0.3993,1.545 -0.0421,1.6089 -0.5253,1.5708 -1.0503,1.4308 -0.8744,0.7262 -0.9637,0.52 -1.0505,0.3127 -1.1348,0.1045 -1.074,-0.0898 -0.9898,-0.2705 -0.9102,-0.4531 -0.8355,-0.6375 -0.5506,-0.5028 0.0679,0.4964 0.3082,0.736 0.8235,0.5911 0.537,0.3371 -0.5313,0.2771 -0.876,0.5273 -0.3496,0.6778 -0.0675,0.4368 0.5366,-0.3943 0.8157,-0.5179 0.8274,-0.3508 0.8865,-0.1988 0.9925,-0.0618 1.1178,0.1012 1.019,0.304 0.9331,0.5123 0.8605,0.726 0.75,0.8899 0.5128,0.9364 0.2932,1.0262 0.0916,1.1592 -0.1148,1.3474 -0.4615,1.2114 -1.0684,1.4603 -0.7027,0.6039 -0.7559,0.4606 -1.388,0.4782 -1.5449,0.0804 -1.753,-0.3852 -1.5069,-0.9036 -1.1616,-1.3386 -0.717,-1.6902 -0.1711,-0.6811 -0.2508,0.4204 -0.2507,0.4205 0.1771,0.5622 0.225,0.6875 -0.6954,0.1252 -0.6717,0.044 -0.3468,0.2432 -0.2751,0.2871 1.0328,0.0498 1.1804,0.1456 1.0222,0.3306 0.921,0.5412 0.8768,0.7773 0.6483,0.8234 0.4759,0.9391 0.2928,1.0281 0.0995,1.0905 -0.1035,1.1207 -0.3107,1.0326 -0.5205,0.9511 -0.7331,0.8758 -1.0874,0.8691 -1.205,0.5631 -1.2943,0.248 -1.3549,-0.0765 -1.4421,-0.4473 -1.2444,-0.781 -1.0024,-1.0784 -0.7166,-1.3394 -0.2571,-1.0405 -0.0599,-1.1577 0.1324,-1.1242 0.3199,-0.9396 0.0671,-0.2544 -0.456,0.1804 -0.4527,0.3985 -0.196,0.9846 -0.0718,0.6261 -0.6438,-0.6011 -0.6899,-0.5354 -0.679,0.0231 -0.3006,0.0651 0.4585,0.3166 0.8115,0.6994 0.7061,0.875 0.5442,0.967 0.3253,0.9754 0.1214,1.2667 -0.1496,1.2158 -0.3957,1.1322 -0.6169,1.0157 -0.813,0.8665 -0.9843,0.6843 -1.1306,0.4694 -1.2521,0.2216 -1.205,-0.037 -1e-4,1e-4 m 2.0742,-0.4566 1.4565,-0.5929 1.1772,-0.9296 0.8652,-1.2321 0.5208,-1.5 0.0769,-1.2695 -0.2599,-1.2821 -0.564,-1.1968 -0.8358,-1.0137 -0.653,-0.5635 -0.6099,-0.291 -2.4498,-0.1226 -2.281,0.0026 -0.5566,0.3695 -1.0545,0.9049 -0.7451,1.1059 -0.3991,0.9672 -0.2024,0.8952 -0.0136,0.8887 0.1675,0.9472 0.5133,1.3384 0.8901,1.1326 1.0866,0.8456 1.2423,0.5378 1.3172,0.2064 1.3111,-0.1484 v 2e-4 m -2.079,-2.3802 -0.0925,-0.7102 -0.4293,-0.649 -0.3013,-0.37 -0.0496,-0.6235 0.1656,-0.9337 0.5292,-0.5384 0.4626,-0.465 0.2134,-0.2542 -0.0882,0.623 -0.3354,0.686 -0.2817,0.4695 0.082,0.3873 0.091,0.1333 -0.0609,0.1706 0.0054,0.333 0.3202,0.1675 0.2062,0.1398 0.0936,0.3495 -0.1852,0.9095 -0.2794,0.3671 -0.0657,-0.1921 v 0 m 1.7041,0.054 -0.2666,-0.4681 -0.107,-0.5358 0.0605,-0.4408 0.2357,-0.1831 0.3473,-0.1913 0.122,-0.1783 -0.1294,-0.1141 -0.1295,-0.1155 0.1341,-0.1901 0.1228,-0.4397 -0.2989,-0.4962 -0.3465,-0.6651 -0.085,-0.581 0.1813,0.2057 0.4361,0.4605 0.5169,0.4338 0.2433,0.5531 -0.0047,0.8952 -0.3759,0.6655 -0.405,0.6484 -0.0953,0.7096 0.0222,0.1905 -0.1783,-0.1632 h -10e-5 m -2.8778,-0.2972 -0.1327,-0.4602 -0.493,-0.6561 -0.5058,-0.7822 -0.2077,-0.3359 -0.1863,-0.0631 -0.162,-0.0239 0.2267,-0.4441 0.464,-1.1559 0.1524,-0.6099 -0.0644,-0.2101 0.2957,-0.471 0.9502,-0.683 0.5236,-0.172 0.0651,0.381 -0.3806,0.3503 -0.4831,0.2889 -0.3778,0.511 -0.2705,0.7293 -0.1614,0.9437 0.0585,0.8228 0.5903,1.0787 0.2856,0.7221 -0.0866,0.4618 -0.1002,-0.2222 v 0 m 4.0826,0.2142 -0.0555,-0.4882 0.3231,-0.7167 0.5418,-1.0081 0.065,-0.9347 -0.1436,-0.9113 -0.2486,-0.6741 -0.3838,-0.493 -0.5493,-0.3676 -0.2594,-0.1913 -0.0662,-0.2707 0.0541,-0.298 1.2954,0.7989 0.5757,0.4033 -0.0524,0.179 -0.1074,0.2464 0.1375,0.5495 0.447,1.1201 0.2389,0.5211 -0.1274,0.0276 -0.299,0.2455 -0.6772,0.9814 -0.5777,1.0186 -0.131,0.2623 v 0 m -2.3178,-2.7936 -0.1528,-0.4305 0.1059,-0.707 0.0418,-0.6839 -0.1077,-0.1 -0.2489,0.2505 -0.2834,0.3363 -0.1402,-0.2676 -0.0902,-0.3306 0.0899,-0.5568 0.3095,-0.9456 0.2831,-0.1052 0.5259,-0.0092 0.8808,0.1209 0.234,0.8384 0.1045,0.6401 -0.0883,0.3474 -0.1405,0.2682 -0.2781,-0.3331 -0.2493,-0.2571 -0.0982,0.1428 0.0359,0.5978 0.0999,0.6446 -0.1187,0.5153 -0.2105,0.2616 -0.034,-0.2706 -0.0376,-0.4258 -0.105,-0.0765 -0.0873,0.0735 -0.0325,0.4288 0.0013,0.2673 -0.2093,-0.234 v 0 m -1.2638,-1.1506 0.064,-0.2557 0.0682,-0.1066 0.0805,0.0733 0.0781,0.2069 -0.1406,0.1133 -0.1502,-0.0312 v 0 m 3.0326,-0.0225 -0.0267,-0.2837 0.0846,-0.0865 0.0694,0.1116 0.0258,0.2887 -0.1531,-0.0301 v 0 m 11.1378,2.7239 1.3743,-0.5579 1.1406,-0.8869 0.8601,-1.1681 0.5331,-1.4013 0.1332,-0.9192 -0.0412,-0.903 -0.2177,-0.9012 -0.3963,-0.9142 -0.9951,-1.3144 -1.3419,-0.9366 -1.5613,-0.4956 -1.6528,0.0083 -0.5401,0.202 -0.7536,0.5638 -1.5567,1.1222 -0.6614,0.4664 -0.3786,0.5918 -0.4153,1.1651 -0.1824,1.1178 0.198,1.1833 0.4729,1.269 0.9278,1.294 1.2677,0.9409 0.9509,0.4078 0.9248,0.212 0.9336,0.0205 0.9774,-0.1665 v 0 m -2.7808,-2.5667 -0.576,-0.0883 -0.2933,-0.0416 0.1448,-0.1722 0.4362,-0.5631 0.0998,-0.3305 -0.0751,-0.1463 -0.2277,-0.2755 -0.1809,-0.2243 -0.3506,-0.0421 -0.7063,0.1405 -0.5385,0.0665 -0.3057,-0.1571 0.2264,-0.1442 0.4015,-0.3533 0.4749,-0.5486 0.2476,-0.2972 0.0522,-0.466 -0.0297,-0.4196 -0.1707,0.0159 -0.1872,0.0202 0.0707,-0.2188 0.6087,-0.6353 0.4367,-0.2498 -0.0297,0.2387 -0.0974,0.5259 0.2004,0.5887 0.355,0.3315 0.1149,-0.0839 -0.0225,-0.3527 0.0077,-0.4369 0.3947,-0.4383 0.3718,-0.4089 0.0407,-0.3066 0.0396,-0.2654 0.2934,0.2524 0.1932,0.4344 -0.2435,0.5147 -0.2254,0.6554 0.0914,0.2408 0.2918,0.0967 0.6512,8e-4 0.2412,-0.1151 0.1,-0.2192 -0.2335,-0.6594 -0.2435,-0.5147 0.1932,-0.4343 0.2934,-0.2524 0.0394,0.2663 0.0399,0.305 0.3742,0.4002 0.3976,0.43 0.005,0.4443 0.068,0.4529 0.378,-0.3064 0.2075,-0.5344 -0.0936,-0.5929 -0.0669,-0.2755 0.4799,0.2727 0.4719,0.4735 0.196,0.3946 -0.1126,-0.0187 -0.2206,-0.0842 -0.06,0.4416 0.0882,0.5 0.4914,0.6021 0.7013,0.6243 0.1217,0.0983 -0.3022,0.1675 -0.542,-0.0661 -0.7047,-0.1405 -0.3428,0.0393 -0.1741,0.1906 -0.2454,0.3163 -0.0058,0.3727 0.3715,0.5323 0.229,0.3163 -0.2913,0.0259 -0.4258,0.0283 -0.399,0.1616 -0.2161,0.026 0.0598,-0.1543 0.0703,-0.1874 -0.0801,-0.1658 -0.2695,-0.1584 -0.138,-0.2003 -0.1503,-0.2004 -0.1503,0.1396 -0.1584,0.2003 -0.2052,0.0507 -0.0371,-0.1401 -0.1002,-0.1503 -0.1002,0.1409 -0.1942,0.0891 -0.2406,-0.2494 -0.1574,-0.1305 -0.1091,0.2619 -0.0868,0.1467 -0.271,0.15 -0.1261,0.2019 0.0634,0.1965 0.0052,0.1922 -0.4176,-0.1583 h -10e-5 m 1.7346,-2.0433 -0.1002,-0.6011 -0.0982,0.5276 0.0648,0.6078 0.1123,0.0058 0.0213,-0.5401 v 0 m -0.83,0.1087 0.0177,-0.2663 -0.465,-0.2234 -0.2644,-0.0608 -0.0612,0.1009 0.2338,0.3794 0.3386,0.2621 0.2005,-0.1919 v 0 m 2.0418,-0.1189 0.2404,-0.3913 -0.2751,-0.0201 -0.4462,0.1962 -0.1584,0.1514 0.0572,0.1828 0.225,0.1739 0.3571,-0.2929 v 0 m -22.5957,4.3351 1.2588,-0.6027 1.0064,-0.843 0.7524,-1.0813 0.4966,-1.3177 0.1162,-1.5057 -0.3126,-1.4794 -0.4377,-0.7591 -1.1826,-0.8409 -1.5165,-1.1431 -0.8742,-0.6375 -1.0169,-0.1256 -1.6697,0.2755 -1.4582,0.781 -1.15775,1.2186 -0.76824,1.588 -0.20398,1.0464 0.02235,1.0423 0.23185,1.0086 0.42454,0.9456 0.60043,0.853 0.7595,0.7308 0.9017,0.5792 1.0272,0.3982 1.3417,0.1421 0.8428,-0.0493 0.8159,-0.224 v 0 m -1.9175,-2.0004 -0.0918,-0.6208 -0.3006,0.1616 -0.551,0.2323 -0.2505,0.1869 -0.2405,0.2857 -0.3286,0.0567 0.3701,-0.4374 0.7155,-0.5615 0.4148,-0.2279 0.0294,-0.0971 -0.2844,-0.3072 -0.4258,-0.4679 -0.2615,-0.339 -0.2078,-0.3765 0.5198,0.2861 0.802,0.7531 0.1247,0.1448 0.0214,-0.1698 0.1056,-0.2187 0.1764,0.1873 0.1731,0.0961 0.6364,-0.352 0.7656,-0.3743 0.0388,0.0652 -0.2396,0.2395 -0.5267,0.4423 -0.3635,0.1901 -0.2575,0.1504 -0.0534,0.2521 0.3117,0.2033 0.3055,0.2693 0.3168,0.4523 0.1823,0.2308 -0.1181,0.0447 -0.6237,-0.4254 -0.3687,-0.3154 -0.1596,0.0399 -0.1033,0.3503 -0.085,0.3957 -0.0799,0.0096 -0.0884,-0.4351 v -10e-5 m -0.3513,-1.9897 -0.3757,-0.4278 -0.2087,-0.6483 0.088,-0.5823 0.3508,-0.4378 0.5799,-0.2147 0.7744,0.0715 0.4887,0.4412 0.2103,0.6237 -0.1907,0.6541 -0.4056,0.4569 -0.6162,0.1113 -0.6952,-0.0478 v 0 m 0.8294,-0.4464 0.213,0.0773 0.1877,-0.1645 0.1724,-0.4964 -0.1902,-0.5821 -0.2538,-0.3046 -0.2323,0.1034 -0.1167,0.0713 -0.0936,-0.086 -0.2552,-0.0666 -0.2532,0.3114 -0.0955,0.4839 0.0607,0.4119 0.1812,0.2437 0.2663,-0.021 0.4092,0.0183 v 0 m -0.4998,-0.4093 -0.1121,-0.3035 0.1839,-0.3202 0.3731,-0.0799 0.265,0.3214 -0.0293,0.2598 -0.1826,0.1796 -0.2542,0.0555 -0.2438,-0.1127 v 0 m 1.7833,-0.4856 0.0751,-0.2966 0.5245,-0.807 -0.0752,-0.0365 -0.2478,0.1696 -0.1764,-0.0124 0.2592,-0.3224 0.1989,-0.2636 0.006,-0.3299 -0.0225,-0.2618 0.1033,0.091 0.2035,0.6365 0.015,0.4212 -0.1797,0.2917 -0.1078,0.1841 0.125,0.078 -0.1016,0.2133 -0.058,0.1339 -0.2489,0.2389 -0.2926,0.1679 v -0.2959 m -3.2946,0.0431 -0.4107,-0.4701 0.1237,-0.0045 -0.1577,-0.261 -0.2268,-0.5466 0.0575,-0.3651 0.1585,-0.3507 0.1272,-0.1302 -0.0264,0.201 0.1401,0.5009 0.1696,0.1725 0.0383,-0.1372 0.0362,-0.0983 0.1081,0.1985 0.0934,0.3127 -0.2787,-0.0569 -0.2628,0.0302 0.3044,0.4552 0.2817,0.4979 -0.0679,0.102 -0.2077,-0.0503 v 0 m 0.5896,-1.1731 -0.2505,-0.4683 -0.2403,-0.4779 0.0943,-0.7457 0.2141,-0.4423 0.0667,-0.0056 -0.0198,0.1956 0.0206,0.4873 0.0991,0.1426 0.1697,-0.2996 0.1599,-0.2751 0.087,0.0684 0.1038,0.0544 0.2284,-0.3328 0.2688,-0.5603 0.0379,-0.1429 0.1056,0.0331 0.3678,0.5535 0.2804,0.4745 0.11,-0.0266 0.0736,-0.1244 0.1769,0.2215 0.2886,0.2829 0.0346,-0.383 0.0413,-0.329 0.238,0.5694 0.0832,0.66 -0.3086,0.448 -0.2522,0.4189 -0.1454,0.1646 -0.1262,-0.2256 0.0831,-0.2453 0.0367,-0.3032 -0.1354,-0.3136 -0.0882,0.0903 -0.3019,0.1891 -0.3019,0.0443 0.2246,-0.2391 0.2246,-0.239 -0.2483,-0.4642 -0.3812,-0.506 -0.0828,0.0072 0.0828,0.17 0.0598,0.2281 -0.2525,0.266 -0.3288,0.5181 -0.023,0.1823 -0.1245,-0.1299 -0.1245,-0.1224 -0.0679,0.0723 -0.0126,0.6165 0.0185,0.3144 -0.1606,0.1615 -0.1033,-0.233 v 0 m 8.5157,-0.0755 -0.2254,-0.1226 -0.4389,-0.1204 -0.1711,0.0048 0.0415,0.3628 0.0883,0.5292 0.3546,-0.2464 0.351,-0.4074 v 0 m 9.0006,0.1303 0.0048,-0.4036 -0.4823,0.0933 -0.323,0.1127 0.3263,0.3367 0.3527,0.3103 0.1215,-0.4494 v 0 M 24.882,40.1406 24.6162,39.82 l -0.8836,-0.1998 -0.9344,-0.1557 0.3429,-1.6728 -0.0362,-0.1482 -0.2732,-0.0892 -0.4042,-0.0238 -0.2056,0.8386 -0.227,0.8626 -1.0049,-0.2365 -0.9761,-0.4283 0.3126,-0.8554 0.3323,-0.7485 -0.5768,-0.2538 -0.4793,0.7514 -0.4842,0.7514 -0.9538,-0.5057 -1.0679,-0.449 -0.2264,0.1521 0.4735,0.4149 1.1575,0.6372 2.7862,1.1524 2.3003,0.4835 1.2941,0.0432 v 0 m 2.7082,-0.1896 2.7027,-0.8088 2.4499,-1.2191 0.2937,-0.1998 -0.2552,-0.1162 -0.3436,-0.0245 -0.6905,0.3357 -0.516,0.2721 -0.2966,0.0381 -0.2184,-0.2557 -0.2813,-0.609 -0.3902,-0.6473 -0.3789,0.1225 -0.2787,0.1207 0.4039,0.834 0.404,0.8653 -1.0094,0.3619 -0.8122,0.234 -0.2751,-0.0293 -0.1978,-0.7974 -0.2124,-0.7963 -0.1507,-0.0973 -0.2353,0.0235 -0.2069,0.0598 -0.0814,0.133 0.1654,0.9283 0.185,0.8177 -0.3128,0.0548 -0.9426,0.1223 -0.6317,0.1623 -0.1912,0.3329 2.3043,-0.2182 v 0 m -2.2979,-0.6068 0.1317,-0.4258 -0.076,-0.3557 -0.0637,-0.3006 0.1438,0.2505 0.132,0.1805 0.0824,-0.1118 -0.0466,-0.4387 -0.0656,-0.3085 0.1146,0.1131 0.1622,0.156 0.1688,-0.214 0.007,-0.2356 -0.2106,-0.2731 -0.286,-0.4208 0.3132,0.1783 0.3132,0.3133 0.189,-0.2334 0.2449,-0.4816 -0.0595,-0.379 -0.2108,-0.1334 -0.2294,0.0173 -0.1844,0.1433 -0.0757,0.2446 0.2121,0.1803 0.1565,-0.043 0.0017,-0.1631 0.0634,-0.1674 0.1504,0.2616 -0.1823,0.2619 -0.2892,-0.0054 -0.1684,-0.1791 -0.0155,-0.274 0.1693,-0.2903 0.3232,-0.1392 0.3885,0.2025 0.2144,0.0665 0.078,-0.2541 -0.3602,-0.3383 -0.6308,-0.0949 -0.1716,0.025 0.0606,-0.0663 0.4818,-0.0973 0.5062,0.1544 0.3361,0.0568 0.0107,-0.2744 -0.5266,-0.2758 -0.4296,-0.2068 -0.28,-0.2853 -0.1985,-0.9433 0.0392,-0.5424 0.2712,-0.118 0.2319,0.0195 0.2582,0.1844 0.923,1.1853 0.2408,0.2857 0.1456,0.0164 0.0923,-0.8795 0.0798,-1.0961 0.3432,-0.4405 0.3673,-0.0913 0.5143,0.8087 0.1997,0.5558 -0.1505,0.5722 -0.3715,0.5718 -0.1453,0.2046 0.1697,0.1314 0.2828,0.0169 0.1131,-0.287 0.2812,-0.3331 0.4602,-0.1962 0.1042,0.0312 -0.21,0.1109 -0.4094,0.3293 -0.1057,0.4487 0.1509,0.2454 0.1482,-0.1835 0.3065,-0.381 0.2712,-0.0937 0.2588,0.1969 0.1654,0.2726 -0.0166,0.2401 -0.1666,0.1414 -0.285,-0.0236 -0.147,-0.2424 0.0969,-0.1945 0.0752,0.1127 0.1034,0.1559 0.1883,-0.1245 -0.1118,-0.3099 -0.3691,-0.0272 -0.1596,0.1611 -0.0255,0.2123 0.3242,0.4218 0.444,0.1989 0.185,-0.2232 0.0713,-0.5273 0.0081,-0.2309 0.085,0.1803 0.04,0.6223 -0.0087,0.3194 0.1449,0.1565 0.2528,0.0849 0.0834,-0.2564 0.0383,-0.2007 0.0184,0.2308 0.1119,0.3852 0.2305,0.1608 0.0248,-0.2254 -0.0325,-0.1685 0.126,0.1375 0.1554,0.3236 0.4062,0.3363 0.4062,0.2072 -0.0675,-0.3805 -0.3811,-0.7194 -0.2362,-0.2713 0.198,0.1075 0.2375,0.1242 0.038,-0.1424 -0.363,-0.3665 -0.3091,-0.2271 0.2714,0.0625 0.2554,0.0609 -0.008,-0.288 -0.1272,-0.2109 -0.3035,-0.102 -0.6182,-0.268 -0.2504,-0.2059 0.3206,0.1563 0.5761,0.1563 0.2158,-0.068 0.0396,-0.3705 -0.1369,-0.539 -0.4191,-0.0821 -0.2016,0.1053 -0.0252,0.2315 0.0696,0.2074 0.1538,0.0646 0.2338,-0.1252 -0.1169,-0.1253 -0.1586,-0.1075 0.1789,-0.0696 0.2016,0.237 -0.1101,0.3167 -0.2942,0.0705 -0.2563,-0.3002 -0.0624,-0.3826 0.3021,-0.2475 0.3898,-0.0544 0.1154,-0.006 0.0361,-0.1469 -0.113,-0.1809 -0.275,-0.0482 -0.6503,0.2821 -0.2521,0.1735 0.1164,-0.2459 0.3618,-0.2812 0.455,-0.1109 0.2073,-0.0505 0.0497,-0.2107 -0.0353,-0.1948 -0.14,0.0015 -0.6434,0.1764 -0.7862,-0.0316 -0.654,-0.6554 -0.3785,-0.5496 0.2173,-0.2173 0.2174,-0.2173 1.2223,0.3193 1.2427,0.2985 -0.672,-1.0006 -0.6901,-1.0519 0.1753,-0.2902 0.1731,-0.2178 0.6299,0.2549 0.7455,0.5045 0.1775,0.9236 0.0561,0.5407 0.2759,0.0085 0.0955,-0.4487 0.0888,-0.6004 0.303,-0.2966 -0.0624,0.1942 -0.1683,0.494 0.0585,0.5073 0.2556,0.1045 0.1978,-0.0728 -0.0899,-0.2147 0.0113,-0.4258 0.1366,-0.226 0.2384,-0.0602 0.4402,0.1823 0.1101,0.1818 -0.0762,0.1798 -0.3205,0.1363 -0.2259,-0.2305 -0.0063,-0.1482 0.1308,0.1439 0.1454,0.1268 0.1223,-0.0449 0.0411,-0.2791 -0.3002,-0.1481 -0.2094,0.0564 -0.1055,0.1954 -0.0021,0.2884 0.1506,0.1842 0.6874,0.014 0.2216,-0.2859 -0.2139,-0.5019 -0.2178,-0.2767 0.2263,0.121 0.393,0.4903 0.1868,0.2979 0.2651,0.0196 0.285,-0.0516 -0.2275,-0.3006 -0.2274,-0.3006 0.3479,0.3256 0.534,0.3256 0.1343,-0.0304 -0.1391,-0.191 -0.1908,-0.2215 0.272,0.1714 0.7306,0.1714 h 0.4586 l -0.2798,-0.3507 -0.2946,-0.2802 -0.3358,-0.0841 -0.2121,-0.0209 0.0926,-0.0369 0.1784,-0.1688 -0.4174,-0.162 -0.2869,-0.0546 0.142,-0.0671 0.2481,-0.0702 -0.2162,-0.2014 -0.2265,-0.147 -0.272,0.0928 -0.5829,0.1388 -0.3005,-0.0085 0.3506,-0.0985 0.5194,-0.27 -0.1684,-0.4557 -0.4574,-0.3599 -0.3232,0.208 -0.1046,0.3507 0.2625,0.1993 0.2776,-0.0663 0.0224,-0.2164 -0.1971,-0.0313 -0.1067,-0.0683 0.1794,-0.1199 0.2264,0.1564 0.0594,0.2692 -0.1461,0.1725 -0.2649,0.0327 -0.2968,-0.1508 -0.1719,-0.3591 0.2476,-0.3654 0.1944,-0.3078 -0.1934,-0.103 -0.2562,0.1006 -0.4022,0.6019 -0.0819,0.3482 -0.0103,-0.3388 0.0638,-0.3362 0.2719,-0.3289 0.2705,-0.3025 -0.1033,-0.1854 -0.2009,-0.0765 -0.305,0.322 -0.6646,0.5681 -0.3904,0.103 -0.6514,-0.1819 -0.5364,-0.2202 -0.1277,-0.1724 0.0961,-0.4057 0.2244,-0.2671 0.8619,-0.3202 1.107,-0.4045 -1.0165,-0.495 -0.9533,-0.4141 -0.1799,-0.3548 0.0339,-0.3187 0.4471,-0.177 0.7361,-0.1515 0.5482,0.1864 0.4922,0.5084 0.3229,0.3801 0.2415,-0.1197 0.047,-0.1629 -0.1884,-0.2128 -0.3192,-0.5811 -0.0372,-0.2801 0.0868,-0.119 0.1132,0.3051 0.2129,0.5098 0.3778,0.2871 0.1648,-0.1368 -0.1494,-0.2808 -0.1856,-0.4636 0.2745,-0.3873 0.4309,-0.0237 0.1576,0.3212 -0.2085,0.2447 -0.3092,-0.0805 -0.053,-0.085 0.1176,0.0238 0.2357,-0.0869 -0.0349,-0.258 -0.1589,-0.0307 -0.1783,0.1169 -0.1489,0.4066 0.1342,0.1746 0.2213,0.0468 0.5291,-0.2787 0.187,-0.3641 -0.3666,-0.3047 -0.1819,-0.1178 0.0639,-0.0383 0.4768,0.1527 0.4959,0.0466 0.1842,-0.212 -0.3103,-0.1848 -0.2244,-0.0818 0.3166,0.0287 0.5296,-0.0045 0.2047,-0.1496 -0.1753,-0.128 -0.0476,-0.0363 0.1574,-0.0211 0.5411,-0.2007 0.3259,-0.3099 -0.3971,-0.1516 -0.6234,0.0914 -0.3106,0.1535 0.1428,-0.1921 0.2366,-0.197 -0.2633,-0.0033 -0.3925,0.1524 -0.3379,0.264 -0.1461,0.0574 0.1629,-0.1945 0.2101,-0.2968 -0.2212,-0.1079 -0.223,0.0291 -0.1838,0.2417 -0.4898,0.5036 -0.3195,0.1875 0.3308,-0.3327 0.297,-0.5228 -0.0857,-0.183 -0.2416,-0.1216 -0.3956,-0.0447 -0.2819,0.091 -0.13,0.1999 0.06,0.2816 0.1875,0.1755 0.2138,0.0068 0.1504,-0.1311 -0.0028,-0.2385 -0.0782,-0.1134 -0.1311,0.1373 -0.1239,0.139 -0.0192,-0.164 0.0731,-0.17 0.1679,-0.0604 0.3115,0.216 -0.0747,0.3624 -0.4174,0.1138 -0.407,-0.2861 0.0258,-0.5003 0.0668,-0.1607 -0.1336,-0.0348 -0.244,0.0899 -0.1313,0.2458 0.1088,0.8164 0.0215,0.1042 -0.1265,-0.1497 -0.1556,-0.421 0.0313,-0.6355 -0.0258,-0.1599 -0.1534,-0.0706 -0.1854,0.0718 -0.0795,0.4915 -0.2455,0.8672 -0.6681,0.3984 -0.7895,0.1571 -0.2827,-0.3733 -0.181,-0.421 0.7026,-0.9658 0.6697,-0.9987 -1.2347,0.2539 -1.2017,0.2868 -0.2297,-0.2261 -0.2298,-0.2261 0.38,-0.5165 0.383,-0.4526 0.386,-0.2123 0.5342,-0.0066 0.8277,0.1647 0.1823,-0.1909 -0.0226,-0.1821 -0.2054,-0.0433 -0.8536,-0.345 -0.0672,-0.2228 0.0159,-0.0746 0.2031,0.1715 0.3006,0.2164 0.3418,0.034 0.2825,-0.0668 0.1098,-0.1531 -0.008,-0.1337 -0.1176,0.0058 -0.3974,-0.0496 -0.3047,-0.2484 0.0624,-0.3825 0.2563,-0.3003 0.2844,0.0612 0.1401,0.2921 -0.1106,0.2443 -0.2187,-0.039 -0.0463,-0.0865 0.1135,-0.025 0.1369,-0.1252 -0.2338,-0.1253 -0.1509,0.0643 -0.0411,0.2363 0.0491,0.2492 0.2099,0.0814 0.3618,-0.1128 0.1463,-0.5184 -0.0122,-0.3442 -0.224,-0.0877 -0.5009,0.0915 -0.1714,0.0765 0.0763,-0.1178 0.501,-0.2312 0.4019,-0.1528 0.1124,-0.3088 -0.0462,-0.122 -0.2027,0.0444 -0.2417,0.0453 0.2791,-0.189 0.3412,-0.3532 -0.0089,-0.1941 -0.2592,0.165 -0.0505,0.0125 0.1678,-0.2163 0.3232,-0.5679 0.0625,-0.3514 -0.0551,-0.1053 -0.2585,0.1143 -0.563,0.5361 -0.1205,0.1851 -0.0136,-0.0579 0.0174,-0.2082 -0.2131,0.0436 -0.16,0.3256 -0.1083,0.4151 -0.072,0.0621 0.0238,-0.1812 -0.0379,-0.3167 -0.2738,0.0195 -0.1294,0.1796 -0.0197,0.4019 -0.0554,0.6016 -0.0772,-0.3172 -0.0746,-0.5076 -0.4782,0.0585 -0.3211,0.1576 -0.1414,0.2106 0.0182,0.2922 0.1687,0.1892 0.2424,0.0429 0.2396,-0.1467 0.0732,-0.1568 -0.1076,-0.1618 -0.1516,-0.1021 -0.0988,0.1744 -0.1541,0.1272 0.0101,-0.2946 0.3122,-0.1127 0.2896,0.2316 -0.1645,0.3886 -0.4458,0.1347 -0.372,-0.3308 -0.261,-0.2592 -0.1361,0.2312 0.1398,0.4361 0.394,0.3046 0.1859,0.1028 -0.0501,0.0393 -0.4255,-0.1413 -0.3041,-0.4139 -0.1892,-0.3153 -0.2518,0.0716 -0.0969,0.1118 0.0708,0.1622 0.3789,0.6711 0.1482,0.5387 -0.403,0.8509 -0.4029,0.5627 -0.3388,-0.1999 -0.3389,-0.2 -0.0668,-1.1729 -0.0913,-1.2677 -0.7837,0.9078 -0.7067,0.8645 -0.4139,0.0959 -0.3613,-0.0422 5e-4,-0.6152 0.0462,-0.5556 0.159,-0.3988 0.3035,-0.2891 0.4796,-0.2265 0.4968,-0.2205 -0.0019,-0.2291 -0.1052,-0.2308 -0.3135,0.1912 -0.5208,0.1812 -0.4439,-0.0882 -0.0382,-0.0717 0.2385,-0.012 0.5849,-0.0707 0.2715,-0.2628 -0.0307,-0.2983 -0.221,0.0588 -0.4419,0.1567 -0.3849,-0.2604 -0.0147,-0.4198 0.3479,-0.1736 0.1898,0.0504 0.0498,0.1917 -0.1503,0.2918 -0.0972,0.011 0.0713,-0.112 0.0567,-0.2068 -0.2478,-0.0758 -0.1765,0.126 0.1246,0.3166 0.3025,0.1393 0.3004,-0.1976 -0.0717,-0.5673 -0.3187,-0.4181 -0.3855,0.3082 -0.2594,0.1609 0.2991,-0.4675 0.2316,-0.31 -0.0662,-0.2652 -0.1336,-0.255 -0.1655,0.2362 -0.1654,0.1329 0.1412,-0.2964 0.0393,-0.3833 -0.101,-0.127 -0.0984,0.0755 -0.0608,0.0428 0.0222,-0.1747 -0.0968,-0.588 -0.2498,-0.3937 -0.2302,0.4267 -0.0995,0.5982 0.0182,0.1499 -0.0718,-0.0699 -0.1081,-0.0693 -0.0692,0.0963 0.0499,0.4321 0.1066,0.3105 -0.1632,-0.1691 -0.1701,-0.2426 -0.1136,0.278 -0.0477,0.2823 0.2177,0.2994 0.2836,0.4509 -0.2594,-0.1608 -0.3855,-0.3083 -0.3187,0.4181 -0.0717,0.5673 0.276,0.1945 0.3133,-0.0818 0.1429,-0.3137 -0.1812,-0.1833 -0.2478,0.0759 0.0567,0.2067 0.0713,0.1121 -0.0972,-0.011 -0.1503,-0.2918 0.0498,-0.1918 0.1897,-0.0504 0.3479,0.1736 -0.0146,0.4198 -0.3849,0.2604 -0.4419,-0.1567 -0.2211,-0.0587 -0.0307,0.2982 0.2716,0.2629 0.5848,0.0706 0.2386,0.012 -0.0382,0.0717 -0.4456,0.0879 -0.5259,-0.185 -0.2882,-0.1448 -0.0975,0.1552 0.0356,0.2763 0.5537,0.255 0.4086,0.2075 0.2678,0.2865 0.1913,0.9386 4e-4,0.6262 h -0.3363 l -0.3991,-0.1518 -0.673,-0.8145 -0.7587,-0.8766 -0.0884,1.2448 -0.0946,1.0255 -0.2574,0.294 -0.2831,0.0989 -0.2646,-0.2773 -0.4079,-0.6933 -0.0962,-0.3516 0.0986,-0.3555 0.3689,-0.6653 0.1647,-0.2857 -0.1336,-0.1611 -0.1831,-0.0646 -0.1594,0.2451 -0.4044,0.497 -0.4151,0.1636 0.1347,-0.1576 0.4189,-0.3451 0.1456,-0.4345 -0.144,-0.1998 -0.191,0.177 -0.3133,0.3558 -0.2261,0.0755 -0.2748,-0.1855 -0.2108,-0.2362 0.0345,-0.1944 0.3271,-0.2102 0.2775,0.1287 -0.0505,0.2776 -0.0885,0.0508 -0.025,-0.1077 -0.1336,-0.1703 -0.1999,0.081 0.04,0.2328 0.1893,0.1698 0.2297,-0.0078 0.1937,-0.1559 0.0815,-0.2746 -0.0928,-0.2073 -0.3089,-0.1891 -0.4357,-0.1068 -0.2402,0.39 -0.1046,0.2153 0.0175,-0.3755 -0.0083,-0.4174 -0.1664,-0.2116 -0.1914,-0.0819 -0.0812,0.26 -0.0592,0.3284 -0.0779,-0.4196 -0.2282,-0.4773 -0.1087,0.0108 0.0108,0.2065 0.0237,0.2051 -0.1119,-0.1226 -0.1408,-0.3156 -0.7493,-0.54 0.0102,0.4199 0.3204,0.632 0.146,0.1755 -0.0236,-10e-5 -0.23,-0.116 -0.0748,0.1911 0.1391,0.2004 0.3757,0.202 0.2366,0.202 -0.276,-0.1181 -0.3178,-0.0556 -0.0014,0.3089 0.1145,0.2111 0.2661,0.0517 0.6153,0.258 0.1724,0.1605 -0.1196,-0.0608 -0.6368,-0.1579 -0.3002,0.0314 -0.0282,0.1271 0.0608,0.4473 0.1879,0.3929 0.4132,0.0032 0.1636,-0.1927 0.0094,-0.2401 -0.1178,-0.1819 -0.2177,-0.018 -0.1329,0.1893 0.1702,0.174 0.0858,0.0382 -0.139,0.0192 -0.278,-0.1374 0.0608,-0.3079 0.3502,-0.1145 0.29,0.3012 -0.015,0.452 -0.421,0.2007 -0.243,0.062 -0.0441,0.1384 0.1409,0.1373 0.2826,0.0248 0.631,-0.2559 0.2665,-0.2386 -0.1566,0.2504 -0.4092,0.377 -0.5084,0.0777 -0.2251,-0.0068 0.0121,0.1795 0.1409,0.2625 0.3899,-0.0723 0.8681,-0.1101 0.5947,0.3471 0.4583,0.6049 0.0716,0.2535 -0.2001,0.2613 -0.2631,0.2631 -1.0101,-0.4172 -1.1172,-0.4172 0.4528,1.0484 0.4416,0.8965 0.1147,0.475 -0.2232,0.1122 -0.5718,-0.1924 -0.7259,-0.5105 -0.1787,-0.8725 -0.0358,-0.4724 -0.2024,-0.0836 -0.1946,0.0649 0.0046,0.3621 -0.0052,0.3903 -0.1568,0.286 -0.2102,0.2493 0.1565,-0.3887 0.1025,-0.3689 -0.0651,-0.3074 -0.2027,-0.2667 -0.2225,0.0424 0.0437,0.2632 -0.0041,0.4436 -0.1598,0.1931 -0.3264,0.0197 -0.3162,-0.0734 -0.0589,-0.2582 0.0458,-0.2453 0.2033,-0.0553 0.1957,0.0477 0.078,0.1527 -0.032,0.0751 -0.2597,-0.1274 -0.162,0.1775 0.333,0.1753 0.248,-0.0492 0.0813,-0.2098 -0.134,-0.3843 -0.5361,-0.0481 -0.3335,0.096 -0.0785,0.194 0.2177,0.5009 0.2178,0.2768 -0.2222,-0.1189 -0.3865,-0.4636 -0.1893,-0.2755 -0.2631,-0.0693 -0.2242,0.0766 0.2368,0.3742 0.0077,0.0459 -0.2031,-0.1711 -0.5393,-0.3256 -0.1355,0.0276 0.1307,0.1728 0.0881,0.1911 -0.2826,-0.1442 -0.6016,-0.1434 -0.4562,0.0659 0.3183,0.3931 0.5269,0.2502 0.1316,0.0574 -0.1754,0.1328 0.1703,0.1761 0.4781,0.0467 0.4036,-0.0155 -0.341,0.1029 -0.2725,0.1147 0.1279,0.1846 0.2218,0.1445 0.3414,-0.1013 0.5453,-0.1493 0.0278,0.046 -0.1967,0.1086 -0.408,0.2912 0.1745,0.4194 0.461,0.3255 0.3654,-0.1835 0.0411,-0.1985 -0.1215,-0.2181 -0.2991,-0.1537 -0.1117,0.2213 0.1656,0.1394 0.0669,0.1034 -0.29,0.0304 -0.1279,-0.322 0.0776,-0.2093 0.1865,-0.0865 0.4088,0.1335 0.2059,0.3409 -0.139,0.3335 -0.2529,0.177 -0.0766,0.1275 0.2119,0.1568 0.3738,-0.155 0.2792,-0.4718 0.0896,-0.3087 0.009,0.3152 -0.0662,0.3118 -0.2656,0.3027 -0.2619,0.2771 0.0797,0.1808 0.2066,0.0575 0.4142,-0.3809 0.7365,-0.517 0.8901,0.1356 0.4985,0.2237 0.0241,0.2918 -0.1285,0.3683 -1.0915,0.397 -1.0269,0.3955 1.0269,0.4669 1.0269,0.4045 0.0301,0.4003 -0.031,0.3638 -0.389,0.1499 -0.635,0.1132 -0.4712,-0.0613 -0.4022,-0.2718 -0.4274,-0.5183 -0.2119,-0.234 -0.1864,0.1144 -0.13,0.1693 0.1239,0.1112 0.4169,0.6192 0.0576,0.3292 -0.1095,0.143 -0.0608,-0.1305 -0.0962,-0.4637 -0.3344,-0.358 -0.3381,0.0422 0.118,0.2654 0.2303,0.4545 -0.3161,0.3932 -0.2823,0.075 -0.1919,-0.1148 -0.1087,-0.1684 0.0511,-0.1721 0.2798,-0.1682 0.2309,0.1121 -0.167,0.0634 -0.2061,0.1022 0.1117,0.2155 0.287,-0.0465 0.1727,-0.1894 0.0052,-0.2326 -0.1379,-0.1972 -0.2568,-0.0832 -0.5059,0.3012 -0.3272,0.3012 0.2135,0.1747 0.4008,0.2938 0.0868,0.079 -0.2349,-0.0497 -0.468,-0.2001 -0.341,0.0199 -0.1935,0.2029 0.2608,0.1719 0.1669,0.0841 -0.3055,-0.025 -0.5318,0.0917 -0.0488,0.1226 0.1623,0.0635 0.0885,0.0367 -0.2142,0.0211 -0.3392,0.0793 -0.2991,0.2281 -0.2814,0.2937 0.374,0.0702 0.7385,-0.0956 0.3646,-0.1656 -0.2365,0.2025 -0.2366,0.2025 h 0.2557 l 0.3172,-0.0996 0.2814,-0.215 0.2199,-0.1153 -0.1964,0.2211 -0.1346,0.1979 0.0845,0.1157 0.3051,0.0687 0.2742,-0.316 0.4322,-0.4659 0.1554,-0.0567 -0.1975,0.257 -0.2677,0.5351 0.4552,0.2302 0.5895,-0.0598 0.121,-0.1528 -0.0115,-0.2243 -0.1481,-0.1996 -0.2211,-0.0836 -0.2008,0.0415 -0.0877,0.1759 0.1177,0.2009 0.1926,-0.0676 0.0704,-0.0781 0.0186,0.1046 -0.1542,0.2177 -0.2922,-0.0931 -0.1443,-0.3021 0.2008,-0.2425 0.3577,-0.0631 0.2874,0.1517 0.1409,0.2884 -0.0817,0.3467 -0.0423,0.17 0.0846,0.0931 0.3105,-0.1331 0.1318,-0.4967 -0.0962,-0.4021 -0.1002,-0.1777 0.1676,0.0519 0.166,0.4576 -0.0666,0.5949 -0.0226,0.1855 0.1873,0.0399 0.2138,-0.0865 0.077,-0.4687 0.2553,-0.8203 0.6843,-0.4448 0.6511,-0.1754 0.2542,0.2161 0.1376,0.4159 -0.6515,0.9634 -0.6198,0.8656 1.1043,-0.1845 1.0723,-0.2163 0.3489,0.338 0.3488,0.4229 -0.3702,0.5756 -0.5702,0.5147 -0.4703,0.065 -0.9914,-0.1929 -0.1823,0.1909 0.0228,0.1822 0.2068,0.0432 0.4604,0.1103 0.3634,0.2817 0.1161,0.2458 -0.2568,-0.1783 -0.6093,-0.2537 -0.2698,0.0555 -0.1385,0.1791 0.008,0.1337 0.1176,-0.0058 0.3974,0.0496 0.3046,0.2484 -0.063,0.3839 -0.2613,0.301 -0.3589,-0.1443 -0.149,-0.1992 0.1166,-0.1761 0.1609,-0.1109 0.1314,0.0604 0.0589,0.0959 -0.1166,0.025 -0.1369,0.1253 0.2337,0.1252 0.1539,-0.0646 0.0695,-0.2074 -0.0259,-0.2324 -0.208,-0.1062 -0.3975,0.0815 -0.1681,0.5291 0.0132,0.3441 0.224,0.0878 0.501,-0.0915 0.1711,-0.0764 -0.0748,0.1162 -0.551,0.2444 -0.3473,0.1165 -0.1014,0.2384 0.0136,0.2194 0.2368,-0.0443 0.196,-0.0576 -0.1054,0.0826 -0.5598,0.5851 0.2755,-0.0634 0.198,-0.1075 -0.2361,0.2713 -0.3804,0.7152 -0.0666,0.3763 0.3647,-0.1739 0.5588,-0.5266 0.1205,-0.1851 0.0136,0.0579 -0.0173,0.2082 0.2131,-0.0436 0.16,-0.3256 0.1062,-0.4151 0.0674,-0.045 -0.0268,0.2204 0.0242,0.3103 0.3047,-0.0932 0.1329,-0.1952 0.021,-0.431 -0.0201,-0.5176 0.1011,0.4257 0.2706,0.4254 0.5145,-0.2165 0.3061,-0.3627 -0.0757,-0.2471 -0.185,-0.1429 -0.2311,-0.0145 -0.2137,0.1376 -0.0732,0.1568 0.1076,0.1618 0.1516,0.1021 0.0988,-0.1744 0.1541,-0.1272 0.001,0.2698 -0.1878,0.1571 -0.2794,-0.058 -0.1452,-0.1502 0.003,-0.2071 0.1654,-0.2285 0.4454,-0.1309 0.3672,0.3506 0.1475,0.235 0.1285,-0.0297 0.1016,-0.2356 -0.0642,-0.2788 -0.5087,-0.4481 -0.1432,-0.1495 0.4479,0.1534 0.3536,0.4761 0.1424,0.2781 0.277,-0.0655 0.0439,-0.179 -0.2192,-0.4537 -0.3092,-0.8395 0.3359,-0.7728 0.4528,-0.5721 0.3885,0.1989 0.2831,0.2696 0.0513,0.6568 0.0751,1.2216 0.0664,0.4937 0.7352,-0.979 0.6397,-0.788 0.3121,-0.1329 0.3918,0.0594 0.142,0.103 0.0333,0.4345 -0.0574,0.6338 -0.1975,0.4539 -0.3756,0.3255 -0.5918,0.2488 -0.2977,0.137 0.0365,0.2218 0.1095,0.2404 0.2497,-0.1964 0.5229,-0.1871 0.5013,0.0985 0.0472,0.0679 -0.2153,-0.0257 -0.6172,0.0928 -0.3168,0.3549 0.0892,0.2417 0.1426,-0.0754 0.3448,-0.1915 0.4369,0.1404 0.1634,0.2851 -0.02,0.2707 -0.1699,0.1776 -0.2867,0.006 -0.182,-0.2661 0.1831,-0.268 0.0988,-0.0107 -0.0851,0.1269 -0.0819,0.1474 0.1137,0.0826 0.2892,-0.0533 0.0034,-0.2872 -0.311,-0.197 -0.3226,0.1185 -0.0641,0.3819 0.2455,0.4835 0.189,0.2334 0.3132,-0.3132 0.305,-0.2162 -0.2796,0.4101 -0.2114,0.3078 0.0078,0.2467 0.1482,0.2134 0.2151,-0.1634 0.1122,-0.1191 -0.0389,0.1442 -0.1216,0.4751 0.0668,0.2203 0.1096,-0.0825 0.0937,-0.2082 -0.0019,0.2696 0.0718,0.7032 0.2337,0.3757 0.2102,-0.3706 10e-5,1e-4 m 0.9152,-8.0037 -0.8558,-0.6512 -0.5908,-0.3919 -0.9949,-0.2424 -1.0061,-0.5078 -0.6895,-0.6302 -0.5231,-0.743 -0.3466,-0.8374 -0.16,-0.9137 -0.0459,-0.6836 -0.3069,0.0322 -0.307,0.0322 0.1496,-0.358 0.0997,-0.3059 -0.1436,-0.0521 -0.3514,-0.0605 -0.0949,-0.1004 0.1453,-0.2526 0.2081,-0.2923 -0.309,-0.1077 -0.2922,-0.1844 0.2439,-0.2518 0.2606,-0.1708 -0.2728,-0.2847 -0.2729,-0.2848 0.3596,-0.0675 0.3595,-0.0674 -0.1999,-0.3919 -0.1999,-0.3918 0.4107,0.0657 0.4108,0.0656 -0.0713,-0.3799 0.0154,-0.3325 0.4674,0.1329 0.1431,-0.0075 0.0322,-0.2817 0.0803,-0.3408 0.3456,0.1781 0.2525,0.1986 0.1238,-0.2988 0.1682,-0.2792 0.2318,0.2056 0.1825,0.2253 0.2227,-0.2831 0.2227,-0.2832 0.1621,0.3674 0.1621,0.3674 0.2753,-0.2166 0.2609,-0.1225 0.0184,0.3963 0.1089,0.2163 0.4385,-0.0912 0.2092,-0.052 -0.0041,0.1366 0.0759,0.1709 0.5971,0.1167 1.4291,0.4435 1.1348,0.8433 0.7674,1.1659 0.327,1.4111 0.0835,0.7279 0.2066,0.4229 0.6122,1.28 -0.2168,-0.2838 -0.459,-0.5444 -0.2801,-0.2227 -0.3309,0.6735 -0.7968,1.1178 -0.9804,0.7487 -0.4214,0.3162 0.3241,0.3926 0.6368,0.3555 0.8813,0.0655 0.7769,-0.2636 0.3387,-0.1679 -0.318,0.3628 -0.8622,0.5394 -1.0315,0.1599 -0.6691,-0.0505 -0.558,-0.2066 v 0 m -1.3907,-1.5691 -0.0819,-0.9768 0.1507,-1.032 0.5643,-0.8152 0.7099,-0.5451 0.7999,-0.2657 0.8906,0.0137 0.9822,0.2929 0.1543,-0.031 -0.018,-0.562 -0.2026,-0.953 -0.4208,-0.8321 -0.6007,-0.6902 -0.7425,-0.5274 -0.846,-0.3437 -0.9113,-0.1389 -0.9385,0.0868 -0.9273,0.3335 -0.9316,0.7141 -0.6911,0.9979 -0.3789,1.1384 0.0052,1.1354 0.3415,1.0381 0.5606,0.8607 0.7702,0.672 0.9699,0.4723 0.705,0.1782 0.1079,-0.0599 -0.021,-0.161 v 0 m 2.97,-0.8328 0.7101,-0.9329 0.2598,-0.7626 -0.503,-0.1477 -0.8254,0.1877 -0.5527,0.4021 -0.3885,0.5771 -0.1784,0.6523 0.0778,0.6276 0.0988,0.2598 0.4164,-0.2124 0.8852,-0.651 h -10e-5 m 17.3623,8.7417 0.9751,-0.4416 0.8187,-0.5638 0.6729,-0.6946 0.5374,-0.8343 0.4936,-1.2429 0.167,-1.2264 -0.1594,-1.2336 -0.4857,-1.2649 -0.9167,-1.2501 -1.2661,-0.9438 -1.4689,-0.5572 -1.5254,-0.0901 -1.6815,0.4773 -1.479,0.9455 -0.4044,0.4813 -0.3032,0.8559 -0.6514,1.8209 -0.3099,0.838 0.0505,0.6629 0.3471,1.1819 0.5661,1.0397 0.7498,0.8758 0.8984,0.6903 1.0117,0.4832 1.0899,0.2545 1.1328,0.0041 1.1406,-0.268 v 0 m -2.4365,-1.9316 -1.451,-0.943 0.0187,0.2738 0.0282,0.2174 -0.2016,-0.1024 -0.589,-0.6742 -0.3257,-0.9748 -0.0324,-1.1022 0.2906,-1.0565 0.6678,-0.9362 0.9298,-0.6987 1.0409,-0.3787 1.001,0.0237 0.9914,0.3954 0.8073,0.5904 0.7228,1.0547 0.2989,1.2355 -0.137,1.2317 -0.585,1.0434 -0.3802,0.341 -0.0253,-0.2328 0.0039,-0.2505 -1.2651,0.7987 -0.3618,0.2761 -0.4808,0.1208 -0.5117,-0.0416 -0.4547,-0.211 v 0 m -0.1634,-2.3205 0.0073,-0.5342 -0.2317,-0.3424 -0.3888,-0.5178 -0.1195,-0.4716 -0.1002,-0.3131 -0.0986,0.6578 0.1466,1.0895 0.334,0.6729 0.3121,0.3349 0.1388,-0.576 v 0 m 2.5257,0.0299 0.3268,-0.9371 0.0299,-1.0214 -0.0674,-0.4508 -0.0793,0.3973 -0.2406,0.6905 -0.4698,0.5492 -0.3064,0.4841 0.2196,0.6121 0.2369,0.1519 0.3503,-0.4758 v 0 m -2.1196,-1.1549 0.2638,-0.5541 -0.1618,-0.2134 -0.2383,0.063 -0.0863,0.0546 -0.104,-0.1336 -0.1019,-0.3349 0.1048,-0.3103 0.9632,-0.7366 0.3396,-0.1706 0.0862,0.0708 0.1502,0.0951 0.1456,0.0333 -0.1155,0.211 -0.0282,0.0952 0.2294,0.025 0.2536,0.0314 -0.0582,0.1751 -0.0709,0.1922 0.1184,0.1432 0.1114,0.1255 -0.1723,0.1102 -0.2733,0.3528 -0.0899,0.7356 0.0799,0.3208 0.2986,-0.2095 0.3689,-0.6123 0.1543,-0.6893 -0.2536,-0.8256 -0.598,-0.6244 -0.6085,-0.1981 -0.5971,0.0582 -0.5266,0.2958 -0.3967,0.5149 -0.2149,0.7448 0.1445,0.7381 0.6005,0.8247 0.2831,-0.3986 v 0 m -1.1889,-2.9075 0.0383,-0.1002 0.1621,0.1002 -0.0383,0.1002 -0.1621,-0.1002 v 0 m 3.3061,0 0.1621,-0.1002 0.0383,0.1002 -0.1621,0.1002 -0.0383,-0.1002 v 0 m -2.5547,-0.47 0.0206,-0.2044 0.1265,0.1293 0.1427,0.2662 -0.1397,0.0785 -0.1503,-0.2696 h 2e-4 m 1.7063,0.1945 0.1503,-0.2696 0.1265,-0.1293 0.0206,0.2044 -0.1503,0.2696 -0.1471,-0.0751 v 0 m -0.9048,-0.1281 0.1112,-0.3663 0.1068,-0.2089 0.0865,0.1272 0.0773,0.3395 -0.1815,0.1404 -0.2003,-0.0319 v 0 m -8.9154,7.6827 1.413,-1.4303 1.207,-1.6563 1.1859,-2.3325 -0.2513,-0.0567 -0.2732,0.137 -0.3498,0.6144 -0.4385,0.7514 -0.8488,-0.4457 -0.7822,-0.4458 -0.1885,0.31 -0.0967,0.3419 0.7244,0.4577 0.699,0.4488 -0.0501,0.3395 -0.6609,0.9019 -0.5135,0.6171 -0.7184,-0.7137 -0.7185,-0.7136 -0.2697,0.2815 -0.2698,0.2816 0.6999,0.6945 0.6999,0.7638 -0.6512,0.5874 -0.505,0.4561 -0.1462,0.3039 0.1264,0.2418 0.9768,-0.7357 v 0 m -17.8341,0.2076 -0.7514,-0.9081 -0.7514,-0.7724 0.7503,-0.5196 0.7492,-0.5278 -0.1872,-0.3422 -0.1861,-0.242 -0.7973,0.4674 -0.8616,0.4675 -0.9701,-1.468 0.6763,-0.7235 0.6762,-0.6059 -0.275,-0.2767 -0.2751,-0.2767 -0.5794,0.5733 -0.647,0.5734 -0.7461,-1.6022 -0.313,-0.6506 -0.3393,-0.1501 -0.1037,0.1109 0.1699,0.5799 1.0877,2.4151 1.5451,2.231 1.1821,1.2215 0.8524,0.6534 0.0945,-0.2276 v 0 M 8.27469,36.28 l 1.11747,-0.5088 0.74264,-0.5607 0.6648,-0.7427 0.5397,-0.8616 0.3672,-0.9176 0.1044,-0.5868 -0.238,-0.7212 -0.8656,-3.3102 -0.157,-0.3908 -0.4654,-0.4436 -0.82158,-0.5777 -0.83884,-0.402 -0.87952,-0.2348 -0.9436,-0.0764 -1.02771,0.0969 -0.9581,0.2798 -0.87149,0.4468 -0.7679,0.5979 -0.6473,0.7329 -0.50971,0.852 -0.35511,0.955 -0.18352,1.0422 0.08813,1.3085 0.44405,1.288 0.74238,1.1491 0.98313,0.8921 1.05066,0.563 1.11082,0.3639 1.25653,0.0342 1.31847,-0.2674 v 0 M 4.87316,34.4301 4.56953,34.1973 4.69634,33.7419 4.78767,33.3887 4.58866,33.0496 4.14951,32.2321 3.92164,31.8056 3.50579,31.6076 3.04478,31.3918 3.53603,31.2014 3.93071,31.0642 4.07652,30.8891 3.63023,30.3453 3.17847,29.9299 3.80799,29.9842 4.49205,29.9604 4.26813,29.2901 3.99414,28.6944 4.58223,28.995 5.22429,29.2835 5.32132,29.2202 5.31222,29.02 5.19621,28.1935 l -0.06326,-0.551 0.48374,0.6741 0.54763,0.6762 0.2566,-0.8244 0.19271,-0.8265 0.18368,0.8265 0.24433,0.8244 0.46031,-0.5599 0.48449,-0.6102 -0.09763,1.2975 0.00805,0.1351 0.1186,0.0344 0.51646,-0.2288 0.61055,-0.3603 0.23684,-0.1257 -0.26801,0.4355 -0.42371,0.9215 0.20292,0.1029 0.50423,-0.0506 0.62896,-0.0548 -0.41085,0.3792 -0.36008,0.3243 -0.1052,0.2486 0.15115,0.1869 0.40901,0.1396 0.49387,0.1825 -0.50766,0.2116 -0.41652,0.2207 -0.2713,0.5174 -0.44658,0.8076 -0.1557,0.2429 0.09921,0.3432 0.12679,0.4654 -0.34088,0.243 L 8.02703,34.546 7.87015,34.4975 7.65748,33.6882 7.58106,33.0429 7.77917,32.7184 8.11422,32.0657 8.16863,31.6003 7.7034,31.8476 7.12667,32.0801 6.40909,31.8411 5.69568,31.6376 5.54942,31.589 5.87502,31.5021 6.37573,31.4841 6.43269,31.2242 6.30814,30.9815 5.67465,30.9192 4.9483,30.8898 v 0.5636 l 0.05965,0.5405 0.291,0.451 0.34628,0.6681 -0.34888,1.4531 -0.42318,-0.1359 -10e-6,-10e-5 m 1.95767,-3.8152 0.0291,-0.8184 h -0.3547 -0.3547 v 0.5009 l 0.03506,0.4133 0.16531,0.0876 0.16134,0.0699 0.03903,0.2891 0.12523,0.3176 0.15433,-0.86 v 0 m 0.72229,0.1333 V 29.9968 H 7.25256 6.95201 v 0.7514 0.7514 h 0.30055 0.30056 v -0.7514 m 0.7013,0.1002 V 30.1972 H 7.95386 7.65331 v 0.6512 0.6512 H 7.95386 8.25442 V 30.8484 M 6.05034,30.3976 6.00336,30.0505 5.69969,29.9968 l -0.30368,0.0537 -0.04697,0.3471 0.04698,0.347 0.30367,0.0537 0.30369,-0.0536 0.04696,-0.3471 v 0 m 31.15626,4.6836 -0.2057,-0.5218 -0.296,0.3495 -0.2119,0.2976 h 0.3575 l 0.3561,-0.1253 v 0 m -24.0124,-0.074 0.3814,-0.0012 -0.1785,-0.3021 -0.3852,-0.5614 -0.2068,-0.2593 -0.3706,0.6244 -0.3706,0.6244 0.3745,-0.0619 0.7558,-0.063 v 10e-5 m 25.46,-5.0354 0.3901,-1.675 0.171,-1.7182 -0.0484,-1.7476 -0.2685,-1.7628 -0.1447,-0.4496 -0.2414,0.113 -0.1121,0.2589 0.1243,0.7606 0.1253,0.9535 -0.8299,0.0826 -0.8259,0.047 -0.0053,0.4041 0.0416,0.357 0.8653,-0.0283 0.8653,-0.0284 -0.0309,1.0018 -0.1068,1.0786 -0.8535,-0.084 -0.8082,-0.1269 -0.0991,0.354 -0.0034,0.2896 0.3276,0.136 0.8583,0.1696 0.4655,0.1798 -0.256,0.9992 -0.1941,0.7826 0.1094,0.29 0.2027,0.1894 0.2818,-0.8265 v 0 m -26.9396,-1.7228 -0.15,-1.1258 0.0449,-0.1806 0.1264,-0.012 1.5425,0.2018 0.0855,-0.3801 v -0.3274 l -0.9267,-0.1426 -0.9268,-0.1426 0.025,-0.7013 0.1104,-0.9986 0.1722,-0.1344 0.3205,-0.0266 0.9248,-0.0751 0.3876,-0.1046 0.0286,-0.3138 -0.0557,-0.373 -0.8169,0.0669 -0.8212,0.0637 0.2394,-0.9516 0.2063,-0.8337 -0.1388,-0.2899 -0.2058,-0.0605 -0.2552,0.7449 -0.4377,1.9425 -0.1407,1.9671 0.1134,1.7874 0.2586,1.4833 0.0749,0.1352 0.1748,-0.1417 0.1453,-0.2897 -0.1056,-0.7872 v 0 m 28.438,-1.4176 0.4653,-0.26 -0.4017,-0.291 -0.4434,-0.291 -0.076,0.5512 -0.0219,0.551 0.4777,-0.2602 v 0 m 5.4923,-1.0864 0.9242,-0.4135 0.8006,-0.5524 0.6694,-0.6846 0.5301,-0.8101 0.4509,-1.0584 0.2192,-1.0299 -0.0107,-1.0209 -0.2386,-1.0312 -0.6394,-1.3351 -0.917,-1.064 -1.1758,-0.7761 -1.4156,-0.4719 -1.551,-0.0533 -1.6032,0.5093 -0.9516,0.5605 -0.7816,0.6994 -0.607,0.8331 -0.4277,0.9615 -0.2737,1.205 0.2451,1.127 0.4815,1.6787 0.2224,0.7185 0.351,0.5138 0.6486,0.6018 0.7925,0.5133 0.89,0.3998 0.9416,0.2612 1.1484,-0.0137 1.2774,-0.2678 v 0 m -2.7061,-1.733 -0.9219,-2.5335 0.2504,-0.4164 0.2586,-0.4653 0.0436,-0.0395 0.102,0.1724 0.0833,0.6135 0.0649,1.115 0.3098,1.463 0.1612,0.7276 -0.3518,-0.6368 h -10e-5 m 1.7288,0.4997 0.351,-1.2412 0.1579,-1.3173 0.111,-1.192 0.1426,-0.0287 0.2543,0.2463 0.3512,0.3888 -0.3073,0.9172 -1.0607,2.4022 v -0.1753 0 m -3.4251,-3.1308 -0.1477,-0.9862 -0.0297,-0.4351 0.487,-0.1856 0.6591,-0.3413 0.2286,-0.1379 0.0386,0.2825 -0.1756,0.3006 -0.471,0.3487 -0.3087,0.5202 -0.134,0.8345 -0.0423,0.2135 -0.1043,-0.4139 v 0 m 5.2924,-0.2917 -0.3492,-0.8546 -0.5044,-0.3565 -0.158,-0.3018 v -0.3018 l 0.3757,0.236 0.6763,0.3374 0.2568,0.1675 0.0194,0.5245 -0.1073,0.8908 -0.0895,0.1577 -0.1198,-0.4992 v 0 m -2.9146,0.062 -0.4277,-0.4232 -0.2479,-0.6607 -0.0391,-0.7559 0.1984,-0.7086 0.4269,-0.5278 0.4963,-0.1522 0.4922,0.2187 0.4148,0.5845 0.1635,0.6263 -0.0341,0.6552 -0.2147,0.5987 -0.3784,0.457 -0.4109,0.2044 -0.4393,-0.1163 v -10e-5 m 0.9548,-0.934 0.2353,-0.3473 -0.2523,-0.3853 -0.5242,-0.1976 -0.5894,0.1892 -0.3096,0.3349 0.248,0.3603 0.5868,0.2004 0.6054,-0.1546 v 0 m -0.8142,-0.2768 0.016,-0.2607 0.2566,-0.1022 0.1504,0.049 0.019,0.1754 L 44,20.0531 43.7609,19.9404 v 0 m 3.5658,-0.9401 -0.3374,-0.4676 -0.6792,-0.3693 -0.3382,0.0537 -0.3135,0.2144 -0.2709,0.2254 -0.1851,-0.3567 -0.1206,-0.2779 0.1206,-0.0481 0.5252,-0.2229 0.415,-0.4277 0.1996,-0.2507 0.6563,0.9381 0.3793,1.0478 -0.0511,-0.0585 v 0 m -6.6698,-0.2823 0.8101,-1.4905 0.1522,-0.1411 0.1568,0.1702 0.4229,0.463 0.4323,0.2219 0.2109,0.0927 -0.1031,0.3262 -0.156,0.3656 -0.2754,-0.2755 -0.3246,-0.2326 -0.3316,-0.0539 -0.69,0.4287 -0.3168,0.3222 0.0123,-0.1969 v 0 m 2.5622,-1.4066 0.0263,-0.2973 0.1741,0.1089 0.2003,0.2625 -0.2003,0.1883 -0.1691,0.0326 -0.0313,-0.295 v 0 m 1.2696,0.2382 -0.1302,-0.1501 0.1466,-0.2307 0.2281,-0.1832 -0.0067,0.368 -0.0753,0.2563 -0.1625,-0.0603 v 0 m -33.93,7.989 -0.0506,-0.2342 -0.2648,0.0918 -0.1486,0.1125 0.1301,0.1348 0.266,0.1288 0.0679,-0.2337 v 0 m -1.90108,-1.0125 1.44988,-0.713 0.6961,-0.4786 0.2219,-0.8457 0.9582,-2.6247 0.3296,-0.8263 -0.0501,-0.6058 -0.5546,-1.4248 -0.88,-1.2538 -1.15963,-0.858 -1.3697,-0.5747 -0.99607,-0.1434 -1.04142,0.0621 -1.03265,0.2592 -0.96978,0.4477 -0.7689,0.5848 -0.68365,0.7777 -0.54942,0.9038 -0.3662,0.9631 -0.13983,1.2476 0.0993,1.2563 0.54612,1.3533 0.89662,1.2033 0.67367,0.578 0.74698,0.4355 1.98751,0.571 0.83257,-0.0342 1.1235,-0.2604 v 0 M 6.90097,23.0089 6.78172,22.9588 6.54047,23.0813 6.3509,22.9229 6.29377,22.8095 6.07539,22.8309 5.79988,22.9 6.04276,22.6414 6.20281,22.3911 5.87552,22.5845 5.57002,22.7373 5.75973,22.495 5.99844,22.3017 5.52346,22.3553 5.04849,22.2956 5.37409,22.182 6.01939,21.9786 6.49631,21.4905 6.64671,20.7074 6.49511,20 6.16434,19.6903 5.72763,19.5193 5.22841,19.4958 4.71009,19.629 4.41723,19.7252 4.3472,19.6451 4.62271,19.3839 4.89822,19.2583 4.60158,19.0216 4.38125,18.7263 4.82005,18.8725 5.69746,19.0579 6.18903,19.0265 5.77119,18.751 5.12579,18.4741 4.65917,18.4048 4.50452,18.2637 4.90671,18.1749 H 5.25402 L 5.10117,17.8794 4.95702,17.549 5.03519,17.4736 5.3757,17.8493 5.99311,18.4186 6.45109,18.6314 6.17396,18.0446 5.69078,17.4954 5.34906,17.1722 l 0.0864,-0.0895 0.25835,0.1437 0.27972,0.1278 0.09552,-0.2986 0.15971,-0.3659 0.12187,0.3999 0.19935,0.798 0.32673,0.4877 L 6.94809,17.8171 6.74961,16.9687 6.61985,16.6571 6.68343,16.572 6.9453,16.8475 7.07093,17.123 7.30759,16.8264 7.59945,16.6048 7.45993,17.0592 7.27132,17.663 7.33913,18.2087 7.45069,18.26 7.68756,17.8857 7.95869,17.326 8.05406,16.7223 8.15425,17.0788 8.2256,17.3565 8.53287,17.2174 8.85898,17.1308 8.57106,17.485 8.01429,18.1242 7.79702,18.6526 8.30148,18.3873 8.87201,17.8189 9.166,17.4736 9.2538,17.6201 9.1561,17.8243 9.06235,18.05 l 0.28821,0.1249 0.35656,0.1002 0.03096,0.1053 -0.47645,0.0617 -0.84565,0.3205 -0.40016,0.2639 0.52454,0.0304 0.48757,-0.0224 0.3884,-0.1643 0.41198,-0.1412 -0.21056,0.2966 -0.28975,0.2315 0.31479,0.1628 0.31479,0.2604 -0.05829,0.0876 -0.37709,-0.1403 -0.95622,-0.1308 -0.70419,0.3705 -0.31016,0.7193 0.22584,0.9157 0.46038,0.5078 0.61272,0.1722 0.30553,0.1133 -0.47002,0.0602 -0.47002,-0.053 0.24311,0.1834 0.18475,0.2417 L 8.31982,22.5772 8.06289,22.446 8.22938,22.7137 8.34935,22.8734 8.17929,22.8401 8.00368,22.8202 7.95387,22.927 7.77859,23.0794 7.47627,22.9671 7.37065,22.911 7.29523,23.0172 7.10111,23.1782 6.90098,23.0089 h -10e-6 M 6.68768,22.7334 6.64831,22.5831 6.55126,22.7334 6.59063,22.8837 6.68767,22.7334 h 1e-5 m 1.04285,0.0313 -0.15869,-0.1587 -0.05816,0.119 0.15717,0.1558 0.05968,-0.1161 v 0 M 7.17242,22.4629 7.07724,22.4178 7.05219,22.5831 7.07724,22.7484 7.17242,22.7033 v -0.2404 0 M 3.62085,19.6204 3.3628,19.3936 3.63631,19.1483 3.99039,19.0038 4.04664,19.3772 3.98297,19.746 3.62085,19.6204 v 0 m 6.55425,-0.2432 0.0386,-0.4008 0.6455,0.4008 -0.6298,0.4007 -0.0543,-0.4007 v 0 m -0.1079,-0.9098 -0.09153,-0.4392 0.39943,0.0849 0.3674,0.1119 -0.2759,0.3273 -0.276,0.3273 -0.1234,-0.4122 M 3.70881,18.4889 3.43368,18.2017 3.89044,18.0867 4.30985,17.9196 4.19691,17.5738 4.07475,17.202 4.44738,17.1559 4.82062,17.2563 4.74603,17.4247 4.14682,18.6225 4.04333,18.7616 3.70881,18.4889 v 0 M 9.65606,17.6498 9.42662,17.2992 9.4634,17.2007 9.80069,17.1731 h 0.45421 l -0.1672,0.3506 -0.21547,0.3292 -0.21617,-0.2031 v 0 M 4.89271,16.8284 4.88926,16.3761 5.27644,16.4519 5.65467,16.6221 5.30613,16.8982 4.95759,17.1742 4.89271,16.8284 M 8.82537,16.8361 8.54475,16.6064 8.9506,16.447 9.35646,16.2876 v 0.3927 l -0.1118,0.3746 -0.41929,-0.2188 v 0 m -3.01926,-0.6264 0.09937,-0.4229 0.64579,0.4918 -0.22542,0.1186 -0.4078,0.1253 -0.14138,9e-4 0.02944,-0.3137 v 0 M 7.97794,16.4295 7.65136,16.3108 7.95185,16.0229 8.29453,15.7778 8.3908,16.5601 7.97794,16.4295 v 0 m -1.2263,-0.2131 0.16271,-0.3697 0.16029,-0.2441 0.14761,0.1238 0.26852,0.4593 -0.33487,0.0858 -0.40426,-0.0551 v 0 m 31.85896,5.8718 -0.8763,-2.2602 -0.9049,-1.5458 -1.065,-1.4373 -1.1891,-1.1989 -0.8764,-0.677 -0.0976,0.2314 0.1906,0.3492 0.6109,0.6093 0.8015,0.818 -0.8019,0.5532 -0.8018,0.4625 0.1722,0.2915 0.2759,0.2914 0.9094,-0.4848 0.8059,-0.4847 0.4099,0.6101 0.4838,0.7455 -0.6122,0.8268 -0.686,0.6913 0.2726,0.2725 0.2726,0.2726 0.6006,-0.5943 0.6875,-0.4982 0.8167,1.9385 0.2254,0.2083 0.2999,0.0919 0.0758,-0.0828 v 0 m -25.755,-1.7342 0.237,-0.5415 0.2072,-0.2239 0.303,0.0513 0.5247,0.2837 0.7892,0.4495 0.1754,-0.2085 0.1753,-0.3409 -0.7514,-0.5598 -0.7514,-0.5194 1.0054,-1.4312 0.2645,-0.3106 0.7345,0.6921 0.7345,0.6921 0.2562,-0.2561 0.2561,-0.2562 -0.7361,-0.7411 -0.7361,-0.7411 0.7134,-0.5828 0.6353,-0.5918 0.018,-0.3894 -0.2033,0.0038 -0.6126,0.4639 -1.9555,2.0161 -1.5409,2.3944 -0.4631,1.0132 0.0343,0.1368 0.1837,0.0234 0.2744,-0.09 0.2283,-0.436 v 0 m 25.0822,-2.6085 0.3385,-0.6726 h -0.8318 -0.8318 l 0.4696,0.6963 0.4933,0.6726 0.3622,-0.6963 v 0 m -24.073,-0.8904 -0.342,-0.0827 -0.283,0.0386 0.0537,0.2596 0.1125,0.2982 0.2294,-0.2155 0.2294,-0.2982 v 0 m 24.0946,-1.1351 1.1496,-0.3721 1.0199,-0.5933 0.8527,-0.7867 0.6481,-0.9528 0.5004,-1.2558 0.1706,-1.228 L 42.1419,9.29916 41.6536,8.03084 40.8296,6.87155 39.7002,5.96144 38.3734,5.36677 36.9575,5.15383 l -1.4134,0.21863 -1.3325,0.60745 -1.1343,0.92356 -0.8191,1.16699 -0.409,1.02961 -0.1943,1.00083 0.0188,0.9896 0.2302,0.9962 0.5387,1.1634 0.8379,0.7638 1.2951,0.9931 0.615,0.465 0.5872,0.2017 0.6788,0.1501 1.5028,-0.1038 v 0 m -0.9904,-2.3038 -0.1333,-1.0354 -0.0775,-0.1455 -0.1044,0.0313 -0.1162,0.0401 -0.0793,-0.1375 -0.0895,-0.1446 -0.1621,0.0388 -0.154,0.0445 L 35.988,12 l -0.1523,-0.0258 -0.4812,0.3509 -0.4787,0.332 0.4948,-0.792 0.2217,-0.406 -0.1493,-0.0967 -0.1104,-0.1969 -0.1439,-0.2589 -0.1293,-0.0769 0.042,-0.1153 0.0209,-0.0957 -0.1615,-0.075 -1.109,-0.149 -0.5308,-0.0718 0.1789,-0.0735 1.0305,-0.1421 0.5248,-0.0811 L 35.1011,9.90613 35.0603,9.77735 35.2043,9.6592 35.3489,9.54067 35.3056,9.41018 35.2606,9.28986 35.4003,9.20975 35.53,9.09416 35.2708,8.72544 34.878,8.17256 l 0.4029,0.22698 0.5629,0.33657 0.1619,-0.11947 0.1866,-0.09211 0.2516,-0.12085 0.0803,-0.10979 0.1215,0.05355 0.132,-0.0542 0.1172,-0.58982 0.1213,-1.02882 0.0086,-0.27142 0.0805,0.26651 0.1525,0.98337 0.0867,0.55787 0.1285,0.10403 0.2034,0.10169 0.2432,0.10879 0.2434,0.14234 0.117,0.11643 0.3804,-0.2269 0.4855,-0.28014 -0.2264,0.36956 -0.2902,0.4216 0.1334,0.08995 0.1042,0.05592 -0.0149,0.19455 -0.0139,0.19743 0.119,0.05303 0.1144,0.04423 -0.0063,0.14415 0.0564,0.16811 0.5129,0.0888 0.9797,0.1441 0.1675,0.0755 -0.5682,0.0749 -0.9898,0.1386 -0.17,0.1897 -0.0972,0.1999 -0.0917,0.2467 -0.0972,0.1885 -0.1426,0.1397 0.2564,0.5372 0.1484,0.3631 -0.4944,-0.3185 -0.3256,-0.1206 -0.2065,0.0697 -0.1766,0.0072 -0.1074,0.1486 -0.1501,0.0924 -0.1075,-0.1108 -0.085,0.0646 -0.1236,0.6981 -0.1551,1.054 -0.129,-0.5709 v 0 m 0.7999,-1.6436 0.6571,-0.5424 0.2635,-0.8631 -0.1496,-0.83407 -0.6228,-0.64788 -0.5227,-0.20166 -0.5897,0.00146 -0.5622,0.18893 -0.4399,0.36076 -0.2829,0.51497 -0.0887,0.54949 0.1048,0.5409 0.2977,0.489 0.4335,0.3852 0.4648,0.2018 0.4995,0.0192 0.5376,-0.1626 v 0 m -1.4728,-0.2369 -0.5316,-0.6033 -0.1279,-0.8158 0.1083,-0.47434 0.3442,-0.40229 0.4294,-0.31977 0.5103,-0.0621 0.7095,0.14272 0.5151,0.38531 0.2688,0.56529 -0.029,0.68268 -0.3416,0.6301 -0.5535,0.3905 -0.6553,0.1055 -0.6467,-0.2245 v 0 m -20.9238,3.7082 0.9178,-0.7047 1.4802,-1.0096 0.7012,-0.4791 0.3462,-0.4735 0.3843,-0.9905 0.1781,-1.0176 L 19.3608,9.55261 19.153,8.56601 18.7654,7.63741 18.2068,6.79516 17.4861,6.06758 16.6121,5.48302 15.4314,5.02006 14.2312,4.84883 13.0524,4.95102 11.936,5.30831 10.923,5.90239 10.0543,6.71495 9.37107,7.72768 8.91416,8.92228 8.7614,10.0766 l 0.12358,1.1655 0.39232,1.1429 0.6535,1.0864 1.2254,1.1106 1.6185,0.7343 1.4552,0.131 1.1424,-0.2034 v 0 m -1.9587,-2.0154 -0.4838,-0.386 0.1989,0.5486 0.0472,0.2595 -0.4541,-0.1369 -0.5454,-0.4625 -0.3937,-0.9375 -0.1721,-0.6011 -0.0503,0.5511 -0.0504,0.551 -0.2251,-0.4218 -0.2194,-0.6576 0.0571,-0.6595 0.3411,-0.6871 L 12.0963,9.44834 12.6297,8.85727 12.7628,8.47869 12.676,8.13345 12.4473,7.86552 12.1242,7.71128 11.7542,7.70706 11.3853,7.93321 11.26,8.38803 l 0.1596,0.36401 0.46,0.08747 0.2768,-0.07668 0.0553,-0.25576 -0.0459,-0.24545 -0.2045,-0.0551 -0.1971,0.04704 -0.0451,0.18112 -0.1011,0.18695 -0.1386,-0.29087 0.1004,-0.31043 0.296,-0.13612 0.3436,0.05658 0.2435,0.26765 0.0128,0.49256 -0.2885,0.33952 -0.4606,0.10902 -0.5032,-0.1989 -0.2109,-0.25061 -0.0531,-0.37831 0.154,-0.64106 0.5194,-0.31239 0.5314,-0.06188 0.1974,-0.20089 0.3868,-0.36167 0.3979,-0.34287 0.3809,-0.30548 0.5708,0.13396 0.3194,0.14057 0.2578,-0.07636 0.4655,-0.13755 0.4058,0.07305 0.2537,0.23989 0.0096,0.36296 -0.1391,0.21737 -0.242,0.08798 -0.3875,-0.07053 0.0058,-0.23285 0.0952,-0.05816 0.025,0.1156 0.1753,0.1439 0.1788,-0.2819 -0.1838,-0.28202 -0.4549,0.15983 -0.3285,0.52359 -0.0596,0.4625 0.5348,-0.10083 0.9321,-0.16291 0.6812,-0.06749 0.2277,-0.19652 -0.2319,-0.2356 -0.3414,0.07472 -0.1135,0.10219 -0.0764,-0.1215 0.073,-0.25365 0.4128,0.00455 0.387,0.17888 0.1865,0.22749 -0.0309,0.22678 -0.2652,0.17671 -0.2929,0.19907 0.3374,0.03082 0.3283,-0.00407 0.2728,0.19534 0.2434,0.41116 -0.1358,0.42205 -0.0963,0.19433 0.0865,0.13263 0.1761,0.27605 0.031,0.35129 -0.1046,0.3379 -0.2307,0.2361 -0.415,-0.0603 -0.1455,-0.35885 0.1441,-0.16922 0.0656,0.17012 0.1865,0.17535 0.163,-0.06622 0.071,-0.22942 -0.1273,-0.40687 -0.4565,-0.14911 -0.3731,0.12334 -0.1287,0.35755 -0.3491,0.59153 -0.6253,0.3302 -0.4926,-0.2194 -0.2362,-0.45765 0.205,-0.34915 0.3934,-0.16927 -0.0774,0.11774 -0.1761,0.1521 -0.0243,0.26691 0.0744,0.25112 0.2061,0.0823 0.4771,-0.1625 L 16.1258,9.6023 16.1193,9.29259 15.9185,8.97614 15.6178,8.7153 15.2034,8.65735 l -0.7175,0.14202 -0.6782,0.57444 -0.5364,0.78629 -0.1679,0.5448 -0.0173,0.5268 0.3669,0.9318 0.8175,0.6559 1.1664,0.2439 0.5852,-0.1121 0.5432,-0.2747 0.3805,-0.3551 0.0971,-0.3531 0.0372,-0.2052 0.102,0.0981 -0.0229,0.2451 -0.3416,0.6346 -0.9415,0.6868 -1.2284,0.317 -0.6698,0.0481 -0.5643,-0.5643 M 16.621,8.56729 16.7607,8.27096 16.9968,8.22275 16.9111,8.40131 16.814,8.63433 17.0644,8.75754 17.3751,8.59191 17.4307,8.20782 17.3216,8.00928 17.0876,7.95605 16.54,8.23206 16.3286,8.69537 16.5005,8.82395 16.621,8.56729 v 0 M 16.0755,8.1529 16.2691,7.8517 16.0689,7.6555 l -0.2004,0.12022 -0.1128,0.0074 -0.5643,0.1052 -0.4516,0.21798 0.4892,0.0594 0.5709,0.07514 0.2755,-0.08797 1e-4,3e-5 M 13.708,8.05872 13.9143,7.91193 13.965,7.61441 14.0581,7.02297 14.0056,6.56904 l -0.391,-0.21595 -0.3003,0.11563 0.0914,0.26968 0.1537,0.11194 0.1071,-0.09651 0.0983,-0.04686 0.0165,0.5954 -0.0455,0.43262 -0.1746,0.24363 -0.1575,0.1681 0.3043,-0.088 v 0 M 13.5472,7.57108 13.4025,7.1419 13.0204,6.97924 12.7808,7.22971 12.8049,7.44207 13.0622,7.33241 h 0.3192 l 0.0641,0.09767 -0.1058,0.02505 -0.2193,0.09811 -0.0036,0.20799 0.2439,0.06432 0.1865,-0.25448 v 1e-5 m 7.0475,7.71642 -0.2635,-0.8975 -0.2492,-0.7064 0.0815,-0.2091 1.9114,-0.5624 0.1483,0.6771 0.1529,0.9172 0.3099,0.1621 0.3494,-0.106 -0.0554,-0.9574 -0.0663,-0.9058 0.8878,-0.1561 0.837,-0.1885 0.2467,-0.3231 -0.7031,-0.0233 -1.5511,0.2218 -1.683,0.4375 -1.6288,0.6008 -2.0481,1.188 0.23,0.1845 0.4258,-0.0421 1.3843,-0.7318 0.1058,0.2538 0.3108,0.8125 0.2513,0.4657 0.2719,0.0248 0.3437,-0.1363 v 0 m 9.821,-0.6233 0.366,-0.8205 1.0696,0.4796 1.224,0.4972 0.2254,-0.1472 -0.8773,-0.6129 -1.5772,-0.8226 -2.3326,-0.8077 -2.4553,-0.4243 -0.7692,0.019 0.2332,0.3211 0.725,0.1645 0.8205,0.1411 -0.028,1.0108 -0.0901,1.0235 0.3817,0.0829 h 0.3305 l 0.1255,-0.9268 0.1653,-0.9935 1.9116,0.5253 0.1826,0.1271 -0.1087,0.3394 -0.3504,0.8513 -0.1898,0.4739 0.2733,0.148 0.3612,0.123 0.3832,-0.7722 v 0 m 0.1347,-2.2737 -0.1255,-0.8023 -0.0586,-0.6281 -0.5616,0.5264 -0.5849,0.5768 1.3115,0.4863 0.0191,-0.1591 v 0 m -9.593,-0.2613 0.3301,-0.1197 -0.304,-0.2912 -0.3419,-0.2485 -0.094,0.7866 0.4098,-0.1272 v 0 M 27.8406,11.228 29.0695,10.286 29.9749,9.05809 30.5191,7.38542 30.5315,5.75505 30.0207,4.22161 28.9954,2.83972 28.2892,2.23996 27.5144,1.78262 26.6885,1.46958 25.8293,1.30272 24.9544,1.28394 24.0814,1.41513 23.2279,1.69816 22.4116,2.13493 21.1681,3.2572 20.339,4.67669 l -0.3642,1.58933 0.1513,1.63178 0.4045,1.02298 0.6259,0.96788 0.7745,0.81984 0.8503,0.5789 0.7061,0.2353 1.536,0.035 1.746,0.0525 0.3125,-0.0293 0.7587,-0.3529 v 0 m -5.7262,-3.31514 0.717,-1.24541 0.0632,0.48603 0.3202,0.93161 0.6513,0.74291 0.4335,0.33028 h -1.4511 -1.4511 l 0.717,-1.24542 m 4.2235,1.129 0.5736,-0.46559 0.4525,-0.57012 0.2168,-0.85158 0.0595,-0.55102 0.5931,1.05195 0.7379,1.27736 0.1447,0.22542 -1.4893,-0.003 L 26.4973,9.1294 26.3379,9.0419 v -4e-5 M 24.4093,8.79452 24.0196,8.60354 24.0837,8.3568 l 0.0986,-0.02505 0.0767,0.10141 0.4148,0.11996 0.241,0.24109 0.0856,-0.01076 0.2057,-0.07234 0.3086,-0.04554 0.3671,0.03559 -0.0173,0.17741 -0.6907,0.05011 -0.7645,-0.13417 v 10e-6 m 1.6425,-0.18573 0.1604,-0.26518 0.372,-0.3015 0.2879,-0.09952 0.0556,0.12233 -0.1673,0.22774 -0.3589,0.26451 -0.1137,0.10019 -0.094,0.09622 -0.142,-0.14479 v 0 M 25.3313,8.44942 25.3899,8.2437 25.862,8.13386 25.9872,8.01176 26.2981,7.62772 26.4862,7.35494 26.4846,7.20905 26.541,6.95859 l 0.0778,-0.10457 0.104,0.16062 -0.0557,0.37492 -0.4101,0.75092 -0.5378,0.2792 -0.3878,0.02974 h -10e-5 M 24.351,8.19399 24.0243,7.79394 23.9938,7.69925 23.7845,7.2297 l 0.1284,-0.04038 0.3203,0.40627 0.5155,0.54888 0.229,0.19975 -0.1176,0.10686 -0.5091,-0.2571 v 10e-6 M 23.4881,7.89525 23.3068,7.16761 23.3278,6.91127 23.4303,6.85401 23.544,7.03154 23.4487,7.1561 23.4381,7.23124 23.9231,8.27322 23.7446,8.31694 23.4881,7.89525 v 0 m 1.4472,0.0608 0.0033,-0.20027 0.1539,-0.04592 0.0908,0.20139 -0.0919,0.14499 -0.1562,-0.10019 h 1e-4 M 25.3037,7.90031 25.428,7.7476 25.5632,7.836 25.4332,7.99344 25.3037,7.90031 v 0 m 0.4398,-0.13375 0.1433,-0.55581 0.3097,-0.45693 0.0886,0.09503 -0.0882,0.14962 -0.0493,0.23133 -0.1442,0.4146 -0.26,0.12216 h 10e-5 M 24.3393,7.4336 24.2455,6.84154 24.4405,6.27949 24.7054,6.13328 24.7383,6.34198 24.5919,6.40771 24.534,6.79344 24.6636,7.4169 24.7208,7.66452 24.5631,7.75568 24.3393,7.4336 v 0 m 2.6156,0.24768 -0.036,-0.53163 0.1414,-0.44018 0.1296,0.11687 0.002,0.5286 -0.0951,0.32133 -0.1419,0.00501 v 0 M 23.683,6.90725 23.8332,6.81778 23.9835,6.96491 23.8332,7.05438 23.683,6.90725 v 0 m 0.1003,-0.2535 -0.0854,-0.08551 0.1174,-0.07186 0.2091,-0.02561 -0.0239,0.15544 -0.2172,0.02754 v 0 m 2.6515,-0.11037 0.0385,-0.32343 0.2115,0.17344 0.0943,0.31133 -0.1339,0.04911 -0.2104,-0.21045 v 0 M 25.7826,6.39534 25.7122,6.10953 25.8798,6.09817 26.0967,6.36938 26.0481,6.58554 25.7826,6.39534 v 0 m -2.4477,-0.0558 0.0881,-0.25187 0.1437,0.00502 0.0416,0.26193 -0.1817,0.19884 -0.0917,-0.21392 v 0 M 26.9725,6.36546 27.0278,6.28634 26.8809,6.22178 26.7197,6.14507 26.7864,6.00522 26.8636,5.88768 26.7528,5.91068 26.5945,5.8793 26.5765,5.62674 26.5132,5.56467 25.7868,5.19569 l 0.1404,-0.18733 0.3373,0.13118 0.4086,0.36596 0.3543,0.51701 0.1502,0.36594 -0.1635,0.06329 -0.1096,-0.01924 0.068,-0.06705 v 10e-6 m -2.9361,-0.1427 0.1423,-0.41813 0.3492,-0.22185 0.2383,-0.09826 0.5501,-0.12751 0.6734,0.21965 0.3685,0.34853 0.003,0.09814 -0.137,0.00989 L 26.0499,5.8312 25.9247,5.72053 25.6115,5.69622 24.8852,5.65407 24.5393,5.89267 24.1541,6.24106 24.108,6.34428 24.0364,6.22277 v -10e-6 M 24.952,6.08592 24.9073,5.91518 25.1857,5.85216 25.4863,6.00244 25.2683,6.15023 24.952,6.08593 v -1e-5 M 23.578,5.94727 23.5636,5.85369 23.6411,5.76536 23.7731,5.51057 23.9368,5.39758 24.0168,5.49397 23.9637,5.71415 23.9334,5.65179 23.9032,5.58943 23.8444,5.79514 23.8058,5.98239 23.578,5.94727 v 0 m 0.57,-0.64511 0.1741,-0.20781 0.3725,0.01247 0.0541,-0.03374 0.0451,-0.17295 0.246,0.054 0.1459,0.0086 0.1002,-0.11245 0.1002,0.15028 -0.1905,0.14688 -0.2441,-0.12183 -0.0584,0.06178 -0.0509,0.1321 -0.1509,0.0042 L 24.444,5.31219 24.2967,5.4461 24.148,5.30214 v 2e-5 m 1.4385,-0.20139 0.097,-0.15028 0.0394,0.15028 -0.0971,0.15028 -0.0393,-0.15028 v 0 m -1.767,-0.13912 1.4743,-2.34372 1.3947,2.39226 -0.3757,-0.18806 -1.02,-0.23081 -1.0812,0.22005 -0.3921,0.15028 v 0"
       id="path75" />
  </g>
</svg>
