  0
SECTION
  2
HEADER
  9
$ACADVER
  1
AC1014
  9
$HANDSEED
  5
FFFF
  9
$MEASUREMENT
 70
     1
  0
ENDSEC
  0
SECTION
  2
TABLES
  0
TABLE
  2
VPORT
  5
8
330
0
100
AcDbSymbolTable
 70
     4
  0
VPORT
  5
2E
330
8
100
AcDbSymbolTableRecord
100
AcDbViewportTableRecord
  2
*ACTIVE
 70
     0
 10
0.0
 20
0.0
 11
1.0
 21
1.0
 12
210.0
 22
148.5
 13
0.0
 23
0.0
 14
10.0
 24
10.0
 15
10.0
 25
10.0
 16
0.0
 26
0.0
 36
1.0
 17
0.0
 27
0.0
 37
0.0
 40
341.0
 41
1.24
 42
50.0
 43
0.0
 44
0.0
 50
0.0
 51
0.0
 71
     0
 72
   100
 73
     1
 74
     3
 75
     0
 76
     0
 77
     0
 78
     0
  0
ENDTAB
  0
TABLE
  2
LTYPE
  5
5
330
0
100
AcDbSymbolTable
 70
     1
  0
LTYPE
  5
14
330
5
100
AcDbSymbolTableRecord
100
AcDbLinetypeTableRecord
  2
BYBLOCK
 70
     0
  3

 72
    65
 73
     0
 40
0.0
  0
LTYPE
  5
15
330
5
100
AcDbSymbolTableRecord
100
AcDbLinetypeTableRecord
  2
BYLAYER
 70
     0
  3

 72
    65
 73
     0
 40
0.0
  0
LTYPE
  5
16
330
5
100
AcDbSymbolTableRecord
100
AcDbLinetypeTableRecord
  2
CONTINUOUS
 70
     0
  3
Solid line
 72
    65
 73
     0
 40
0.0
  0
ENDTAB
  0
TABLE
  2
LAYER
  5
2
100
AcDbSymbolTable
 70
2
  0
LAYER
  5
50
100
AcDbSymbolTableRecord
100
AcDbLayerTableRecord
  2
0
 70
0
  6
CONTINUOUS
  0
LAYER
  5
51
100
AcDbSymbolTableRecord
100
AcDbLayerTableRecord
  2
Layer_1
 70
0
  6
CONTINUOUS
  0
ENDTAB
  0
TABLE
  2
STYLE
  5
3
330
0
100
AcDbSymbolTable
 70
     1
  0
STYLE
  5
11
330
3
100
AcDbSymbolTableRecord
100
AcDbTextStyleTableRecord
  2
STANDARD
 70
     0
 40
0.0
 41
1.0
 50
0.0
 71
     0
 42
2.5
  3
txt
  4

  0
ENDTAB
  0
TABLE
  2
VIEW
  5
6
330
0
100
AcDbSymbolTable
 70
     0
  0
ENDTAB
  0
TABLE
  2
UCS
  5
7
330
0
100
AcDbSymbolTable
 70
     0
  0
ENDTAB
  0
TABLE
  2
APPID
  5
9
330
0
100
AcDbSymbolTable
 70
     2
  0
APPID
  5
12
330
9
100
AcDbSymbolTableRecord
100
AcDbRegAppTableRecord
  2
ACAD
 70
     0
  0
ENDTAB
  0
TABLE
  2
DIMSTYLE
  5
A
330
0
100
AcDbSymbolTable
 70
     1
  0
DIMSTYLE
105
27
330
A
100
AcDbSymbolTableRecord
100
AcDbDimStyleTableRecord
  2
ISO-25
 70
     0
  3

  4

  5

  6

  7

 40
1.0
 41
2.5
 42
0.625
 43
3.75
 44
1.25
 45
0.0
 46
0.0
 47
0.0
 48
0.0
140
2.5
141
2.5
142
0.0
143
0.03937007874016
144
1.0
145
0.0
146
1.0
147
0.625
 71
     0
 72
     0
 73
     0
 74
     0
 75
     0
 76
     0
 77
     1
 78
     8
170
     0
171
     3
172
     1
173
     0
174
     0
175
     0
176
     0
177
     0
178
     0
270
     2
271
     2
272
     2
273
     2
274
     3
340
11
275
     0
280
     0
281
     0
282
     0
283
     0
284
     8
285
     0
286
     0
287
     3
288
     0
  0
ENDTAB
  0
TABLE
  2
BLOCK_RECORD
  5
1
330
0
100
AcDbSymbolTable
 70
     1
  0
BLOCK_RECORD
  5
1F
330
1
100
AcDbSymbolTableRecord
100
AcDbBlockTableRecord
  2
*MODEL_SPACE
  0
BLOCK_RECORD
  5
1B
330
1
100
AcDbSymbolTableRecord
100
AcDbBlockTableRecord
  2
*PAPER_SPACE
  0
ENDTAB
  0
ENDSEC
  0
SECTION
  2
BLOCKS
  0
BLOCK
  5
20
330
1F
100
AcDbEntity
  8
0
100
AcDbBlockBegin
  2
*MODEL_SPACE
 70
     0
 10
0.0
 20
0.0
 30
0.0
  3
*MODEL_SPACE
  1

  0
ENDBLK
  5
21
330
1F
100
AcDbEntity
  8
0
100
AcDbBlockEnd
  0
BLOCK
  5
1C
330
1B
100
AcDbEntity
 67
     1
  8
0
100
AcDbBlockBegin
  2
*PAPER_SPACE
  1

  0
ENDBLK
  5
1D
330
1B
100
AcDbEntity
 67
     1
  8
0
100
AcDbBlockEnd
  0
ENDSEC
  0
SECTION
  2
ENTITIES
  0
LWPOLYLINE
  5
100
100
AcDbEntity
  8
Layer_1
 62
7
100
AcDbPolyline
 90
148
 70
1
 10
23.817775
 20
0.059499
 30
0.0
 10
22.667776
 20
0.397599
 30
0.0
 10
21.592076
 20
0.965599
 30
0.0
 10
20.388076
 20
2.018399
 30
0.0
 10
19.423276
 20
3.206398
 30
0.0
 10
18.912576
 20
4.363798
 30
0.0
 10
18.675676
 20
5.391698
 30
0.0
 10
18.611776
 20
5.767398
 30
0.0
 10
17.960276
 20
5.221298
 30
0.0
 10
16.801977
 20
4.415798
 30
0.0
 10
15.407477
 20
3.905698
 30
0.0
 10
13.469977
 20
3.784098
 30
0.0
 10
11.553178
 20
4.051598
 30
0.0
 10
10.250978
 20
4.680998
 30
0.0
 10
9.059388
 20
5.653398
 30
0.0
 10
8.087088
 20
6.859198
 30
0.0
 10
7.442828
 20
8.189098
 30
0.0
 10
7.244198
 20
9.048197
 30
0.0
 10
7.202348
 20
10.375897
 30
0.0
 10
7.363698
 20
12.322597
 30
0.0
 10
7.949578
 20
13.710497
 30
0.0
 10
8.254438
 20
14.211497
 30
0.0
 10
6.853928
 20
14.200397
 30
0.0
 10
4.966989
 20
14.285096
 30
0.0
 10
3.531689
 20
14.802996
 30
0.0
 10
2.728089
 20
15.309496
 30
0.0
 10
1.934039
 20
15.992496
 30
0.0
 10
1.235299
 20
16.768296
 30
0.0
 10
0.717616
 20
17.552896
 30
0.0
 10
0.133484
 20
19.025696
 30
0.0
 10
0.000000
 20
20.795195
 30
0.0
 10
0.048812
 20
22.056095
 30
0.0
 10
0.277459
 20
22.949095
 30
0.0
 10
0.895072
 20
24.273495
 30
0.0
 10
1.952509
 20
25.500095
 30
0.0
 10
3.112459
 20
26.471294
 30
0.0
 10
3.578009
 20
26.744094
 30
0.0
 10
3.236939
 20
27.000594
 30
0.0
 10
2.389589
 20
27.737294
 30
0.0
 10
1.666299
 20
28.567694
 30
0.0
 10
1.098089
 20
29.450794
 30
0.0
 10
0.715965
 20
30.345294
 30
0.0
 10
0.531274
 20
31.198394
 30
0.0
 10
0.489936
 20
32.516793
 30
0.0
 10
0.530975
 20
33.831393
 30
0.0
 10
0.711891
 20
34.674993
 30
0.0
 10
1.311639
 20
35.937893
 30
0.0
 10
2.311269
 20
37.185593
 30
0.0
 10
3.268659
 20
38.033892
 30
0.0
 10
4.270409
 20
38.613892
 30
0.0
 10
5.395479
 20
38.960092
 30
0.0
 10
6.722828
 20
39.106692
 30
0.0
 10
7.730218
 20
39.174792
 30
0.0
 10
7.858728
 20
39.319792
 30
0.0
 10
7.587218
 20
40.416792
 30
0.0
 10
7.454548
 20
41.854892
 30
0.0
 10
7.624418
 20
43.439081
 30
0.0
 10
8.150368
 20
44.901061
 30
0.0
 10
8.651838
 20
45.728711
 30
0.0
 10
9.482838
 20
46.604751
 30
0.0
 10
10.528978
 20
47.477561
 30
0.0
 10
11.565978
 20
48.044341
 30
0.0
 10
12.709177
 20
48.351341
 30
0.0
 10
14.074077
 20
48.444801
 30
0.0
 10
15.282377
 20
48.368631
 30
0.0
 10
16.346477
 20
48.128741
 30
0.0
 10
17.302177
 20
47.713521
 30
0.0
 10
18.185276
 20
47.111321
 30
0.0
 10
18.736476
 20
46.662331
 30
0.0
 10
18.846776
 20
47.188321
 30
0.0
 10
19.407276
 20
48.619801
 30
0.0
 10
20.576176
 20
50.054590
 30
0.0
 10
21.635876
 20
50.991890
 30
0.0
 10
22.666076
 20
51.586075
 30
0.0
 10
23.816075
 20
51.899392
 30
0.0
 10
25.235675
 20
51.994082
 30
0.0
 10
26.666775
 20
51.904834
 30
0.0
 10
27.848975
 20
51.592368
 30
0.0
 10
28.903675
 20
51.008048
 30
0.0
 10
29.952274
 20
50.103240
 30
0.0
 10
31.167074
 20
48.570471
 30
0.0
 10
31.527274
 20
47.763961
 30
0.0
 10
31.771474
 20
46.843321
 30
0.0
 10
31.967474
 20
45.951941
 30
0.0
 10
32.572374
 20
46.477811
 30
0.0
 10
33.706374
 20
47.322981
 30
0.0
 10
35.053874
 20
47.905041
 30
0.0
 10
37.019873
 20
48.100121
 30
0.0
 10
39.011173
 20
47.858351
 30
0.0
 10
40.405773
 20
47.217001
 30
0.0
 10
41.644772
 20
46.245061
 30
0.0
 10
42.634772
 20
45.033971
 30
0.0
 10
43.282372
 20
43.675181
 30
0.0
 10
43.477272
 20
42.806542
 30
0.0
 10
43.519472
 20
41.497792
 30
0.0
 10
43.404272
 20
39.743392
 30
0.0
 10
42.905672
 20
38.402692
 30
0.0
 10
42.614972
 20
37.826692
 30
0.0
 10
43.943872
 20
37.825492
 30
0.0
 10
45.410772
 20
37.740092
 30
0.0
 10
46.568472
 20
37.441592
 30
0.0
 10
47.585471
 20
36.862093
 30
0.0
 10
48.629871
 20
35.933693
 30
0.0
 10
49.539371
 20
34.880893
 30
0.0
 10
50.124271
 20
33.837293
 30
0.0
 10
50.436871
 20
32.674693
 30
0.0
 10
50.529471
 20
31.264494
 30
0.0
 10
50.439771
 20
29.906794
 30
0.0
 10
50.145371
 20
28.765094
 30
0.0
 10
49.608771
 20
27.741394
 30
0.0
 10
48.792071
 20
26.737394
 30
0.0
 10
47.419471
 20
25.541295
 30
0.0
 10
46.835571
 20
25.180895
 30
0.0
 10
47.415671
 20
24.744895
 30
0.0
 10
48.875571
 20
23.297295
 30
0.0
 10
49.396971
 20
22.469795
 30
0.0
 10
49.776271
 20
21.577295
 30
0.0
 10
49.989971
 20
20.694095
 30
0.0
 10
50.037571
 20
19.373196
 30
0.0
 10
49.917171
 20
17.575896
 30
0.0
 10
49.346171
 20
16.136496
 30
0.0
 10
48.176371
 20
14.632196
 30
0.0
 10
46.656472
 20
13.454897
 30
0.0
 10
45.308572
 20
12.929697
 30
0.0
 10
43.798972
 20
12.780297
 30
0.0
 10
42.818172
 20
12.720597
 30
0.0
 10
42.987772
 20
12.094397
 30
0.0
 10
43.164372
 20
10.312597
 30
0.0
 10
43.033272
 20
8.472398
 30
0.0
 10
42.446872
 20
7.025098
 30
0.0
 10
41.482072
 20
5.706998
 30
0.0
 10
40.242173
 20
4.630298
 30
0.0
 10
38.830573
 20
3.907298
 30
0.0
 10
37.767973
 20
3.662198
 30
0.0
 10
36.558573
 20
3.583798
 30
0.0
 10
35.334673
 20
3.671598
 30
0.0
 10
34.228874
 20
3.924998
 30
0.0
 10
33.218674
 20
4.417498
 30
0.0
 10
32.259674
 20
5.117098
 30
0.0
 10
31.842774
 20
5.444398
 30
0.0
 10
31.647974
 20
4.765498
 30
0.0
 10
31.058674
 20
3.339698
 30
0.0
 10
30.106374
 20
2.051499
 30
0.0
 10
28.885175
 20
1.002399
 30
0.0
 10
27.489275
 20
0.293499
 30
0.0
 10
26.652675
 20
0.077799
 30
0.0
 10
25.537875
 20
-0.000001
 30
0.0
 10
23.817775
 20
0.059499
 30
0.0
  0
LWPOLYLINE
  5
101
100
AcDbEntity
  8
Layer_1
 62
7
100
AcDbPolyline
 90
157
 70
1
 10
26.699975
 20
0.401099
 30
0.0
 10
28.252575
 20
0.996099
 30
0.0
 10
29.703074
 20
2.148599
 30
0.0
 10
30.471574
 20
3.044598
 30
0.0
 10
31.032874
 20
3.975498
 30
0.0
 10
31.377474
 20
4.921998
 30
0.0
 10
31.496074
 20
5.864698
 30
0.0
 10
31.497274
 20
6.312598
 30
0.0
 10
32.123474
 20
5.694998
 30
0.0
 10
33.003274
 20
4.951998
 30
0.0
 10
33.938974
 20
4.414298
 30
0.0
 10
34.962374
 20
4.067698
 30
0.0
 10
36.104873
 20
3.897898
 30
0.0
 10
37.529673
 20
3.929098
 30
0.0
 10
38.813173
 20
4.242598
 30
0.0
 10
39.981473
 20
4.848198
 30
0.0
 10
41.060572
 20
5.755698
 30
0.0
 10
42.007772
 20
6.893398
 30
0.0
 10
42.590572
 20
8.148598
 30
0.0
 10
42.815772
 20
9.009997
 30
0.0
 10
42.855572
 20
10.225597
 30
0.0
 10
42.757972
 20
11.684297
 30
0.0
 10
42.369172
 20
12.905597
 30
0.0
 10
42.361272
 20
13.000997
 30
0.0
 10
42.491572
 20
13.053897
 30
0.0
 10
43.483772
 20
13.082097
 30
0.0
 10
45.081972
 20
13.207797
 30
0.0
 10
46.411172
 20
13.692397
 30
0.0
 10
47.803071
 20
14.729696
 30
0.0
 10
48.958571
 20
16.101596
 30
0.0
 10
49.596171
 20
17.582296
 30
0.0
 10
49.772271
 20
19.342496
 30
0.0
 10
49.636071
 20
20.950195
 30
0.0
 10
49.109471
 20
22.342795
 30
0.0
 10
47.928571
 20
23.815795
 30
0.0
 10
46.550172
 20
24.944495
 30
0.0
 10
46.124372
 20
25.204895
 30
0.0
 10
46.550172
 20
25.441095
 30
0.0
 10
47.434571
 20
25.935394
 30
0.0
 10
48.324571
 20
26.691894
 30
0.0
 10
49.111671
 20
27.602694
 30
0.0
 10
49.687071
 20
28.559494
 30
0.0
 10
50.116671
 20
29.824094
 30
0.0
 10
50.230471
 20
31.294494
 30
0.0
 10
50.136771
 20
32.512193
 30
0.0
 10
49.852271
 20
33.600993
 30
0.0
 10
49.365971
 20
34.590093
 30
0.0
 10
48.667271
 20
35.509093
 30
0.0
 10
47.303871
 20
36.643193
 30
0.0
 10
45.696072
 20
37.344693
 30
0.0
 10
43.920772
 20
37.592092
 30
0.0
 10
42.054572
 20
37.363793
 30
0.0
 10
41.926072
 20
37.417192
 30
0.0
 10
42.259472
 20
37.959992
 30
0.0
 10
42.913672
 20
39.189592
 30
0.0
 10
43.173372
 20
40.186592
 30
0.0
 10
43.277572
 20
41.306492
 30
0.0
 10
43.223772
 20
42.442382
 30
0.0
 10
43.009572
 20
43.487121
 30
0.0
 10
42.379972
 20
44.823141
 30
0.0
 10
41.397772
 20
46.017371
 30
0.0
 10
40.159373
 20
46.976571
 30
0.0
 10
38.760673
 20
47.607521
 30
0.0
 10
36.914673
 20
47.801131
 30
0.0
 10
35.053874
 20
47.571071
 30
0.0
 10
33.624874
 20
46.903311
 30
0.0
 10
32.349874
 20
45.822511
 30
0.0
 10
31.624574
 20
45.052161
 30
0.0
 10
31.570374
 20
45.922701
 30
0.0
 10
31.319174
 20
47.351341
 30
0.0
 10
30.759774
 20
48.641411
 30
0.0
 10
29.905374
 20
49.770410
 30
0.0
 10
28.769175
 20
50.715830
 30
0.0
 10
27.202475
 20
51.458025
 30
0.0
 10
25.285775
 20
51.681472
 30
0.0
 10
24.135675
 20
51.647449
 30
0.0
 10
23.332176
 20
51.463289
 30
0.0
 10
22.015476
 20
50.870500
 30
0.0
 10
20.878476
 20
49.955600
 30
0.0
 10
20.172176
 20
49.166380
 30
0.0
 10
19.647376
 20
48.369741
 30
0.0
 10
19.279576
 20
47.520601
 30
0.0
 10
19.044276
 20
46.573891
 30
0.0
 10
18.935576
 20
45.953811
 30
0.0
 10
18.260776
 20
46.590391
 30
0.0
 10
17.374077
 20
47.283871
 30
0.0
 10
16.396477
 20
47.767401
 30
0.0
 10
15.302077
 20
48.050511
 30
0.0
 10
14.065077
 20
48.142771
 30
0.0
 10
12.764477
 20
48.040451
 30
0.0
 10
11.628378
 20
47.716101
 30
0.0
 10
10.593778
 20
47.143641
 30
0.0
 10
9.597488
 20
46.297001
 30
0.0
 10
8.883708
 20
45.502821
 30
0.0
 10
8.418918
 20
44.739431
 30
0.0
 10
7.930808
 20
43.351741
 30
0.0
 10
7.763408
 20
41.878992
 30
0.0
 10
7.916998
 20
40.382192
 30
0.0
 10
8.391858
 20
38.922092
 30
0.0
 10
8.259268
 20
38.798692
 30
0.0
 10
7.331278
 20
38.806692
 30
0.0
 10
5.912289
 20
38.750292
 30
0.0
 10
4.702329
 20
38.442792
 30
0.0
 10
3.609599
 20
37.848292
 30
0.0
 10
2.542299
 20
36.930893
 30
0.0
 10
1.707009
 20
35.951793
 30
0.0
 10
1.150429
 20
34.942093
 30
0.0
 10
0.839693
 20
33.820993
 30
0.0
 10
0.741942
 20
32.507793
 30
0.0
 10
0.918349
 20
30.872794
 30
0.0
 10
1.414519
 20
29.480794
 30
0.0
 10
2.408419
 20
28.212394
 30
0.0
 10
3.674409
 20
27.098394
 30
0.0
 10
4.254009
 20
26.721594
 30
0.0
 10
3.624319
 20
26.388194
 30
0.0
 10
2.242239
 20
25.327795
 30
0.0
 10
1.112179
 20
23.985895
 30
0.0
 10
0.473106
 20
22.502795
 30
0.0
 10
0.300903
 20
20.743895
 30
0.0
 10
0.481452
 20
18.977896
 30
0.0
 10
1.092689
 20
17.539096
 30
0.0
 10
1.723799
 20
16.679096
 30
0.0
 10
2.517329
 20
15.892696
 30
0.0
 10
3.399829
 20
15.242796
 30
0.0
 10
4.297829
 20
14.792296
 30
0.0
 10
5.339289
 20
14.526796
 30
0.0
 10
6.511268
 20
14.432496
 30
0.0
 10
7.698498
 20
14.510096
 30
0.0
 10
8.785728
 20
14.760596
 30
0.0
 10
9.339678
 20
14.947696
 30
0.0
 10
8.860748
 20
14.410296
 30
0.0
 10
8.246288
 20
13.567197
 30
0.0
 10
7.807228
 20
12.613497
 30
0.0
 10
7.543708
 20
11.549597
 30
0.0
 10
7.455838
 20
10.375897
 30
0.0
 10
7.552558
 20
9.056197
 30
0.0
 10
7.867738
 20
7.933198
 30
0.0
 10
8.438878
 20
6.916298
 30
0.0
 10
9.303498
 20
5.914798
 30
0.0
 10
10.304878
 20
5.050198
 30
0.0
 10
11.321878
 20
4.479098
 30
0.0
 10
12.444877
 20
4.163898
 30
0.0
 10
13.764577
 20
4.067198
 30
0.0
 10
15.041077
 20
4.168398
 30
0.0
 10
16.170477
 20
4.481798
 30
0.0
 10
17.188777
 20
5.021798
 30
0.0
 10
18.132376
 20
5.802598
 30
0.0
 10
18.858176
 20
6.518698
 30
0.0
 10
18.922576
 20
5.917598
 30
0.0
 10
19.350276
 20
4.114098
 30
0.0
 10
20.283876
 20
2.577699
 30
0.0
 10
21.011976
 20
1.821699
 30
0.0
 10
21.849676
 20
1.191399
 30
0.0
 10
22.755676
 20
0.713099
 30
0.0
 10
23.688775
 20
0.412999
 30
0.0
 10
25.198875
 20
0.272499
 30
0.0
 10
26.699975
 20
0.401099
 30
0.0
  0
LWPOLYLINE
  5
102
100
AcDbEntity
  8
Layer_1
 62
7
100
AcDbPolyline
 90
344
 70
1
 10
24.360375
 20
0.955999
 30
0.0
 10
22.758876
 20
1.467599
 30
0.0
 10
21.423576
 20
2.355599
 30
0.0
 10
20.397576
 20
3.581598
 30
0.0
 10
19.723876
 20
5.106898
 30
0.0
 10
19.582476
 20
6.868198
 30
0.0
 10
19.921176
 20
8.622597
 30
0.0
 10
20.763176
 20
10.104197
 30
0.0
 10
21.981076
 20
11.267097
 30
0.0
 10
22.293376
 20
11.576397
 30
0.0
 10
21.840276
 20
11.722397
 30
0.0
 10
21.410876
 20
11.690197
 30
0.0
 10
20.763276
 20
11.090597
 30
0.0
 10
20.076176
 20
10.388397
 30
0.0
 10
20.068076
 20
10.908097
 30
0.0
 10
19.942876
 20
11.878297
 30
0.0
 10
19.779476
 20
12.273397
 30
0.0
 10
19.474976
 20
12.499597
 30
0.0
 10
19.059776
 20
12.675297
 30
0.0
 10
19.192376
 20
12.053997
 30
0.0
 10
19.399076
 20
11.094297
 30
0.0
 10
19.430576
 20
10.121297
 30
0.0
 10
19.296976
 20
9.159697
 30
0.0
 10
19.008076
 20
8.234198
 30
0.0
 10
18.574076
 20
7.369598
 30
0.0
 10
18.004776
 20
6.590698
 30
0.0
 10
17.310477
 20
5.922298
 30
0.0
 10
16.500877
 20
5.389198
 30
0.0
 10
15.141477
 20
4.878398
 30
0.0
 10
13.793277
 20
4.665298
 30
0.0
 10
12.880277
 20
4.740398
 30
0.0
 10
12.006778
 20
4.959398
 30
0.0
 10
10.427878
 20
5.791898
 30
0.0
 10
9.156568
 20
7.087998
 30
0.0
 10
8.293028
 20
8.772897
 30
0.0
 10
8.099378
 20
10.375897
 30
0.0
 10
8.293028
 20
11.978797
 30
0.0
 10
8.884018
 20
13.272597
 30
0.0
 10
9.706948
 20
14.339896
 30
0.0
 10
10.519578
 20
15.036596
 30
0.0
 10
11.411378
 20
15.550996
 30
0.0
 10
12.393577
 20
15.888296
 30
0.0
 10
13.477377
 20
16.053396
 30
0.0
 10
14.373777
 20
16.116996
 30
0.0
 10
14.094177
 20
16.413196
 30
0.0
 10
13.751577
 20
16.662196
 30
0.0
 10
13.063177
 20
16.652296
 30
0.0
 10
12.095678
 20
16.508596
 30
0.0
 10
11.216278
 20
16.230996
 30
0.0
 10
11.213478
 20
16.338896
 30
0.0
 10
11.530178
 20
16.761096
 30
0.0
 10
12.307077
 20
17.921296
 30
0.0
 10
12.576177
 20
18.471396
 30
0.0
 10
12.359377
 20
18.896396
 30
0.0
 10
12.142577
 20
19.321396
 30
0.0
 10
11.910678
 20
18.750596
 30
0.0
 10
11.429978
 20
17.776796
 30
0.0
 10
10.838978
 20
16.963896
 30
0.0
 10
10.120378
 20
16.292496
 30
0.0
 10
9.257118
 20
15.743296
 30
0.0
 10
7.968548
 20
15.239796
 30
0.0
 10
6.601198
 20
15.084596
 30
0.0
 10
5.443319
 20
15.196896
 30
0.0
 10
4.372539
 20
15.520096
 30
0.0
 10
3.409669
 20
16.033296
 30
0.0
 10
2.575519
 20
16.715896
 30
0.0
 10
1.890869
 20
17.547096
 30
0.0
 10
1.376519
 20
18.506196
 30
0.0
 10
1.053269
 20
19.572496
 30
0.0
 10
0.941923
 20
20.725195
 30
0.0
 10
1.037759
 20
21.878495
 30
0.0
 10
1.328399
 20
22.909695
 30
0.0
 10
1.823299
 20
23.842395
 30
0.0
 10
2.531889
 20
24.700195
 30
0.0
 10
3.481059
 20
25.506395
 30
0.0
 10
4.487409
 20
26.043394
 30
0.0
 10
5.595939
 20
26.328494
 30
0.0
 10
6.851668
 20
26.379394
 30
0.0
 10
8.488578
 20
26.110194
 30
0.0
 10
9.889838
 20
25.369795
 30
0.0
 10
10.577178
 20
24.902795
 30
0.0
 10
10.575278
 20
25.340295
 30
0.0
 10
10.458678
 20
25.769295
 30
0.0
 10
9.952678
 20
26.158194
 30
0.0
 10
9.364868
 20
26.538594
 30
0.0
 10
9.986758
 20
26.855994
 30
0.0
 10
10.529378
 20
27.191094
 30
0.0
 10
10.671078
 20
27.615994
 30
0.0
 10
10.702678
 20
28.093794
 30
0.0
 10
10.332778
 20
27.870294
 30
0.0
 10
9.347898
 20
27.318794
 30
0.0
 10
8.285908
 20
26.959794
 30
0.0
 10
7.205088
 20
26.821694
 30
0.0
 10
6.134209
 20
26.893794
 30
0.0
 10
5.102039
 20
27.165594
 30
0.0
 10
4.137349
 20
27.626594
 30
0.0
 10
3.268889
 20
28.266094
 30
0.0
 10
2.525449
 20
29.073694
 30
0.0
 10
1.935779
 20
30.038794
 30
0.0
 10
1.410699
 20
31.755593
 30
0.0
 10
1.442379
 20
33.488893
 30
0.0
 10
2.012299
 20
35.134793
 30
0.0
 10
3.101959
 20
36.589193
 30
0.0
 10
3.944379
 20
37.256193
 30
0.0
 10
4.935339
 20
37.772392
 30
0.0
 10
5.997129
 20
38.105692
 30
0.0
 10
7.052068
 20
38.223892
 30
0.0
 10
7.958758
 20
38.142892
 30
0.0
 10
8.838468
 20
37.909192
 30
0.0
 10
10.442978
 20
37.039793
 30
0.0
 10
11.717478
 20
35.727993
 30
0.0
 10
12.184677
 20
34.941193
 30
0.0
 10
12.513977
 20
34.085793
 30
0.0
 10
12.681877
 20
33.500793
 30
0.0
 10
12.933077
 20
33.870393
 30
0.0
 10
13.184277
 20
34.240093
 30
0.0
 10
12.987077
 20
34.755993
 30
0.0
 10
12.718177
 20
35.440093
 30
0.0
 10
12.782277
 20
35.571793
 30
0.0
 10
13.415077
 20
35.550193
 30
0.0
 10
14.114177
 20
35.537693
 30
0.0
 10
14.421277
 20
35.782793
 30
0.0
 10
14.662577
 20
36.123493
 30
0.0
 10
14.190377
 20
36.141293
 30
0.0
 10
12.973177
 20
36.269493
 30
0.0
 10
11.693678
 20
36.669393
 30
0.0
 10
10.710478
 20
37.267193
 30
0.0
 10
9.840438
 20
38.084392
 30
0.0
 10
9.136558
 20
39.060692
 30
0.0
 10
8.651668
 20
40.135992
 30
0.0
 10
8.431358
 20
41.195092
 30
0.0
 10
8.420688
 20
42.309622
 30
0.0
 10
8.614228
 20
43.413451
 30
0.0
 10
9.006518
 20
44.440531
 30
0.0
 10
9.534758
 20
45.275201
 30
0.0
 10
10.202278
 20
45.996051
 30
0.0
 10
10.983178
 20
46.591911
 30
0.0
 10
11.851278
 20
47.051621
 30
0.0
 10
12.780677
 20
47.363991
 30
0.0
 10
13.745377
 20
47.517871
 30
0.0
 10
14.719377
 20
47.502081
 30
0.0
 10
15.676577
 20
47.305451
 30
0.0
 10
16.784777
 20
46.836201
 30
0.0
 10
17.741977
 20
46.177601
 30
0.0
 10
18.532776
 20
45.359961
 30
0.0
 10
19.141476
 20
44.413611
 30
0.0
 10
19.552576
 20
43.368881
 30
0.0
 10
19.750676
 20
42.256092
 30
0.0
 10
19.720076
 20
41.105592
 30
0.0
 10
19.445376
 20
39.947692
 30
0.0
 10
19.264776
 20
39.356592
 30
0.0
 10
19.357076
 20
39.281692
 30
0.0
 10
19.786176
 20
39.444592
 30
0.0
 10
20.124876
 20
39.827092
 30
0.0
 10
20.339876
 20
40.765692
 30
0.0
 10
20.402976
 20
41.225992
 30
0.0
 10
21.008076
 20
40.678492
 30
0.0
 10
21.740476
 20
40.172492
 30
0.0
 10
22.466376
 20
40.217192
 30
0.0
 10
22.592776
 20
40.321992
 30
0.0
 10
22.203076
 20
40.607192
 30
0.0
 10
21.061176
 20
41.628892
 30
0.0
 10
20.185076
 20
42.854532
 30
0.0
 10
19.744476
 20
44.090421
 30
0.0
 10
19.599576
 20
45.346991
 30
0.0
 10
19.730676
 20
46.580981
 30
0.0
 10
20.118076
 20
47.749131
 30
0.0
 10
20.742276
 20
48.808171
 30
0.0
 10
21.583476
 20
49.714830
 30
0.0
 10
22.621976
 20
50.425860
 30
0.0
 10
23.838375
 20
50.897990
 30
0.0
 10
25.281175
 20
51.045312
 30
0.0
 10
26.718075
 20
50.901990
 30
0.0
 10
28.012275
 20
50.371890
 30
0.0
 10
29.152175
 20
49.527700
 30
0.0
 10
30.067874
 20
48.435311
 30
0.0
 10
30.689574
 20
47.160641
 30
0.0
 10
30.905174
 20
46.256641
 30
0.0
 10
30.960974
 20
45.334391
 30
0.0
 10
30.623774
 20
43.521421
 30
0.0
 10
29.739174
 20
41.894292
 30
0.0
 10
29.110775
 20
41.204392
 30
0.0
 10
28.368575
 20
40.625692
 30
0.0
 10
27.794575
 20
40.253892
 30
0.0
 10
28.253375
 20
40.138392
 30
0.0
 10
28.706275
 20
40.083392
 30
0.0
 10
29.127975
 20
40.346092
 30
0.0
 10
30.094674
 20
41.286992
 30
0.0
 10
30.645674
 20
41.904692
 30
0.0
 10
30.707174
 20
40.892592
 30
0.0
 10
30.921474
 20
39.539792
 30
0.0
 10
31.146874
 20
39.207192
 30
0.0
 10
31.492574
 20
39.003992
 30
0.0
 10
31.842474
 20
38.887392
 30
0.0
 10
31.841574
 20
39.008492
 30
0.0
 10
31.465374
 20
40.100592
 30
0.0
 10
31.319674
 20
41.238292
 30
0.0
 10
31.374174
 20
42.453292
 30
0.0
 10
31.660274
 20
43.557021
 30
0.0
 10
32.183574
 20
44.564591
 30
0.0
 10
32.949974
 20
45.491091
 30
0.0
 10
33.835174
 20
46.241761
 30
0.0
 10
34.772874
 20
46.759121
 30
0.0
 10
35.801073
 20
47.058871
 30
0.0
 10
36.957373
 20
47.156741
 30
0.0
 10
38.107973
 20
47.062011
 30
0.0
 10
39.136673
 20
46.763391
 30
0.0
 10
40.080073
 20
46.245751
 30
0.0
 10
40.974773
 20
45.493971
 30
0.0
 10
41.943872
 20
44.232411
 30
0.0
 10
42.509572
 20
42.836012
 30
0.0
 10
42.609272
 20
41.426092
 30
0.0
 10
42.469072
 20
40.031592
 30
0.0
 10
41.952972
 20
38.753192
 30
0.0
 10
41.147972
 20
37.649192
 30
0.0
 10
40.089073
 20
36.756593
 30
0.0
 10
38.810773
 20
36.112993
 30
0.0
 10
38.063073
 20
35.917093
 30
0.0
 10
36.982473
 20
35.873093
 30
0.0
 10
35.805273
 20
35.828493
 30
0.0
 10
36.074473
 20
35.502893
 30
0.0
 10
36.436073
 20
35.261993
 30
0.0
 10
37.260773
 20
35.221893
 30
0.0
 10
38.669673
 20
35.371093
 30
0.0
 10
39.205273
 20
35.521393
 30
0.0
 10
38.995973
 20
35.246993
 30
0.0
 10
38.488373
 20
34.584093
 30
0.0
 10
38.069273
 20
33.743493
 30
0.0
 10
37.805873
 20
33.116693
 30
0.0
 10
38.044873
 20
32.646293
 30
0.0
 10
38.283873
 20
32.175893
 30
0.0
 10
38.455773
 20
32.766993
 30
0.0
 10
39.029873
 20
34.120193
 30
0.0
 10
39.951873
 20
35.282093
 30
0.0
 10
40.829173
 20
36.014493
 30
0.0
 10
41.782072
 20
36.526493
 30
0.0
 10
42.832972
 20
36.826893
 30
0.0
 10
44.004372
 20
36.925093
 30
0.0
 10
45.751572
 20
36.655193
 30
0.0
 10
47.224571
 20
35.913593
 30
0.0
 10
48.381471
 20
34.802193
 30
0.0
 10
49.180471
 20
33.422993
 30
0.0
 10
49.579771
 20
31.877993
 30
0.0
 10
49.537671
 20
30.269094
 30
0.0
 10
49.012371
 20
28.698294
 30
0.0
 10
47.962071
 20
27.267494
 30
0.0
 10
47.087671
 20
26.541294
 30
0.0
 10
46.123972
 20
26.021294
 30
0.0
 10
45.073472
 20
25.708595
 30
0.0
 10
43.938672
 20
25.604095
 30
0.0
 10
42.864672
 20
25.693895
 30
0.0
 10
41.874872
 20
25.964394
 30
0.0
 10
40.964673
 20
26.417494
 30
0.0
 10
40.129173
 20
27.054994
 30
0.0
 10
39.578573
 20
27.557794
 30
0.0
 10
39.646473
 20
27.061394
 30
0.0
 10
39.954673
 20
26.325394
 30
0.0
 10
40.778173
 20
25.734295
 30
0.0
 10
41.315172
 20
25.397195
 30
0.0
 10
40.783873
 20
25.120095
 30
0.0
 10
39.907873
 20
24.592795
 30
0.0
 10
39.558273
 20
23.914995
 30
0.0
 10
39.490773
 20
23.478195
 30
0.0
 10
40.027373
 20
23.872495
 30
0.0
 10
40.843073
 20
24.390395
 30
0.0
 10
41.670472
 20
24.741195
 30
0.0
 10
42.556972
 20
24.939995
 30
0.0
 10
43.549472
 20
25.001795
 30
0.0
 10
44.667272
 20
24.900595
 30
0.0
 10
45.686272
 20
24.596595
 30
0.0
 10
46.619372
 20
24.084295
 30
0.0
 10
47.479871
 20
23.358295
 30
0.0
 10
48.229871
 20
22.468395
 30
0.0
 10
48.742671
 20
21.531995
 30
0.0
 10
49.035871
 20
20.505795
 30
0.0
 10
49.127471
 20
19.346596
 30
0.0
 10
49.012671
 20
17.999196
 30
0.0
 10
48.551171
 20
16.787796
 30
0.0
 10
47.482771
 20
15.327496
 30
0.0
 10
46.780071
 20
14.723596
 30
0.0
 10
46.024172
 20
14.262997
 30
0.0
 10
44.636172
 20
13.784797
 30
0.0
 10
43.091272
 20
13.704397
 30
0.0
 10
41.338272
 20
14.089597
 30
0.0
 10
39.831373
 20
14.993196
 30
0.0
 10
38.669773
 20
16.331796
 30
0.0
 10
37.952773
 20
18.021996
 30
0.0
 10
37.781673
 20
18.703096
 30
0.0
 10
37.530873
 20
18.282696
 30
0.0
 10
37.280173
 20
17.862196
 30
0.0
 10
37.457273
 20
17.299996
 30
0.0
 10
37.682273
 20
16.612496
 30
0.0
 10
36.986873
 20
16.487296
 30
0.0
 10
36.315173
 20
16.443296
 30
0.0
 10
35.968373
 20
16.200096
 30
0.0
 10
35.693273
 20
15.912996
 30
0.0
 10
36.726073
 20
15.863196
 30
0.0
 10
37.906473
 20
15.717596
 30
0.0
 10
38.928673
 20
15.386996
 30
0.0
 10
39.849673
 20
14.845796
 30
0.0
 10
40.726473
 20
14.068497
 30
0.0
 10
41.374772
 20
13.245097
 30
0.0
 10
41.850672
 20
12.305997
 30
0.0
 10
42.143472
 20
11.277897
 30
0.0
 10
42.242972
 20
10.187397
 30
0.0
 10
42.139472
 20
9.066697
 30
0.0
 10
41.828772
 20
8.034098
 30
0.0
 10
41.308272
 20
7.082998
 30
0.0
 10
40.575173
 20
6.207198
 30
0.0
 10
39.487773
 20
5.338098
 30
0.0
 10
38.282773
 20
4.774998
 30
0.0
 10
36.988473
 20
4.526998
 30
0.0
 10
35.633573
 20
4.603498
 30
0.0
 10
34.191474
 20
5.050798
 30
0.0
 10
32.947074
 20
5.831798
 30
0.0
 10
31.944674
 20
6.910198
 30
0.0
 10
31.228074
 20
8.249598
 30
0.0
 10
30.970974
 20
9.290097
 30
0.0
 10
30.911074
 20
10.447797
 30
0.0
 10
31.043474
 20
11.571997
 30
0.0
 10
31.363374
 20
12.511597
 30
0.0
 10
31.430474
 20
12.765997
 30
0.0
 10
30.974474
 20
12.585597
 30
0.0
 10
30.521774
 20
12.187097
 30
0.0
 10
30.325774
 20
11.202497
 30
0.0
 10
30.253974
 20
10.576397
 30
0.0
 10
29.610174
 20
11.177497
 30
0.0
 10
28.920275
 20
11.712897
 30
0.0
 10
28.241275
 20
11.689797
 30
0.0
 10
27.940675
 20
11.624697
 30
0.0
 10
28.399175
 20
11.308097
 30
0.0
 10
29.210675
 20
10.608697
 30
0.0
 10
29.916774
 20
9.733697
 30
0.0
 10
30.460974
 20
8.766697
 30
0.0
 10
30.786274
 20
7.791298
 30
0.0
 10
30.907674
 20
6.524598
 30
0.0
 10
30.758074
 20
5.308798
 30
0.0
 10
30.362374
 20
4.176598
 30
0.0
 10
29.745474
 20
3.160898
 30
0.0
 10
28.932475
 20
2.294399
 30
0.0
 10
27.948175
 20
1.610099
 30
0.0
 10
26.817575
 20
1.140699
 30
0.0
 10
25.565475
 20
0.919099
 30
0.0
 10
24.360475
 20
0.956099
 30
0.0
  0
LWPOLYLINE
  5
103
100
AcDbEntity
  8
Layer_1
 62
7
100
AcDbPolyline
 90
26
 70
1
 10
26.434575
 20
1.412599
 30
0.0
 10
27.891075
 20
2.005499
 30
0.0
 10
29.068275
 20
2.935098
 30
0.0
 10
29.933474
 20
4.167198
 30
0.0
 10
30.454274
 20
5.667198
 30
0.0
 10
30.531174
 20
6.936698
 30
0.0
 10
30.271274
 20
8.218798
 30
0.0
 10
29.707274
 20
9.415597
 30
0.0
 10
28.871475
 20
10.429297
 30
0.0
 10
28.218475
 20
10.992797
 30
0.0
 10
27.608575
 20
11.283797
 30
0.0
 10
25.158775
 20
11.406397
 30
0.0
 10
22.877776
 20
11.403797
 30
0.0
 10
22.321176
 20
11.034297
 30
0.0
 10
21.266676
 20
10.129397
 30
0.0
 10
20.521576
 20
9.023497
 30
0.0
 10
20.122476
 20
8.056298
 30
0.0
 10
19.920076
 20
7.161098
 30
0.0
 10
19.906476
 20
6.272398
 30
0.0
 10
20.073976
 20
5.325198
 30
0.0
 10
20.587276
 20
3.986798
 30
0.0
 10
21.477376
 20
2.854198
 30
0.0
 10
22.563976
 20
2.008599
 30
0.0
 10
23.806275
 20
1.470799
 30
0.0
 10
25.123475
 20
1.264399
 30
0.0
 10
26.434575
 20
1.412799
 30
0.0
  0
LWPOLYLINE
  5
104
100
AcDbEntity
  8
Layer_1
 62
7
100
AcDbPolyline
 90
22
 70
1
 10
24.355575
 20
3.792798
 30
0.0
 10
24.263075
 20
4.502998
 30
0.0
 10
23.833775
 20
5.151998
 30
0.0
 10
23.532476
 20
5.521998
 30
0.0
 10
23.482876
 20
6.145498
 30
0.0
 10
23.648476
 20
7.079198
 30
0.0
 10
24.177675
 20
7.617598
 30
0.0
 10
24.640275
 20
8.082598
 30
0.0
 10
24.853675
 20
8.336798
 30
0.0
 10
24.765475
 20
7.713798
 30
0.0
 10
24.430075
 20
7.027798
 30
0.0
 10
24.148375
 20
6.558298
 30
0.0
 10
24.230375
 20
6.170998
 30
0.0
 10
24.321375
 20
6.037698
 30
0.0
 10
24.260475
 20
5.867098
 30
0.0
 10
24.265875
 20
5.534098
 30
0.0
 10
24.586075
 20
5.366598
 30
0.0
 10
24.792275
 20
5.226798
 30
0.0
 10
24.885875
 20
4.877298
 30
0.0
 10
24.700675
 20
3.967798
 30
0.0
 10
24.421275
 20
3.600698
 30
0.0
 10
24.355575
 20
3.792798
 30
0.0
  0
LWPOLYLINE
  5
105
100
AcDbEntity
  8
Layer_1
 62
7
100
AcDbPolyline
 90
24
 70
1
 10
26.059675
 20
3.738798
 30
0.0
 10
25.793075
 20
4.206898
 30
0.0
 10
25.686075
 20
4.742698
 30
0.0
 10
25.746575
 20
5.183498
 30
0.0
 10
25.982275
 20
5.366598
 30
0.0
 10
26.329575
 20
5.557898
 30
0.0
 10
26.451575
 20
5.736198
 30
0.0
 10
26.322175
 20
5.850298
 30
0.0
 10
26.192675
 20
5.965798
 30
0.0
 10
26.326775
 20
6.155898
 30
0.0
 10
26.449575
 20
6.595598
 30
0.0
 10
26.150675
 20
7.091798
 30
0.0
 10
25.804175
 20
7.756898
 30
0.0
 10
25.719175
 20
8.337898
 30
0.0
 10
25.900475
 20
8.132198
 30
0.0
 10
26.336575
 20
7.671698
 30
0.0
 10
26.853475
 20
7.237898
 30
0.0
 10
27.096775
 20
6.684798
 30
0.0
 10
27.092075
 20
5.789598
 30
0.0
 10
26.716175
 20
5.124098
 30
0.0
 10
26.311175
 20
4.475698
 30
0.0
 10
26.215875
 20
3.766098
 30
0.0
 10
26.238075
 20
3.575598
 30
0.0
 10
26.059775
 20
3.738798
 30
0.0
  0
LWPOLYLINE
  5
106
100
AcDbEntity
  8
Layer_1
 62
7
100
AcDbPolyline
 90
25
 70
1
 10
23.181876
 20
4.035998
 30
0.0
 10
23.049176
 20
4.496198
 30
0.0
 10
22.556176
 20
5.152298
 30
0.0
 10
22.050376
 20
5.934498
 30
0.0
 10
21.842676
 20
6.270398
 30
0.0
 10
21.656376
 20
6.333498
 30
0.0
 10
21.494376
 20
6.357398
 30
0.0
 10
21.721076
 20
6.801498
 30
0.0
 10
22.185076
 20
7.957398
 30
0.0
 10
22.337476
 20
8.567297
 30
0.0
 10
22.273076
 20
8.777397
 30
0.0
 10
22.568776
 20
9.248397
 30
0.0
 10
23.518976
 20
9.931397
 30
0.0
 10
24.042575
 20
10.103397
 30
0.0
 10
24.107675
 20
9.722397
 30
0.0
 10
23.727075
 20
9.372097
 30
0.0
 10
23.243976
 20
9.083197
 30
0.0
 10
22.866176
 20
8.572197
 30
0.0
 10
22.595676
 20
7.842898
 30
0.0
 10
22.434276
 20
6.899198
 30
0.0
 10
22.492776
 20
6.076398
 30
0.0
 10
23.083076
 20
4.997698
 30
0.0
 10
23.368676
 20
4.275598
 30
0.0
 10
23.282076
 20
3.813798
 30
0.0
 10
23.181876
 20
4.035998
 30
0.0
  0
LWPOLYLINE
  5
107
100
AcDbEntity
  8
Layer_1
 62
7
100
AcDbPolyline
 90
24
 70
1
 10
27.264475
 20
3.821798
 30
0.0
 10
27.208975
 20
4.309998
 30
0.0
 10
27.532075
 20
5.026698
 30
0.0
 10
28.073875
 20
6.034798
 30
0.0
 10
28.138875
 20
6.969498
 30
0.0
 10
27.995275
 20
7.880798
 30
0.0
 10
27.746675
 20
8.554897
 30
0.0
 10
27.362875
 20
9.047897
 30
0.0
 10
26.813575
 20
9.415497
 30
0.0
 10
26.554175
 20
9.606797
 30
0.0
 10
26.487975
 20
9.877497
 30
0.0
 10
26.542075
 20
10.175497
 30
0.0
 10
27.837475
 20
9.376597
 30
0.0
 10
28.413175
 20
8.973297
 30
0.0
 10
28.360775
 20
8.794297
 30
0.0
 10
28.253375
 20
8.547897
 30
0.0
 10
28.390875
 20
7.998398
 30
0.0
 10
28.837875
 20
6.878298
 30
0.0
 10
29.076775
 20
6.357198
 30
0.0
 10
28.949375
 20
6.329598
 30
0.0
 10
28.650375
 20
6.084098
 30
0.0
 10
27.973175
 20
5.102698
 30
0.0
 10
27.395475
 20
4.084098
 30
0.0
 10
27.264475
 20
3.821798
 30
0.0
  0
LWPOLYLINE
  5
108
100
AcDbEntity
  8
Layer_1
 62
7
100
AcDbPolyline
 90
32
 70
1
 10
24.946675
 20
6.615398
 30
0.0
 10
24.793875
 20
7.045898
 30
0.0
 10
24.899775
 20
7.752898
 30
0.0
 10
24.941575
 20
8.436798
 30
0.0
 10
24.833875
 20
8.536797
 30
0.0
 10
24.584975
 20
8.286298
 30
0.0
 10
24.301575
 20
7.949998
 30
0.0
 10
24.161375
 20
8.217598
 30
0.0
 10
24.071175
 20
8.548197
 30
0.0
 10
24.161075
 20
9.104997
 30
0.0
 10
24.470575
 20
10.050597
 30
0.0
 10
24.753675
 20
10.155797
 30
0.0
 10
25.279575
 20
10.164997
 30
0.0
 10
26.160375
 20
10.044097
 30
0.0
 10
26.394375
 20
9.205697
 30
0.0
 10
26.498875
 20
8.565597
 30
0.0
 10
26.410575
 20
8.218198
 30
0.0
 10
26.270075
 20
7.949998
 30
0.0
 10
25.991975
 20
8.283098
 30
0.0
 10
25.742675
 20
8.540197
 30
0.0
 10
25.644475
 20
8.397398
 30
0.0
 10
25.680375
 20
7.799598
 30
0.0
 10
25.780275
 20
7.154998
 30
0.0
 10
25.661575
 20
6.639698
 30
0.0
 10
25.451075
 20
6.378098
 30
0.0
 10
25.417075
 20
6.648698
 30
0.0
 10
25.379475
 20
7.074498
 30
0.0
 10
25.274475
 20
7.150998
 30
0.0
 10
25.187175
 20
7.077498
 30
0.0
 10
25.154675
 20
6.648698
 30
0.0
 10
25.155975
 20
6.381398
 30
0.0
 10
24.946675
 20
6.615398
 30
0.0
  0
LWPOLYLINE
  5
109
100
AcDbEntity
  8
Layer_1
 62
7
100
AcDbPolyline
 90
7
 70
1
 10
23.682875
 20
7.765998
 30
0.0
 10
23.746875
 20
8.021698
 30
0.0
 10
23.815075
 20
8.128298
 30
0.0
 10
23.895575
 20
8.054998
 30
0.0
 10
23.973675
 20
7.848098
 30
0.0
 10
23.833075
 20
7.734798
 30
0.0
 10
23.682875
 20
7.765998
 30
0.0
  0
LWPOLYLINE
  5
10a
100
AcDbEntity
  8
Layer_1
 62
7
100
AcDbPolyline
 90
6
 70
1
 10
26.715475
 20
7.788498
 30
0.0
 10
26.688775
 20
8.072198
 30
0.0
 10
26.773375
 20
8.158698
 30
0.0
 10
26.842775
 20
8.047098
 30
0.0
 10
26.868575
 20
7.758398
 30
0.0
 10
26.715475
 20
7.788498
 30
0.0
  0
LWPOLYLINE
  5
10b
100
AcDbEntity
  8
Layer_1
 62
7
100
AcDbPolyline
 90
28
 70
1
 10
37.853273
 20
5.064598
 30
0.0
 10
39.227573
 20
5.622498
 30
0.0
 10
40.368173
 20
6.509398
 30
0.0
 10
41.228272
 20
7.677498
 30
0.0
 10
41.761372
 20
9.078797
 30
0.0
 10
41.894572
 20
9.997997
 30
0.0
 10
41.853372
 20
10.900997
 30
0.0
 10
41.635672
 20
11.802197
 30
0.0
 10
41.239372
 20
12.716397
 30
0.0
 10
40.244273
 20
14.030797
 30
0.0
 10
38.902373
 20
14.967396
 30
0.0
 10
37.341073
 20
15.462996
 30
0.0
 10
35.688273
 20
15.454696
 30
0.0
 10
35.148174
 20
15.252696
 30
0.0
 10
34.394574
 20
14.688896
 30
0.0
 10
32.837874
 20
13.566697
 30
0.0
 10
32.176474
 20
13.100297
 30
0.0
 10
31.797874
 20
12.508497
 30
0.0
 10
31.382574
 20
11.343397
 30
0.0
 10
31.200174
 20
10.225597
 30
0.0
 10
31.398174
 20
9.042297
 30
0.0
 10
31.871074
 20
7.773298
 30
0.0
 10
32.798874
 20
6.479298
 30
0.0
 10
34.066574
 20
5.538398
 30
0.0
 10
35.017474
 20
5.130598
 30
0.0
 10
35.942273
 20
4.918598
 30
0.0
 10
36.875873
 20
4.898098
 30
0.0
 10
37.853273
 20
5.064598
 30
0.0
  0
LWPOLYLINE
  5
10c
100
AcDbEntity
  8
Layer_1
 62
7
100
AcDbPolyline
 90
103
 70
1
 10
35.072474
 20
7.631298
 30
0.0
 10
34.496474
 20
7.719598
 30
0.0
 10
34.203174
 20
7.761198
 30
0.0
 10
34.347974
 20
7.933398
 30
0.0
 10
34.784174
 20
8.496497
 30
0.0
 10
34.883974
 20
8.826997
 30
0.0
 10
34.808874
 20
8.973297
 30
0.0
 10
34.581174
 20
9.248797
 30
0.0
 10
34.400274
 20
9.473097
 30
0.0
 10
34.049674
 20
9.515197
 30
0.0
 10
33.343374
 20
9.374697
 30
0.0
 10
32.804874
 20
9.308197
 30
0.0
 10
32.499174
 20
9.465297
 30
0.0
 10
32.725574
 20
9.609497
 30
0.0
 10
33.127074
 20
9.962797
 30
0.0
 10
33.601974
 20
10.511397
 30
0.0
 10
33.849574
 20
10.808597
 30
0.0
 10
33.901774
 20
11.274597
 30
0.0
 10
33.872074
 20
11.694197
 30
0.0
 10
33.701374
 20
11.678297
 30
0.0
 10
33.514174
 20
11.658097
 30
0.0
 10
33.584874
 20
11.876897
 30
0.0
 10
34.193574
 20
12.512197
 30
0.0
 10
34.630274
 20
12.761997
 30
0.0
 10
34.600574
 20
12.523297
 30
0.0
 10
34.503174
 20
11.997397
 30
0.0
 10
34.703574
 20
11.408697
 30
0.0
 10
35.058574
 20
11.077197
 30
0.0
 10
35.173474
 20
11.161097
 30
0.0
 10
35.150974
 20
11.513797
 30
0.0
 10
35.158674
 20
11.950697
 30
0.0
 10
35.553373
 20
12.388997
 30
0.0
 10
35.925173
 20
12.797897
 30
0.0
 10
35.965873
 20
13.104497
 30
0.0
 10
36.005473
 20
13.369897
 30
0.0
 10
36.298873
 20
13.117497
 30
0.0
 10
36.492073
 20
12.683097
 30
0.0
 10
36.248573
 20
12.168397
 30
0.0
 10
36.023173
 20
11.512997
 30
0.0
 10
36.114573
 20
11.272197
 30
0.0
 10
36.406373
 20
11.175497
 30
0.0
 10
37.057573
 20
11.174697
 30
0.0
 10
37.298773
 20
11.289797
 30
0.0
 10
37.398773
 20
11.508997
 30
0.0
 10
37.165273
 20
12.168397
 30
0.0
 10
36.921773
 20
12.683097
 30
0.0
 10
37.114973
 20
13.117397
 30
0.0
 10
37.408373
 20
13.369797
 30
0.0
 10
37.447773
 20
13.103497
 30
0.0
 10
37.487673
 20
12.798497
 30
0.0
 10
37.861873
 20
12.398297
 30
0.0
 10
38.259473
 20
11.968297
 30
0.0
 10
38.264473
 20
11.523997
 30
0.0
 10
38.332473
 20
11.071097
 30
0.0
 10
38.710473
 20
11.377497
 30
0.0
 10
38.917973
 20
11.911897
 30
0.0
 10
38.824373
 20
12.504797
 30
0.0
 10
38.757473
 20
12.780297
 30
0.0
 10
39.237373
 20
12.507597
 30
0.0
 10
39.709273
 20
12.034097
 30
0.0
 10
39.905273
 20
11.639497
 30
0.0
 10
39.792673
 20
11.658197
 30
0.0
 10
39.572073
 20
11.742397
 30
0.0
 10
39.512073
 20
11.300797
 30
0.0
 10
39.600273
 20
10.800797
 30
0.0
 10
40.091673
 20
10.198697
 30
0.0
 10
40.792973
 20
9.574397
 30
0.0
 10
40.914673
 20
9.476097
 30
0.0
 10
40.612473
 20
9.308597
 30
0.0
 10
40.070473
 20
9.374697
 30
0.0
 10
39.365773
 20
9.515197
 30
0.0
 10
39.022973
 20
9.475897
 30
0.0
 10
38.848873
 20
9.285297
 30
0.0
 10
38.603473
 20
8.968997
 30
0.0
 10
38.597673
 20
8.596297
 30
0.0
 10
38.969173
 20
8.063998
 30
0.0
 10
39.198173
 20
7.747698
 30
0.0
 10
38.906873
 20
7.721798
 30
0.0
 10
38.481073
 20
7.693498
 30
0.0
 10
38.082073
 20
7.531898
 30
0.0
 10
37.865973
 20
7.505898
 30
0.0
 10
37.925773
 20
7.660198
 30
0.0
 10
37.996073
 20
7.847598
 30
0.0
 10
37.915973
 20
8.013398
 30
0.0
 10
37.646473
 20
8.171798
 30
0.0
 10
37.508473
 20
8.372098
 30
0.0
 10
37.358173
 20
8.572497
 30
0.0
 10
37.207873
 20
8.432898
 30
0.0
 10
37.049473
 20
8.232598
 30
0.0
 10
36.844273
 20
8.181898
 30
0.0
 10
36.807173
 20
8.321998
 30
0.0
 10
36.706973
 20
8.472298
 30
0.0
 10
36.606773
 20
8.331398
 30
0.0
 10
36.412573
 20
8.242298
 30
0.0
 10
36.171973
 20
8.491698
 30
0.0
 10
36.014573
 20
8.622197
 30
0.0
 10
35.905473
 20
8.360298
 30
0.0
 10
35.818673
 20
8.213598
 30
0.0
 10
35.547673
 20
8.063598
 30
0.0
 10
35.421573
 20
7.861698
 30
0.0
 10
35.484973
 20
7.665198
 30
0.0
 10
35.490173
 20
7.472998
 30
0.0
 10
35.072574
 20
7.631298
 30
0.0
  0
LWPOLYLINE
  5
10d
100
AcDbEntity
  8
Layer_1
 62
7
100
AcDbPolyline
 90
6
 70
1
 10
36.807073
 20
9.674597
 30
0.0
 10
36.706873
 20
10.275697
 30
0.0
 10
36.608673
 20
9.748097
 30
0.0
 10
36.673473
 20
9.140297
 30
0.0
 10
36.785773
 20
9.134497
 30
0.0
 10
36.807073
 20
9.674597
 30
0.0
  0
LWPOLYLINE
  5
10e
100
AcDbEntity
  8
Layer_1
 62
7
100
AcDbPolyline
 90
8
 70
1
 10
35.977073
 20
9.565897
 30
0.0
 10
35.994773
 20
9.832197
 30
0.0
 10
35.529773
 20
10.055597
 30
0.0
 10
35.265373
 20
10.116397
 30
0.0
 10
35.204174
 20
10.015497
 30
0.0
 10
35.437973
 20
9.636097
 30
0.0
 10
35.776573
 20
9.373997
 30
0.0
 10
35.977073
 20
9.565897
 30
0.0
  0
LWPOLYLINE
  5
10f
100
AcDbEntity
  8
Layer_1
 62
7
100
AcDbPolyline
 90
8
 70
1
 10
38.018873
 20
9.684797
 30
0.0
 10
38.259273
 20
10.076097
 30
0.0
 10
37.984173
 20
10.096197
 30
0.0
 10
37.537973
 20
9.899997
 30
0.0
 10
37.379573
 20
9.748597
 30
0.0
 10
37.436773
 20
9.565797
 30
0.0
 10
37.661773
 20
9.391897
 30
0.0
 10
38.018873
 20
9.684797
 30
0.0
  0
LWPOLYLINE
  5
110
100
AcDbEntity
  8
Layer_1
 62
7
100
AcDbPolyline
 90
27
 70
1
 10
15.423177
 20
5.349698
 30
0.0
 10
16.681977
 20
5.952398
 30
0.0
 10
17.688377
 20
6.795398
 30
0.0
 10
18.440776
 20
7.876698
 30
0.0
 10
18.937376
 20
9.194397
 30
0.0
 10
19.053576
 20
10.700097
 30
0.0
 10
18.740976
 20
12.179497
 30
0.0
 10
18.303276
 20
12.938597
 30
0.0
 10
17.120677
 20
13.779497
 30
0.0
 10
15.604177
 20
14.922596
 30
0.0
 10
14.729977
 20
15.560096
 30
0.0
 10
13.713077
 20
15.685696
 30
0.0
 10
12.043378
 20
15.410196
 30
0.0
 10
10.585178
 20
14.629196
 30
0.0
 10
9.427428
 20
13.410597
 30
0.0
 10
8.659188
 20
11.822597
 30
0.0
 10
8.455208
 20
10.776197
 30
0.0
 10
8.477558
 20
9.733897
 30
0.0
 10
8.709408
 20
8.725297
 30
0.0
 10
9.133948
 20
7.779698
 30
0.0
 10
9.734378
 20
6.926698
 30
0.0
 10
10.493878
 20
6.195898
 30
0.0
 10
11.395578
 20
5.616698
 30
0.0
 10
12.422777
 20
5.218498
 30
0.0
 10
13.764477
 20
5.076398
 30
0.0
 10
14.607277
 20
5.125698
 30
0.0
 10
15.423177
 20
5.349698
 30
0.0
  0
LWPOLYLINE
  5
111
100
AcDbEntity
  8
Layer_1
 62
7
100
AcDbPolyline
 90
42
 70
1
 10
13.505677
 20
7.350098
 30
0.0
 10
13.413877
 20
7.970898
 30
0.0
 10
13.113277
 20
7.809298
 30
0.0
 10
12.562277
 20
7.576998
 30
0.0
 10
12.311777
 20
7.390098
 30
0.0
 10
12.071278
 20
7.104398
 30
0.0
 10
11.742678
 20
7.047698
 30
0.0
 10
12.112778
 20
7.485098
 30
0.0
 10
12.828277
 20
8.046598
 30
0.0
 10
13.243077
 20
8.274498
 30
0.0
 10
13.272477
 20
8.371598
 30
0.0
 10
12.988077
 20
8.678797
 30
0.0
 10
12.562277
 20
9.146697
 30
0.0
 10
12.300777
 20
9.485697
 30
0.0
 10
12.092978
 20
9.862197
 30
0.0
 10
12.612777
 20
9.576097
 30
0.0
 10
13.414777
 20
8.822997
 30
0.0
 10
13.539477
 20
8.678197
 30
0.0
 10
13.560877
 20
8.847997
 30
0.0
 10
13.666477
 20
9.066697
 30
0.0
 10
13.842877
 20
8.879397
 30
0.0
 10
14.015977
 20
8.783297
 30
0.0
 10
14.652377
 20
9.135297
 30
0.0
 10
15.417977
 20
9.509597
 30
0.0
 10
15.456777
 20
9.444397
 30
0.0
 10
15.217177
 20
9.204897
 30
0.0
 10
14.690477
 20
8.762597
 30
0.0
 10
14.326977
 20
8.572497
 30
0.0
 10
14.069477
 20
8.422098
 30
0.0
 10
14.016077
 20
8.169998
 30
0.0
 10
14.327777
 20
7.966698
 30
0.0
 10
14.633277
 20
7.697398
 30
0.0
 10
14.950077
 20
7.245098
 30
0.0
 10
15.132377
 20
7.014298
 30
0.0
 10
15.014277
 20
6.969598
 30
0.0
 10
14.390577
 20
7.394998
 30
0.0
 10
14.021877
 20
7.710398
 30
0.0
 10
13.862277
 20
7.670498
 30
0.0
 10
13.758977
 20
7.320198
 30
0.0
 10
13.673977
 20
6.924498
 30
0.0
 10
13.594077
 20
6.914898
 30
0.0
 10
13.505677
 20
7.349998
 30
0.0
  0
LWPOLYLINE
  5
112
100
AcDbEntity
  8
Layer_1
 62
7
100
AcDbPolyline
 90
13
 70
1
 10
13.154377
 20
9.339797
 30
0.0
 10
12.778677
 20
9.767597
 30
0.0
 10
12.569977
 20
10.415897
 30
0.0
 10
12.657977
 20
10.998197
 30
0.0
 10
13.008777
 20
11.435997
 30
0.0
 10
13.588677
 20
11.650697
 30
0.0
 10
14.363077
 20
11.579197
 30
0.0
 10
14.851777
 20
11.137997
 30
0.0
 10
15.062077
 20
10.514297
 30
0.0
 10
14.871377
 20
9.860197
 30
0.0
 10
14.465777
 20
9.403297
 30
0.0
 10
13.849577
 20
9.291997
 30
0.0
 10
13.154377
 20
9.339797
 30
0.0
  0
LWPOLYLINE
  5
113
100
AcDbEntity
  8
Layer_1
 62
7
100
AcDbPolyline
 90
16
 70
1
 10
13.983777
 20
9.786197
 30
0.0
 10
14.196777
 20
9.708897
 30
0.0
 10
14.384477
 20
9.873397
 30
0.0
 10
14.556877
 20
10.369797
 30
0.0
 10
14.366677
 20
10.951897
 30
0.0
 10
14.112877
 20
11.256497
 30
0.0
 10
13.880577
 20
11.153097
 30
0.0
 10
13.763877
 20
11.081797
 30
0.0
 10
13.670277
 20
11.167797
 30
0.0
 10
13.415077
 20
11.234397
 30
0.0
 10
13.161877
 20
10.922997
 30
0.0
 10
13.066377
 20
10.439097
 30
0.0
 10
13.127077
 20
10.027197
 30
0.0
 10
13.308277
 20
9.783497
 30
0.0
 10
13.574577
 20
9.804497
 30
0.0
 10
13.983777
 20
9.786197
 30
0.0
  0
LWPOLYLINE
  5
114
100
AcDbEntity
  8
Layer_1
 62
7
100
AcDbPolyline
 90
9
 70
1
 10
13.483977
 20
10.195497
 30
0.0
 10
13.371877
 20
10.498997
 30
0.0
 10
13.555777
 20
10.819197
 30
0.0
 10
13.928877
 20
10.899097
 30
0.0
 10
14.193877
 20
10.577697
 30
0.0
 10
14.164577
 20
10.317897
 30
0.0
 10
13.981977
 20
10.138297
 30
0.0
 10
13.727777
 20
10.082797
 30
0.0
 10
13.483977
 20
10.195497
 30
0.0
  0
LWPOLYLINE
  5
115
100
AcDbEntity
  8
Layer_1
 62
7
100
AcDbPolyline
 90
20
 70
1
 10
15.267277
 20
10.681097
 30
0.0
 10
15.342377
 20
10.977697
 30
0.0
 10
15.866877
 20
11.784697
 30
0.0
 10
15.791677
 20
11.821197
 30
0.0
 10
15.543877
 20
11.651597
 30
0.0
 10
15.367477
 20
11.663997
 30
0.0
 10
15.626677
 20
11.986397
 30
0.0
 10
15.825577
 20
12.249997
 30
0.0
 10
15.831577
 20
12.579897
 30
0.0
 10
15.809077
 20
12.841697
 30
0.0
 10
15.912377
 20
12.750697
 30
0.0
 10
16.115877
 20
12.114197
 30
0.0
 10
16.130877
 20
11.692997
 30
0.0
 10
15.951177
 20
11.401297
 30
0.0
 10
15.843377
 20
11.217197
 30
0.0
 10
15.968377
 20
11.139197
 30
0.0
 10
15.866777
 20
10.925897
 30
0.0
 10
15.808777
 20
10.791997
 30
0.0
 10
15.559877
 20
10.553097
 30
0.0
 10
15.267277
 20
10.385197
 30
0.0
  0
LWPOLYLINE
  5
116
100
AcDbEntity
  8
Layer_1
 62
7
100
AcDbPolyline
 90
21
 70
1
 10
11.972678
 20
10.637997
 30
0.0
 10
11.561978
 20
11.108097
 30
0.0
 10
11.685678
 20
11.112597
 30
0.0
 10
11.527978
 20
11.373597
 30
0.0
 10
11.301178
 20
11.920197
 30
0.0
 10
11.358678
 20
12.285297
 30
0.0
 10
11.517178
 20
12.635997
 30
0.0
 10
11.644378
 20
12.766197
 30
0.0
 10
11.617978
 20
12.565197
 30
0.0
 10
11.758078
 20
12.064297
 30
0.0
 10
11.927678
 20
11.891797
 30
0.0
 10
11.965978
 20
12.028997
 30
0.0
 10
12.002178
 20
12.127297
 30
0.0
 10
12.110278
 20
11.928797
 30
0.0
 10
12.203677
 20
11.616097
 30
0.0
 10
11.924978
 20
11.672997
 30
0.0
 10
11.662178
 20
11.642797
 30
0.0
 10
11.966578
 20
11.187597
 30
0.0
 10
12.248277
 20
10.689697
 30
0.0
 10
12.180377
 20
10.587697
 30
0.0
 10
11.972678
 20
10.637997
 30
0.0
  0
LWPOLYLINE
  5
117
100
AcDbEntity
  8
Layer_1
 62
7
100
AcDbPolyline
 90
54
 70
1
 10
12.562277
 20
11.811097
 30
0.0
 10
12.311777
 20
12.279397
 30
0.0
 10
12.071478
 20
12.757297
 30
0.0
 10
12.165777
 20
13.502997
 30
0.0
 10
12.379877
 20
13.945297
 30
0.0
 10
12.446577
 20
13.950897
 30
0.0
 10
12.426777
 20
13.755297
 30
0.0
 10
12.447377
 20
13.267997
 30
0.0
 10
12.546477
 20
13.125397
 30
0.0
 10
12.716177
 20
13.424997
 30
0.0
 10
12.876077
 20
13.700097
 30
0.0
 10
12.963077
 20
13.631697
 30
0.0
 10
13.066877
 20
13.577297
 30
0.0
 10
13.295277
 20
13.910097
 30
0.0
 10
13.564077
 20
14.470396
 30
0.0
 10
13.601977
 20
14.613296
 30
0.0
 10
13.707577
 20
14.580196
 30
0.0
 10
14.075377
 20
14.026697
 30
0.0
 10
14.355777
 20
13.552197
 30
0.0
 10
14.465777
 20
13.578797
 30
0.0
 10
14.539377
 20
13.703197
 30
0.0
 10
14.716277
 20
13.481697
 30
0.0
 10
15.004877
 20
13.198797
 30
0.0
 10
15.039477
 20
13.581797
 30
0.0
 10
15.080777
 20
13.910797
 30
0.0
 10
15.318777
 20
13.341397
 30
0.0
 10
15.401977
 20
12.681397
 30
0.0
 10
15.093377
 20
12.233397
 30
0.0
 10
14.841177
 20
11.814497
 30
0.0
 10
14.695777
 20
11.649897
 30
0.0
 10
14.569577
 20
11.875497
 30
0.0
 10
14.652677
 20
12.120797
 30
0.0
 10
14.689377
 20
12.423997
 30
0.0
 10
14.553977
 20
12.737597
 30
0.0
 10
14.465777
 20
12.647297
 30
0.0
 10
14.163877
 20
12.458197
 30
0.0
 10
13.861977
 20
12.413897
 30
0.0
 10
14.086577
 20
12.652997
 30
0.0
 10
14.311177
 20
12.891997
 30
0.0
 10
14.062877
 20
13.356197
 30
0.0
 10
13.681677
 20
13.862197
 30
0.0
 10
13.598877
 20
13.854997
 30
0.0
 10
13.681677
 20
13.684997
 30
0.0
 10
13.741477
 20
13.456897
 30
0.0
 10
13.488977
 20
13.190897
 30
0.0
 10
13.160177
 20
12.672797
 30
0.0
 10
13.137177
 20
12.490497
 30
0.0
 10
13.012677
 20
12.620397
 30
0.0
 10
12.888177
 20
12.742797
 30
0.0
 10
12.820277
 20
12.670497
 30
0.0
 10
12.807677
 20
12.053997
 30
0.0
 10
12.826177
 20
11.739597
 30
0.0
 10
12.665577
 20
11.578097
 30
0.0
 10
12.562277
 20
11.811097
 30
0.0
  0
LWPOLYLINE
  5
118
100
AcDbEntity
  8
Layer_1
 62
7
100
AcDbPolyline
 90
8
 70
1
 10
21.077976
 20
11.886597
 30
0.0
 10
20.852576
 20
12.009197
 30
0.0
 10
20.413676
 20
12.129597
 30
0.0
 10
20.242576
 20
12.124797
 30
0.0
 10
20.284076
 20
11.761997
 30
0.0
 10
20.372376
 20
11.232797
 30
0.0
 10
20.726976
 20
11.479197
 30
0.0
 10
21.077976
 20
11.886597
 30
0.0
  0
LWPOLYLINE
  5
119
100
AcDbEntity
  8
Layer_1
 62
7
100
AcDbPolyline
 90
7
 70
1
 10
30.078574
 20
11.756297
 30
0.0
 10
30.083374
 20
12.159897
 30
0.0
 10
29.601074
 20
12.066597
 30
0.0
 10
29.278075
 20
11.953897
 30
0.0
 10
29.604374
 20
11.617197
 30
0.0
 10
29.957074
 20
11.306897
 30
0.0
 10
30.078574
 20
11.756297
 30
0.0
  0
LWPOLYLINE
  5
11a
100
AcDbEntity
  8
Layer_1
 62
7
100
AcDbPolyline
 90
25
 70
1
 10
24.881875
 20
11.853597
 30
0.0
 10
24.616075
 20
12.174197
 30
0.0
 10
23.732475
 20
12.373997
 30
0.0
 10
22.798076
 20
12.529697
 30
0.0
 10
23.140976
 20
14.202497
 30
0.0
 10
23.104776
 20
14.350696
 30
0.0
 10
22.831576
 20
14.439896
 30
0.0
 10
22.427376
 20
14.463696
 30
0.0
 10
22.221776
 20
13.625097
 30
0.0
 10
21.994776
 20
12.762497
 30
0.0
 10
20.989876
 20
12.998997
 30
0.0
 10
20.013776
 20
13.427297
 30
0.0
 10
20.326376
 20
14.282696
 30
0.0
 10
20.658676
 20
15.031196
 30
0.0
 10
20.081876
 20
15.284996
 30
0.0
 10
19.602576
 20
14.533596
 30
0.0
 10
19.118376
 20
13.782197
 30
0.0
 10
18.164576
 20
14.287896
 30
0.0
 10
17.096677
 20
14.736896
 30
0.0
 10
16.870277
 20
14.584796
 30
0.0
 10
17.343777
 20
14.169897
 30
0.0
 10
18.501276
 20
13.532697
 30
0.0
 10
21.287476
 20
12.380297
 30
0.0
 10
23.587776
 20
11.896797
 30
0.0
 10
24.881875
 20
11.853597
 30
0.0
  0
LWPOLYLINE
  5
11b
100
AcDbEntity
  8
Layer_1
 62
7
100
AcDbPolyline
 90
32
 70
1
 10
27.590075
 20
12.043197
 30
0.0
 10
30.292774
 20
12.851997
 30
0.0
 10
32.742674
 20
14.071097
 30
0.0
 10
33.036374
 20
14.270896
 30
0.0
 10
32.781174
 20
14.387096
 30
0.0
 10
32.437574
 20
14.411596
 30
0.0
 10
31.747074
 20
14.075897
 30
0.0
 10
31.231074
 20
13.803797
 30
0.0
 10
30.934474
 20
13.765697
 30
0.0
 10
30.716074
 20
14.021397
 30
0.0
 10
30.434774
 20
14.630396
 30
0.0
 10
30.044574
 20
15.277696
 30
0.0
 10
29.665674
 20
15.155196
 30
0.0
 10
29.386975
 20
15.034496
 30
0.0
 10
29.790874
 20
14.200497
 30
0.0
 10
30.194874
 20
13.335197
 30
0.0
 10
29.185475
 20
12.973297
 30
0.0
 10
28.373275
 20
12.739297
 30
0.0
 10
28.098175
 20
12.768597
 30
0.0
 10
27.900375
 20
13.565997
 30
0.0
 10
27.687975
 20
14.362296
 30
0.0
 10
27.537275
 20
14.459596
 30
0.0
 10
27.301975
 20
14.436096
 30
0.0
 10
27.095075
 20
14.376296
 30
0.0
 10
27.013675
 20
14.243297
 30
0.0
 10
27.179075
 20
13.314997
 30
0.0
 10
27.364075
 20
12.497297
 30
0.0
 10
27.051275
 20
12.442497
 30
0.0
 10
26.108675
 20
12.320197
 30
0.0
 10
25.476975
 20
12.157897
 30
0.0
 10
25.285775
 20
11.824997
 30
0.0
 10
27.590075
 20
12.043197
 30
0.0
  0
LWPOLYLINE
  5
11c
100
AcDbEntity
  8
Layer_1
 62
7
100
AcDbPolyline
 90
1123
 70
1
 10
25.292175
 20
12.649997
 30
0.0
 10
25.423875
 20
13.075797
 30
0.0
 10
25.347875
 20
13.431497
 30
0.0
 10
25.284175
 20
13.732097
 30
0.0
 10
25.427975
 20
13.481597
 30
0.0
 10
25.559975
 20
13.301097
 30
0.0
 10
25.642375
 20
13.412897
 30
0.0
 10
25.595775
 20
13.851597
 30
0.0
 10
25.530175
 20
14.160097
 30
0.0
 10
25.644775
 20
14.046997
 30
0.0
 10
25.806975
 20
13.890997
 30
0.0
 10
25.975775
 20
14.104997
 30
0.0
 10
25.982775
 20
14.340596
 30
0.0
 10
25.772175
 20
14.613696
 30
0.0
 10
25.486175
 20
15.034496
 30
0.0
 10
25.799375
 20
14.856196
 30
0.0
 10
26.112575
 20
14.542896
 30
0.0
 10
26.301575
 20
14.776296
 30
0.0
 10
26.546475
 20
15.257896
 30
0.0
 10
26.486975
 20
15.636896
 30
0.0
 10
26.276175
 20
15.770296
 30
0.0
 10
26.046775
 20
15.752996
 30
0.0
 10
25.862375
 20
15.609696
 30
0.0
 10
25.786675
 20
15.365096
 30
0.0
 10
25.998775
 20
15.184796
 30
0.0
 10
26.155275
 20
15.227796
 30
0.0
 10
26.156975
 20
15.390896
 30
0.0
 10
26.220375
 20
15.558296
 30
0.0
 10
26.370775
 20
15.296696
 30
0.0
 10
26.188475
 20
15.034796
 30
0.0
 10
25.899275
 20
15.040196
 30
0.0
 10
25.730875
 20
15.219296
 30
0.0
 10
25.715375
 20
15.493296
 30
0.0
 10
25.884675
 20
15.783596
 30
0.0
 10
26.207875
 20
15.922796
 30
0.0
 10
26.596375
 20
15.720296
 30
0.0
 10
26.810775
 20
15.653796
 30
0.0
 10
26.888775
 20
15.907896
 30
0.0
 10
26.528575
 20
16.246196
 30
0.0
 10
25.897775
 20
16.341096
 30
0.0
 10
25.726175
 20
16.316096
 30
0.0
 10
25.786775
 20
16.382396
 30
0.0
 10
26.268575
 20
16.479696
 30
0.0
 10
26.774775
 20
16.325296
 30
0.0
 10
27.110875
 20
16.268496
 30
0.0
 10
27.121575
 20
16.542896
 30
0.0
 10
26.594975
 20
16.818696
 30
0.0
 10
26.165375
 20
17.025496
 30
0.0
 10
25.885375
 20
17.310796
 30
0.0
 10
25.686875
 20
18.254096
 30
0.0
 10
25.726075
 20
18.796496
 30
0.0
 10
25.997275
 20
18.914496
 30
0.0
 10
26.229175
 20
18.894996
 30
0.0
 10
26.487375
 20
18.710596
 30
0.0
 10
27.410375
 20
17.525296
 30
0.0
 10
27.651175
 20
17.239596
 30
0.0
 10
27.796775
 20
17.223196
 30
0.0
 10
27.889075
 20
18.102696
 30
0.0
 10
27.968875
 20
19.198796
 30
0.0
 10
28.312075
 20
19.639296
 30
0.0
 10
28.679375
 20
19.730596
 30
0.0
 10
29.193675
 20
18.921896
 30
0.0
 10
29.393375
 20
18.366096
 30
0.0
 10
29.242875
 20
17.793896
 30
0.0
 10
28.871375
 20
17.222096
 30
0.0
 10
28.726075
 20
17.017496
 30
0.0
 10
28.895775
 20
16.886096
 30
0.0
 10
29.178575
 20
16.869196
 30
0.0
 10
29.291675
 20
17.156196
 30
0.0
 10
29.572874
 20
17.489296
 30
0.0
 10
30.033074
 20
17.685496
 30
0.0
 10
30.137274
 20
17.654296
 30
0.0
 10
29.927274
 20
17.543396
 30
0.0
 10
29.517874
 20
17.214096
 30
0.0
 10
29.412175
 20
16.765396
 30
0.0
 10
29.563074
 20
16.519996
 30
0.0
 10
29.711274
 20
16.703496
 30
0.0
 10
30.017774
 20
17.084496
 30
0.0
 10
30.288974
 20
17.178196
 30
0.0
 10
30.547774
 20
16.981296
 30
0.0
 10
30.713174
 20
16.708696
 30
0.0
 10
30.696574
 20
16.468596
 30
0.0
 10
30.529974
 20
16.327196
 30
0.0
 10
30.244974
 20
16.350796
 30
0.0
 10
30.097974
 20
16.593196
 30
0.0
 10
30.194874
 20
16.787696
 30
0.0
 10
30.270074
 20
16.674996
 30
0.0
 10
30.373474
 20
16.519096
 30
0.0
 10
30.561774
 20
16.643596
 30
0.0
 10
30.449974
 20
16.953496
 30
0.0
 10
30.080874
 20
16.980696
 30
0.0
 10
29.921274
 20
16.819596
 30
0.0
 10
29.895774
 20
16.607296
 30
0.0
 10
30.219974
 20
16.185496
 30
0.0
 10
30.663974
 20
15.986596
 30
0.0
 10
30.848974
 20
16.209796
 30
0.0
 10
30.920274
 20
16.737096
 30
0.0
 10
30.928374
 20
16.967996
 30
0.0
 10
31.013374
 20
16.787696
 30
0.0
 10
31.053374
 20
16.165396
 30
0.0
 10
31.044674
 20
15.845996
 30
0.0
 10
31.189574
 20
15.689496
 30
0.0
 10
31.442374
 20
15.604596
 30
0.0
 10
31.525774
 20
15.860996
 30
0.0
 10
31.564074
 20
16.061696
 30
0.0
 10
31.582474
 20
15.830896
 30
0.0
 10
31.694374
 20
15.445696
 30
0.0
 10
31.924874
 20
15.284896
 30
0.0
 10
31.949674
 20
15.510296
 30
0.0
 10
31.917174
 20
15.678796
 30
0.0
 10
32.043174
 20
15.541296
 30
0.0
 10
32.198574
 20
15.217696
 30
0.0
 10
32.604774
 20
14.881396
 30
0.0
 10
33.010974
 20
14.674196
 30
0.0
 10
32.943474
 20
15.054696
 30
0.0
 10
32.562374
 20
15.774096
 30
0.0
 10
32.326174
 20
16.045396
 30
0.0
 10
32.524174
 20
15.937896
 30
0.0
 10
32.761674
 20
15.813696
 30
0.0
 10
32.799674
 20
15.956096
 30
0.0
 10
32.436674
 20
16.322596
 30
0.0
 10
32.127574
 20
16.549696
 30
0.0
 10
32.398974
 20
16.487196
 30
0.0
 10
32.654374
 20
16.426296
 30
0.0
 10
32.646374
 20
16.714296
 30
0.0
 10
32.519174
 20
16.925196
 30
0.0
 10
32.215674
 20
17.027196
 30
0.0
 10
31.597474
 20
17.295196
 30
0.0
 10
31.347074
 20
17.501096
 30
0.0
 10
31.667674
 20
17.344796
 30
0.0
 10
32.243774
 20
17.188496
 30
0.0
 10
32.459574
 20
17.256496
 30
0.0
 10
32.499174
 20
17.626996
 30
0.0
 10
32.362274
 20
18.165996
 30
0.0
 10
31.943174
 20
18.248096
 30
0.0
 10
31.741574
 20
18.142796
 30
0.0
 10
31.716374
 20
17.911296
 30
0.0
 10
31.785974
 20
17.703896
 30
0.0
 10
31.939774
 20
17.639296
 30
0.0
 10
32.173574
 20
17.764496
 30
0.0
 10
32.056674
 20
17.889796
 30
0.0
 10
31.898074
 20
17.997296
 30
0.0
 10
32.076974
 20
18.066896
 30
0.0
 10
32.278574
 20
17.829896
 30
0.0
 10
32.168474
 20
17.513196
 30
0.0
 10
31.874274
 20
17.442696
 30
0.0
 10
31.617974
 20
17.742896
 30
0.0
 10
31.555574
 20
18.125496
 30
0.0
 10
31.857674
 20
18.372996
 30
0.0
 10
32.247474
 20
18.427396
 30
0.0
 10
32.362874
 20
18.433396
 30
0.0
 10
32.398974
 20
18.580296
 30
0.0
 10
32.285974
 20
18.761196
 30
0.0
 10
32.010974
 20
18.809396
 30
0.0
 10
31.360674
 20
18.527296
 30
0.0
 10
31.108574
 20
18.353796
 30
0.0
 10
31.224974
 20
18.599696
 30
0.0
 10
31.586774
 20
18.880896
 30
0.0
 10
32.041774
 20
18.991796
 30
0.0
 10
32.249074
 20
19.042296
 30
0.0
 10
32.298774
 20
19.252996
 30
0.0
 10
32.263474
 20
19.447796
 30
0.0
 10
32.123474
 20
19.446296
 30
0.0
 10
31.480074
 20
19.269896
 30
0.0
 10
30.693874
 20
19.301496
 30
0.0
 10
30.039874
 20
19.956896
 30
0.0
 10
29.661374
 20
20.506495
 30
0.0
 10
29.878674
 20
20.723795
 30
0.0
 10
30.096074
 20
20.941095
 30
0.0
 10
31.318374
 20
20.621795
 30
0.0
 10
32.561074
 20
20.323295
 30
0.0
 10
31.889074
 20
21.323895
 30
0.0
 10
31.198974
 20
22.375795
 30
0.0
 10
31.374274
 20
22.665995
 30
0.0
 10
31.547374
 20
22.883795
 30
0.0
 10
32.177274
 20
22.628895
 30
0.0
 10
32.922774
 20
22.124395
 30
0.0
 10
33.100274
 20
21.200795
 30
0.0
 10
33.156374
 20
20.660095
 30
0.0
 10
33.432274
 20
20.651595
 30
0.0
 10
33.527774
 20
21.100295
 30
0.0
 10
33.616574
 20
21.700695
 30
0.0
 10
33.919574
 20
21.997295
 30
0.0
 10
33.857174
 20
21.803095
 30
0.0
 10
33.688874
 20
21.309095
 30
0.0
 10
33.747374
 20
20.801795
 30
0.0
 10
34.002974
 20
20.697295
 30
0.0
 10
34.200774
 20
20.770095
 30
0.0
 10
34.110874
 20
20.984795
 30
0.0
 10
34.122174
 20
21.410595
 30
0.0
 10
34.258774
 20
21.636595
 30
0.0
 10
34.497174
 20
21.696795
 30
0.0
 10
34.937374
 20
21.514495
 30
0.0
 10
35.047474
 20
21.332695
 30
0.0
 10
34.971274
 20
21.152895
 30
0.0
 10
34.650774
 20
21.016595
 30
0.0
 10
34.424874
 20
21.247095
 30
0.0
 10
34.418574
 20
21.395295
 30
0.0
 10
34.549374
 20
21.251395
 30
0.0
 10
34.694774
 20
21.124595
 30
0.0
 10
34.817074
 20
21.169495
 30
0.0
 10
34.858174
 20
21.448595
 30
0.0
 10
34.557974
 20
21.596695
 30
0.0
 10
34.348574
 20
21.540295
 30
0.0
 10
34.243074
 20
21.344895
 30
0.0
 10
34.240974
 20
21.056495
 30
0.0
 10
34.391574
 20
20.872295
 30
0.0
 10
35.078974
 20
20.858295
 30
0.0
 10
35.300573
 20
21.144195
 30
0.0
 10
35.086674
 20
21.646095
 30
0.0
 10
34.868874
 20
21.922795
 30
0.0
 10
35.095174
 20
21.801795
 30
0.0
 10
35.488173
 20
21.311495
 30
0.0
 10
35.674973
 20
21.013595
 30
0.0
 10
35.940073
 20
20.993995
 30
0.0
 10
36.225073
 20
21.045595
 30
0.0
 10
35.997573
 20
21.346195
 30
0.0
 10
35.770173
 20
21.646795
 30
0.0
 10
36.118073
 20
21.321195
 30
0.0
 10
36.652073
 20
20.995595
 30
0.0
 10
36.786373
 20
21.025995
 30
0.0
 10
36.647273
 20
21.216995
 30
0.0
 10
36.456473
 20
21.438495
 30
0.0
 10
36.728473
 20
21.267095
 30
0.0
 10
37.459073
 20
21.095695
 30
0.0
 10
37.917673
 20
21.095695
 30
0.0
 10
37.637873
 20
21.446395
 30
0.0
 10
37.343273
 20
21.726595
 30
0.0
 10
37.007473
 20
21.810695
 30
0.0
 10
36.795373
 20
21.831595
 30
0.0
 10
36.887973
 20
21.868495
 30
0.0
 10
37.066373
 20
22.037295
 30
0.0
 10
36.648973
 20
22.199295
 30
0.0
 10
36.362073
 20
22.253895
 30
0.0
 10
36.504073
 20
22.320995
 30
0.0
 10
36.752173
 20
22.391195
 30
0.0
 10
36.535973
 20
22.592595
 30
0.0
 10
36.309473
 20
22.739595
 30
0.0
 10
36.037473
 20
22.646795
 30
0.0
 10
35.454573
 20
22.507995
 30
0.0
 10
35.154074
 20
22.516495
 30
0.0
 10
35.504673
 20
22.614995
 30
0.0
 10
36.024073
 20
22.884995
 30
0.0
 10
35.855673
 20
23.340695
 30
0.0
 10
35.398273
 20
23.700595
 30
0.0
 10
35.075074
 20
23.492595
 30
0.0
 10
34.970474
 20
23.141895
 30
0.0
 10
35.232973
 20
22.942595
 30
0.0
 10
35.510573
 20
23.008895
 30
0.0
 10
35.532973
 20
23.225295
 30
0.0
 10
35.335873
 20
23.256595
 30
0.0
 10
35.229173
 20
23.324895
 30
0.0
 10
35.408573
 20
23.444795
 30
0.0
 10
35.634973
 20
23.288395
 30
0.0
 10
35.694373
 20
23.019195
 30
0.0
 10
35.548273
 20
22.846695
 30
0.0
 10
35.283373
 20
22.813995
 30
0.0
 10
34.986574
 20
22.964795
 30
0.0
 10
34.814674
 20
23.323895
 30
0.0
 10
35.062274
 20
23.689295
 30
0.0
 10
35.256673
 20
23.997095
 30
0.0
 10
35.063274
 20
24.100095
 30
0.0
 10
34.807074
 20
23.999495
 30
0.0
 10
34.404874
 20
23.397595
 30
0.0
 10
34.322974
 20
23.049395
 30
0.0
 10
34.312674
 20
23.388195
 30
0.0
 10
34.376474
 20
23.724395
 30
0.0
 10
34.648374
 20
24.053295
 30
0.0
 10
34.918874
 20
24.355795
 30
0.0
 10
34.815574
 20
24.541195
 30
0.0
 10
34.614674
 20
24.617695
 30
0.0
 10
34.309674
 20
24.295695
 30
0.0
 10
33.645074
 20
23.727595
 30
0.0
 10
33.254674
 20
23.624595
 30
0.0
 10
32.603274
 20
23.806495
 30
0.0
 10
32.066874
 20
24.026695
 30
0.0
 10
31.939174
 20
24.199095
 30
0.0
 10
32.035274
 20
24.604795
 30
0.0
 10
32.259674
 20
24.871895
 30
0.0
 10
33.121574
 20
25.192095
 30
0.0
 10
34.228574
 20
25.596595
 30
0.0
 10
33.212074
 20
26.091594
 30
0.0
 10
32.258774
 20
26.505694
 30
0.0
 10
32.078874
 20
26.860494
 30
0.0
 10
32.112774
 20
27.179194
 30
0.0
 10
32.559874
 20
27.356194
 30
0.0
 10
33.295974
 20
27.507694
 30
0.0
 10
33.844174
 20
27.321294
 30
0.0
 10
34.336374
 20
26.812894
 30
0.0
 10
34.659274
 20
26.432794
 30
0.0
 10
34.900774
 20
26.552494
 30
0.0
 10
34.947774
 20
26.715394
 30
0.0
 10
34.759374
 20
26.928194
 30
0.0
 10
34.440174
 20
27.509294
 30
0.0
 10
34.402974
 20
27.789394
 30
0.0
 10
34.489774
 20
27.908394
 30
0.0
 10
34.602974
 20
27.603294
 30
0.0
 10
34.815874
 20
27.093494
 30
0.0
 10
35.193674
 20
26.806394
 30
0.0
 10
35.358473
 20
26.943194
 30
0.0
 10
35.209074
 20
27.223994
 30
0.0
 10
35.023474
 20
27.687594
 30
0.0
 10
35.297973
 20
28.074894
 30
0.0
 10
35.728873
 20
28.098594
 30
0.0
 10
35.886473
 20
27.777394
 30
0.0
 10
35.677973
 20
27.532694
 30
0.0
 10
35.368773
 20
27.613194
 30
0.0
 10
35.315773
 20
27.698194
 30
0.0
 10
35.433373
 20
27.674394
 30
0.0
 10
35.669073
 20
27.761294
 30
0.0
 10
35.634173
 20
28.019294
 30
0.0
 10
35.475273
 20
28.049994
 30
0.0
 10
35.296973
 20
27.933094
 30
0.0
 10
35.148074
 20
27.526494
 30
0.0
 10
35.282273
 20
27.351894
 30
0.0
 10
35.503573
 20
27.305094
 30
0.0
 10
36.032673
 20
27.583794
 30
0.0
 10
36.219673
 20
27.947894
 30
0.0
 10
35.853073
 20
28.252594
 30
0.0
 10
35.671173
 20
28.370394
 30
0.0
 10
35.735073
 20
28.408694
 30
0.0
 10
36.211873
 20
28.255994
 30
0.0
 10
36.707773
 20
28.209394
 30
0.0
 10
36.891973
 20
28.421394
 30
0.0
 10
36.581673
 20
28.606194
 30
0.0
 10
36.357273
 20
28.687994
 30
0.0
 10
36.673873
 20
28.659294
 30
0.0
 10
37.203473
 20
28.663794
 30
0.0
 10
37.408173
 20
28.813394
 30
0.0
 10
37.232873
 20
28.941394
 30
0.0
 10
37.185273
 20
28.977694
 30
0.0
 10
37.342673
 20
28.998794
 30
0.0
 10
37.883773
 20
29.199494
 30
0.0
 10
38.209673
 20
29.509394
 30
0.0
 10
37.812573
 20
29.660994
 30
0.0
 10
37.189173
 20
29.569594
 30
0.0
 10
36.878573
 20
29.416094
 30
0.0
 10
37.021373
 20
29.608194
 30
0.0
 10
37.257973
 20
29.805194
 30
0.0
 10
36.994673
 20
29.808494
 30
0.0
 10
36.602173
 20
29.656094
 30
0.0
 10
36.264273
 20
29.392094
 30
0.0
 10
36.118173
 20
29.334694
 30
0.0
 10
36.281073
 20
29.529194
 30
0.0
 10
36.491173
 20
29.825994
 30
0.0
 10
36.269973
 20
29.933894
 30
0.0
 10
36.046973
 20
29.904794
 30
0.0
 10
35.863173
 20
29.663094
 30
0.0
 10
35.373373
 20
29.159494
 30
0.0
 10
35.053874
 20
28.971994
 30
0.0
 10
35.384673
 20
29.304694
 30
0.0
 10
35.681673
 20
29.827494
 30
0.0
 10
35.595973
 20
30.010494
 30
0.0
 10
35.354373
 20
30.132094
 30
0.0
 10
34.958774
 20
30.176794
 30
0.0
 10
34.676874
 20
30.085794
 30
0.0
 10
34.546874
 20
29.885894
 30
0.0
 10
34.606874
 20
29.604294
 30
0.0
 10
34.794374
 20
29.428794
 30
0.0
 10
35.008174
 20
29.421994
 30
0.0
 10
35.158574
 20
29.553094
 30
0.0
 10
35.155774
 20
29.791594
 30
0.0
 10
35.077574
 20
29.904994
 30
0.0
 10
34.946474
 20
29.767694
 30
0.0
 10
34.822574
 20
29.628694
 30
0.0
 10
34.803374
 20
29.792694
 30
0.0
 10
34.876474
 20
29.962694
 30
0.0
 10
35.044374
 20
30.023094
 30
0.0
 10
35.355873
 20
29.807094
 30
0.0
 10
35.281173
 20
29.444694
 30
0.0
 10
34.863774
 20
29.330894
 30
0.0
 10
34.456774
 20
29.616994
 30
0.0
 10
34.482574
 20
30.117294
 30
0.0
 10
34.549374
 20
30.277994
 30
0.0
 10
34.415774
 20
30.312794
 30
0.0
 10
34.171774
 20
30.222894
 30
0.0
 10
34.040474
 20
29.977094
 30
0.0
 10
34.149274
 20
29.160694
 30
0.0
 10
34.170774
 20
29.056494
 30
0.0
 10
34.044274
 20
29.206194
 30
0.0
 10
33.888674
 20
29.627194
 30
0.0
 10
33.919974
 20
30.262694
 30
0.0
 10
33.894174
 20
30.422594
 30
0.0
 10
33.740774
 20
30.493194
 30
0.0
 10
33.555374
 20
30.421394
 30
0.0
 10
33.475874
 20
29.929894
 30
0.0
 10
33.230374
 20
29.062694
 30
0.0
 10
32.562274
 20
28.664294
 30
0.0
 10
31.772774
 20
28.507194
 30
0.0
 10
31.490074
 20
28.880494
 30
0.0
 10
31.309074
 20
29.301494
 30
0.0
 10
32.011674
 20
30.267294
 30
0.0
 10
32.681374
 20
31.265994
 30
0.0
 10
31.446674
 20
31.012094
 30
0.0
 10
30.244974
 20
30.725294
 30
0.0
 10
30.015274
 20
30.951394
 30
0.0
 10
29.785474
 20
31.177494
 30
0.0
 10
30.165474
 20
31.693993
 30
0.0
 10
30.548474
 20
32.146593
 30
0.0
 10
30.934474
 20
32.358893
 30
0.0
 10
31.468674
 20
32.365493
 30
0.0
 10
32.296374
 20
32.200793
 30
0.0
 10
32.478674
 20
32.391693
 30
0.0
 10
32.456074
 20
32.573793
 30
0.0
 10
32.250674
 20
32.617093
 30
0.0
 10
31.397074
 20
32.962093
 30
0.0
 10
31.329874
 20
33.184893
 30
0.0
 10
31.345774
 20
33.259493
 30
0.0
 10
31.548874
 20
33.087993
 30
0.0
 10
31.849474
 20
32.871593
 30
0.0
 10
32.191274
 20
32.837593
 30
0.0
 10
32.473774
 20
32.904393
 30
0.0
 10
32.583574
 20
33.057493
 30
0.0
 10
32.575574
 20
33.191193
 30
0.0
 10
32.457974
 20
33.185393
 30
0.0
 10
32.060574
 20
33.234993
 30
0.0
 10
31.755874
 20
33.483393
 30
0.0
 10
31.818274
 20
33.865893
 30
0.0
 10
32.074574
 20
34.166193
 30
0.0
 10
32.358974
 20
34.104993
 30
0.0
 10
32.499074
 20
33.812893
 30
0.0
 10
32.388474
 20
33.568593
 30
0.0
 10
32.169774
 20
33.607593
 30
0.0
 10
32.123474
 20
33.694093
 30
0.0
 10
32.236974
 20
33.719093
 30
0.0
 10
32.373874
 20
33.844293
 30
0.0
 10
32.140074
 20
33.969593
 30
0.0
 10
31.989174
 20
33.905293
 30
0.0
 10
31.948074
 20
33.668993
 30
0.0
 10
31.997174
 20
33.419793
 30
0.0
 10
32.207074
 20
33.338393
 30
0.0
 10
32.568874
 20
33.451193
 30
0.0
 10
32.715174
 20
33.969593
 30
0.0
 10
32.702974
 20
34.313793
 30
0.0
 10
32.478974
 20
34.401493
 30
0.0
 10
31.978074
 20
34.309993
 30
0.0
 10
31.806674
 20
34.233493
 30
0.0
 10
31.882974
 20
34.351293
 30
0.0
 10
32.383974
 20
34.582493
 30
0.0
 10
32.785874
 20
34.735293
 30
0.0
 10
32.898274
 20
35.044093
 30
0.0
 10
32.852074
 20
35.166093
 30
0.0
 10
32.649374
 20
35.121693
 30
0.0
 10
32.407674
 20
35.076393
 30
0.0
 10
32.686774
 20
35.265393
 30
0.0
 10
33.027974
 20
35.618593
 30
0.0
 10
33.019074
 20
35.812693
 30
0.0
 10
32.759874
 20
35.647693
 30
0.0
 10
32.709374
 20
35.635193
 30
0.0
 10
32.877174
 20
35.851493
 30
0.0
 10
33.200374
 20
36.419393
 30
0.0
 10
33.262874
 20
36.770793
 30
0.0
 10
33.207774
 20
36.876093
 30
0.0
 10
32.949274
 20
36.761793
 30
0.0
 10
32.386274
 20
36.225693
 30
0.0
 10
32.265774
 20
36.040593
 30
0.0
 10
32.252174
 20
36.098493
 30
0.0
 10
32.269574
 20
36.306693
 30
0.0
 10
32.056474
 20
36.263093
 30
0.0
 10
31.896474
 20
35.937493
 30
0.0
 10
31.788174
 20
35.522393
 30
0.0
 10
31.716174
 20
35.460293
 30
0.0
 10
31.739974
 20
35.641493
 30
0.0
 10
31.702074
 20
35.958193
 30
0.0
 10
31.428274
 20
35.938693
 30
0.0
 10
31.298874
 20
35.759093
 30
0.0
 10
31.279174
 20
35.357193
 30
0.0
 10
31.223774
 20
34.755593
 30
0.0
 10
31.146574
 20
35.072793
 30
0.0
 10
31.071974
 20
35.580393
 30
0.0
 10
30.593774
 20
35.521893
 30
0.0
 10
30.272674
 20
35.364293
 30
0.0
 10
30.131274
 20
35.153693
 30
0.0
 10
30.149474
 20
34.861493
 30
0.0
 10
30.318174
 20
34.672293
 30
0.0
 10
30.560574
 20
34.629393
 30
0.0
 10
30.800174
 20
34.776093
 30
0.0
 10
30.873374
 20
34.932893
 30
0.0
 10
30.765774
 20
35.094693
 30
0.0
 10
30.614174
 20
35.196793
 30
0.0
 10
30.515374
 20
35.022393
 30
0.0
 10
30.361274
 20
34.895193
 30
0.0
 10
30.371374
 20
35.189793
 30
0.0
 10
30.683574
 20
35.302493
 30
0.0
 10
30.973174
 20
35.070893
 30
0.0
 10
30.808674
 20
34.682293
 30
0.0
 10
30.362874
 20
34.547593
 30
0.0
 10
29.990874
 20
34.878393
 30
0.0
 10
29.729874
 20
35.137593
 30
0.0
 10
29.593774
 20
34.906393
 30
0.0
 10
29.733574
 20
34.470293
 30
0.0
 10
30.127574
 20
34.165693
 30
0.0
 10
30.313474
 20
34.062893
 30
0.0
 10
30.263374
 20
34.023593
 30
0.0
 10
29.837874
 20
34.164893
 30
0.0
 10
29.533774
 20
34.578793
 30
0.0
 10
29.344575
 20
34.894093
 30
0.0
 10
29.092775
 20
34.822493
 30
0.0
 10
28.995875
 20
34.710693
 30
0.0
 10
29.066675
 20
34.548493
 30
0.0
 10
29.445575
 20
33.877393
 30
0.0
 10
29.593774
 20
33.338693
 30
0.0
 10
29.190775
 20
32.487793
 30
0.0
 10
28.787875
 20
31.925093
 30
0.0
 10
28.449075
 20
32.124993
 30
0.0
 10
28.110175
 20
32.324993
 30
0.0
 10
28.043375
 20
33.497893
 30
0.0
 10
27.952075
 20
34.765593
 30
0.0
 10
27.168375
 20
33.857793
 30
0.0
 10
26.461675
 20
32.993293
 30
0.0
 10
26.047775
 20
32.897393
 30
0.0
 10
25.686475
 20
32.939593
 30
0.0
 10
25.686975
 20
33.554793
 30
0.0
 10
25.733175
 20
34.110393
 30
0.0
 10
25.892175
 20
34.509193
 30
0.0
 10
26.195675
 20
34.798293
 30
0.0
 10
26.675275
 20
35.024793
 30
0.0
 10
27.172075
 20
35.245293
 30
0.0
 10
27.170175
 20
35.474393
 30
0.0
 10
27.064975
 20
35.705193
 30
0.0
 10
26.751475
 20
35.513993
 30
0.0
 10
26.230675
 20
35.332793
 30
0.0
 10
25.786775
 20
35.420993
 30
0.0
 10
25.748575
 20
35.492693
 30
0.0
 10
25.987075
 20
35.504693
 30
0.0
 10
26.571975
 20
35.575393
 30
0.0
 10
26.843475
 20
35.838193
 30
0.0
 10
26.812775
 20
36.136493
 30
0.0
 10
26.591775
 20
36.077693
 30
0.0
 10
26.149875
 20
35.920993
 30
0.0
 10
25.764975
 20
36.181393
 30
0.0
 10
25.750275
 20
36.601193
 30
0.0
 10
26.098175
 20
36.774793
 30
0.0
 10
26.287975
 20
36.724393
 30
0.0
 10
26.337775
 20
36.532693
 30
0.0
 10
26.187475
 20
36.240893
 30
0.0
 10
26.090275
 20
36.229893
 30
0.0
 10
26.161575
 20
36.341893
 30
0.0
 10
26.218275
 20
36.548693
 30
0.0
 10
25.970475
 20
36.624493
 30
0.0
 10
25.793975
 20
36.498493
 30
0.0
 10
25.918575
 20
36.181893
 30
0.0
 10
26.221075
 20
36.042593
 30
0.0
 10
26.521475
 20
36.240193
 30
0.0
 10
26.449775
 20
36.807493
 30
0.0
 10
26.131075
 20
37.225593
 30
0.0
 10
25.745575
 20
36.917393
 30
0.0
 10
25.486175
 20
36.756493
 30
0.0
 10
25.785275
 20
37.223993
 30
0.0
 10
26.016875
 20
37.533992
 30
0.0
 10
25.950675
 20
37.799192
 30
0.0
 10
25.817075
 20
38.054192
 30
0.0
 10
25.651575
 20
37.817992
 30
0.0
 10
25.486175
 20
37.685092
 30
0.0
 10
25.627375
 20
37.981492
 30
0.0
 10
25.666675
 20
38.364792
 30
0.0
 10
25.565675
 20
38.491792
 30
0.0
 10
25.467275
 20
38.416292
 30
0.0
 10
25.406475
 20
38.373492
 30
0.0
 10
25.428675
 20
38.548192
 30
0.0
 10
25.331875
 20
39.136192
 30
0.0
 10
25.082075
 20
39.529892
 30
0.0
 10
24.851875
 20
39.103192
 30
0.0
 10
24.752375
 20
38.504992
 30
0.0
 10
24.770575
 20
38.355092
 30
0.0
 10
24.698775
 20
38.424992
 30
0.0
 10
24.590675
 20
38.494292
 30
0.0
 10
24.521475
 20
38.397992
 30
0.0
 10
24.571375
 20
37.965892
 30
0.0
 10
24.677975
 20
37.655392
 30
0.0
 10
24.514775
 20
37.824492
 30
0.0
 10
24.344675
 20
38.067092
 30
0.0
 10
24.231075
 20
37.789092
 30
0.0
 10
24.183375
 20
37.506792
 30
0.0
 10
24.401075
 20
37.207393
 30
0.0
 10
24.684675
 20
36.756493
 30
0.0
 10
24.425275
 20
36.917293
 30
0.0
 10
24.039775
 20
37.225593
 30
0.0
 10
23.721075
 20
36.807493
 30
0.0
 10
23.649376
 20
36.240193
 30
0.0
 10
23.925375
 20
36.045693
 30
0.0
 10
24.238675
 20
36.127493
 30
0.0
 10
24.381575
 20
36.441193
 30
0.0
 10
24.200375
 20
36.624493
 30
0.0
 10
23.952575
 20
36.548593
 30
0.0
 10
24.009275
 20
36.341893
 30
0.0
 10
24.080575
 20
36.229793
 30
0.0
 10
23.983375
 20
36.240793
 30
0.0
 10
23.833075
 20
36.532593
 30
0.0
 10
23.882875
 20
36.724393
 30
0.0
 10
24.072575
 20
36.774793
 30
0.0
 10
24.420475
 20
36.601193
 30
0.0
 10
24.405875
 20
36.181393
 30
0.0
 10
24.020975
 20
35.920993
 30
0.0
 10
23.579076
 20
36.077693
 30
0.0
 10
23.357976
 20
36.136393
 30
0.0
 10
23.327276
 20
35.838193
 30
0.0
 10
23.598876
 20
35.575293
 30
0.0
 10
24.183675
 20
35.504693
 30
0.0
 10
24.422275
 20
35.492693
 30
0.0
 10
24.384075
 20
35.420993
 30
0.0
 10
23.938475
 20
35.333093
 30
0.0
 10
23.412576
 20
35.518093
 30
0.0
 10
23.124376
 20
35.662893
 30
0.0
 10
23.026876
 20
35.507693
 30
0.0
 10
23.062476
 20
35.231393
 30
0.0
 10
23.616176
 20
34.976393
 30
0.0
 10
24.024775
 20
34.768893
 30
0.0
 10
24.292575
 20
34.482393
 30
0.0
 10
24.483875
 20
33.543793
 30
0.0
 10
24.484275
 20
32.917593
 30
0.0
 10
24.147975
 20
32.917593
 30
0.0
 10
23.748875
 20
33.069393
 30
0.0
 10
23.075876
 20
33.883893
 30
0.0
 10
22.317176
 20
34.760493
 30
0.0
 10
22.228776
 20
33.515693
 30
0.0
 10
22.134176
 20
32.490193
 30
0.0
 10
21.876776
 20
32.196193
 30
0.0
 10
21.593676
 20
32.097293
 30
0.0
 10
21.329076
 20
32.374593
 30
0.0
 10
20.921176
 20
33.067893
 30
0.0
 10
20.824976
 20
33.419493
 30
0.0
 10
20.923576
 20
33.774993
 30
0.0
 10
21.292476
 20
34.440293
 30
0.0
 10
21.457176
 20
34.725993
 30
0.0
 10
21.323576
 20
34.887093
 30
0.0
 10
21.140476
 20
34.951693
 30
0.0
 10
20.981076
 20
34.706593
 30
0.0
 10
20.576676
 20
34.209593
 30
0.0
 10
20.161576
 20
34.045993
 30
0.0
 10
20.296276
 20
34.203593
 30
0.0
 10
20.715176
 20
34.548693
 30
0.0
 10
20.860776
 20
34.983193
 30
0.0
 10
20.716776
 20
35.182993
 30
0.0
 10
20.525776
 20
35.005993
 30
0.0
 10
20.212476
 20
34.650193
 30
0.0
 10
19.986376
 20
34.574693
 30
0.0
 10
19.711576
 20
34.760193
 30
0.0
 10
19.500776
 20
34.996393
 30
0.0
 10
19.535276
 20
35.190793
 30
0.0
 10
19.862376
 20
35.400993
 30
0.0
 10
20.139876
 20
35.272293
 30
0.0
 10
20.089376
 20
34.994693
 30
0.0
 10
20.000876
 20
34.943893
 30
0.0
 10
19.975876
 20
35.051593
 30
0.0
 10
19.842276
 20
35.221893
 30
0.0
 10
19.642376
 20
35.140893
 30
0.0
 10
19.682376
 20
34.908093
 30
0.0
 10
19.871676
 20
34.738293
 30
0.0
 10
20.101376
 20
34.746093
 30
0.0
 10
20.295076
 20
34.901993
 30
0.0
 10
20.376576
 20
35.176593
 30
0.0
 10
20.283776
 20
35.383893
 30
0.0
 10
19.974876
 20
35.572993
 30
0.0
 10
19.539176
 20
35.679793
 30
0.0
 10
19.298976
 20
35.289793
 30
0.0
 10
19.194376
 20
35.074493
 30
0.0
 10
19.211876
 20
35.449993
 30
0.0
 10
19.203576
 20
35.867393
 30
0.0
 10
19.037176
 20
36.078993
 30
0.0
 10
18.845776
 20
36.160893
 30
0.0
 10
18.764576
 20
35.900893
 30
0.0
 10
18.705376
 20
35.572493
 30
0.0
 10
18.627476
 20
35.992093
 30
0.0
 10
18.399276
 20
36.469393
 30
0.0
 10
18.290576
 20
36.458593
 30
0.0
 10
18.301376
 20
36.252093
 30
0.0
 10
18.325076
 20
36.046993
 30
0.0
 10
18.213176
 20
36.169593
 30
0.0
 10
18.072376
 20
36.485193
 30
0.0
 10
17.323077
 20
37.025193
 30
0.0
 10
17.333277
 20
36.605293
 30
0.0
 10
17.653677
 20
35.973293
 30
0.0
 10
17.799677
 20
35.797793
 30
0.0
 10
17.776077
 20
35.797893
 30
0.0
 10
17.546077
 20
35.913893
 30
0.0
 10
17.471277
 20
35.722793
 30
0.0
 10
17.610377
 20
35.522393
 30
0.0
 10
17.986076
 20
35.320393
 30
0.0
 10
18.222676
 20
35.118393
 30
0.0
 10
17.946676
 20
35.236493
 30
0.0
 10
17.628877
 20
35.292093
 30
0.0
 10
17.627477
 20
34.983193
 30
0.0
 10
17.741977
 20
34.772093
 30
0.0
 10
18.008076
 20
34.720393
 30
0.0
 10
18.623376
 20
34.462393
 30
0.0
 10
18.795776
 20
34.301893
 30
0.0
 10
18.676176
 20
34.362693
 30
0.0
 10
18.039376
 20
34.520593
 30
0.0
 10
17.739177
 20
34.489193
 30
0.0
 10
17.710977
 20
34.362093
 30
0.0
 10
17.771777
 20
33.914793
 30
0.0
 10
17.959676
 20
33.521893
 30
0.0
 10
18.372876
 20
33.518693
 30
0.0
 10
18.536476
 20
33.711393
 30
0.0
 10
18.545876
 20
33.951493
 30
0.0
 10
18.428076
 20
34.133393
 30
0.0
 10
18.210376
 20
34.151393
 30
0.0
 10
18.077476
 20
33.962093
 30
0.0
 10
18.247676
 20
33.788093
 30
0.0
 10
18.333476
 20
33.749893
 30
0.0
 10
18.194476
 20
33.730693
 30
0.0
 10
17.916476
 20
33.868093
 30
0.0
 10
17.977276
 20
34.175993
 30
0.0
 10
18.327476
 20
34.290493
 30
0.0
 10
18.617476
 20
33.989293
 30
0.0
 10
18.602476
 20
33.537293
 30
0.0
 10
18.181476
 20
33.336593
 30
0.0
 10
17.938476
 20
33.274593
 30
0.0
 10
17.894376
 20
33.136193
 30
0.0
 10
18.035276
 20
32.998893
 30
0.0
 10
18.317876
 20
32.974093
 30
0.0
 10
18.948876
 20
33.229993
 30
0.0
 10
19.215376
 20
33.468593
 30
0.0
 10
19.058776
 20
33.218193
 30
0.0
 10
18.649576
 20
32.841193
 30
0.0
 10
18.141176
 20
32.763493
 30
0.0
 10
17.916076
 20
32.770293
 30
0.0
 10
17.928176
 20
32.590793
 30
0.0
 10
18.069076
 20
32.328293
 30
0.0
 10
18.458976
 20
32.400593
 30
0.0
 10
19.327076
 20
32.510693
 30
0.0
 10
19.921776
 20
32.163593
 30
0.0
 10
20.380076
 20
31.558694
 30
0.0
 10
20.451676
 20
31.305194
 30
0.0
 10
20.251576
 20
31.043894
 30
0.0
 10
19.988476
 20
30.780794
 30
0.0
 10
18.978376
 20
31.197994
 30
0.0
 10
17.861177
 20
31.615193
 30
0.0
 10
18.313976
 20
30.566794
 30
0.0
 10
18.755576
 20
29.670294
 30
0.0
 10
18.870276
 20
29.195294
 30
0.0
 10
18.647076
 20
29.083094
 30
0.0
 10
18.075276
 20
29.275494
 30
0.0
 10
17.349377
 20
29.785994
 30
0.0
 10
17.170677
 20
30.658494
 30
0.0
 10
17.134877
 20
31.130894
 30
0.0
 10
16.932477
 20
31.214494
 30
0.0
 10
16.737877
 20
31.149594
 30
0.0
 10
16.742477
 20
30.787494
 30
0.0
 10
16.737277
 20
30.397194
 30
0.0
 10
16.580477
 20
30.111194
 30
0.0
 10
16.370277
 20
29.861894
 30
0.0
 10
16.526777
 20
30.250594
 30
0.0
 10
16.629277
 20
30.619494
 30
0.0
 10
16.564177
 20
30.926894
 30
0.0
 10
16.361477
 20
31.193594
 30
0.0
 10
16.138977
 20
31.151194
 30
0.0
 10
16.182677
 20
30.887994
 30
0.0
 10
16.178577
 20
30.444394
 30
0.0
 10
16.018777
 20
30.251294
 30
0.0
 10
15.692377
 20
30.231594
 30
0.0
 10
15.376177
 20
30.304994
 30
0.0
 10
15.317277
 20
30.563194
 30
0.0
 10
15.363077
 20
30.808494
 30
0.0
 10
15.566377
 20
30.863794
 30
0.0
 10
15.762077
 20
30.816094
 30
0.0
 10
15.840077
 20
30.663394
 30
0.0
 10
15.808077
 20
30.588294
 30
0.0
 10
15.548377
 20
30.715694
 30
0.0
 10
15.386377
 20
30.538194
 30
0.0
 10
15.719377
 20
30.362894
 30
0.0
 10
15.967377
 20
30.412094
 30
0.0
 10
16.048677
 20
30.621894
 30
0.0
 10
15.914677
 20
31.006194
 30
0.0
 10
15.378577
 20
31.054294
 30
0.0
 10
15.045077
 20
30.958294
 30
0.0
 10
14.966577
 20
30.764294
 30
0.0
 10
15.184277
 20
30.263394
 30
0.0
 10
15.402077
 20
29.986594
 30
0.0
 10
15.179877
 20
30.105494
 30
0.0
 10
14.793377
 20
30.569094
 30
0.0
 10
14.604077
 20
30.844594
 30
0.0
 10
14.340977
 20
30.913894
 30
0.0
 10
14.116777
 20
30.837294
 30
0.0
 10
14.353577
 20
30.463094
 30
0.0
 10
14.361277
 20
30.417194
 30
0.0
 10
14.158177
 20
30.588294
 30
0.0
 10
13.618877
 20
30.913894
 30
0.0
 10
13.483377
 20
30.886294
 30
0.0
 10
13.614077
 20
30.713494
 30
0.0
 10
13.702177
 20
30.522394
 30
0.0
 10
13.419577
 20
30.666594
 30
0.0
 10
12.817977
 20
30.809994
 30
0.0
 10
12.361777
 20
30.744094
 30
0.0
 10
12.680077
 20
30.350994
 30
0.0
 10
13.206977
 20
30.100794
 30
0.0
 10
13.338577
 20
30.043394
 30
0.0
 10
13.163177
 20
29.910594
 30
0.0
 10
13.333477
 20
29.734494
 30
0.0
 10
13.811577
 20
29.687794
 30
0.0
 10
14.215177
 20
29.703294
 30
0.0
 10
13.874177
 20
29.600394
 30
0.0
 10
13.601677
 20
29.485694
 30
0.0
 10
13.729577
 20
29.301094
 30
0.0
 10
13.951377
 20
29.156594
 30
0.0
 10
14.292777
 20
29.257894
 30
0.0
 10
14.838077
 20
29.407194
 30
0.0
 10
14.865877
 20
29.361194
 30
0.0
 10
14.669177
 20
29.252594
 30
0.0
 10
14.261177
 20
28.961394
 30
0.0
 10
14.435677
 20
28.541994
 30
0.0
 10
14.896677
 20
28.216494
 30
0.0
 10
15.262077
 20
28.399994
 30
0.0
 10
15.303177
 20
28.598494
 30
0.0
 10
15.181677
 20
28.816594
 30
0.0
 10
14.882577
 20
28.970294
 30
0.0
 10
14.770877
 20
28.748994
 30
0.0
 10
14.936477
 20
28.609594
 30
0.0
 10
15.003377
 20
28.506194
 30
0.0
 10
14.713377
 20
28.475794
 30
0.0
 10
14.585477
 20
28.797794
 30
0.0
 10
14.663077
 20
29.007094
 30
0.0
 10
14.849577
 20
29.093594
 30
0.0
 10
15.258377
 20
28.960094
 30
0.0
 10
15.464277
 20
28.619194
 30
0.0
 10
15.325277
 20
28.285694
 30
0.0
 10
15.072377
 20
28.108694
 30
0.0
 10
14.995777
 20
27.981194
 30
0.0
 10
15.207677
 20
27.824394
 30
0.0
 10
15.581477
 20
27.979394
 30
0.0
 10
15.860677
 20
28.451194
 30
0.0
 10
15.950277
 20
28.759894
 30
0.0
 10
15.959277
 20
28.444694
 30
0.0
 10
15.893077
 20
28.132894
 30
0.0
 10
15.627477
 20
27.830194
 30
0.0
 10
15.365577
 20
27.553094
 30
0.0
 10
15.445277
 20
27.372294
 30
0.0
 10
15.651877
 20
27.314794
 30
0.0
 10
16.066077
 20
27.695694
 30
0.0
 10
16.802577
 20
28.212694
 30
0.0
 10
17.692677
 20
28.077094
 30
0.0
 10
18.191176
 20
27.853394
 30
0.0
 10
18.215276
 20
27.561594
 30
0.0
 10
18.086776
 20
27.193294
 30
0.0
 10
16.995277
 20
26.796294
 30
0.0
 10
15.968377
 20
26.400794
 30
0.0
 10
16.995277
 20
25.933894
 30
0.0
 10
18.022176
 20
25.529395
 30
0.0
 10
18.052276
 20
25.129095
 30
0.0
 10
18.021276
 20
24.765295
 30
0.0
 10
17.632277
 20
24.615395
 30
0.0
 10
16.997277
 20
24.502195
 30
0.0
 10
16.526077
 20
24.563495
 30
0.0
 10
16.123877
 20
24.835295
 30
0.0
 10
15.696477
 20
25.353595
 30
0.0
 10
15.484577
 20
25.587595
 30
0.0
 10
15.298177
 20
25.473195
 30
0.0
 10
15.168177
 20
25.303895
 30
0.0
 10
15.292077
 20
25.192695
 30
0.0
 10
15.708977
 20
24.573495
 30
0.0
 10
15.766577
 20
24.244295
 30
0.0
 10
15.657077
 20
24.101295
 30
0.0
 10
15.596277
 20
24.231795
 30
0.0
 10
15.500077
 20
24.695495
 30
0.0
 10
15.165677
 20
25.053495
 30
0.0
 10
14.827577
 20
25.011295
 30
0.0
 10
14.945577
 20
24.745895
 30
0.0
 10
15.175877
 20
24.291395
 30
0.0
 10
14.859777
 20
23.898195
 30
0.0
 10
14.577477
 20
23.823195
 30
0.0
 10
14.385577
 20
23.937995
 30
0.0
 10
14.276877
 20
24.106395
 30
0.0
 10
14.327977
 20
24.278495
 30
0.0
 10
14.607777
 20
24.446695
 30
0.0
 10
14.838677
 20
24.334595
 30
0.0
 10
14.671677
 20
24.271195
 30
0.0
 10
14.465577
 20
24.168995
 30
0.0
 10
14.577277
 20
23.953495
 30
0.0
 10
14.864277
 20
23.999995
 30
0.0
 10
15.036977
 20
24.189395
 30
0.0
 10
15.042177
 20
24.421995
 30
0.0
 10
14.904277
 20
24.619195
 30
0.0
 10
14.647477
 20
24.702395
 30
0.0
 10
14.141577
 20
24.401195
 30
0.0
 10
13.814377
 20
24.099995
 30
0.0
 10
14.027877
 20
23.925295
 30
0.0
 10
14.428677
 20
23.631495
 30
0.0
 10
14.515477
 20
23.552495
 30
0.0
 10
14.280577
 20
23.602195
 30
0.0
 10
13.812577
 20
23.802295
 30
0.0
 10
13.471577
 20
23.782395
 30
0.0
 10
13.278077
 20
23.579495
 30
0.0
 10
13.538877
 20
23.407595
 30
0.0
 10
13.705777
 20
23.323495
 30
0.0
 10
13.400277
 20
23.348495
 30
0.0
 10
12.868477
 20
23.256795
 30
0.0
 10
12.819677
 20
23.134195
 30
0.0
 10
12.981977
 20
23.070695
 30
0.0
 10
13.070477
 20
23.033995
 30
0.0
 10
12.856277
 20
23.012895
 30
0.0
 10
12.517077
 20
22.933595
 30
0.0
 10
12.217977
 20
22.705495
 30
0.0
 10
11.936578
 20
22.411795
 30
0.0
 10
12.310577
 20
22.341595
 30
0.0
 10
13.049077
 20
22.437195
 30
0.0
 10
13.413677
 20
22.602795
 30
0.0
 10
13.177177
 20
22.400295
 30
0.0
 10
12.940577
 20
22.197795
 30
0.0
 10
13.196277
 20
22.197795
 30
0.0
 10
13.513477
 20
22.297395
 30
0.0
 10
13.794877
 20
22.512395
 30
0.0
 10
14.014777
 20
22.627695
 30
0.0
 10
13.818377
 20
22.406595
 30
0.0
 10
13.683777
 20
22.208695
 30
0.0
 10
13.768277
 20
22.092995
 30
0.0
 10
14.073377
 20
22.024295
 30
0.0
 10
14.347577
 20
22.340295
 30
0.0
 10
14.779777
 20
22.806195
 30
0.0
 10
14.935177
 20
22.862895
 30
0.0
 10
14.737677
 20
22.605895
 30
0.0
 10
14.469977
 20
22.070795
 30
0.0
 10
14.925177
 20
21.840595
 30
0.0
 10
15.514677
 20
21.900395
 30
0.0
 10
15.635677
 20
22.053195
 30
0.0
 10
15.624177
 20
22.277495
 30
0.0
 10
15.476077
 20
22.477095
 30
0.0
 10
15.254977
 20
22.560695
 30
0.0
 10
15.054177
 20
22.519195
 30
0.0
 10
14.966477
 20
22.343295
 30
0.0
 10
15.084177
 20
22.142395
 30
0.0
 10
15.276777
 20
22.209995
 30
0.0
 10
15.347177
 20
22.288095
 30
0.0
 10
15.365777
 20
22.183495
 30
0.0
 10
15.211577
 20
21.965795
 30
0.0
 10
14.919377
 20
22.058895
 30
0.0
 10
14.775077
 20
22.360995
 30
0.0
 10
14.975877
 20
22.603495
 30
0.0
 10
15.333577
 20
22.666595
 30
0.0
 10
15.620977
 20
22.514895
 30
0.0
 10
15.761877
 20
22.226495
 30
0.0
 10
15.680177
 20
21.879795
 30
0.0
 10
15.637877
 20
21.709795
 30
0.0
 10
15.722477
 20
21.616695
 30
0.0
 10
16.032977
 20
21.749795
 30
0.0
 10
16.164777
 20
22.246495
 30
0.0
 10
16.068577
 20
22.648595
 30
0.0
 10
15.968377
 20
22.826295
 30
0.0
 10
16.135977
 20
22.774395
 30
0.0
 10
16.301977
 20
22.316795
 30
0.0
 10
16.235377
 20
21.721895
 30
0.0
 10
16.212777
 20
21.536395
 30
0.0
 10
16.400077
 20
21.496495
 30
0.0
 10
16.613877
 20
21.582995
 30
0.0
 10
16.690877
 20
22.051695
 30
0.0
 10
16.946177
 20
22.871995
 30
0.0
 10
17.630477
 20
23.316795
 30
0.0
 10
18.281576
 20
23.492195
 30
0.0
 10
18.535776
 20
23.276095
 30
0.0
 10
18.673376
 20
22.860195
 30
0.0
 10
18.021876
 20
21.896795
 30
0.0
 10
17.402077
 20
21.031195
 30
0.0
 10
18.506376
 20
21.215695
 30
0.0
 10
19.578676
 20
21.431995
 30
0.0
 10
19.927576
 20
21.093995
 30
0.0
 10
20.276376
 20
20.671095
 30
0.0
 10
19.906176
 20
20.095495
 30
0.0
 10
19.335976
 20
19.580796
 30
0.0
 10
18.865676
 20
19.515796
 30
0.0
 10
17.874277
 20
19.708696
 30
0.0
 10
17.691977
 20
19.517796
 30
0.0
 10
17.714777
 20
19.335596
 30
0.0
 10
17.921576
 20
19.292396
 30
0.0
 10
18.381976
 20
19.182096
 30
0.0
 10
18.745376
 20
18.900396
 30
0.0
 10
18.861476
 20
18.654596
 30
0.0
 10
18.604676
 20
18.832896
 30
0.0
 10
17.995376
 20
19.086596
 30
0.0
 10
17.725577
 20
19.031096
 30
0.0
 10
17.587077
 20
18.851996
 30
0.0
 10
17.595077
 20
18.718296
 30
0.0
 10
17.712677
 20
18.724096
 30
0.0
 10
18.110076
 20
18.674496
 30
0.0
 10
18.414676
 20
18.426096
 30
0.0
 10
18.351676
 20
18.042196
 30
0.0
 10
18.090376
 20
17.741196
 30
0.0
 10
17.731477
 20
17.885496
 30
0.0
 10
17.582477
 20
18.084696
 30
0.0
 10
17.699077
 20
18.260796
 30
0.0
 10
17.859977
 20
18.371696
 30
0.0
 10
17.991376
 20
18.311296
 30
0.0
 10
18.050276
 20
18.215396
 30
0.0
 10
17.933676
 20
18.190396
 30
0.0
 10
17.796777
 20
18.065096
 30
0.0
 10
18.030476
 20
17.939896
 30
0.0
 10
18.184376
 20
18.004496
 30
0.0
 10
18.253876
 20
18.211896
 30
0.0
 10
18.227976
 20
18.444296
 30
0.0
 10
18.019976
 20
18.550496
 30
0.0
 10
17.622477
 20
18.468996
 30
0.0
 10
17.454377
 20
17.939896
 30
0.0
 10
17.467577
 20
17.595796
 30
0.0
 10
17.691577
 20
17.507996
 30
0.0
 10
18.192576
 20
17.599496
 30
0.0
 10
18.363676
 20
17.675896
 30
0.0
 10
18.288876
 20
17.559696
 30
0.0
 10
17.737877
 20
17.315296
 30
0.0
 10
17.390577
 20
17.198796
 30
0.0
 10
17.289177
 20
16.960396
 30
0.0
 10
17.302777
 20
16.740996
 30
0.0
 10
17.539577
 20
16.785296
 30
0.0
 10
17.735577
 20
16.842896
 30
0.0
 10
17.630177
 20
16.760296
 30
0.0
 10
17.070377
 20
16.175196
 30
0.0
 10
17.345877
 20
16.238596
 30
0.0
 10
17.543877
 20
16.346096
 30
0.0
 10
17.307777
 20
16.074796
 30
0.0
 10
16.927377
 20
15.359596
 30
0.0
 10
16.860777
 20
14.983296
 30
0.0
 10
17.225477
 20
15.157196
 30
0.0
 10
17.784277
 20
15.683796
 30
0.0
 10
17.904776
 20
15.868896
 30
0.0
 10
17.918376
 20
15.810996
 30
0.0
 10
17.901076
 20
15.602796
 30
0.0
 10
18.114176
 20
15.646396
 30
0.0
 10
18.274176
 20
15.971996
 30
0.0
 10
18.380376
 20
16.387096
 30
0.0
 10
18.447776
 20
16.432096
 30
0.0
 10
18.420976
 20
16.211696
 30
0.0
 10
18.445176
 20
15.901396
 30
0.0
 10
18.749876
 20
15.994596
 30
0.0
 10
18.882776
 20
16.189796
 30
0.0
 10
18.903776
 20
16.620796
 30
0.0
 10
18.883676
 20
17.138396
 30
0.0
 10
18.984776
 20
16.712696
 30
0.0
 10
19.255376
 20
16.287296
 30
0.0
 10
19.769876
 20
16.503796
 30
0.0
 10
20.075976
 20
16.866496
 30
0.0
 10
20.000276
 20
17.113596
 30
0.0
 10
19.815276
 20
17.256496
 30
0.0
 10
19.584176
 20
17.270996
 30
0.0
 10
19.370476
 20
17.133396
 30
0.0
 10
19.297276
 20
16.976596
 30
0.0
 10
19.404876
 20
16.814796
 30
0.0
 10
19.556476
 20
16.712696
 30
0.0
 10
19.655276
 20
16.887096
 30
0.0
 10
19.809376
 20
17.014296
 30
0.0
 10
19.810376
 20
16.744496
 30
0.0
 10
19.622576
 20
16.587396
 30
0.0
 10
19.343176
 20
16.645396
 30
0.0
 10
19.197976
 20
16.795596
 30
0.0
 10
19.200976
 20
17.002696
 30
0.0
 10
19.366376
 20
17.231196
 30
0.0
 10
19.811776
 20
17.362096
 30
0.0
 10
20.178976
 20
17.011496
 30
0.0
 10
20.326476
 20
16.776496
 30
0.0
 10
20.454976
 20
16.806196
 30
0.0
 10
20.556576
 20
17.041796
 30
0.0
 10
20.492376
 20
17.320596
 30
0.0
 10
19.983676
 20
17.768696
 30
0.0
 10
19.840476
 20
17.918196
 30
0.0
 10
20.288376
 20
17.764796
 30
0.0
 10
20.641976
 20
17.288696
 30
0.0
 10
20.784376
 20
17.010596
 30
0.0
 10
21.061376
 20
17.076096
 30
0.0
 10
21.105276
 20
17.255096
 30
0.0
 10
20.886076
 20
17.708796
 30
0.0
 10
20.576876
 20
18.548296
 30
0.0
 10
20.912776
 20
19.321096
 30
0.0
 10
21.365576
 20
19.893196
 30
0.0
 10
21.754076
 20
19.694296
 30
0.0
 10
22.037176
 20
19.424696
 30
0.0
 10
22.088476
 20
18.767896
 30
0.0
 10
22.163576
 20
17.546296
 30
0.0
 10
22.229976
 20
17.052596
 30
0.0
 10
22.965176
 20
18.031596
 30
0.0
 10
23.604876
 20
18.819596
 30
0.0
 10
23.916975
 20
18.952496
 30
0.0
 10
24.308775
 20
18.893096
 30
0.0
 10
24.450775
 20
18.790096
 30
0.0
 10
24.484075
 20
18.355596
 30
0.0
 10
24.426675
 20
17.721796
 30
0.0
 10
24.229175
 20
17.267896
 30
0.0
 10
23.853575
 20
16.942396
 30
0.0
 10
23.261776
 20
16.693596
 30
0.0
 10
22.964076
 20
16.556596
 30
0.0
 10
23.000576
 20
16.334796
 30
0.0
 10
23.110076
 20
16.094396
 30
0.0
 10
23.359776
 20
16.290796
 30
0.0
 10
23.882675
 20
16.477896
 30
0.0
 10
24.383975
 20
16.379396
 30
0.0
 10
24.431175
 20
16.311496
 30
0.0
 10
24.215875
 20
16.337196
 30
0.0
 10
23.598676
 20
16.244396
 30
0.0
 10
23.281876
 20
15.889496
 30
0.0
 10
23.371076
 20
15.647796
 30
0.0
 10
23.513676
 20
15.723196
 30
0.0
 10
23.858475
 20
15.914696
 30
0.0
 10
24.295375
 20
15.774296
 30
0.0
 10
24.458775
 20
15.489196
 30
0.0
 10
24.438775
 20
15.218496
 30
0.0
 10
24.268875
 20
15.040896
 30
0.0
 10
23.982175
 20
15.034896
 30
0.0
 10
23.800175
 20
15.300996
 30
0.0
 10
23.983275
 20
15.568996
 30
0.0
 10
24.082075
 20
15.579696
 30
0.0
 10
23.996975
 20
15.452796
 30
0.0
 10
23.915075
 20
15.305396
 30
0.0
 10
24.028775
 20
15.222796
 30
0.0
 10
24.317975
 20
15.276096
 30
0.0
 10
24.321375
 20
15.563296
 30
0.0
 10
24.010375
 20
15.760296
 30
0.0
 10
23.687775
 20
15.641796
 30
0.0
 10
23.623676
 20
15.259896
 30
0.0
 10
23.869175
 20
14.776396
 30
0.0
 10
24.058175
 20
14.542996
 30
0.0
 10
24.371375
 20
14.856196
 30
0.0
 10
24.676375
 20
15.072396
 30
0.0
 10
24.396775
 20
14.662296
 30
0.0
 10
24.185375
 20
14.354496
 30
0.0
 10
24.193175
 20
14.107797
 30
0.0
 10
24.341375
 20
13.894397
 30
0.0
 10
24.556475
 20
14.057797
 30
0.0
 10
24.668675
 20
14.176897
 30
0.0
 10
24.629775
 20
14.032697
 30
0.0
 10
24.508175
 20
13.557597
 30
0.0
 10
24.574975
 20
13.337297
 30
0.0
 10
24.684575
 20
13.419797
 30
0.0
 10
24.778275
 20
13.627997
 30
0.0
 10
24.776375
 20
13.358397
 30
0.0
 10
24.848175
 20
12.655197
 30
0.0
 10
25.081875
 20
12.279497
 30
0.0
 10
25.292075
 20
12.650097
 30
0.0
  0
LWPOLYLINE
  5
11d
100
AcDbEntity
  8
Layer_1
 62
7
100
AcDbPolyline
 90
80
 70
1
 10
26.207375
 20
20.653695
 30
0.0
 10
25.351575
 20
21.304895
 30
0.0
 10
24.760775
 20
21.696795
 30
0.0
 10
23.765875
 20
21.939195
 30
0.0
 10
22.759776
 20
22.446995
 30
0.0
 10
22.070276
 20
23.077195
 30
0.0
 10
21.547176
 20
23.820195
 30
0.0
 10
21.200576
 20
24.657595
 30
0.0
 10
21.040576
 20
25.571295
 30
0.0
 10
20.994676
 20
26.254894
 30
0.0
 10
20.687776
 20
26.222694
 30
0.0
 10
20.380776
 20
26.190494
 30
0.0
 10
20.530376
 20
26.548494
 30
0.0
 10
20.630076
 20
26.854394
 30
0.0
 10
20.486476
 20
26.906494
 30
0.0
 10
20.135076
 20
26.966994
 30
0.0
 10
20.040176
 20
27.067394
 30
0.0
 10
20.185476
 20
27.319994
 30
0.0
 10
20.393576
 20
27.612294
 30
0.0
 10
20.084576
 20
27.719994
 30
0.0
 10
19.792376
 20
27.904394
 30
0.0
 10
20.036276
 20
28.156194
 30
0.0
 10
20.296876
 20
28.326994
 30
0.0
 10
20.024076
 20
28.611694
 30
0.0
 10
19.751176
 20
28.896494
 30
0.0
 10
20.110776
 20
28.963994
 30
0.0
 10
20.470276
 20
29.031394
 30
0.0
 10
20.270376
 20
29.423294
 30
0.0
 10
20.070476
 20
29.815094
 30
0.0
 10
20.481176
 20
29.749394
 30
0.0
 10
20.891976
 20
29.683794
 30
0.0
 10
20.820676
 20
30.063694
 30
0.0
 10
20.836076
 20
30.396194
 30
0.0
 10
21.303476
 20
30.263294
 30
0.0
 10
21.446576
 20
30.270794
 30
0.0
 10
21.478776
 20
30.552494
 30
0.0
 10
21.559076
 20
30.893294
 30
0.0
 10
21.904676
 20
30.715194
 30
0.0
 10
22.157176
 20
30.516594
 30
0.0
 10
22.280976
 20
30.815394
 30
0.0
 10
22.449176
 20
31.094594
 30
0.0
 10
22.680976
 20
30.888994
 30
0.0
 10
22.863476
 20
30.663694
 30
0.0
 10
23.086176
 20
30.946794
 30
0.0
 10
23.308876
 20
31.229994
 30
0.0
 10
23.470976
 20
30.862594
 30
0.0
 10
23.633076
 20
30.495194
 30
0.0
 10
23.908375
 20
30.711794
 30
0.0
 10
24.169275
 20
30.834294
 30
0.0
 10
24.187675
 20
30.437994
 30
0.0
 10
24.296575
 20
30.221694
 30
0.0
 10
24.735075
 20
30.312894
 30
0.0
 10
24.944275
 20
30.364894
 30
0.0
 10
24.940175
 20
30.228294
 30
0.0
 10
25.016075
 20
30.057394
 30
0.0
 10
25.613175
 20
29.940694
 30
0.0
 10
27.042275
 20
29.497194
 30
0.0
 10
28.177075
 20
28.653894
 30
0.0
 10
28.944475
 20
27.487994
 30
0.0
 10
29.271475
 20
26.076894
 30
0.0
 10
29.354975
 20
25.348995
 30
0.0
 10
29.561574
 20
24.926095
 30
0.0
 10
30.173774
 20
23.646095
 30
0.0
 10
29.956974
 20
23.929895
 30
0.0
 10
29.497974
 20
24.474295
 30
0.0
 10
29.217875
 20
24.696995
 30
0.0
 10
28.886975
 20
24.023495
 30
0.0
 10
28.090175
 20
22.905695
 30
0.0
 10
27.109775
 20
22.156995
 30
0.0
 10
26.688375
 20
21.840795
 30
0.0
 10
27.012475
 20
21.448195
 30
0.0
 10
27.649275
 20
21.092695
 30
0.0
 10
28.530575
 20
21.027195
 30
0.0
 10
29.307475
 20
21.290795
 30
0.0
 10
29.646174
 20
21.458695
 30
0.0
 10
29.328175
 20
21.095895
 30
0.0
 10
28.465975
 20
20.556495
 30
0.0
 10
27.434475
 20
20.396595
 30
0.0
 10
26.765375
 20
20.447095
 30
0.0
 10
26.207375
 20
20.653695
 30
0.0
  0
LWPOLYLINE
  5
11e
100
AcDbEntity
  8
Layer_1
 62
7
100
AcDbPolyline
 90
29
 70
1
 10
24.816675
 20
22.222795
 30
0.0
 10
24.734775
 20
23.199595
 30
0.0
 10
24.885475
 20
24.231595
 30
0.0
 10
25.449775
 20
25.046795
 30
0.0
 10
26.159675
 20
25.591895
 30
0.0
 10
26.959575
 20
25.857594
 30
0.0
 10
27.850175
 20
25.843894
 30
0.0
 10
28.832375
 20
25.550995
 30
0.0
 10
28.986675
 20
25.581995
 30
0.0
 10
28.968675
 20
26.143994
 30
0.0
 10
28.766075
 20
27.096994
 30
0.0
 10
28.345275
 20
27.929094
 30
0.0
 10
27.744575
 20
28.619294
 30
0.0
 10
27.002075
 20
29.146694
 30
0.0
 10
26.156075
 20
29.490394
 30
0.0
 10
25.244775
 20
29.629294
 30
0.0
 10
24.306275
 20
29.542494
 30
0.0
 10
23.378976
 20
29.208994
 30
0.0
 10
22.447376
 20
28.494894
 30
0.0
 10
21.756276
 20
27.496994
 30
0.0
 10
21.377376
 20
26.358594
 30
0.0
 10
21.382576
 20
25.223195
 30
0.0
 10
21.724076
 20
24.185095
 30
0.0
 10
22.284676
 20
23.324395
 30
0.0
 10
23.054876
 20
22.652395
 30
0.0
 10
24.024775
 20
22.180095
 30
0.0
 10
24.729775
 20
22.001895
 30
0.0
 10
24.837675
 20
22.061795
 30
0.0
 10
24.816675
 20
22.222795
 30
0.0
  0
LWPOLYLINE
  5
11f
100
AcDbEntity
  8
Layer_1
 62
7
100
AcDbPolyline
 90
12
 70
1
 10
27.786675
 20
23.055595
 30
0.0
 10
28.496775
 20
23.988495
 30
0.0
 10
28.756575
 20
24.751095
 30
0.0
 10
28.253575
 20
24.898795
 30
0.0
 10
27.428175
 20
24.711095
 30
0.0
 10
26.875475
 20
24.308995
 30
0.0
 10
26.486975
 20
23.731895
 30
0.0
 10
26.308575
 20
23.079595
 30
0.0
 10
26.386375
 20
22.451995
 30
0.0
 10
26.485175
 20
22.192195
 30
0.0
 10
26.901575
 20
22.404595
 30
0.0
 10
27.786775
 20
23.055595
 30
0.0
  0
LWPOLYLINE
  5
120
100
AcDbEntity
  8
Layer_1
 62
7
100
AcDbPolyline
 90
28
 70
1
 10
45.148972
 20
14.313896
 30
0.0
 10
46.124072
 20
14.755496
 30
0.0
 10
46.942771
 20
15.319296
 30
0.0
 10
47.615671
 20
16.013896
 30
0.0
 10
48.153071
 20
16.848196
 30
0.0
 10
48.646671
 20
18.091096
 30
0.0
 10
48.813671
 20
19.317496
 30
0.0
 10
48.654271
 20
20.551095
 30
0.0
 10
48.168571
 20
21.815995
 30
0.0
 10
47.251871
 20
23.066095
 30
0.0
 10
45.985772
 20
24.009895
 30
0.0
 10
44.516872
 20
24.567095
 30
0.0
 10
42.991472
 20
24.657195
 30
0.0
 10
41.309972
 20
24.179895
 30
0.0
 10
39.830973
 20
23.234395
 30
0.0
 10
39.426573
 20
22.753095
 30
0.0
 10
39.123373
 20
21.897195
 30
0.0
 10
38.471973
 20
20.076295
 30
0.0
 10
38.162073
 20
19.238296
 30
0.0
 10
38.212573
 20
18.575396
 30
0.0
 10
38.559673
 20
17.393496
 30
0.0
 10
39.125773
 20
16.353796
 30
0.0
 10
39.875573
 20
15.477996
 30
0.0
 10
40.773973
 20
14.787696
 30
0.0
 10
41.785672
 20
14.304496
 30
0.0
 10
42.875572
 20
14.049997
 30
0.0
 10
44.008372
 20
14.045897
 30
0.0
 10
45.148972
 20
14.313896
 30
0.0
  0
LWPOLYLINE
  5
121
100
AcDbEntity
  8
Layer_1
 62
7
100
AcDbPolyline
 90
27
 70
1
 10
42.712472
 20
16.245496
 30
0.0
 10
41.261472
 20
17.188496
 30
0.0
 10
41.280172
 20
16.914696
 30
0.0
 10
41.308372
 20
16.697296
 30
0.0
 10
41.106772
 20
16.799696
 30
0.0
 10
40.517773
 20
17.473896
 30
0.0
 10
40.192073
 20
18.448696
 30
0.0
 10
40.159673
 20
19.550896
 30
0.0
 10
40.450273
 20
20.607395
 30
0.0
 10
41.118072
 20
21.543595
 30
0.0
 10
42.047872
 20
22.242295
 30
0.0
 10
43.088772
 20
22.620995
 30
0.0
 10
44.089772
 20
22.597295
 30
0.0
 10
45.081172
 20
22.201895
 30
0.0
 10
45.888472
 20
21.611495
 30
0.0
 10
46.611272
 20
20.556795
 30
0.0
 10
46.910171
 20
19.321296
 30
0.0
 10
46.773172
 20
18.089596
 30
0.0
 10
46.188172
 20
17.046196
 30
0.0
 10
45.807972
 20
16.705196
 30
0.0
 10
45.782672
 20
16.937996
 30
0.0
 10
45.786572
 20
17.188496
 30
0.0
 10
44.521472
 20
16.389796
 30
0.0
 10
44.159672
 20
16.113696
 30
0.0
 10
43.678872
 20
15.992896
 30
0.0
 10
43.167172
 20
16.034496
 30
0.0
 10
42.712472
 20
16.245496
 30
0.0
  0
LWPOLYLINE
  5
122
100
AcDbEntity
  8
Layer_1
 62
7
100
AcDbPolyline
 90
11
 70
1
 10
42.549072
 20
18.565996
 30
0.0
 10
42.556372
 20
19.100196
 30
0.0
 10
42.324672
 20
19.442596
 30
0.0
 10
41.935872
 20
19.960396
 30
0.0
 10
41.816372
 20
20.431995
 30
0.0
 10
41.716172
 20
20.745095
 30
0.0
 10
41.617572
 20
20.087295
 30
0.0
 10
41.764172
 20
18.997796
 30
0.0
 10
42.098172
 20
18.324896
 30
0.0
 10
42.410272
 20
17.989996
 30
0.0
 10
42.549072
 20
18.565996
 30
0.0
  0
LWPOLYLINE
  5
123
100
AcDbEntity
  8
Layer_1
 62
7
100
AcDbPolyline
 90
11
 70
1
 10
45.074772
 20
18.536096
 30
0.0
 10
45.401572
 20
19.473196
 30
0.0
 10
45.431472
 20
20.494595
 30
0.0
 10
45.364072
 20
20.945395
 30
0.0
 10
45.284772
 20
20.548095
 30
0.0
 10
45.044172
 20
19.857596
 30
0.0
 10
44.574372
 20
19.308396
 30
0.0
 10
44.267972
 20
18.824296
 30
0.0
 10
44.487572
 20
18.212196
 30
0.0
 10
44.724472
 20
18.060296
 30
0.0
 10
45.074772
 20
18.536096
 30
0.0
  0
LWPOLYLINE
  5
124
100
AcDbEntity
  8
Layer_1
 62
7
100
AcDbPolyline
 90
38
 70
1
 10
42.955172
 20
19.690996
 30
0.0
 10
43.218972
 20
20.245095
 30
0.0
 10
43.057172
 20
20.458495
 30
0.0
 10
42.818872
 20
20.395495
 30
0.0
 10
42.732572
 20
20.340895
 30
0.0
 10
42.628572
 20
20.474495
 30
0.0
 10
42.526672
 20
20.809395
 30
0.0
 10
42.631472
 20
21.119695
 30
0.0
 10
43.594672
 20
21.856295
 30
0.0
 10
43.934272
 20
22.026895
 30
0.0
 10
44.020472
 20
21.956095
 30
0.0
 10
44.170672
 20
21.860995
 30
0.0
 10
44.316272
 20
21.827695
 30
0.0
 10
44.200772
 20
21.616695
 30
0.0
 10
44.172572
 20
21.521495
 30
0.0
 10
44.401972
 20
21.496495
 30
0.0
 10
44.655572
 20
21.465095
 30
0.0
 10
44.597372
 20
21.289995
 30
0.0
 10
44.526472
 20
21.097795
 30
0.0
 10
44.644872
 20
20.954595
 30
0.0
 10
44.756272
 20
20.829095
 30
0.0
 10
44.583972
 20
20.718895
 30
0.0
 10
44.310672
 20
20.366095
 30
0.0
 10
44.220772
 20
19.630496
 30
0.0
 10
44.300672
 20
19.309696
 30
0.0
 10
44.599272
 20
19.519196
 30
0.0
 10
44.968172
 20
20.131495
 30
0.0
 10
45.122472
 20
20.820795
 30
0.0
 10
44.868872
 20
21.646395
 30
0.0
 10
44.270872
 20
22.270795
 30
0.0
 10
43.662372
 20
22.468895
 30
0.0
 10
43.065272
 20
22.410695
 30
0.0
 10
42.538672
 20
22.114895
 30
0.0
 10
42.141972
 20
21.599995
 30
0.0
 10
41.927072
 20
20.855195
 30
0.0
 10
42.071572
 20
20.117095
 30
0.0
 10
42.672072
 20
19.292396
 30
0.0
 10
42.955172
 20
19.690996
 30
0.0
  0
LWPOLYLINE
  5
125
100
AcDbEntity
  8
Layer_1
 62
7
100
AcDbPolyline
 90
5
 70
1
 10
41.766272
 20
22.598495
 30
0.0
 10
41.804572
 20
22.698695
 30
0.0
 10
41.966672
 20
22.598495
 30
0.0
 10
41.928372
 20
22.498295
 30
0.0
 10
41.766272
 20
22.598495
 30
0.0
  0
LWPOLYLINE
  5
126
100
AcDbEntity
  8
Layer_1
 62
7
100
AcDbPolyline
 90
5
 70
1
 10
45.072372
 20
22.598495
 30
0.0
 10
45.234472
 20
22.698695
 30
0.0
 10
45.272772
 20
22.598495
 30
0.0
 10
45.110672
 20
22.498295
 30
0.0
 10
45.072372
 20
22.598495
 30
0.0
  0
LWPOLYLINE
  5
127
100
AcDbEntity
  8
Layer_1
 62
7
100
AcDbPolyline
 90
6
 70
1
 10
42.517672
 20
23.068495
 30
0.0
 10
42.538272
 20
23.272895
 30
0.0
 10
42.664772
 20
23.143595
 30
0.0
 10
42.807472
 20
22.877395
 30
0.0
 10
42.667772
 20
22.798895
 30
0.0
 10
42.517472
 20
23.068495
 30
0.0
  0
LWPOLYLINE
  5
128
100
AcDbEntity
  8
Layer_1
 62
7
100
AcDbPolyline
 90
6
 70
1
 10
44.223972
 20
22.873995
 30
0.0
 10
44.374272
 20
23.143595
 30
0.0
 10
44.500772
 20
23.272895
 30
0.0
 10
44.521372
 20
23.068495
 30
0.0
 10
44.371072
 20
22.798895
 30
0.0
 10
44.223972
 20
22.873995
 30
0.0
  0
LWPOLYLINE
  5
129
100
AcDbEntity
  8
Layer_1
 62
7
100
AcDbPolyline
 90
7
 70
1
 10
43.319172
 20
23.002095
 30
0.0
 10
43.430372
 20
23.368395
 30
0.0
 10
43.537172
 20
23.577295
 30
0.0
 10
43.623672
 20
23.450095
 30
0.0
 10
43.700972
 20
23.110595
 30
0.0
 10
43.519472
 20
22.970195
 30
0.0
 10
43.319172
 20
23.002095
 30
0.0
  0
LWPOLYLINE
  5
12a
100
AcDbEntity
  8
Layer_1
 62
7
100
AcDbPolyline
 90
28
 70
1
 10
34.403774
 20
15.319396
 30
0.0
 10
35.816773
 20
16.749696
 30
0.0
 10
37.023773
 20
18.405996
 30
0.0
 10
38.209673
 20
20.738495
 30
0.0
 10
37.958373
 20
20.795195
 30
0.0
 10
37.685173
 20
20.658195
 30
0.0
 10
37.335373
 20
20.043796
 30
0.0
 10
36.896873
 20
19.292396
 30
0.0
 10
36.048073
 20
19.738096
 30
0.0
 10
35.265873
 20
20.183895
 30
0.0
 10
35.077374
 20
19.873896
 30
0.0
 10
34.980674
 20
19.531996
 30
0.0
 10
35.705073
 20
19.074296
 30
0.0
 10
36.404073
 20
18.625496
 30
0.0
 10
36.353973
 20
18.285996
 30
0.0
 10
35.693073
 20
17.384096
 30
0.0
 10
35.179574
 20
16.766996
 30
0.0
 10
34.461174
 20
17.480696
 30
0.0
 10
33.742674
 20
18.194296
 30
0.0
 10
33.472974
 20
17.912796
 30
0.0
 10
33.203174
 20
17.631196
 30
0.0
 10
33.903074
 20
16.936696
 30
0.0
 10
34.602974
 20
16.172896
 30
0.0
 10
33.951774
 20
15.585496
 30
0.0
 10
33.446774
 20
15.129396
 30
0.0
 10
33.300574
 20
14.825496
 30
0.0
 10
33.426974
 20
14.583696
 30
0.0
 10
34.403774
 20
15.319396
 30
0.0
  0
LWPOLYLINE
  5
12b
100
AcDbEntity
  8
Layer_1
 62
7
100
AcDbPolyline
 90
26
 70
1
 10
16.569677
 20
15.111796
 30
0.0
 10
15.818277
 20
16.019896
 30
0.0
 10
15.066877
 20
16.792296
 30
0.0
 10
15.817177
 20
17.311896
 30
0.0
 10
16.566377
 20
17.839696
 30
0.0
 10
16.379177
 20
18.181896
 30
0.0
 10
16.193077
 20
18.423896
 30
0.0
 10
15.395777
 20
17.956496
 30
0.0
 10
14.534177
 20
17.488996
 30
0.0
 10
13.564077
 20
18.956996
 30
0.0
 10
14.240377
 20
19.680496
 30
0.0
 10
14.916577
 20
20.286395
 30
0.0
 10
14.641577
 20
20.563095
 30
0.0
 10
14.366477
 20
20.839795
 30
0.0
 10
13.787077
 20
20.266495
 30
0.0
 10
13.140077
 20
19.693096
 30
0.0
 10
12.393977
 20
21.295295
 30
0.0
 10
12.080978
 20
21.945895
 30
0.0
 10
11.741678
 20
22.095995
 30
0.0
 10
11.637978
 20
21.985095
 30
0.0
 10
11.807878
 20
21.405195
 30
0.0
 10
12.895577
 20
18.990096
 30
0.0
 10
14.440677
 20
16.759096
 30
0.0
 10
15.622777
 20
15.537596
 30
0.0
 10
16.475177
 20
14.884196
 30
0.0
 10
16.569677
 20
15.111796
 30
0.0
  0
LWPOLYLINE
  5
12c
100
AcDbEntity
  8
Layer_1
 62
7
100
AcDbPolyline
 90
31
 70
1
 10
8.274568
 20
15.714196
 30
0.0
 10
9.392038
 20
16.222996
 30
0.0
 10
10.134678
 20
16.783696
 30
0.0
 10
10.799478
 20
17.526396
 30
0.0
 10
11.339178
 20
18.387996
 30
0.0
 10
11.706378
 20
19.305596
 30
0.0
 10
11.810778
 20
19.892396
 30
0.0
 10
11.572778
 20
20.613595
 30
0.0
 10
10.707178
 20
23.923795
 30
0.0
 10
10.550178
 20
24.314595
 30
0.0
 10
10.084778
 20
24.758195
 30
0.0
 10
9.263198
 20
25.335895
 30
0.0
 10
8.424358
 20
25.737895
 30
0.0
 10
7.544838
 20
25.972694
 30
0.0
 10
6.601238
 20
26.049094
 30
0.0
 10
5.573529
 20
25.952194
 30
0.0
 10
4.615429
 20
25.672395
 30
0.0
 10
3.743939
 20
25.225595
 30
0.0
 10
2.976039
 20
24.627695
 30
0.0
 10
2.328739
 20
23.894795
 30
0.0
 10
1.819029
 20
23.042795
 30
0.0
 10
1.463919
 20
22.087795
 30
0.0
 10
1.280399
 20
21.045595
 30
0.0
 10
1.368529
 20
19.737096
 30
0.0
 10
1.812579
 20
18.449096
 30
0.0
 10
2.554959
 20
17.299996
 30
0.0
 10
3.538089
 20
16.407896
 30
0.0
 10
4.588749
 20
15.844896
 30
0.0
 10
5.699569
 20
15.480996
 30
0.0
 10
6.956098
 20
15.446796
 30
0.0
 10
8.274568
 20
15.714196
 30
0.0
  0
LWPOLYLINE
  5
12d
100
AcDbEntity
  8
Layer_1
 62
7
100
AcDbPolyline
 90
81
 70
1
 10
4.873039
 20
17.564096
 30
0.0
 10
4.569409
 20
17.796896
 30
0.0
 10
4.696219
 20
18.252296
 30
0.0
 10
4.787549
 20
18.605496
 30
0.0
 10
4.588539
 20
18.944596
 30
0.0
 10
4.149389
 20
19.762096
 30
0.0
 10
3.921519
 20
20.188595
 30
0.0
 10
3.505669
 20
20.386595
 30
0.0
 10
3.044659
 20
20.602395
 30
0.0
 10
3.535909
 20
20.792795
 30
0.0
 10
3.930589
 20
20.929995
 30
0.0
 10
4.076399
 20
21.105095
 30
0.0
 10
3.630109
 20
21.648895
 30
0.0
 10
3.178349
 20
22.064295
 30
0.0
 10
3.807869
 20
22.009995
 30
0.0
 10
4.491929
 20
22.033795
 30
0.0
 10
4.268009
 20
22.704095
 30
0.0
 10
3.994019
 20
23.299795
 30
0.0
 10
4.582109
 20
22.999195
 30
0.0
 10
5.224169
 20
22.710695
 30
0.0
 10
5.321199
 20
22.773995
 30
0.0
 10
5.312099
 20
22.974195
 30
0.0
 10
5.196089
 20
23.800695
 30
0.0
 10
5.132829
 20
24.351695
 30
0.0
 10
5.616569
 20
23.677595
 30
0.0
 10
6.164199
 20
23.001395
 30
0.0
 10
6.420798
 20
23.825795
 30
0.0
 10
6.613508
 20
24.652295
 30
0.0
 10
6.797188
 20
23.825795
 30
0.0
 10
7.041518
 20
23.001395
 30
0.0
 10
7.501828
 20
23.561295
 30
0.0
 10
7.986318
 20
24.171495
 30
0.0
 10
7.888688
 20
22.873995
 30
0.0
 10
7.896738
 20
22.738895
 30
0.0
 10
8.015338
 20
22.704495
 30
0.0
 10
8.531798
 20
22.933295
 30
0.0
 10
9.142348
 20
23.293595
 30
0.0
 10
9.379188
 20
23.419295
 30
0.0
 10
9.111178
 20
22.983795
 30
0.0
 10
8.687468
 20
22.062295
 30
0.0
 10
8.890388
 20
21.959395
 30
0.0
 10
9.394618
 20
22.009995
 30
0.0
 10
10.023578
 20
22.064795
 30
0.0
 10
9.612728
 20
21.685595
 30
0.0
 10
9.252648
 20
21.361295
 30
0.0
 10
9.147448
 20
21.112695
 30
0.0
 10
9.298598
 20
20.925795
 30
0.0
 10
9.707608
 20
20.786195
 30
0.0
 10
10.201478
 20
20.603695
 30
0.0
 10
9.693818
 20
20.392095
 30
0.0
 10
9.277298
 20
20.171395
 30
0.0
 10
9.005998
 20
19.653996
 30
0.0
 10
8.559418
 20
18.846396
 30
0.0
 10
8.403718
 20
18.603496
 30
0.0
 10
8.502928
 20
18.260296
 30
0.0
 10
8.629718
 20
17.794896
 30
0.0
 10
8.288838
 20
17.551896
 30
0.0
 10
8.026908
 20
17.448196
 30
0.0
 10
7.870028
 20
17.496696
 30
0.0
 10
7.657358
 20
18.305996
 30
0.0
 10
7.580938
 20
18.951296
 30
0.0
 10
7.779048
 20
19.275796
 30
0.0
 10
8.114098
 20
19.928496
 30
0.0
 10
8.168508
 20
20.393895
 30
0.0
 10
7.703278
 20
20.146595
 30
0.0
 10
7.126548
 20
19.914096
 30
0.0
 10
6.408968
 20
20.153095
 30
0.0
 10
5.695559
 20
20.356595
 30
0.0
 10
5.549299
 20
20.405195
 30
0.0
 10
5.874899
 20
20.492095
 30
0.0
 10
6.375608
 20
20.510095
 30
0.0
 10
6.432568
 20
20.769995
 30
0.0
 10
6.308019
 20
21.012695
 30
0.0
 10
5.674529
 20
21.074995
 30
0.0
 10
4.948179
 20
21.104395
 30
0.0
 10
4.948179
 20
20.540795
 30
0.0
 10
5.007829
 20
20.000296
 30
0.0
 10
5.298829
 20
19.549296
 30
0.0
 10
5.645109
 20
18.881196
 30
0.0
 10
5.296229
 20
17.428096
 30
0.0
 10
4.873049
 20
17.563996
 30
0.0
  0
LWPOLYLINE
  5
12e
100
AcDbEntity
  8
Layer_1
 62
7
100
AcDbPolyline
 90
11
 70
1
 10
6.830708
 20
21.379295
 30
0.0
 10
6.859808
 20
22.197695
 30
0.0
 10
6.505108
 20
22.197695
 30
0.0
 10
6.150409
 20
22.197695
 30
0.0
 10
6.150409
 20
21.696795
 30
0.0
 10
6.185469
 20
21.283495
 30
0.0
 10
6.350778
 20
21.195895
 30
0.0
 10
6.512118
 20
21.125995
 30
0.0
 10
6.551148
 20
20.836895
 30
0.0
 10
6.676378
 20
20.519295
 30
0.0
 10
6.830708
 20
21.379295
 30
0.0
  0
LWPOLYLINE
  5
12f
100
AcDbEntity
  8
Layer_1
 62
7
100
AcDbPolyline
 90
8
 70
1
 10
7.552998
 20
21.245995
 30
0.0
 10
7.552998
 20
21.997395
 30
0.0
 10
7.252438
 20
21.997395
 30
0.0
 10
6.951888
 20
21.997395
 30
0.0
 10
6.951888
 20
21.245995
 30
0.0
 10
6.951888
 20
20.494595
 30
0.0
 10
7.252438
 20
20.494595
 30
0.0
 10
7.552998
 20
20.494595
 30
0.0
  0
LWPOLYLINE
  5
130
100
AcDbEntity
  8
Layer_1
 62
7
100
AcDbPolyline
 90
8
 70
1
 10
8.254298
 20
21.145795
 30
0.0
 10
8.254298
 20
21.796995
 30
0.0
 10
7.953738
 20
21.796995
 30
0.0
 10
7.653188
 20
21.796995
 30
0.0
 10
7.653188
 20
21.145795
 30
0.0
 10
7.653188
 20
20.494595
 30
0.0
 10
7.953738
 20
20.494595
 30
0.0
 10
8.254298
 20
20.494595
 30
0.0
  0
LWPOLYLINE
  5
131
100
AcDbEntity
  8
Layer_1
 62
7
100
AcDbPolyline
 90
9
 70
1
 10
6.050219
 20
21.596595
 30
0.0
 10
6.003239
 20
21.943695
 30
0.0
 10
5.699569
 20
21.997395
 30
0.0
 10
5.395889
 20
21.943695
 30
0.0
 10
5.348919
 20
21.596595
 30
0.0
 10
5.395899
 20
21.249595
 30
0.0
 10
5.699569
 20
21.195895
 30
0.0
 10
6.003259
 20
21.249495
 30
0.0
 10
6.050219
 20
21.596595
 30
0.0
  0
LWPOLYLINE
  5
132
100
AcDbEntity
  8
Layer_1
 62
7
100
AcDbPolyline
 90
6
 70
1
 10
37.206473
 20
16.912996
 30
0.0
 10
37.000773
 20
17.434796
 30
0.0
 10
36.704773
 20
17.085296
 30
0.0
 10
36.492873
 20
16.787696
 30
0.0
 10
36.850373
 20
16.787696
 30
0.0
 10
37.206473
 20
16.912996
 30
0.0
  0
LWPOLYLINE
  5
133
100
AcDbEntity
  8
Layer_1
 62
7
100
AcDbPolyline
 90
9
 70
1
 10
13.194077
 20
16.986996
 30
0.0
 10
13.575477
 20
16.988196
 30
0.0
 10
13.396977
 20
17.290296
 30
0.0
 10
13.011777
 20
17.851696
 30
0.0
 10
12.804977
 20
18.110996
 30
0.0
 10
12.434377
 20
17.486596
 30
0.0
 10
12.063778
 20
16.862196
 30
0.0
 10
12.438277
 20
16.924096
 30
0.0
 10
13.194077
 20
16.987096
 30
0.0
  0
LWPOLYLINE
  5
134
100
AcDbEntity
  8
Layer_1
 62
7
100
AcDbPolyline
 90
30
 70
1
 10
38.654073
 20
22.022395
 30
0.0
 10
39.044173
 20
23.697395
 30
0.0
 10
39.215173
 20
25.415595
 30
0.0
 10
39.166773
 20
27.163194
 30
0.0
 10
38.898273
 20
28.925994
 30
0.0
 10
38.753573
 20
29.375594
 30
0.0
 10
38.512173
 20
29.262594
 30
0.0
 10
38.400073
 20
29.003694
 30
0.0
 10
38.524373
 20
28.243094
 30
0.0
 10
38.649673
 20
27.289594
 30
0.0
 10
37.819773
 20
27.206994
 30
0.0
 10
36.993873
 20
27.159994
 30
0.0
 10
36.988573
 20
26.755894
 30
0.0
 10
37.030173
 20
26.398894
 30
0.0
 10
37.895473
 20
26.427194
 30
0.0
 10
38.760773
 20
26.455594
 30
0.0
 10
38.729873
 20
25.453795
 30
0.0
 10
38.623073
 20
24.375195
 30
0.0
 10
37.769573
 20
24.459195
 30
0.0
 10
36.961373
 20
24.586095
 30
0.0
 10
36.862273
 20
24.232095
 30
0.0
 10
36.858873
 20
23.942495
 30
0.0
 10
37.186473
 20
23.806495
 30
0.0
 10
38.044773
 20
23.636895
 30
0.0
 10
38.510273
 20
23.457095
 30
0.0
 10
38.254273
 20
22.457895
 30
0.0
 10
38.060173
 20
21.675295
 30
0.0
 10
38.169573
 20
21.385295
 30
0.0
 10
38.372273
 20
21.195895
 30
0.0
 10
38.654073
 20
22.022395
 30
0.0
  0
LWPOLYLINE
  5
135
100
AcDbEntity
  8
Layer_1
 62
7
100
AcDbPolyline
 90
32
 70
1
 10
11.714478
 20
23.745195
 30
0.0
 10
11.564478
 20
24.870995
 30
0.0
 10
11.609378
 20
25.051595
 30
0.0
 10
11.735778
 20
25.063595
 30
0.0
 10
13.278277
 20
24.861795
 30
0.0
 10
13.363777
 20
25.241895
 30
0.0
 10
13.363777
 20
25.569295
 30
0.0
 10
12.437077
 20
25.711895
 30
0.0
 10
11.510278
 20
25.854494
 30
0.0
 10
11.535278
 20
26.555794
 30
0.0
 10
11.645678
 20
27.554394
 30
0.0
 10
11.817878
 20
27.688794
 30
0.0
 10
12.138377
 20
27.715394
 30
0.0
 10
13.063177
 20
27.790494
 30
0.0
 10
13.450777
 20
27.895094
 30
0.0
 10
13.479377
 20
28.208894
 30
0.0
 10
13.423677
 20
28.581894
 30
0.0
 10
12.606777
 20
28.514994
 30
0.0
 10
11.785578
 20
28.451294
 30
0.0
 10
12.024978
 20
29.402894
 30
0.0
 10
12.231277
 20
30.236594
 30
0.0
 10
12.092478
 20
30.526494
 30
0.0
 10
11.886678
 20
30.586994
 30
0.0
 10
11.631478
 20
29.842094
 30
0.0
 10
11.193778
 20
27.899594
 30
0.0
 10
11.053078
 20
25.932494
 30
0.0
 10
11.166478
 20
24.145095
 30
0.0
 10
11.425078
 20
22.661795
 30
0.0
 10
11.499978
 20
22.526595
 30
0.0
 10
11.674778
 20
22.668295
 30
0.0
 10
11.820078
 20
22.957995
 30
0.0
 10
11.714478
 20
23.745195
 30
0.0
  0
LWPOLYLINE
  5
136
100
AcDbEntity
  8
Layer_1
 62
7
100
AcDbPolyline
 90
7
 70
1
 10
40.152473
 20
25.162795
 30
0.0
 10
40.617773
 20
25.422795
 30
0.0
 10
40.216073
 20
25.713795
 30
0.0
 10
39.772673
 20
26.004794
 30
0.0
 10
39.696673
 20
25.453595
 30
0.0
 10
39.674773
 20
24.902595
 30
0.0
 10
40.152473
 20
25.162795
 30
0.0
  0
LWPOLYLINE
  5
137
100
AcDbEntity
  8
Layer_1
 62
7
100
AcDbPolyline
 90
30
 70
1
 10
45.644772
 20
26.249194
 30
0.0
 10
46.568972
 20
26.662694
 30
0.0
 10
47.369571
 20
27.215094
 30
0.0
 10
48.038971
 20
27.899694
 30
0.0
 10
48.569071
 20
28.709794
 30
0.0
 10
49.019971
 20
29.768194
 30
0.0
 10
49.239171
 20
30.798094
 30
0.0
 10
49.228471
 20
31.818993
 30
0.0
 10
48.989871
 20
32.850193
 30
0.0
 10
48.350471
 20
34.185293
 30
0.0
 10
47.433471
 20
35.249293
 30
0.0
 10
46.257672
 20
36.025393
 30
0.0
 10
44.842072
 20
36.497293
 30
0.0
 10
43.291072
 20
36.550593
 30
0.0
 10
41.687872
 20
36.041293
 30
0.0
 10
40.736273
 20
35.480793
 30
0.0
 10
39.954673
 20
34.781393
 30
0.0
 10
39.347673
 20
33.948293
 30
0.0
 10
38.919973
 20
32.986793
 30
0.0
 10
38.646273
 20
31.781793
 30
0.0
 10
38.891373
 20
30.654794
 30
0.0
 10
39.372873
 20
28.976094
 30
0.0
 10
39.595273
 20
28.257594
 30
0.0
 10
39.946273
 20
27.743794
 30
0.0
 10
40.594873
 20
27.141994
 30
0.0
 10
41.387372
 20
26.628694
 30
0.0
 10
42.277372
 20
26.228894
 30
0.0
 10
43.218972
 20
25.967694
 30
0.0
 10
44.367372
 20
25.981394
 30
0.0
 10
45.644772
 20
26.249194
 30
0.0
  0
LWPOLYLINE
  5
138
100
AcDbEntity
  8
Layer_1
 62
7
100
AcDbPolyline
 90
11
 70
1
 10
42.938672
 20
27.982194
 30
0.0
 10
42.016772
 20
30.515694
 30
0.0
 10
42.267172
 20
30.932094
 30
0.0
 10
42.525772
 20
31.397394
 30
0.0
 10
42.569372
 20
31.436894
 30
0.0
 10
42.671372
 20
31.264494
 30
0.0
 10
42.754672
 20
30.650994
 30
0.0
 10
42.819572
 20
29.535994
 30
0.0
 10
43.129372
 20
28.072994
 30
0.0
 10
43.290572
 20
27.345394
 30
0.0
 10
42.938772
 20
27.982194
 30
0.0
  0
LWPOLYLINE
  5
139
100
AcDbEntity
  8
Layer_1
 62
7
100
AcDbPolyline
 90
10
 70
1
 10
44.667472
 20
27.482494
 30
0.0
 10
45.018472
 20
28.723694
 30
0.0
 10
45.176372
 20
30.040994
 30
0.0
 10
45.287372
 20
31.232994
 30
0.0
 10
45.429972
 20
31.261694
 30
0.0
 10
45.684272
 20
31.015394
 30
0.0
 10
46.035472
 20
30.626594
 30
0.0
 10
45.728172
 20
29.709394
 30
0.0
 10
44.667472
 20
27.307194
 30
0.0
 10
44.667472
 20
27.482494
 30
0.0
  0
LWPOLYLINE
  5
13a
100
AcDbEntity
  8
Layer_1
 62
7
100
AcDbPolyline
 90
13
 70
1
 10
41.242372
 20
30.613294
 30
0.0
 10
41.094672
 20
31.599494
 30
0.0
 10
41.064972
 20
32.034593
 30
0.0
 10
41.551972
 20
32.220193
 30
0.0
 10
42.211072
 20
32.561493
 30
0.0
 10
42.439672
 20
32.699393
 30
0.0
 10
42.478272
 20
32.416893
 30
0.0
 10
42.302672
 20
32.116293
 30
0.0
 10
41.831672
 20
31.767593
 30
0.0
 10
41.522972
 20
31.247394
 30
0.0
 10
41.388972
 20
30.412894
 30
0.0
 10
41.346672
 20
30.199394
 30
0.0
 10
41.242372
 20
30.613294
 30
0.0
  0
LWPOLYLINE
  5
13b
100
AcDbEntity
  8
Layer_1
 62
7
100
AcDbPolyline
 90
12
 70
1
 10
46.534772
 20
30.904994
 30
0.0
 10
46.185572
 20
31.759593
 30
0.0
 10
45.681172
 20
32.116093
 30
0.0
 10
45.523172
 20
32.417893
 30
0.0
 10
45.523172
 20
32.719693
 30
0.0
 10
45.898872
 20
32.483693
 30
0.0
 10
46.575172
 20
32.146293
 30
0.0
 10
46.831971
 20
31.978793
 30
0.0
 10
46.851371
 20
31.454294
 30
0.0
 10
46.744072
 20
30.563494
 30
0.0
 10
46.654572
 20
30.405794
 30
0.0
 10
46.534772
 20
30.904994
 30
0.0
  0
LWPOLYLINE
  5
13c
100
AcDbEntity
  8
Layer_1
 62
7
100
AcDbPolyline
 90
15
 70
1
 10
43.620172
 20
30.842994
 30
0.0
 10
43.192472
 20
31.266194
 30
0.0
 10
42.944572
 20
31.926893
 30
0.0
 10
42.905472
 20
32.682793
 30
0.0
 10
43.103872
 20
33.391393
 30
0.0
 10
43.530772
 20
33.919193
 30
0.0
 10
44.027072
 20
34.071393
 30
0.0
 10
44.519272
 20
33.852693
 30
0.0
 10
44.934072
 20
33.268193
 30
0.0
 10
45.097572
 20
32.641893
 30
0.0
 10
45.063472
 20
31.986693
 30
0.0
 10
44.848772
 20
31.387994
 30
0.0
 10
44.470372
 20
30.930994
 30
0.0
 10
44.059472
 20
30.726594
 30
0.0
 10
43.620172
 20
30.842894
 30
0.0
  0
LWPOLYLINE
  5
13d
100
AcDbEntity
  8
Layer_1
 62
7
100
AcDbPolyline
 90
9
 70
1
 10
44.574972
 20
31.776993
 30
0.0
 10
44.810272
 20
32.124293
 30
0.0
 10
44.557972
 20
32.509593
 30
0.0
 10
44.033772
 20
32.707193
 30
0.0
 10
43.444372
 20
32.517993
 30
0.0
 10
43.134772
 20
32.183093
 30
0.0
 10
43.382772
 20
31.822793
 30
0.0
 10
43.969572
 20
31.622393
 30
0.0
 10
44.574972
 20
31.776993
 30
0.0
  0
LWPOLYLINE
  5
13e
100
AcDbEntity
  8
Layer_1
 62
7
100
AcDbPolyline
 90
7
 70
1
 10
43.760772
 20
32.053793
 30
0.0
 10
43.776772
 20
32.314493
 30
0.0
 10
44.033372
 20
32.416693
 30
0.0
 10
44.183772
 20
32.367693
 30
0.0
 10
44.202772
 20
32.192293
 30
0.0
 10
43.999872
 20
31.941093
 30
0.0
 10
43.760772
 20
32.053793
 30
0.0
  0
LWPOLYLINE
  5
13f
100
AcDbEntity
  8
Layer_1
 62
7
100
AcDbPolyline
 90
15
 70
1
 10
47.326571
 20
32.993893
 30
0.0
 10
46.989171
 20
33.461493
 30
0.0
 10
46.309972
 20
33.830793
 30
0.0
 10
45.971772
 20
33.777093
 30
0.0
 10
45.658272
 20
33.562693
 30
0.0
 10
45.387372
 20
33.337293
 30
0.0
 10
45.202272
 20
33.693993
 30
0.0
 10
45.081672
 20
33.971893
 30
0.0
 10
45.202272
 20
34.019993
 30
0.0
 10
45.727472
 20
34.242893
 30
0.0
 10
46.142472
 20
34.670593
 30
0.0
 10
46.342072
 20
34.921293
 30
0.0
 10
46.998371
 20
33.983193
 30
0.0
 10
47.377671
 20
32.935393
 30
0.0
 10
47.326571
 20
32.993893
 30
0.0
  0
LWPOLYLINE
  5
140
100
AcDbEntity
  8
Layer_1
 62
7
100
AcDbPolyline
 90
15
 70
1
 10
40.656773
 20
33.276193
 30
0.0
 10
41.466872
 20
34.766693
 30
0.0
 10
41.619072
 20
34.907793
 30
0.0
 10
41.775872
 20
34.737593
 30
0.0
 10
42.198772
 20
34.274593
 30
0.0
 10
42.631072
 20
34.052693
 30
0.0
 10
42.841972
 20
33.959993
 30
0.0
 10
42.738872
 20
33.633793
 30
0.0
 10
42.582872
 20
33.268193
 30
0.0
 10
42.307472
 20
33.543693
 30
0.0
 10
41.982872
 20
33.776293
 30
0.0
 10
41.651272
 20
33.830193
 30
0.0
 10
40.961273
 20
33.401493
 30
0.0
 10
40.644473
 20
33.079293
 30
0.0
 10
40.656773
 20
33.276193
 30
0.0
  0
LWPOLYLINE
  5
141
100
AcDbEntity
  8
Layer_1
 62
7
100
AcDbPolyline
 90
7
 70
1
 10
43.218972
 20
34.682793
 30
0.0
 10
43.245272
 20
34.980093
 30
0.0
 10
43.419372
 20
34.871193
 30
0.0
 10
43.619672
 20
34.608693
 30
0.0
 10
43.419372
 20
34.420393
 30
0.0
 10
43.250272
 20
34.387793
 30
0.0
 10
43.218972
 20
34.682793
 30
0.0
  0
LWPOLYLINE
  5
142
100
AcDbEntity
  8
Layer_1
 62
7
100
AcDbPolyline
 90
7
 70
1
 10
44.488572
 20
34.444593
 30
0.0
 10
44.358372
 20
34.594693
 30
0.0
 10
44.504972
 20
34.825393
 30
0.0
 10
44.733072
 20
35.008593
 30
0.0
 10
44.726372
 20
34.640593
 30
0.0
 10
44.651072
 20
34.384293
 30
0.0
 10
44.488572
 20
34.444593
 30
0.0
  0
LWPOLYLINE
  5
143
100
AcDbEntity
  8
Layer_1
 62
7
100
AcDbPolyline
 90
7
 70
1
 10
10.558578
 20
26.455594
 30
0.0
 10
10.507978
 20
26.689794
 30
0.0
 10
10.243178
 20
26.597994
 30
0.0
 10
10.094578
 20
26.485494
 30
0.0
 10
10.224678
 20
26.350694
 30
0.0
 10
10.490678
 20
26.221894
 30
0.0
 10
10.558578
 20
26.455594
 30
0.0
  0
LWPOLYLINE
  5
144
100
AcDbEntity
  8
Layer_1
 62
7
100
AcDbPolyline
 90
28
 70
1
 10
8.657498
 20
27.468094
 30
0.0
 10
10.107378
 20
28.181094
 30
0.0
 10
10.803478
 20
28.659694
 30
0.0
 10
11.025378
 20
29.505394
 30
0.0
 10
11.983578
 20
32.130093
 30
0.0
 10
12.313177
 20
32.956393
 30
0.0
 10
12.263077
 20
33.562193
 30
0.0
 10
11.708478
 20
34.986993
 30
0.0
 10
10.828478
 20
36.240793
 30
0.0
 10
9.668848
 20
37.098793
 30
0.0
 10
8.299148
 20
37.673492
 30
0.0
 10
7.303078
 20
37.816892
 30
0.0
 10
6.261659
 20
37.754792
 30
0.0
 10
5.229009
 20
37.495592
 30
0.0
 10
4.259229
 20
37.047893
 30
0.0
 10
3.490329
 20
36.463093
 30
0.0
 10
2.806679
 20
35.685393
 30
0.0
 10
2.257259
 20
34.781593
 30
0.0
 10
1.891059
 20
33.818493
 30
0.0
 10
1.751229
 20
32.570893
 30
0.0
 10
1.850529
 20
31.314594
 30
0.0
 10
2.396649
 20
29.961294
 30
0.0
 10
3.293269
 20
28.757994
 30
0.0
 10
3.966939
 20
28.179994
 30
0.0
 10
4.713919
 20
27.744494
 30
0.0
 10
6.701428
 20
27.173494
 30
0.0
 10
7.533998
 20
27.207694
 30
0.0
 10
8.657498
 20
27.468094
 30
0.0
  0
LWPOLYLINE
  5
145
100
AcDbEntity
  8
Layer_1
 62
7
100
AcDbPolyline
 90
124
 70
1
 10
6.900848
 20
28.985294
 30
0.0
 10
6.781598
 20
29.035394
 30
0.0
 10
6.540348
 20
28.912894
 30
0.0
 10
6.350778
 20
29.071294
 30
0.0
 10
6.293649
 20
29.184694
 30
0.0
 10
6.075269
 20
29.163294
 30
0.0
 10
5.799759
 20
29.094194
 30
0.0
 10
6.042639
 20
29.352794
 30
0.0
 10
6.202689
 20
29.603094
 30
0.0
 10
5.875399
 20
29.409694
 30
0.0
 10
5.569899
 20
29.256894
 30
0.0
 10
5.759609
 20
29.499194
 30
0.0
 10
5.998319
 20
29.692494
 30
0.0
 10
5.523339
 20
29.638894
 30
0.0
 10
5.048369
 20
29.698594
 30
0.0
 10
5.373969
 20
29.812194
 30
0.0
 10
6.019269
 20
30.015594
 30
0.0
 10
6.496188
 20
30.503694
 30
0.0
 10
6.646588
 20
31.286794
 30
0.0
 10
6.494988
 20
31.994193
 30
0.0
 10
6.164219
 20
32.303893
 30
0.0
 10
5.727509
 20
32.474893
 30
0.0
 10
5.228289
 20
32.498393
 30
0.0
 10
4.709969
 20
32.365193
 30
0.0
 10
4.417109
 20
32.268993
 30
0.0
 10
4.347079
 20
32.349093
 30
0.0
 10
4.622589
 20
32.610293
 30
0.0
 10
4.898099
 20
32.735893
 30
0.0
 10
4.601459
 20
32.972593
 30
0.0
 10
4.381129
 20
33.267893
 30
0.0
 10
4.819929
 20
33.121693
 30
0.0
 10
5.697339
 20
32.936293
 30
0.0
 10
6.188909
 20
32.967693
 30
0.0
 10
5.771069
 20
33.243193
 30
0.0
 10
5.125669
 20
33.520093
 30
0.0
 10
4.659049
 20
33.589393
 30
0.0
 10
4.504399
 20
33.730493
 30
0.0
 10
4.906589
 20
33.819293
 30
0.0
 10
5.253899
 20
33.819293
 30
0.0
 10
5.101049
 20
34.114793
 30
0.0
 10
4.956899
 20
34.445193
 30
0.0
 10
5.035069
 20
34.520593
 30
0.0
 10
5.375579
 20
34.144893
 30
0.0
 10
5.992989
 20
33.575593
 30
0.0
 10
6.450968
 20
33.362793
 30
0.0
 10
6.173839
 20
33.949593
 30
0.0
 10
5.690659
 20
34.498793
 30
0.0
 10
5.348939
 20
34.821993
 30
0.0
 10
5.435339
 20
34.911493
 30
0.0
 10
5.693689
 20
34.767793
 30
0.0
 10
5.973409
 20
34.639993
 30
0.0
 10
6.068929
 20
34.938593
 30
0.0
 10
6.228639
 20
35.304493
 30
0.0
 10
6.350508
 20
34.904593
 30
0.0
 10
6.549858
 20
34.106593
 30
0.0
 10
6.876588
 20
33.618893
 30
0.0
 10
6.947968
 20
34.177093
 30
0.0
 10
6.749488
 20
35.025493
 30
0.0
 10
6.619728
 20
35.337093
 30
0.0
 10
6.683308
 20
35.422193
 30
0.0
 10
6.945178
 20
35.146693
 30
0.0
 10
7.070808
 20
34.871193
 30
0.0
 10
7.307468
 20
35.167793
 30
0.0
 10
7.599328
 20
35.389393
 30
0.0
 10
7.459808
 20
34.934993
 30
0.0
 10
7.271198
 20
34.331193
 30
0.0
 10
7.339008
 20
33.785493
 30
0.0
 10
7.450568
 20
33.734193
 30
0.0
 10
7.687438
 20
34.108493
 30
0.0
 10
7.958568
 20
34.668193
 30
0.0
 10
8.053938
 20
35.271893
 30
0.0
 10
8.154128
 20
34.915393
 30
0.0
 10
8.225478
 20
34.637693
 30
0.0
 10
8.532748
 20
34.776793
 30
0.0
 10
8.858858
 20
34.863393
 30
0.0
 10
8.570938
 20
34.509193
 30
0.0
 10
8.014168
 20
33.869993
 30
0.0
 10
7.796898
 20
33.341593
 30
0.0
 10
8.301358
 20
33.606893
 30
0.0
 10
8.871888
 20
34.175293
 30
0.0
 10
9.165878
 20
34.520593
 30
0.0
 10
9.253678
 20
34.374093
 30
0.0
 10
9.155978
 20
34.169893
 30
0.0
 10
9.062228
 20
33.944193
 30
0.0
 10
9.350438
 20
33.819293
 30
0.0
 10
9.706998
 20
33.719093
 30
0.0
 10
9.737958
 20
33.613793
 30
0.0
 10
9.261508
 20
33.552093
 30
0.0
 10
8.415858
 20
33.231593
 30
0.0
 10
8.015698
 20
32.967693
 30
0.0
 10
8.540238
 20
32.937293
 30
0.0
 10
9.027808
 20
32.959693
 30
0.0
 10
9.416208
 20
33.123993
 30
0.0
 10
9.828188
 20
33.265193
 30
0.0
 10
9.617628
 20
32.968593
 30
0.0
 10
9.327878
 20
32.737093
 30
0.0
 10
9.642668
 20
32.574293
 30
0.0
 10
9.957458
 20
32.313893
 30
0.0
 10
9.899168
 20
32.226293
 30
0.0
 10
9.522078
 20
32.366593
 30
0.0
 10
8.565858
 20
32.497393
 30
0.0
 10
7.861668
 20
32.126893
 30
0.0
 10
7.551508
 20
31.407594
 30
0.0
 10
7.777348
 20
30.491894
 30
0.0
 10
8.237728
 20
29.984094
 30
0.0
 10
8.850448
 20
29.811894
 30
0.0
 10
9.155978
 20
29.698594
 30
0.0
 10
8.685958
 20
29.638394
 30
0.0
 10
8.215938
 20
29.691394
 30
0.0
 10
8.459048
 20
29.507994
 30
0.0
 10
8.643798
 20
29.266294
 30
0.0
 10
8.319698
 20
29.416994
 30
0.0
 10
8.062768
 20
29.548194
 30
0.0
 10
8.229258
 20
29.280494
 30
0.0
 10
8.349228
 20
29.120794
 30
0.0
 10
8.179168
 20
29.154094
 30
0.0
 10
8.003558
 20
29.173994
 30
0.0
 10
7.953748
 20
29.067194
 30
0.0
 10
7.778468
 20
28.914794
 30
0.0
 10
7.476148
 20
29.027094
 30
0.0
 10
7.370528
 20
29.083194
 30
0.0
 10
7.295108
 20
28.976994
 30
0.0
 10
7.100988
 20
28.815994
 30
0.0
 10
6.900858
 20
28.985294
 30
0.0
  0
LWPOLYLINE
  5
146
100
AcDbEntity
  8
Layer_1
 62
7
100
AcDbPolyline
 90
5
 70
1
 10
6.687558
 20
29.260794
 30
0.0
 10
6.648188
 20
29.411094
 30
0.0
 10
6.551138
 20
29.260794
 30
0.0
 10
6.590508
 20
29.110494
 30
0.0
 10
6.687548
 20
29.260794
 30
0.0
  0
LWPOLYLINE
  5
147
100
AcDbEntity
  8
Layer_1
 62
7
100
AcDbPolyline
 90
5
 70
1
 10
7.730408
 20
29.229494
 30
0.0
 10
7.571718
 20
29.388194
 30
0.0
 10
7.513558
 20
29.269194
 30
0.0
 10
7.670728
 20
29.113394
 30
0.0
 10
7.730408
 20
29.229494
 30
0.0
  0
LWPOLYLINE
  5
148
100
AcDbEntity
  8
Layer_1
 62
7
100
AcDbPolyline
 90
6
 70
1
 10
7.172298
 20
29.531294
 30
0.0
 10
7.077118
 20
29.576394
 30
0.0
 10
7.052068
 20
29.411094
 30
0.0
 10
7.077118
 20
29.245794
 30
0.0
 10
7.172298
 20
29.290894
 30
0.0
 10
7.172298
 20
29.531294
 30
0.0
  0
LWPOLYLINE
  5
149
100
AcDbEntity
  8
Layer_1
 62
7
100
AcDbPolyline
 90
7
 70
1
 10
3.620729
 20
32.373793
 30
0.0
 10
3.362679
 20
32.600593
 30
0.0
 10
3.636189
 20
32.845893
 30
0.0
 10
3.990269
 20
32.990393
 30
0.0
 10
4.046519
 20
32.616993
 30
0.0
 10
3.982849
 20
32.248193
 30
0.0
 10
3.620729
 20
32.373793
 30
0.0
  0
LWPOLYLINE
  5
14a
100
AcDbEntity
  8
Layer_1
 62
7
100
AcDbPolyline
 90
5
 70
1
 10
10.174978
 20
32.616993
 30
0.0
 10
10.213578
 20
33.017793
 30
0.0
 10
10.859078
 20
32.616993
 30
0.0
 10
10.229278
 20
32.216293
 30
0.0
 10
10.174978
 20
32.616993
 30
0.0
  0
LWPOLYLINE
  5
14b
100
AcDbEntity
  8
Layer_1
 62
7
100
AcDbPolyline
 90
6
 70
1
 10
10.067078
 20
33.526793
 30
0.0
 10
9.975548
 20
33.965993
 30
0.0
 10
10.374978
 20
33.881093
 30
0.0
 10
10.742378
 20
33.769193
 30
0.0
 10
10.466478
 20
33.441893
 30
0.0
 10
10.190478
 20
33.114593
 30
0.0
  0
LWPOLYLINE
  5
14c
100
AcDbEntity
  8
Layer_1
 62
7
100
AcDbPolyline
 90
12
 70
1
 10
3.708689
 20
33.505293
 30
0.0
 10
3.433559
 20
33.792493
 30
0.0
 10
3.890319
 20
33.907493
 30
0.0
 10
4.309729
 20
34.074593
 30
0.0
 10
4.196789
 20
34.420393
 30
0.0
 10
4.074629
 20
34.792193
 30
0.0
 10
4.447259
 20
34.838293
 30
0.0
 10
4.820499
 20
34.737893
 30
0.0
 10
4.745909
 20
34.569493
 30
0.0
 10
4.146699
 20
33.371693
 30
0.0
 10
4.043209
 20
33.232593
 30
0.0
 10
3.708689
 20
33.505293
 30
0.0
  0
LWPOLYLINE
  5
14d
100
AcDbEntity
  8
Layer_1
 62
7
100
AcDbPolyline
 90
8
 70
1
 10
9.655938
 20
34.344393
 30
0.0
 10
9.426498
 20
34.694993
 30
0.0
 10
9.463278
 20
34.793493
 30
0.0
 10
9.800568
 20
34.821093
 30
0.0
 10
10.254778
 20
34.821093
 30
0.0
 10
10.087578
 20
34.470493
 30
0.0
 10
9.872108
 20
34.141293
 30
0.0
 10
9.655938
 20
34.344393
 30
0.0
  0
LWPOLYLINE
  5
14e
100
AcDbEntity
  8
Layer_1
 62
7
100
AcDbPolyline
 90
6
 70
1
 10
4.892589
 20
35.165793
 30
0.0
 10
4.889139
 20
35.618093
 30
0.0
 10
5.276319
 20
35.542293
 30
0.0
 10
5.654549
 20
35.372093
 30
0.0
 10
5.306009
 20
35.095993
 30
0.0
 10
4.957469
 20
34.819993
 30
0.0
  0
LWPOLYLINE
  5
14f
100
AcDbEntity
  8
Layer_1
 62
7
100
AcDbPolyline
 90
7
 70
1
 10
8.825248
 20
35.158093
 30
0.0
 10
8.544628
 20
35.387793
 30
0.0
 10
8.950478
 20
35.547193
 30
0.0
 10
9.356338
 20
35.706593
 30
0.0
 10
9.356338
 20
35.313893
 30
0.0
 10
9.244538
 20
34.939293
 30
0.0
 10
8.825248
 20
35.158093
 30
0.0
  0
LWPOLYLINE
  5
150
100
AcDbEntity
  8
Layer_1
 62
7
100
AcDbPolyline
 90
7
 70
1
 10
5.805989
 20
35.784493
 30
0.0
 10
5.905359
 20
36.207393
 30
0.0
 10
6.551148
 20
35.715593
 30
0.0
 10
6.325729
 20
35.596993
 30
0.0
 10
5.917929
 20
35.471693
 30
0.0
 10
5.776549
 20
35.470793
 30
0.0
 10
5.805989
 20
35.784493
 30
0.0
  0
LWPOLYLINE
  5
151
100
AcDbEntity
  8
Layer_1
 62
7
100
AcDbPolyline
 90
6
 70
1
 10
7.977818
 20
35.564693
 30
0.0
 10
7.651238
 20
35.683393
 30
0.0
 10
7.951728
 20
35.971293
 30
0.0
 10
8.294408
 20
36.216393
 30
0.0
 10
8.390678
 20
35.434093
 30
0.0
 10
7.977818
 20
35.564693
 30
0.0
  0
LWPOLYLINE
  5
152
100
AcDbEntity
  8
Layer_1
 62
7
100
AcDbPolyline
 90
7
 70
1
 10
6.751518
 20
35.777793
 30
0.0
 10
6.914228
 20
36.147493
 30
0.0
 10
7.074518
 20
36.391593
 30
0.0
 10
7.222128
 20
36.267793
 30
0.0
 10
7.490648
 20
35.808493
 30
0.0
 10
7.155778
 20
35.722693
 30
0.0
 10
6.751518
 20
35.777793
 30
0.0
  0
LWPOLYLINE
  5
153
100
AcDbEntity
  8
Layer_1
 62
7
100
AcDbPolyline
 90
28
 70
1
 10
38.610473
 20
29.905994
 30
0.0
 10
37.734173
 20
32.166193
 30
0.0
 10
36.829273
 20
33.711993
 30
0.0
 10
35.764273
 20
35.149293
 30
0.0
 10
34.575174
 20
36.348193
 30
0.0
 10
33.698774
 20
37.025193
 30
0.0
 10
33.601174
 20
36.793793
 30
0.0
 10
33.791774
 20
36.444593
 30
0.0
 10
34.402674
 20
35.835293
 30
0.0
 10
35.204174
 20
35.017293
 30
0.0
 10
34.402274
 20
34.464093
 30
0.0
 10
33.600474
 20
34.001593
 30
0.0
 10
33.772674
 20
33.710093
 30
0.0
 10
34.048574
 20
33.418693
 30
0.0
 10
34.957974
 20
33.903493
 30
0.0
 10
35.763873
 20
34.388193
 30
0.0
 10
36.173773
 20
33.778093
 30
0.0
 10
36.657573
 20
33.032593
 30
0.0
 10
36.045373
 20
32.205793
 30
0.0
 10
35.359373
 20
31.514494
 30
0.0
 10
35.631973
 20
31.241994
 30
0.0
 10
35.904573
 20
30.969394
 30
0.0
 10
36.505173
 20
31.563694
 30
0.0
 10
37.192673
 20
32.061893
 30
0.0
 10
38.009373
 20
30.123394
 30
0.0
 10
38.234773
 20
29.915094
 30
0.0
 10
38.534673
 20
29.823194
 30
0.0
 10
38.610473
 20
29.905994
 30
0.0
  0
LWPOLYLINE
  5
154
100
AcDbEntity
  8
Layer_1
 62
7
100
AcDbPolyline
 90
30
 70
1
 10
12.855477
 20
31.640193
 30
0.0
 10
13.092477
 20
32.181693
 30
0.0
 10
13.299677
 20
32.405593
 30
0.0
 10
13.602677
 20
32.354293
 30
0.0
 10
14.127377
 20
32.070593
 30
0.0
 10
14.916577
 20
31.621093
 30
0.0
 10
15.091977
 20
31.829593
 30
0.0
 10
15.267277
 20
32.170493
 30
0.0
 10
14.515877
 20
32.730293
 30
0.0
 10
13.764477
 20
33.249693
 30
0.0
 10
14.769877
 20
34.680893
 30
0.0
 10
15.034377
 20
34.991493
 30
0.0
 10
15.768877
 20
34.299393
 30
0.0
 10
16.503377
 20
33.607293
 30
0.0
 10
16.759577
 20
33.863393
 30
0.0
 10
17.015677
 20
34.119593
 30
0.0
 10
16.279577
 20
34.860693
 30
0.0
 10
15.543477
 20
35.601793
 30
0.0
 10
16.256877
 20
36.184593
 30
0.0
 10
16.892177
 20
36.776393
 30
0.0
 10
16.910177
 20
37.165793
 30
0.0
 10
16.706877
 20
37.161993
 30
0.0
 10
16.094277
 20
36.698093
 30
0.0
 10
14.138777
 20
34.681993
 30
0.0
 10
12.597877
 20
32.287593
 30
0.0
 10
12.134777
 20
31.274394
 30
0.0
 10
12.169077
 20
31.137594
 30
0.0
 10
12.352777
 20
31.114194
 30
0.0
 10
12.627177
 20
31.204194
 30
0.0
 10
12.855477
 20
31.640193
 30
0.0
  0
LWPOLYLINE
  5
155
100
AcDbEntity
  8
Layer_1
 62
7
100
AcDbPolyline
 90
7
 70
1
 10
37.937673
 20
34.248693
 30
0.0
 10
38.276173
 20
34.921293
 30
0.0
 10
37.444373
 20
34.921293
 30
0.0
 10
36.612573
 20
34.921293
 30
0.0
 10
37.082173
 20
34.224993
 30
0.0
 10
37.575473
 20
33.552393
 30
0.0
 10
37.937673
 20
34.248693
 30
0.0
  0
LWPOLYLINE
  5
156
100
AcDbEntity
  8
Layer_1
 62
7
100
AcDbPolyline
 90
7
 70
1
 10
13.864677
 20
35.139093
 30
0.0
 10
13.522677
 20
35.221793
 30
0.0
 10
13.239677
 20
35.183193
 30
0.0
 10
13.293377
 20
34.923593
 30
0.0
 10
13.405877
 20
34.625393
 30
0.0
 10
13.635277
 20
34.840893
 30
0.0
 10
13.864677
 20
35.139093
 30
0.0
  0
LWPOLYLINE
  5
157
100
AcDbEntity
  8
Layer_1
 62
7
100
AcDbPolyline
 90
28
 70
1
 10
37.959273
 20
36.274193
 30
0.0
 10
39.108873
 20
36.646293
 30
0.0
 10
40.128773
 20
37.239593
 30
0.0
 10
40.981473
 20
38.026292
 30
0.0
 10
41.629572
 20
38.979092
 30
0.0
 10
42.129972
 20
40.234892
 30
0.0
 10
42.300572
 20
41.462892
 30
0.0
 10
42.141772
 20
42.695032
 30
0.0
 10
41.653472
 20
43.963351
 30
0.0
 10
40.829473
 20
45.122641
 30
0.0
 10
39.700073
 20
46.032751
 30
0.0
 10
38.373273
 20
46.627421
 30
0.0
 10
36.957373
 20
46.840361
 30
0.0
 10
35.543973
 20
46.621731
 30
0.0
 10
34.211474
 20
46.014281
 30
0.0
 10
33.077174
 20
45.090721
 30
0.0
 10
32.258074
 20
43.923731
 30
0.0
 10
31.849074
 20
42.894122
 30
0.0
 10
31.654774
 20
41.893292
 30
0.0
 10
31.673574
 20
40.903692
 30
0.0
 10
31.903774
 20
39.907492
 30
0.0
 10
32.442474
 20
38.744092
 30
0.0
 10
33.280374
 20
37.980292
 30
0.0
 10
34.575474
 20
36.987193
 30
0.0
 10
35.190474
 20
36.522193
 30
0.0
 10
35.777673
 20
36.320493
 30
0.0
 10
36.456473
 20
36.170393
 30
0.0
 10
37.959273
 20
36.274193
 30
0.0
  0
LWPOLYLINE
  5
158
100
AcDbEntity
  8
Layer_1
 62
7
100
AcDbPolyline
 90
91
 70
1
 10
36.968873
 20
38.577992
 30
0.0
 10
36.835573
 20
39.613392
 30
0.0
 10
36.758073
 20
39.758892
 30
0.0
 10
36.653673
 20
39.727592
 30
0.0
 10
36.537473
 20
39.687492
 30
0.0
 10
36.458173
 20
39.824992
 30
0.0
 10
36.368673
 20
39.969592
 30
0.0
 10
36.206573
 20
39.930792
 30
0.0
 10
36.052573
 20
39.886292
 30
0.0
 10
35.987873
 20
39.994192
 30
0.0
 10
35.835573
 20
40.019992
 30
0.0
 10
35.354373
 20
39.669092
 30
0.0
 10
34.875674
 20
39.337092
 30
0.0
 10
35.370473
 20
40.129092
 30
0.0
 10
35.592173
 20
40.535092
 30
0.0
 10
35.442873
 20
40.631792
 30
0.0
 10
35.332473
 20
40.828692
 30
0.0
 10
35.188574
 20
41.087592
 30
0.0
 10
35.059274
 20
41.164492
 30
0.0
 10
35.101274
 20
41.279792
 30
0.0
 10
35.122174
 20
41.375492
 30
0.0
 10
34.960674
 20
41.450492
 30
0.0
 10
33.851674
 20
41.599492
 30
0.0
 10
33.320874
 20
41.671292
 30
0.0
 10
33.499774
 20
41.744792
 30
0.0
 10
34.530274
 20
41.886892
 30
0.0
 10
35.055074
 20
41.967992
 30
0.0
 10
35.100974
 20
42.088062
 30
0.0
 10
35.060174
 20
42.216842
 30
0.0
 10
35.204174
 20
42.334992
 30
0.0
 10
35.348773
 20
42.453522
 30
0.0
 10
35.305473
 20
42.584012
 30
0.0
 10
35.260473
 20
42.704332
 30
0.0
 10
35.400173
 20
42.784442
 30
0.0
 10
35.529873
 20
42.900032
 30
0.0
 10
35.270673
 20
43.268751
 30
0.0
 10
34.877874
 20
43.821631
 30
0.0
 10
35.280773
 20
43.594651
 30
0.0
 10
35.843673
 20
43.258081
 30
0.0
 10
36.005573
 20
43.377551
 30
0.0
 10
36.192173
 20
43.469661
 30
0.0
 10
36.443773
 20
43.590511
 30
0.0
 10
36.524073
 20
43.700301
 30
0.0
 10
36.645573
 20
43.646751
 30
0.0
 10
36.777573
 20
43.700951
 30
0.0
 10
36.894773
 20
44.290771
 30
0.0
 10
37.016073
 20
45.319591
 30
0.0
 10
37.024673
 20
45.591011
 30
0.0
 10
37.105173
 20
45.324501
 30
0.0
 10
37.257673
 20
44.341131
 30
0.0
 10
37.344373
 20
43.783261
 30
0.0
 10
37.472873
 20
43.679231
 30
0.0
 10
37.676273
 20
43.577541
 30
0.0
 10
37.919473
 20
43.468751
 30
0.0
 10
38.162873
 20
43.326411
 30
0.0
 10
38.279873
 20
43.209981
 30
0.0
 10
38.660273
 20
43.436881
 30
0.0
 10
39.145773
 20
43.717021
 30
0.0
 10
38.919373
 20
43.347461
 30
0.0
 10
38.629173
 20
42.925862
 30
0.0
 10
38.762573
 20
42.835912
 30
0.0
 10
38.866773
 20
42.779992
 30
0.0
 10
38.851873
 20
42.585442
 30
0.0
 10
38.837973
 20
42.388012
 30
0.0
 10
38.956973
 20
42.334982
 30
0.0
 10
39.071373
 20
42.290752
 30
0.0
 10
39.065073
 20
42.146602
 30
0.0
 10
39.121473
 20
41.978492
 30
0.0
 10
39.634373
 20
41.889692
 30
0.0
 10
40.614073
 20
41.745592
 30
0.0
 10
40.781573
 20
41.670092
 30
0.0
 10
40.213373
 20
41.595192
 30
0.0
 10
39.223573
 20
41.456592
 30
0.0
 10
39.053573
 20
41.266892
 30
0.0
 10
38.956373
 20
41.066992
 30
0.0
 10
38.864673
 20
40.820292
 30
0.0
 10
38.767473
 20
40.631792
 30
0.0
 10
38.624873
 20
40.492092
 30
0.0
 10
38.881273
 20
39.954892
 30
0.0
 10
39.029673
 20
39.591792
 30
0.0
 10
38.535273
 20
39.910292
 30
0.0
 10
38.209673
 20
40.030892
 30
0.0
 10
38.003173
 20
39.961192
 30
0.0
 10
37.826573
 20
39.953992
 30
0.0
 10
37.719173
 20
39.805392
 30
0.0
 10
37.569073
 20
39.712992
 30
0.0
 10
37.461573
 20
39.823792
 30
0.0
 10
37.376573
 20
39.759192
 30
0.0
 10
37.252973
 20
39.061092
 30
0.0
 10
37.097873
 20
38.007092
 30
0.0
 10
36.968873
 20
38.577992
 30
0.0
  0
LWPOLYLINE
  5
159
100
AcDbEntity
  8
Layer_1
 62
7
100
AcDbPolyline
 90
17
 70
1
 10
37.768773
 20
40.221592
 30
0.0
 10
38.425873
 20
40.763992
 30
0.0
 10
38.689373
 20
41.627092
 30
0.0
 10
38.539773
 20
42.461162
 30
0.0
 10
37.916973
 20
43.109042
 30
0.0
 10
37.394273
 20
43.310701
 30
0.0
 10
36.804573
 20
43.309241
 30
0.0
 10
36.242373
 20
43.120312
 30
0.0
 10
35.802473
 20
42.759552
 30
0.0
 10
35.519573
 20
42.244582
 30
0.0
 10
35.430873
 20
41.695092
 30
0.0
 10
35.535673
 20
41.154192
 30
0.0
 10
35.833373
 20
40.665192
 30
0.0
 10
36.266873
 20
40.279992
 30
0.0
 10
36.731673
 20
40.078192
 30
0.0
 10
37.231173
 20
40.058992
 30
0.0
 10
37.768773
 20
40.221592
 30
0.0
  0
LWPOLYLINE
  5
15a
100
AcDbEntity
  8
Layer_1
 62
7
100
AcDbPolyline
 90
15
 70
1
 10
36.295973
 20
40.458492
 30
0.0
 10
35.764373
 20
41.061792
 30
0.0
 10
35.636473
 20
41.877592
 30
0.0
 10
35.744773
 20
42.351932
 30
0.0
 10
36.088973
 20
42.754222
 30
0.0
 10
36.518373
 20
43.073992
 30
0.0
 10
37.028673
 20
43.136092
 30
0.0
 10
37.738173
 20
42.993372
 30
0.0
 10
38.253273
 20
42.608062
 30
0.0
 10
38.522073
 20
42.042772
 30
0.0
 10
38.493073
 20
41.360092
 30
0.0
 10
38.151473
 20
40.729992
 30
0.0
 10
37.597973
 20
40.339492
 30
0.0
 10
36.942673
 20
40.233992
 30
0.0
 10
36.295973
 20
40.458492
 30
0.0
  0
LWPOLYLINE
  5
15b
100
AcDbEntity
  8
Layer_1
 62
7
100
AcDbPolyline
 90
29
 70
1
 10
15.372177
 20
36.750293
 30
0.0
 10
16.289977
 20
37.454992
 30
0.0
 10
17.770177
 20
38.464592
 30
0.0
 10
18.471376
 20
38.943692
 30
0.0
 10
18.817576
 20
39.417192
 30
0.0
 10
19.201876
 20
40.407692
 30
0.0
 10
19.379976
 20
41.425292
 30
0.0
 10
19.360676
 20
42.441582
 30
0.0
 10
19.152876
 20
43.428181
 30
0.0
 10
18.765276
 20
44.356781
 30
0.0
 10
18.206676
 20
45.199031
 30
0.0
 10
17.485977
 20
45.926611
 30
0.0
 10
16.611977
 20
46.511171
 30
0.0
 10
15.431277
 20
46.974131
 30
0.0
 10
14.231077
 20
47.145361
 30
0.0
 10
13.052277
 20
47.043171
 30
0.0
 10
11.935878
 20
46.685881
 30
0.0
 10
10.922878
 20
46.091801
 30
0.0
 10
10.054178
 20
45.279241
 30
0.0
 10
9.370948
 20
44.266511
 30
0.0
 10
8.914038
 20
43.071912
 30
0.0
 10
8.761278
 20
41.917592
 30
0.0
 10
8.884858
 20
40.752092
 30
0.0
 10
9.277178
 20
39.609192
 30
0.0
 10
9.930678
 20
38.522792
 30
0.0
 10
11.156078
 20
37.412192
 30
0.0
 10
12.774577
 20
36.677893
 30
0.0
 10
14.229777
 20
36.546893
 30
0.0
 10
15.372177
 20
36.750293
 30
0.0
  0
LWPOLYLINE
  5
15c
100
AcDbEntity
  8
Layer_1
 62
7
100
AcDbPolyline
 90
142
 70
1
 10
13.413477
 20
38.765692
 30
0.0
 10
12.929677
 20
39.151692
 30
0.0
 10
13.128577
 20
38.603092
 30
0.0
 10
13.175777
 20
38.343592
 30
0.0
 10
12.721677
 20
38.480492
 30
0.0
 10
12.176277
 20
38.942992
 30
0.0
 10
11.782578
 20
39.880492
 30
0.0
 10
11.610478
 20
40.481592
 30
0.0
 10
11.560178
 20
39.930492
 30
0.0
 10
11.509778
 20
39.379492
 30
0.0
 10
11.284678
 20
39.801292
 30
0.0
 10
11.065278
 20
40.458892
 30
0.0
 10
11.122378
 20
41.118392
 30
0.0
 10
11.463478
 20
41.805492
 30
0.0
 10
12.096178
 20
42.545852
 30
0.0
 10
12.629577
 20
43.136922
 30
0.0
 10
12.762677
 20
43.515501
 30
0.0
 10
12.675877
 20
43.860741
 30
0.0
 10
12.447177
 20
44.128671
 30
0.0
 10
12.124077
 20
44.282911
 30
0.0
 10
11.754078
 20
44.287131
 30
0.0
 10
11.385178
 20
44.060981
 30
0.0
 10
11.259878
 20
43.606161
 30
0.0
 10
11.419478
 20
43.242151
 30
0.0
 10
11.879478
 20
43.154682
 30
0.0
 10
12.156277
 20
43.231361
 30
0.0
 10
12.211577
 20
43.487121
 30
0.0
 10
12.165677
 20
43.732571
 30
0.0
 10
11.961178
 20
43.787671
 30
0.0
 10
11.764078
 20
43.740631
 30
0.0
 10
11.718978
 20
43.559511
 30
0.0
 10
11.617878
 20
43.372561
 30
0.0
 10
11.479278
 20
43.663431
 30
0.0
 10
11.579678
 20
43.973861
 30
0.0
 10
11.875678
 20
44.109981
 30
0.0
 10
12.219277
 20
44.053401
 30
0.0
 10
12.462777
 20
43.785751
 30
0.0
 10
12.475577
 20
43.293191
 30
0.0
 10
12.187077
 20
42.953672
 30
0.0
 10
11.726478
 20
42.844652
 30
0.0
 10
11.223278
 20
43.043552
 30
0.0
 10
11.012378
 20
43.294161
 30
0.0
 10
10.959278
 20
43.672471
 30
0.0
 10
11.113278
 20
44.313531
 30
0.0
 10
11.632678
 20
44.625921
 30
0.0
 10
12.164077
 20
44.687801
 30
0.0
 10
12.361477
 20
44.888691
 30
0.0
 10
12.748277
 20
45.250361
 30
0.0
 10
13.146177
 20
45.593231
 30
0.0
 10
13.527077
 20
45.898711
 30
0.0
 10
14.097877
 20
45.764751
 30
0.0
 10
14.417277
 20
45.624181
 30
0.0
 10
14.675077
 20
45.700541
 30
0.0
 10
15.140577
 20
45.838091
 30
0.0
 10
15.546377
 20
45.765041
 30
0.0
 10
15.800077
 20
45.525151
 30
0.0
 10
15.809677
 20
45.162191
 30
0.0
 10
15.670577
 20
44.944821
 30
0.0
 10
15.428577
 20
44.856841
 30
0.0
 10
15.041077
 20
44.927371
 30
0.0
 10
15.046877
 20
45.160221
 30
0.0
 10
15.142077
 20
45.218381
 30
0.0
 10
15.167077
 20
45.102781
 30
0.0
 10
15.342377
 20
44.958881
 30
0.0
 10
15.521177
 20
45.240781
 30
0.0
 10
15.337377
 20
45.522801
 30
0.0
 10
14.882477
 20
45.362971
 30
0.0
 10
14.553977
 20
44.839381
 30
0.0
 10
14.494377
 20
44.376881
 30
0.0
 10
15.029177
 20
44.477711
 30
0.0
 10
15.961277
 20
44.640621
 30
0.0
 10
16.642477
 20
44.708111
 30
0.0
 10
16.870177
 20
44.904631
 30
0.0
 10
16.638277
 20
45.140231
 30
0.0
 10
16.296877
 20
45.065511
 30
0.0
 10
16.183377
 20
44.963321
 30
0.0
 10
16.106977
 20
45.084821
 30
0.0
 10
16.179977
 20
45.338471
 30
0.0
 10
16.592777
 20
45.333921
 30
0.0
 10
16.979777
 20
45.155041
 30
0.0
 10
17.166277
 20
44.927551
 30
0.0
 10
17.135377
 20
44.700771
 30
0.0
 10
16.870177
 20
44.524061
 30
0.0
 10
16.577277
 20
44.324991
 30
0.0
 10
16.914677
 20
44.294171
 30
0.0
 10
17.242977
 20
44.298241
 30
0.0
 10
17.515777
 20
44.102901
 30
0.0
 10
17.759177
 20
43.691741
 30
0.0
 10
17.623377
 20
43.269691
 30
0.0
 10
17.527077
 20
43.075362
 30
0.0
 10
17.613577
 20
42.942732
 30
0.0
 10
17.789677
 20
42.666682
 30
0.0
 10
17.820677
 20
42.315392
 30
0.0
 10
17.716077
 20
41.977492
 30
0.0
 10
17.485377
 20
41.741392
 30
0.0
 10
17.070377
 20
41.801692
 30
0.0
 10
16.924877
 20
42.160542
 30
0.0
 10
17.068977
 20
42.329762
 30
0.0
 10
17.134577
 20
42.159642
 30
0.0
 10
17.321077
 20
41.984292
 30
0.0
 10
17.484077
 20
42.050512
 30
0.0
 10
17.555077
 20
42.279932
 30
0.0
 10
17.427777
 20
42.686802
 30
0.0
 10
16.971277
 20
42.835912
 30
0.0
 10
16.598177
 20
42.712572
 30
0.0
 10
16.469477
 20
42.355022
 30
0.0
 10
16.120377
 20
41.763492
 30
0.0
 10
15.495077
 20
41.433292
 30
0.0
 10
15.002477
 20
41.652692
 30
0.0
 10
14.766277
 20
42.110342
 30
0.0
 10
14.971277
 20
42.459492
 30
0.0
 10
15.364677
 20
42.628762
 30
0.0
 10
15.287277
 20
42.511022
 30
0.0
 10
15.111177
 20
42.358922
 30
0.0
 10
15.086877
 20
42.092012
 30
0.0
 10
15.161277
 20
41.840892
 30
0.0
 10
15.367377
 20
41.758592
 30
0.0
 10
15.844477
 20
41.921092
 30
0.0
 10
16.125677
 20
42.391892
 30
0.0
 10
16.119177
 20
42.701602
 30
0.0
 10
15.918377
 20
43.018052
 30
0.0
 10
15.617677
 20
43.278891
 30
0.0
 10
15.203277
 20
43.336841
 30
0.0
 10
14.485777
 20
43.194821
 30
0.0
 10
13.807577
 20
42.620382
 30
0.0
 10
13.271177
 20
41.834092
 30
0.0
 10
13.103277
 20
41.289292
 30
0.0
 10
13.085977
 20
40.762492
 30
0.0
 10
13.452877
 20
39.830692
 30
0.0
 10
14.270377
 20
39.174792
 30
0.0
 10
15.436777
 20
38.930892
 30
0.0
 10
16.021977
 20
39.042992
 30
0.0
 10
16.565177
 20
39.317692
 30
0.0
 10
16.945677
 20
39.672792
 30
0.0
 10
17.042777
 20
40.025892
 30
0.0
 10
17.079977
 20
40.231092
 30
0.0
 10
17.181977
 20
40.132992
 30
0.0
 10
17.159077
 20
39.887892
 30
0.0
 10
16.817477
 20
39.253292
 30
0.0
 10
15.875977
 20
38.566492
 30
0.0
 10
14.647577
 20
38.249492
 30
0.0
 10
13.977777
 20
38.201392
 30
0.0
  0
LWPOLYLINE
  5
15d
100
AcDbEntity
  8
Layer_1
 62
7
100
AcDbPolyline
 90
14
 70
1
 10
16.620877
 20
43.426901
 30
0.0
 10
16.760577
 20
43.723231
 30
0.0
 10
16.996677
 20
43.771441
 30
0.0
 10
16.910977
 20
43.592881
 30
0.0
 10
16.813877
 20
43.359861
 30
0.0
 10
17.064277
 20
43.236651
 30
0.0
 10
17.374977
 20
43.402281
 30
0.0
 10
17.430577
 20
43.786371
 30
0.0
 10
17.321477
 20
43.984911
 30
0.0
 10
17.087477
 20
44.038141
 30
0.0
 10
16.539877
 20
43.762131
 30
0.0
 10
16.328477
 20
43.298821
 30
0.0
 10
16.500377
 20
43.170241
 30
0.0
 10
16.620877
 20
43.426901
 30
0.0
  0
LWPOLYLINE
  5
15e
100
AcDbEntity
  8
Layer_1
 62
7
100
AcDbPolyline
 90
10
 70
1
 10
16.075377
 20
43.841291
 30
0.0
 10
16.268977
 20
44.142491
 30
0.0
 10
16.068777
 20
44.338691
 30
0.0
 10
15.868377
 20
44.218471
 30
0.0
 10
15.755577
 20
44.211071
 30
0.0
 10
15.191277
 20
44.105871
 30
0.0
 10
14.739677
 20
43.887891
 30
0.0
 10
15.228877
 20
43.828491
 30
0.0
 10
15.799777
 20
43.753351
 30
0.0
 10
16.075277
 20
43.841321
 30
0.0
  0
LWPOLYLINE
  5
15f
100
AcDbEntity
  8
Layer_1
 62
7
100
AcDbPolyline
 90
16
 70
1
 10
13.707877
 20
43.935471
 30
0.0
 10
13.914177
 20
44.082261
 30
0.0
 10
13.964877
 20
44.379781
 30
0.0
 10
14.057977
 20
44.971221
 30
0.0
 10
14.005477
 20
45.425151
 30
0.0
 10
13.614477
 20
45.641101
 30
0.0
 10
13.314177
 20
45.525471
 30
0.0
 10
13.405577
 20
45.255791
 30
0.0
 10
13.559277
 20
45.143851
 30
0.0
 10
13.666377
 20
45.240361
 30
0.0
 10
13.764677
 20
45.287221
 30
0.0
 10
13.781177
 20
44.691821
 30
0.0
 10
13.735677
 20
44.259201
 30
0.0
 10
13.561077
 20
44.015571
 30
0.0
 10
13.403577
 20
43.847471
 30
0.0
 10
13.707877
 20
43.935471
 30
0.0
  0
LWPOLYLINE
  5
160
100
AcDbEntity
  8
Layer_1
 62
7
100
AcDbPolyline
 90
13
 70
1
 10
13.547077
 20
44.423111
 30
0.0
 10
13.402377
 20
44.852291
 30
0.0
 10
13.020277
 20
45.014951
 30
0.0
 10
12.780677
 20
44.764481
 30
0.0
 10
12.804777
 20
44.552121
 30
0.0
 10
13.062077
 20
44.661781
 30
0.0
 10
13.381277
 20
44.661781
 30
0.0
 10
13.445377
 20
44.564111
 30
0.0
 10
13.339577
 20
44.539061
 30
0.0
 10
13.120277
 20
44.440951
 30
0.0
 10
13.116677
 20
44.232961
 30
0.0
 10
13.360577
 20
44.168641
 30
0.0
 10
13.547077
 20
44.423121
 30
0.0
  0
LWPOLYLINE
  5
161
100
AcDbEntity
  8
Layer_1
 62
7
100
AcDbPolyline
 90
27
 70
1
 10
20.594576
 20
36.706693
 30
0.0
 10
20.331076
 20
37.604192
 30
0.0
 10
20.081876
 20
38.310592
 30
0.0
 10
20.163376
 20
38.519692
 30
0.0
 10
22.074776
 20
39.082092
 30
0.0
 10
22.223076
 20
38.404992
 30
0.0
 10
22.375976
 20
37.487792
 30
0.0
 10
22.685876
 20
37.325693
 30
0.0
 10
23.035276
 20
37.431692
 30
0.0
 10
22.979876
 20
38.389092
 30
0.0
 10
22.913576
 20
39.294892
 30
0.0
 10
23.801375
 20
39.450992
 30
0.0
 10
24.638375
 20
39.639492
 30
0.0
 10
24.885075
 20
39.962592
 30
0.0
 10
24.181975
 20
39.985892
 30
0.0
 10
22.630876
 20
39.764092
 30
0.0
 10
20.947876
 20
39.326592
 30
0.0
 10
19.319076
 20
38.725792
 30
0.0
 10
17.270977
 20
37.537792
 30
0.0
 10
17.500977
 20
37.353293
 30
0.0
 10
17.926776
 20
37.395392
 30
0.0
 10
19.311076
 20
38.127192
 30
0.0
 10
19.416876
 20
37.873392
 30
0.0
 10
19.727676
 20
37.060893
 30
0.0
 10
19.978976
 20
36.595193
 30
0.0
 10
20.250876
 20
36.570393
 30
0.0
 10
20.594576
 20
36.706693
 30
0.0
  0
LWPOLYLINE
  5
162
100
AcDbEntity
  8
Layer_1
 62
7
100
AcDbPolyline
 90
27
 70
1
 10
30.415574
 20
37.329993
 30
0.0
 10
30.781574
 20
38.150492
 30
0.0
 10
31.851174
 20
37.670892
 30
0.0
 10
33.075174
 20
37.173693
 30
0.0
 10
33.300574
 20
37.320893
 30
0.0
 10
32.423274
 20
37.933792
 30
0.0
 10
30.846074
 20
38.756392
 30
0.0
 10
28.513475
 20
39.564092
 30
0.0
 10
26.058175
 20
39.988392
 30
0.0
 10
25.288975
 20
39.969392
 30
0.0
 10
25.522175
 20
39.648292
 30
0.0
 10
26.247175
 20
39.483792
 30
0.0
 10
27.067675
 20
39.342692
 30
0.0
 10
27.039675
 20
38.331892
 30
0.0
 10
26.949575
 20
37.308393
 30
0.0
 10
27.331275
 20
37.225493
 30
0.0
 10
27.661775
 20
37.225493
 30
0.0
 10
27.787275
 20
38.152292
 30
0.0
 10
27.952575
 20
39.145792
 30
0.0
 10
29.864174
 20
38.620492
 30
0.0
 10
30.046774
 20
38.493392
 30
0.0
 10
29.938074
 20
38.153992
 30
0.0
 10
29.587674
 20
37.302693
 30
0.0
 10
29.397875
 20
36.828793
 30
0.0
 10
29.671174
 20
36.680793
 30
0.0
 10
30.032374
 20
36.557793
 30
0.0
 10
30.415574
 20
37.329993
 30
0.0
  0
LWPOLYLINE
  5
163
100
AcDbEntity
  8
Layer_1
 62
7
100
AcDbPolyline
 90
7
 70
1
 10
30.550274
 20
39.603692
 30
0.0
 10
30.424774
 20
40.405992
 30
0.0
 10
30.366174
 20
41.034092
 30
0.0
 10
29.804574
 20
40.507692
 30
0.0
 10
29.219675
 20
39.930892
 30
0.0
 10
30.531174
 20
39.444592
 30
0.0
 10
30.550274
 20
39.603692
 30
0.0
  0
LWPOLYLINE
  5
164
100
AcDbEntity
  8
Layer_1
 62
7
100
AcDbPolyline
 90
6
 70
1
 10
20.957276
 20
39.864992
 30
0.0
 10
21.287376
 20
39.984692
 30
0.0
 10
20.983376
 20
40.275892
 30
0.0
 10
20.641476
 20
40.524392
 30
0.0
 10
20.547476
 20
39.737792
 30
0.0
 10
20.957276
 20
39.864992
 30
0.0
  0
LWPOLYLINE
  5
165
100
AcDbEntity
  8
Layer_1
 62
7
100
AcDbPolyline
 90
28
 70
1
 10
27.840475
 20
40.766192
 30
0.0
 10
29.069375
 20
41.708192
 30
0.0
 10
29.974774
 20
42.936102
 30
0.0
 10
30.518974
 20
44.608771
 30
0.0
 10
30.531374
 20
46.239141
 30
0.0
 10
30.020574
 20
47.772581
 30
0.0
 10
28.995275
 20
49.154470
 30
0.0
 10
28.289075
 20
49.754230
 30
0.0
 10
27.514275
 20
50.211570
 30
0.0
 10
26.688375
 20
50.524610
 30
0.0
 10
25.829175
 20
50.691470
 30
0.0
 10
24.954275
 20
50.710250
 30
0.0
 10
24.081275
 20
50.579060
 30
0.0
 10
23.227776
 20
50.296030
 30
0.0
 10
22.411476
 20
49.859260
 30
0.0
 10
21.167976
 20
48.736991
 30
0.0
 10
20.338876
 20
47.317501
 30
0.0
 10
19.974676
 20
45.728171
 30
0.0
 10
20.125976
 20
44.096391
 30
0.0
 10
20.530476
 20
43.073412
 30
0.0
 10
21.156376
 20
42.105532
 30
0.0
 10
21.930876
 20
41.285692
 30
0.0
 10
22.781176
 20
40.706792
 30
0.0
 10
23.487276
 20
40.471492
 30
0.0
 10
25.023275
 20
40.436492
 30
0.0
 10
26.769275
 20
40.383992
 30
0.0
 10
27.081775
 20
40.413292
 30
0.0
 10
27.840475
 20
40.766192
 30
0.0
  0
LWPOLYLINE
  5
166
100
AcDbEntity
  8
Layer_1
 62
7
100
AcDbPolyline
 90
8
 70
1
 10
22.114276
 20
44.081331
 30
0.0
 10
22.831276
 20
45.326741
 30
0.0
 10
22.894476
 20
44.840711
 30
0.0
 10
23.214676
 20
43.909101
 30
0.0
 10
23.865975
 20
43.166191
 30
0.0
 10
24.299475
 20
42.835912
 30
0.0
 10
22.848376
 20
42.835912
 30
0.0
 10
21.397276
 20
42.835912
 30
0.0
  0
LWPOLYLINE
  5
167
100
AcDbEntity
  8
Layer_1
 62
7
100
AcDbPolyline
 90
11
 70
1
 10
26.337775
 20
42.952332
 30
0.0
 10
26.911375
 20
43.417921
 30
0.0
 10
27.363875
 20
43.988041
 30
0.0
 10
27.580675
 20
44.839621
 30
0.0
 10
27.640175
 20
45.390641
 30
0.0
 10
28.233275
 20
44.338691
 30
0.0
 10
28.971175
 20
43.061332
 30
0.0
 10
29.115875
 20
42.835912
 30
0.0
 10
27.626575
 20
42.838912
 30
0.0
 10
26.497175
 20
42.864792
 30
0.0
 10
26.337775
 20
42.952292
 30
0.0
  0
LWPOLYLINE
  5
168
100
AcDbEntity
  8
Layer_1
 62
7
100
AcDbPolyline
 90
14
 70
1
 10
24.409175
 20
43.199671
 30
0.0
 10
24.019475
 20
43.390651
 30
0.0
 10
24.083575
 20
43.637391
 30
0.0
 10
24.182175
 20
43.662441
 30
0.0
 10
24.258875
 20
43.561031
 30
0.0
 10
24.673675
 20
43.441071
 30
0.0
 10
24.914675
 20
43.199981
 30
0.0
 10
25.000275
 20
43.210741
 30
0.0
 10
25.205975
 20
43.283081
 30
0.0
 10
25.514575
 20
43.328621
 30
0.0
 10
25.881675
 20
43.293031
 30
0.0
 10
25.864375
 20
43.115622
 30
0.0
 10
25.173675
 20
43.065512
 30
0.0
 10
24.409175
 20
43.199681
 30
0.0
  0
LWPOLYLINE
  5
169
100
AcDbEntity
  8
Layer_1
 62
7
100
AcDbPolyline
 90
10
 70
1
 10
26.051675
 20
43.385401
 30
0.0
 10
26.212075
 20
43.650581
 30
0.0
 10
26.584075
 20
43.952081
 30
0.0
 10
26.871975
 20
44.051601
 30
0.0
 10
26.927575
 20
43.929271
 30
0.0
 10
26.760275
 20
43.701531
 30
0.0
 10
26.401375
 20
43.437021
 30
0.0
 10
26.287675
 20
43.336831
 30
0.0
 10
26.193675
 20
43.240611
 30
0.0
 10
26.051675
 20
43.385401
 30
0.0
  0
LWPOLYLINE
  5
16a
100
AcDbEntity
  8
Layer_1
 62
7
100
AcDbPolyline
 90
14
 70
1
 10
25.331175
 20
43.544771
 30
0.0
 10
25.389775
 20
43.750491
 30
0.0
 10
25.861875
 20
43.860331
 30
0.0
 10
25.987075
 20
43.982431
 30
0.0
 10
26.297975
 20
44.366471
 30
0.0
 10
26.486075
 20
44.639251
 30
0.0
 10
26.484475
 20
44.785141
 30
0.0
 10
26.540875
 20
45.035601
 30
0.0
 10
26.618675
 20
45.140171
 30
0.0
 10
26.722675
 20
44.979551
 30
0.0
 10
26.666975
 20
44.604631
 30
0.0
 10
26.256875
 20
43.853711
 30
0.0
 10
25.719075
 20
43.574511
 30
0.0
 10
25.331275
 20
43.544771
 30
0.0
  0
LWPOLYLINE
  5
16b
100
AcDbEntity
  8
Layer_1
 62
7
100
AcDbPolyline
 90
10
 70
1
 10
24.350875
 20
43.800201
 30
0.0
 10
24.024175
 20
44.200251
 30
0.0
 10
23.993675
 20
44.294941
 30
0.0
 10
23.784375
 20
44.764491
 30
0.0
 10
23.912775
 20
44.804871
 30
0.0
 10
24.233075
 20
44.398601
 30
0.0
 10
24.748575
 20
43.849721
 30
0.0
 10
24.977575
 20
43.649971
 30
0.0
 10
24.859975
 20
43.543111
 30
0.0
 10
24.350875
 20
43.800211
 30
0.0
  0
LWPOLYLINE
  5
16c
100
AcDbEntity
  8
Layer_1
 62
7
100
AcDbPolyline
 90
10
 70
1
 10
23.487976
 20
44.098941
 30
0.0
 10
23.306676
 20
44.826581
 30
0.0
 10
23.327676
 20
45.082921
 30
0.0
 10
23.430176
 20
45.140181
 30
0.0
 10
23.543876
 20
44.962651
 30
0.0
 10
23.448576
 20
44.838091
 30
0.0
 10
23.437976
 20
44.762951
 30
0.0
 10
23.922975
 20
43.720971
 30
0.0
 10
23.744475
 20
43.677251
 30
0.0
 10
23.487976
 20
44.098941
 30
0.0
  0
LWPOLYLINE
  5
16d
100
AcDbEntity
  8
Layer_1
 62
7
100
AcDbPolyline
 90
6
 70
1
 10
24.935175
 20
44.038141
 30
0.0
 10
24.938475
 20
44.238411
 30
0.0
 10
25.092375
 20
44.284331
 30
0.0
 10
25.183175
 20
44.082941
 30
0.0
 10
25.091275
 20
43.937951
 30
0.0
 10
24.935075
 20
44.038141
 30
0.0
  0
LWPOLYLINE
  5
16e
100
AcDbEntity
  8
Layer_1
 62
7
100
AcDbPolyline
 90
5
 70
1
 10
25.303575
 20
44.093881
 30
0.0
 10
25.427875
 20
44.246591
 30
0.0
 10
25.563075
 20
44.158191
 30
0.0
 10
25.433075
 20
44.000751
 30
0.0
 10
25.303575
 20
44.093881
 30
0.0
  0
LWPOLYLINE
  5
16f
100
AcDbEntity
  8
Layer_1
 62
7
100
AcDbPolyline
 90
8
 70
1
 10
25.743375
 20
44.227631
 30
0.0
 10
25.886675
 20
44.783441
 30
0.0
 10
26.196375
 20
45.240371
 30
0.0
 10
26.284975
 20
45.145341
 30
0.0
 10
26.196775
 20
44.995721
 30
0.0
 10
26.147475
 20
44.764391
 30
0.0
 10
26.003275
 20
44.349791
 30
0.0
 10
25.743275
 20
44.227631
 30
0.0
  0
LWPOLYLINE
  5
170
100
AcDbEntity
  8
Layer_1
 62
7
100
AcDbPolyline
 90
11
 70
1
 10
24.339175
 20
44.560591
 30
0.0
 10
24.245375
 20
45.152651
 30
0.0
 10
24.440375
 20
45.714701
 30
0.0
 10
24.705275
 20
45.860911
 30
0.0
 10
24.738175
 20
45.652211
 30
0.0
 10
24.591775
 20
45.586481
 30
0.0
 10
24.533875
 20
45.200751
 30
0.0
 10
24.663475
 20
44.577291
 30
0.0
 10
24.720675
 20
44.329671
 30
0.0
 10
24.562975
 20
44.238511
 30
0.0
 10
24.339175
 20
44.560591
 30
0.0
  0
LWPOLYLINE
  5
171
100
AcDbEntity
  8
Layer_1
 62
7
100
AcDbPolyline
 90
7
 70
1
 10
26.954775
 20
44.312911
 30
0.0
 10
26.918775
 20
44.844541
 30
0.0
 10
27.060175
 20
45.284721
 30
0.0
 10
27.189775
 20
45.167851
 30
0.0
 10
27.191775
 20
44.639251
 30
0.0
 10
27.096675
 20
44.317921
 30
0.0
 10
26.954775
 20
44.312911
 30
0.0
  0
LWPOLYLINE
  5
172
100
AcDbEntity
  8
Layer_1
 62
7
100
AcDbPolyline
 90
5
 70
1
 10
23.682875
 20
45.086941
 30
0.0
 10
23.833075
 20
45.176411
 30
0.0
 10
23.983375
 20
45.029281
 30
0.0
 10
23.833075
 20
44.939811
 30
0.0
 10
23.682875
 20
45.086941
 30
0.0
  0
LWPOLYLINE
  5
173
100
AcDbEntity
  8
Layer_1
 62
7
100
AcDbPolyline
 90
6
 70
1
 10
23.783175
 20
45.340441
 30
0.0
 10
23.697775
 20
45.425951
 30
0.0
 10
23.815175
 20
45.497811
 30
0.0
 10
24.024275
 20
45.523421
 30
0.0
 10
24.000375
 20
45.367981
 30
0.0
 10
23.783175
 20
45.340441
 30
0.0
  0
LWPOLYLINE
  5
174
100
AcDbEntity
  8
Layer_1
 62
7
100
AcDbPolyline
 90
6
 70
1
 10
26.434675
 20
45.450811
 30
0.0
 10
26.473175
 20
45.774241
 30
0.0
 10
26.684675
 20
45.600801
 30
0.0
 10
26.778975
 20
45.289471
 30
0.0
 10
26.645075
 20
45.240361
 30
0.0
 10
26.434675
 20
45.450811
 30
0.0
  0
LWPOLYLINE
  5
175
100
AcDbEntity
  8
Layer_1
 62
7
100
AcDbPolyline
 90
6
 70
1
 10
25.782475
 20
45.598851
 30
0.0
 10
25.712075
 20
45.884661
 30
0.0
 10
25.879675
 20
45.896021
 30
0.0
 10
26.096575
 20
45.624811
 30
0.0
 10
26.047975
 20
45.408651
 30
0.0
 10
25.782475
 20
45.598851
 30
0.0
  0
LWPOLYLINE
  5
176
100
AcDbEntity
  8
Layer_1
 62
7
100
AcDbPolyline
 90
6
 70
1
 10
23.334776
 20
45.654651
 30
0.0
 10
23.422876
 20
45.906521
 30
0.0
 10
23.566576
 20
45.901501
 30
0.0
 10
23.608176
 20
45.639571
 30
0.0
 10
23.426476
 20
45.440731
 30
0.0
 10
23.334776
 20
45.654651
 30
0.0
  0
LWPOLYLINE
  5
177
100
AcDbEntity
  8
Layer_1
 62
7
100
AcDbPolyline
 90
19
 70
1
 10
26.972375
 20
45.628731
 30
0.0
 10
27.027675
 20
45.707851
 30
0.0
 10
26.880775
 20
45.772411
 30
0.0
 10
26.719575
 20
45.849121
 30
0.0
 10
26.786275
 20
45.988971
 30
0.0
 10
26.863475
 20
46.106511
 30
0.0
 10
26.752675
 20
46.083511
 30
0.0
 10
26.594375
 20
46.114891
 30
0.0
 10
26.576375
 20
46.367451
 30
0.0
 10
26.513075
 20
46.429521
 30
0.0
 10
25.786675
 20
46.798501
 30
0.0
 10
25.927075
 20
46.985831
 30
0.0
 10
26.264375
 20
46.854651
 30
0.0
 10
26.672975
 20
46.488691
 30
0.0
 10
27.027275
 20
45.971681
 30
0.0
 10
27.177475
 20
45.605741
 30
0.0
 10
27.013975
 20
45.542451
 30
0.0
 10
26.904375
 20
45.561691
 30
0.0
 10
26.972375
 20
45.628741
 30
0.0
  0
LWPOLYLINE
  5
178
100
AcDbEntity
  8
Layer_1
 62
7
100
AcDbPolyline
 90
17
 70
1
 10
24.036275
 20
45.771431
 30
0.0
 10
24.178575
 20
46.189561
 30
0.0
 10
24.527775
 20
46.411411
 30
0.0
 10
24.766075
 20
46.509671
 30
0.0
 10
25.316175
 20
46.637181
 30
0.0
 10
25.989575
 20
46.417531
 30
0.0
 10
26.358075
 20
46.069001
 30
0.0
 10
26.361075
 20
45.970861
 30
0.0
 10
26.224075
 20
45.960971
 30
0.0
 10
26.049775
 20
46.162991
 30
0.0
 10
25.924575
 20
46.273661
 30
0.0
 10
25.611375
 20
46.297971
 30
0.0
 10
24.885075
 20
46.340121
 30
0.0
 10
24.539175
 20
46.101521
 30
0.0
 10
24.153975
 20
45.753131
 30
0.0
 10
24.107875
 20
45.649911
 30
0.0
 10
24.036275
 20
45.771421
 30
0.0
  0
LWPOLYLINE
  5
179
100
AcDbEntity
  8
Layer_1
 62
7
100
AcDbPolyline
 90
6
 70
1
 10
24.951875
 20
45.908271
 30
0.0
 10
24.907175
 20
46.079011
 30
0.0
 10
25.185575
 20
46.142031
 30
0.0
 10
25.486175
 20
45.991751
 30
0.0
 10
25.268175
 20
45.843961
 30
0.0
 10
24.951875
 20
45.908261
 30
0.0
  0
LWPOLYLINE
  5
17a
100
AcDbEntity
  8
Layer_1
 62
7
100
AcDbPolyline
 90
12
 70
1
 10
23.577876
 20
46.046921
 30
0.0
 10
23.563476
 20
46.140501
 30
0.0
 10
23.640976
 20
46.228831
 30
0.0
 10
23.772975
 20
46.483621
 30
0.0
 10
23.936675
 20
46.596611
 30
0.0
 10
24.016675
 20
46.500221
 30
0.0
 10
23.963575
 20
46.280041
 30
0.0
 10
23.933275
 20
46.342401
 30
0.0
 10
23.903075
 20
46.404761
 30
0.0
 10
23.844275
 20
46.199051
 30
0.0
 10
23.805675
 20
46.011801
 30
0.0
 10
23.577876
 20
46.046921
 30
0.0
  0
LWPOLYLINE
  5
17b
100
AcDbEntity
  8
Layer_1
 62
7
100
AcDbPolyline
 90
17
 70
1
 10
24.147875
 20
46.692031
 30
0.0
 10
24.321975
 20
46.899841
 30
0.0
 10
24.694475
 20
46.887371
 30
0.0
 10
24.748575
 20
46.921111
 30
0.0
 10
24.793675
 20
47.094061
 30
0.0
 10
25.039675
 20
47.040061
 30
0.0
 10
25.185575
 20
47.031461
 30
0.0
 10
25.285775
 20
47.143911
 30
0.0
 10
25.385975
 20
46.993631
 30
0.0
 10
25.195475
 20
46.846751
 30
0.0
 10
24.951375
 20
46.968581
 30
0.0
 10
24.892975
 20
46.906801
 30
0.0
 10
24.842075
 20
46.774701
 30
0.0
 10
24.691175
 20
46.770501
 30
0.0
 10
24.443875
 20
46.682001
 30
0.0
 10
24.296575
 20
46.548091
 30
0.0
 10
24.147875
 20
46.692051
 30
0.0
  0
LWPOLYLINE
  5
17c
100
AcDbEntity
  8
Layer_1
 62
7
100
AcDbPolyline
 90
5
 70
1
 10
25.586375
 20
46.893421
 30
0.0
 10
25.683375
 20
47.043701
 30
0.0
 10
25.722775
 20
46.893421
 30
0.0
 10
25.625675
 20
46.743141
 30
0.0
 10
25.586375
 20
46.893421
 30
0.0
  0
LWPOLYLINE
  5
17d
100
AcDbEntity
  8
Layer_1
 62
7
100
AcDbPolyline
 90
7
 70
1
 10
23.819375
 20
47.032541
 30
0.0
 10
25.293675
 20
49.376260
 30
0.0
 10
26.688375
 20
46.984001
 30
0.0
 10
26.312675
 20
47.172061
 30
0.0
 10
25.292675
 20
47.402871
 30
0.0
 10
24.211475
 20
47.182821
 30
0.0
 10
23.819375
 20
47.032541
 30
0.0
  0
ENDSEC
  0
SECTION
  2
OBJECTS
  0
DICTIONARY
  5
C
330
0
100
AcDbDictionary
  3
ACAD_GROUP
350
D
  3
ACAD_MLINESTYLE
350
17
  0
DICTIONARY
  5
D
330
C
100
AcDbDictionary
  0
DICTIONARY
  5
1A
330
C
100
AcDbDictionary
  0
DICTIONARY
  5
17
330
C
100
AcDbDictionary
  3
STANDARD
350
18
  0
DICTIONARY
  5
19
330
C
100
AcDbDictionary
  0
ENDSEC
  0
EOF
