<?xml version="1.0" encoding="UTF-8" standalone="no"?>
<!-- Created with Inkscape (http://www.inkscape.org/) -->

<svg
   width="25.752502mm"
   height="23.999996mm"
   viewBox="0 0 25.752502 23.999996"
   version="1.1"
   id="svg66"
   inkscape:version="1.1.1 (3bf5ae0d25, 2021-09-20)"
   sodipodi:docname="squirrel3.svg"
   xmlns:inkscape="http://www.inkscape.org/namespaces/inkscape"
   xmlns:sodipodi="http://sodipodi.sourceforge.net/DTD/sodipodi-0.dtd"
   xmlns="http://www.w3.org/2000/svg"
   xmlns:svg="http://www.w3.org/2000/svg">
  <sodipodi:namedview
     id="namedview68"
     pagecolor="#ffffff"
     bordercolor="#666666"
     borderopacity="1.0"
     inkscape:pageshadow="2"
     inkscape:pageopacity="0.0"
     inkscape:pagecheckerboard="0"
     inkscape:document-units="mm"
     showgrid="false"
     inkscape:zoom="6.2217172"
     inkscape:cx="88.078578"
     inkscape:cy="84.221122"
     inkscape:window-width="2560"
     inkscape:window-height="1346"
     inkscape:window-x="-11"
     inkscape:window-y="-11"
     inkscape:window-maximized="1"
     inkscape:current-layer="layer6"
     fit-margin-top="0"
     fit-margin-left="0"
     fit-margin-right="0"
     fit-margin-bottom="0" />
  <defs
     id="defs63" />
  <g
     inkscape:groupmode="layer"
     id="layer6"
     inkscape:label="F.Mask">
    <path
       style="fill:#644e00;fill-opacity:1;stroke-width:0.0234032"
       d="M 5.6542902,23.965047 C 5.3859335,23.928586 5.2103863,23.875475 4.9503022,23.752053 4.6057542,23.588551 4.456735,23.378809 4.4372947,23.030005 c -0.00937,-0.168014 -0.00395,-0.201462 0.049691,-0.307329 0.2217025,-0.437508 1.019422,-0.614483 2.7742043,-0.61546 L 7.8551934,22.106951 7.4586336,21.701616 C 6.8884836,21.118848 6.7488289,20.942922 6.5136727,20.511222 6.2849859,20.091403 5.8877269,19.204898 5.5507589,18.362434 c -0.4409,-1.102308 -0.7112761,-1.944153 -0.9563886,-2.977823 -0.166801,-0.703422 -0.2269752,-0.9065 -0.2739465,-0.924525 -0.099348,-0.03812 -0.632386,0.198154 -0.9965335,0.441728 -0.2321802,0.155303 -0.355112,0.211067 -0.5576025,0.252941 -0.3307254,0.06839 -0.5141273,-0.117806 -0.4316509,-0.438232 0.041477,-0.161139 0.1235978,-0.312677 0.2357586,-0.435043 0.045727,-0.04989 0.08314,-0.106266 0.08314,-0.125289 0,-0.05418 0.2976643,-0.336852 0.4914669,-0.466718 0.2862087,-0.191786 0.5122897,-0.305383 0.7847064,-0.394292 0.1412057,-0.04608 0.2949549,-0.108899 0.3416648,-0.139587 0.1913401,-0.125713 0.2393848,-0.402929 0.204896,-1.182242 C 4.4103846,10.484544 4.1408843,9.6347023 3.4913175,8.8673983 3.2135578,8.5392932 2.8686516,8.245007 2.302486,7.8530419 1.6329841,7.3895359 1.2549942,7.0665005 0.93482875,6.6842224 0.51064107,6.1777401 0.25133182,5.626644 0.11508831,4.9420737 0.01841521,4.4563226 -0.00155176,4.1757063 9.0816739e-5,3.3258582 L 0.0016299,2.5301487 0.06164359,2.3751403 C 0.13492128,2.1858754 0.2191331,2.0491529 0.30312069,1.9830877 0.39498946,1.9108237 0.575613,1.9187499 1.062115,2.0163943 1.780638,2.1606052 1.846881,2.157397 2.7705508,1.9336552 3.6819225,1.7128934 4.1649165,1.6463731 4.6816789,1.6704451 L 4.896072,1.6804359 5.3146381,1.4009594 C 5.7378386,1.1183887 6.1715527,0.88856089 6.5852773,0.72764426 6.7075589,0.68008256 6.856411,0.62187199 6.9160585,0.59828552 l 0.1084497,-0.0428821 0.042087,0.2150672 C 7.1167252,1.0266327 7.1359682,1.8511616 7.1069802,2.5009101 7.0901672,2.8777749 7.0920062,2.9163276 7.1268062,2.916317 7.1479032,2.9163104 7.3531194,2.905106 7.582841,2.891422 8.0523508,2.863452 8.495996,2.887512 8.9436653,2.965216 9.2516362,3.018673 9.5539151,3.1092903 9.630129,3.1710049 9.679632,3.2110899 9.681623,3.2215099 9.65608,3.3067655 9.640863,3.3575555 9.576426,3.4856098 9.5128841,3.5913317 9.2267801,4.0673653 8.841388,4.5325868 8.4949971,4.8200653 l -0.247863,0.2057066 0.198189,0.3904168 c 0.2341678,0.4612902 0.346521,0.6166611 0.737548,1.0199278 0.4788093,0.4937981 1.0654109,0.9894617 1.9600719,1.6562105 0.228535,0.1703156 0.468177,0.3590207 0.532536,0.4193435 0.149796,0.1404031 0.564882,0.4488463 0.689774,0.5125617 0.240909,0.1229026 0.984748,0.7272017 1.425048,1.1577158 0.90353,0.883452 1.674513,1.965767 2.284711,3.207304 0.492067,1.001181 0.772661,1.814535 0.984998,2.855194 0.05515,0.270307 0.10101,0.479131 0.101902,0.464053 0.0072,-0.121961 -0.08021,-0.956734 -0.126306,-1.205866 C 16.784054,14.143038 16.044621,12.591899 14.964452,11.157895 14.643198,10.731404 14.383912,10.425818 13.889061,9.890469 13.513874,9.4845792 13.363333,9.2831555 13.27651,9.0708838 13.233634,8.9660602 13.222146,8.8841 13.213602,8.6221358 c -0.01087,-0.3329876 0.0045,-0.5163072 0.102772,-1.2241111 0.29194,-2.1034011 0.978359,-3.8619607 2.025743,-5.189826 0.248196,-0.3146619 0.837767,-0.8977588 1.126168,-1.1138025 0.611117,-0.45779543 1.231615,-0.76287919 1.888816,-0.92868639 0.836183,-0.21096208 2.707214,-0.22257819 3.686008,-0.0228846 0.244716,0.0499274 0.809731,0.23837371 1.079165,0.35992824 1.710302,0.77159765 2.630095,2.21777875 2.630229,4.13547575 0,1.1233753 -0.337439,2.1672558 -0.903153,2.7933025 -0.247547,0.2739478 -0.633028,0.5265527 -0.945861,0.6198173 -0.111534,0.033252 -0.603542,0.1306842 -0.659923,0.1306842 -0.01101,0 0.05801,-0.1132143 0.153385,-0.2515847 C 23.70308,7.4863125 23.799939,7.2400191 23.781492,6.9526123 23.748711,6.4418046 23.159121,5.8020599 22.534578,5.5996238 22.067954,5.4483755 21.654817,5.5443799 21.310427,5.8840931 20.82899,6.3589912 20.603972,6.982505 20.633813,7.758952 c 0.02648,0.689051 0.22255,1.4720086 0.90299,3.60592 0.570458,1.788995 0.730266,2.323675 0.916328,3.065823 0.538593,2.148304 0.490863,3.802436 -0.152282,5.277429 -0.802113,1.839571 -2.455266,3.219448 -4.474122,3.734519 -1.068568,0.272624 -2.0225,0.297981 -3.038618,0.08077 -0.333691,-0.07133 -0.679639,-0.12283 -1.029742,-0.153284 -0.450681,-0.0392 -2.020495,-0.05439 -2.691372,-0.02605 -0.806862,0.0341 -0.96305,0.06038 -1.7083705,0.28749 -0.5315362,0.161965 -1.2745214,0.289339 -2.0232716,0.346862 -0.4424431,0.03399 -1.3879864,0.0265 -1.6810627,-0.01332 z m 7.5127668,-5.572221 c 0.08351,-0.08789 0.166902,-0.297436 0.217014,-0.545328 0.05626,-0.278273 0.10631,-0.367043 0.241209,-0.42777 0.127505,-0.0574 0.501617,-0.08369 0.641456,-0.04508 0.06507,0.01797 0.09584,0.0161 0.127995,-0.0077 0.04046,-0.03002 0.03984,-0.03616 -0.01398,-0.138917 -0.116637,-0.222667 -0.504394,-0.554028 -0.686739,-0.586857 -0.04827,-0.0087 -0.08776,-0.02442 -0.08776,-0.03495 0,-0.01054 0.07915,-0.09027 0.175899,-0.177203 0.115447,-0.103736 0.19569,-0.198807 0.233489,-0.276637 0.109562,-0.225597 0.09919,-0.562225 -0.01787,-0.579532 -0.149054,-0.02204 -0.649723,0.09085 -0.805219,0.181562 -0.130386,0.07606 -0.186148,0.151898 -0.205225,0.279111 -0.0087,0.05807 -0.02348,0.10559 -0.03283,0.10559 -0.0094,0 -0.06926,-0.05317 -0.133135,-0.118158 -0.150379,-0.152997 -0.303656,-0.250368 -0.481014,-0.305568 -0.205506,-0.06396 -0.297495,-0.05953 -0.326096,0.01569 -0.05546,0.145868 -0.01121,0.559871 0.08403,0.786145 0.07164,0.170201 0.05528,0.211625 -0.104538,0.264708 -0.139532,0.04634 -0.278993,0.187249 -0.417746,0.422067 -0.115113,0.194808 -0.204625,0.453847 -0.184516,0.533967 0.02086,0.08312 0.126601,0.118072 0.313884,0.103746 0.195877,-0.01498 0.311031,-0.05507 0.518825,-0.180623 0.08963,-0.05415 0.173968,-0.09165 0.187427,-0.08334 0.01346,0.0083 0.02447,0.05541 0.02447,0.104645 0,0.172178 0.335267,0.727086 0.487481,0.806838 0.07364,0.03858 0.140355,0.01218 0.243491,-0.09636 z m -0.489651,-1.355794 c -0.03274,-0.08533 0.128218,-0.266083 0.236939,-0.266083 0.101458,0 0.04043,0.180449 -0.08739,0.258383 -0.09143,0.05575 -0.130337,0.05775 -0.149546,0.0077 z m 1.415862,-4.225894 c 0.06053,-0.120781 0.07623,-0.320892 0.04168,-0.531082 l -0.02074,-0.12619 0.19082,0.01665 c 0.238987,0.02085 0.396867,-0.02027 0.53637,-0.139676 0.146052,-0.125015 0.135999,-0.167872 -0.07955,-0.339161 -0.231104,-0.18365 -0.376298,-0.256663 -0.510407,-0.256663 -0.130451,0 -0.143449,-0.02114 -0.165456,-0.269137 -0.02001,-0.22551 -0.07997,-0.377687 -0.160936,-0.40847 -0.166018,-0.06312 -0.457114,0.153976 -0.574896,0.428751 -0.02557,0.05964 -0.05736,0.108437 -0.07065,0.108437 -0.01329,0 -0.06553,-0.03737 -0.11608,-0.08304 -0.118687,-0.107228 -0.205923,-0.131538 -0.365896,-0.101966 -0.153854,0.02844 -0.374712,0.102772 -0.44795,0.15076 -0.153111,0.100322 0.03328,0.371319 0.338096,0.491558 0.131522,0.05188 0.130543,0.102696 -0.0076,0.394315 -0.1934,0.40827 -0.166702,0.575967 0.0917,0.575967 0.199982,0 0.528734,-0.130131 0.619154,-0.245081 0.0256,-0.03254 0.05613,-0.05916 0.06786,-0.05916 0.01173,0 0.135438,0.11623 0.274913,0.258287 0.139474,0.142059 0.265272,0.2548 0.279551,0.250534 0.01428,-0.0043 0.05029,-0.0563 0.08002,-0.115632 z m -0.715847,-0.944492 c -0.108203,-0.07579 -0.04135,-0.174198 0.118345,-0.174198 0.148964,0 0.201087,0.139431 0.07066,0.189018 -0.08081,0.03073 -0.129418,0.02692 -0.189005,-0.01482 z M 3.4952647,6.4598928 C 3.661397,6.4105559 3.8446914,6.2289824 3.9475314,6.0118719 4.0138288,5.8719091 4.0225976,5.8300434 4.0223946,5.6544152 4.0221293,5.4103853 3.9731386,5.2893867 3.8009548,5.1073263 3.6265288,4.9228975 3.4494504,4.8472528 3.191809,4.8471122 3.0245197,4.847018 2.9714704,4.8570366 2.8582521,4.9100966 2.6708102,4.9979372 2.4822298,5.1833717 2.390174,5.3703652 2.325336,5.5020684 2.314804,5.5483006 2.314804,5.7012206 c 0,0.1535755 0.010442,0.1989665 0.076735,0.3336327 0.1083316,0.220052 0.3084193,0.38285 0.5366205,0.4366145 0.1450361,0.03417 0.432845,0.028295 0.5671049,-0.01157 z"
       id="path106" />
  </g>
  <g
     inkscape:groupmode="layer"
     id="layer8"
     inkscape:label="F.SilkS">
    <path
       style="fill:#ffffff;fill-opacity:1;stroke-width:0.0234032"
       d="M 6.0330022,17.638338 C 6.0049006,17.603191 5.6283662,16.468155 5.4911541,16.004971 5.3058258,15.379362 5.1414528,14.660373 5.1017988,14.301875 c -0.016947,-0.153212 0.020711,-0.262776 0.09032,-0.262776 0.1186741,0 0.4500762,0.34847 0.6519922,0.685573 0.2385674,0.398292 0.2650145,0.590022 0.2615436,1.896125 -0.00257,0.971104 -0.011371,1.094186 -0.072652,1.017541 z M 5.1592757,12.632642 C 5.1190233,12.55743 5.091613,12.199147 5.0909111,11.739066 5.0891863,10.608663 4.8577093,9.6532802 4.4224614,8.9801747 4.3613982,8.8857412 4.2112817,8.6768343 4.0888688,8.5159363 3.8783803,8.2392752 3.8264933,8.1465016 3.8888926,8.1583817 3.9259341,8.165427 4.5241551,8.4978056 4.7145014,8.61709 5.2896839,8.9775423 5.9119916,9.5264662 6.1386723,9.8733242 6.2735266,10.07967 6.3105854,10.210982 6.3244465,10.531579 6.359385,11.339662 5.9696211,12.223873 5.4082107,12.610133 5.28562,12.694479 5.1966728,12.70252 5.1592757,12.632642 Z M 7.8388767,4.6798272 C 7.6749456,4.6098187 7.4124016,4.101329 7.3271921,3.6888039 7.2742356,3.4324242 7.3181831,3.2619347 7.4555358,3.1909073 7.7165924,3.0559096 9.1587719,3.1287707 9.3230268,3.2852571 9.3496596,3.3106308 9.320068,3.3669706 9.1429287,3.6281108 8.9085685,3.9736141 8.6722208,4.2534755 8.4806552,4.412317 8.2262484,4.6232645 7.9631883,4.732915 7.8388767,4.6798272 Z M 0.42287502,2.9514071 c -0.0168583,-0.016857 -0.0174567,-0.2742662 -6.634e-4,-0.2910462 0.006913,-0.00691 0.0538892,0.00167 0.10439639,0.019071 0.14640677,0.050441 0.36089681,-0.00119 0.55247169,-0.1330021 0.1118636,-0.076965 0.1645614,-0.08098 0.2056775,-0.01567 0.062414,0.099137 -0.1514234,0.2937118 -0.40275329,0.366472 -0.15838243,0.045853 -0.43481931,0.078471 -0.45911562,0.054174 z"
       id="path352" />
  </g>
  <g
     inkscape:groupmode="layer"
     id="layer7"
     inkscape:label="F.Cu">
    <path
       style="fill:#8f7f00;fill-opacity:1;stroke-width:0.0234032"
       d="m 14.761767,22.412816 c -0.114633,-0.05724 -0.470778,-0.403502 -0.622865,-0.605577 -0.271164,-0.360292 -0.362209,-0.661257 -0.361981,-1.19658 2.65e-4,-0.566553 0.105547,-1.064017 0.41016,-1.937604 0.318014,-0.912025 0.496557,-1.467803 0.563872,-1.755243 0.05807,-0.247981 0.06564,-0.324647 0.06464,-0.65529 -0.0011,-0.332753 -0.0082,-0.400421 -0.06484,-0.60766 -0.212053,-0.776198 -0.894118,-1.639864 -1.238418,-1.568151 -0.172258,0.03588 -0.4727,0.258179 -0.582121,0.430717 -0.08854,0.139609 -0.0873,0.25602 0.0047,0.440072 0.03896,0.07797 0.119026,0.186175 0.177928,0.240467 0.103478,0.09538 0.110972,0.0982 0.22211,0.08346 0.127967,-0.01698 0.162447,0.01334 0.115317,0.101407 -0.06208,0.115995 -0.271794,0.151603 -0.478354,0.08122 -0.152498,-0.05196 -0.367871,-0.25482 -0.434175,-0.408948 -0.106483,-0.247527 -0.10086,-0.638148 0.01264,-0.878069 0.124181,-0.262499 0.434193,-0.499601 0.747396,-0.571624 0.166972,-0.03839 0.558268,-0.03188 0.724763,0.01206 0.662032,0.174747 1.17091,0.734065 1.458988,1.603603 0.29119,0.878926 0.266237,1.711663 -0.0789,2.633157 -0.04652,0.124193 -0.1615,0.39144 -0.25552,0.593883 -0.184835,0.397982 -0.284552,0.651492 -0.264248,0.671796 0.007,0.007 0.08268,-0.0088 0.168112,-0.0352 0.612143,-0.189073 1.169335,0.01925 1.410664,0.527425 0.07604,0.160109 0.08572,0.202557 0.09477,0.415333 0.017,0.399484 -0.08779,0.715213 -0.313004,0.943149 -0.126184,0.127705 -0.267449,0.188101 -0.376151,0.160818 -0.08654,-0.02172 -0.08928,-0.07224 -0.01038,-0.191355 0.0907,-0.136928 0.108138,-0.219473 0.108138,-0.511792 0,-0.390089 -0.07368,-0.53785 -0.298373,-0.598353 -0.127102,-0.03422 -0.35241,0.01896 -0.52885,0.124834 -0.185939,0.111574 -0.436177,0.352181 -0.499049,0.479837 -0.05316,0.10793 -0.05452,0.127082 -0.05452,0.765988 0,0.477302 0.0082,0.67854 0.03036,0.740888 0.01771,0.04994 0.09851,0.152267 0.19395,0.245633 0.112001,0.109564 0.161476,0.17483 0.156871,0.206944 -0.0089,0.06201 -0.100136,0.07041 -0.203604,0.01875 z m 1.259901,-3.664252 c -0.108577,-0.07317 -0.247725,-0.263024 -0.293597,-0.400585 -0.05398,-0.161888 -0.03299,-0.498792 0.0483,-0.774876 0.03411,-0.115845 0.160711,-0.458118 0.281342,-0.760605 0.262593,-0.658464 0.339123,-0.89555 0.357011,-1.105993 0.0074,-0.08699 0.02711,-0.176507 0.04382,-0.198928 0.02759,-0.03703 0.03619,-0.03755 0.09392,-0.0057 0.150486,0.08313 0.216848,0.386697 0.17342,0.793312 -0.04969,0.46524 -0.114144,0.700941 -0.387858,1.418294 -0.09886,0.259086 -0.136975,0.392562 -0.145508,0.509515 -0.01375,0.188474 0.01741,0.238431 0.173184,0.277655 0.12048,0.03034 0.192946,0.09987 0.15944,0.152989 -0.01263,0.02002 -0.06994,0.06153 -0.127372,0.09224 -0.134885,0.07215 -0.271537,0.0731 -0.376101,0.0026 z m -0.442837,-3.712297 -0.05851,-0.04992 0.128336,-0.117575 c 0.240839,-0.220644 0.542731,-0.321244 0.640344,-0.213382 0.05934,0.06557 0.04665,0.135525 -0.04249,0.234194 -0.09228,0.102138 -0.246357,0.16241 -0.468755,0.183365 -0.120906,0.0114 -0.148549,0.0063 -0.198928,-0.03669 z m -4.168702,-0.02348 c -0.120721,-0.09776 -0.03126,-0.355216 0.208918,-0.601209 0.143513,-0.146991 0.276816,-0.218956 0.407016,-0.21973 0.113472,-6.63e-4 0.159301,0.06356 0.159301,0.223286 0,0.152028 -0.108565,0.378422 -0.229124,0.477795 -0.192974,0.159066 -0.432712,0.211682 -0.546111,0.119858 z m 3.909467,-0.679233 c -0.03763,-0.03763 -0.06841,-0.09132 -0.06841,-0.119331 0,-0.140846 0.212533,-0.382808 0.414864,-0.472309 0.09402,-0.04159 0.136652,-0.04614 0.308692,-0.03291 0.109784,0.0084 0.210066,0.0258 0.222848,0.03859 0.02889,0.02889 -0.418083,0.484522 -0.574002,0.585111 -0.137143,0.08848 -0.21615,0.0887 -0.303993,7.96e-4 z m -4.011858,-0.287173 c -0.08907,-0.01137 -0.212156,-0.0533 -0.336602,-0.114678 -0.352786,-0.174004 -0.592266,-0.479086 -0.696367,-0.887127 -0.05074,-0.1989 -0.0495,-0.64783 0.0025,-0.901025 0.04811,-0.23424 0.201694,-0.679648 0.371221,-1.076549 0.239645,-0.56106 0.334073,-1.000631 0.311705,-1.4510002 -0.01934,-0.389338 -0.0972,-0.6252187 -0.342865,-1.038739 -0.164949,-0.2776482 -0.100558,-0.3272226 0.178494,-0.1374216 0.429353,0.2920293 0.748871,0.8534676 0.829186,1.4569931 0.04896,0.3679237 -0.04148,0.8270457 -0.299713,1.5214767 -0.459005,1.234352 -0.386622,1.863985 0.214996,1.87016 0.1986,0.002 0.280941,-0.03827 0.343919,-0.168367 0.07573,-0.15643 0.115694,-0.348185 0.08821,-0.423226 -0.01246,-0.03402 -0.09791,-0.130969 -0.189887,-0.215439 -0.202448,-0.185922 -0.205141,-0.232857 -0.01332,-0.232059 0.06908,2.65e-4 0.164897,0.01942 0.217215,0.04338 0.125152,0.0573 0.304735,0.254345 0.381942,0.419069 0.05427,0.115798 0.06271,0.163767 0.06261,0.356152 -9.2e-5,0.196131 -0.0075,0.236457 -0.06323,0.342201 -0.09959,0.189117 -0.390056,0.461074 -0.616249,0.576975 -0.107749,0.05521 -0.287345,0.07918 -0.443764,0.05923 z m 3.417417,-0.462933 c -0.03284,-0.03628 -0.03842,-0.06749 -0.02598,-0.145276 0.05346,-0.334351 0.364816,-0.630213 0.668021,-0.634787 0.23078,-0.0035 0.269021,0.141567 0.114002,0.432412 -0.132568,0.248723 -0.355512,0.39386 -0.605009,0.39386 -0.07903,0 -0.120779,-0.01278 -0.151037,-0.04621 z m -2.539791,-2.6328 c -0.125822,-0.04088 -0.280841,-0.163037 -0.280841,-0.221301 0,-0.06162 0.237826,-0.275555 0.379789,-0.341648 0.18134,-0.08442 0.387645,-0.08057 0.54464,0.01018 0.15942,0.09215 0.254465,0.19519 0.235415,0.255214 -0.01863,0.05868 -0.228096,0.220933 -0.352431,0.272983 -0.130697,0.05471 -0.39575,0.06708 -0.526572,0.02457 z M 11.966187,9.9536524 c -0.105069,-0.082647 -0.06958,-0.2011663 0.109739,-0.3664534 0.15422,-0.1421557 0.283224,-0.200901 0.441686,-0.2011318 0.219431,-2.654e-4 0.254158,0.072585 0.144741,0.3038724 -0.04578,0.096765 -0.08851,0.1468087 -0.168866,0.1977697 -0.195806,0.1241777 -0.417948,0.1519577 -0.5273,0.065943 z M 4.9830586,4.8876998 C 4.9010015,4.8302256 4.8702914,4.6903347 4.9065502,4.5391913 4.9474898,4.368532 4.9264508,4.2355578 4.8419723,4.13103 4.7196177,3.9796398 4.6494155,3.9538296 4.3243263,3.9407169 4.0849323,3.9310578 4.0298636,3.9220555 4.0092199,3.8891973 3.9893485,3.8575678 3.9989107,3.8310956 4.0557481,3.7604794 4.0950969,3.7115843 4.1613134,3.6484128 4.2028952,3.620099 4.487395,3.4263733 5.0548635,3.6484208 5.2705848,4.0378782 5.3337802,4.1519695 5.339914,4.182722 5.339898,4.3853784 5.3398835,4.5634372 5.3298675,4.6293737 5.2896005,4.7165138 5.1991607,4.9122257 5.098405,4.9684925 4.9830586,4.8876998 Z"
       id="path230" />
  </g>
</svg>
